G04 MADE WITH FRITZING*
G04 WWW.FRITZING.ORG*
G04 DOUBLE SIDED*
G04 HOLES PLATED*
G04 CONTOUR ON CENTER OF CONTOUR VECTOR*
%ASAXBY*%
%FSLAX23Y23*%
%MOIN*%
%OFA0B0*%
%SFA1.0B1.0*%
%ADD10C,0.071181*%
%ADD11C,0.075000*%
%ADD12C,0.078000*%
%ADD13C,0.039370*%
%ADD14R,0.075000X0.075000*%
%ADD15R,0.062992X0.070984*%
%ADD16R,0.047244X0.023622*%
%ADD17C,0.024000*%
%ADD18C,0.012000*%
%LNCOPPER1*%
G90*
G70*
G54D10*
X495Y95D03*
X495Y882D03*
X495Y95D03*
X495Y882D03*
X495Y95D03*
X495Y882D03*
G54D11*
X595Y384D03*
X895Y384D03*
X595Y284D03*
X895Y284D03*
X595Y184D03*
X895Y184D03*
X595Y84D03*
X895Y84D03*
G54D12*
X913Y914D03*
X913Y814D03*
X913Y714D03*
G54D13*
X746Y372D03*
G54D11*
X408Y93D03*
X152Y93D03*
X408Y271D03*
X152Y271D03*
G54D14*
X595Y384D03*
G54D15*
X73Y470D03*
X185Y470D03*
X74Y575D03*
X186Y575D03*
X75Y362D03*
X187Y362D03*
X72Y901D03*
X184Y901D03*
X73Y679D03*
X185Y679D03*
X74Y795D03*
X186Y795D03*
G54D16*
X511Y819D03*
X511Y769D03*
X511Y719D03*
X511Y669D03*
X511Y619D03*
X511Y569D03*
X511Y519D03*
X511Y469D03*
X731Y469D03*
X731Y519D03*
X731Y569D03*
X731Y619D03*
X731Y669D03*
X731Y719D03*
X731Y769D03*
X731Y819D03*
G54D17*
X913Y744D02*
X913Y784D01*
D02*
X897Y412D02*
X911Y684D01*
D02*
X495Y34D02*
X495Y58D01*
D02*
X36Y281D02*
X36Y34D01*
D02*
X36Y34D02*
X495Y34D01*
D02*
X74Y283D02*
X36Y281D01*
D02*
X75Y332D02*
X74Y283D01*
D02*
X75Y392D02*
X74Y440D01*
D02*
X73Y500D02*
X73Y545D01*
D02*
X74Y605D02*
X73Y649D01*
D02*
X73Y709D02*
X74Y765D01*
D02*
X73Y825D02*
X73Y871D01*
D02*
X414Y826D02*
X411Y900D01*
D02*
X492Y820D02*
X414Y826D01*
D02*
X411Y900D02*
X210Y901D01*
D02*
X368Y778D02*
X368Y793D01*
D02*
X368Y793D02*
X212Y794D01*
D02*
X492Y770D02*
X368Y778D01*
D02*
X492Y720D02*
X301Y730D01*
D02*
X301Y730D02*
X303Y680D01*
D02*
X303Y680D02*
X211Y679D01*
D02*
X354Y673D02*
X354Y575D01*
D02*
X354Y575D02*
X212Y575D01*
D02*
X492Y670D02*
X354Y673D01*
D02*
X397Y620D02*
X399Y477D01*
D02*
X492Y619D02*
X397Y620D01*
D02*
X399Y477D02*
X211Y471D01*
D02*
X452Y364D02*
X457Y575D01*
D02*
X457Y575D02*
X492Y571D01*
D02*
X213Y362D02*
X452Y364D01*
D02*
X497Y475D02*
X511Y469D01*
D02*
X495Y131D02*
X497Y475D01*
D02*
X612Y671D02*
X713Y669D01*
D02*
X529Y469D02*
X610Y467D01*
D02*
X610Y467D02*
X612Y671D01*
G54D18*
D02*
X830Y305D02*
X830Y711D01*
D02*
X830Y711D02*
X749Y718D01*
D02*
X868Y292D02*
X830Y305D01*
G54D17*
D02*
X794Y207D02*
X794Y618D01*
D02*
X794Y618D02*
X749Y619D01*
D02*
X867Y190D02*
X794Y207D01*
G54D18*
D02*
X662Y87D02*
X655Y573D01*
D02*
X867Y84D02*
X662Y87D01*
D02*
X655Y573D02*
X713Y570D01*
G54D17*
D02*
X813Y821D02*
X749Y820D01*
D02*
X892Y736D02*
X813Y821D01*
G54D18*
D02*
X689Y522D02*
X713Y521D01*
D02*
X689Y374D02*
X689Y522D01*
D02*
X733Y372D02*
X689Y374D01*
G54D17*
D02*
X217Y173D02*
X170Y116D01*
D02*
X472Y123D02*
X428Y178D01*
D02*
X428Y178D02*
X217Y173D01*
G04 End of Copper1*
M02*