G04 MADE WITH FRITZING*
G04 WWW.FRITZING.ORG*
G04 DOUBLE SIDED*
G04 HOLES PLATED*
G04 CONTOUR ON CENTER OF CONTOUR VECTOR*
%ASAXBY*%
%FSLAX23Y23*%
%MOIN*%
%OFA0B0*%
%SFA1.0B1.0*%
%ADD10R,0.984252X0.984252X0.968252X0.968252*%
%ADD11C,0.008000*%
%ADD12R,0.001000X0.001000*%
%LNSILK0*%
G90*
G70*
G54D11*
X4Y980D02*
X980Y980D01*
X980Y4D01*
X4Y4D01*
X4Y980D01*
D02*
X653Y843D02*
X653Y961D01*
D02*
X653Y961D02*
X338Y961D01*
D02*
X338Y961D02*
X338Y843D01*
G54D12*
X949Y984D02*
X955Y984D01*
X972Y984D02*
X978Y984D01*
X949Y983D02*
X955Y983D01*
X972Y983D02*
X978Y983D01*
X949Y982D02*
X955Y982D01*
X972Y982D02*
X978Y982D01*
X949Y981D02*
X955Y981D01*
X972Y981D02*
X978Y981D01*
X949Y980D02*
X955Y980D01*
X972Y980D02*
X979Y980D01*
X169Y959D02*
X185Y959D01*
X215Y959D02*
X217Y959D01*
X295Y959D02*
X297Y959D01*
X313Y959D02*
X315Y959D01*
X167Y958D02*
X185Y958D01*
X214Y958D02*
X217Y958D01*
X294Y958D02*
X297Y958D01*
X312Y958D02*
X315Y958D01*
X166Y957D02*
X185Y957D01*
X214Y957D02*
X217Y957D01*
X294Y957D02*
X298Y957D01*
X312Y957D02*
X315Y957D01*
X165Y956D02*
X185Y956D01*
X214Y956D02*
X217Y956D01*
X294Y956D02*
X298Y956D01*
X312Y956D02*
X315Y956D01*
X164Y955D02*
X170Y955D01*
X181Y955D02*
X185Y955D01*
X214Y955D02*
X217Y955D01*
X294Y955D02*
X298Y955D01*
X312Y955D02*
X315Y955D01*
X164Y954D02*
X168Y954D01*
X181Y954D02*
X185Y954D01*
X214Y954D02*
X217Y954D01*
X294Y954D02*
X298Y954D01*
X312Y954D02*
X315Y954D01*
X164Y953D02*
X168Y953D01*
X181Y953D02*
X185Y953D01*
X214Y953D02*
X217Y953D01*
X294Y953D02*
X298Y953D01*
X312Y953D02*
X315Y953D01*
X163Y952D02*
X167Y952D01*
X181Y952D02*
X185Y952D01*
X214Y952D02*
X217Y952D01*
X294Y952D02*
X298Y952D01*
X312Y952D02*
X315Y952D01*
X163Y951D02*
X167Y951D01*
X181Y951D02*
X185Y951D01*
X214Y951D02*
X217Y951D01*
X294Y951D02*
X298Y951D01*
X312Y951D02*
X315Y951D01*
X34Y950D02*
X35Y950D01*
X52Y950D02*
X52Y950D01*
X70Y950D02*
X76Y950D01*
X85Y950D02*
X85Y950D01*
X103Y950D02*
X109Y950D01*
X117Y950D02*
X118Y950D01*
X137Y950D02*
X145Y950D01*
X163Y950D02*
X167Y950D01*
X181Y950D02*
X185Y950D01*
X200Y950D02*
X200Y950D01*
X214Y950D02*
X217Y950D01*
X230Y950D02*
X241Y950D01*
X267Y950D02*
X277Y950D01*
X294Y950D02*
X298Y950D01*
X312Y950D02*
X315Y950D01*
X33Y949D02*
X36Y949D01*
X51Y949D02*
X54Y949D01*
X68Y949D02*
X78Y949D01*
X83Y949D02*
X86Y949D01*
X101Y949D02*
X110Y949D01*
X116Y949D02*
X119Y949D01*
X135Y949D02*
X147Y949D01*
X163Y949D02*
X167Y949D01*
X181Y949D02*
X185Y949D01*
X199Y949D02*
X202Y949D01*
X214Y949D02*
X217Y949D01*
X229Y949D02*
X243Y949D01*
X265Y949D02*
X278Y949D01*
X294Y949D02*
X298Y949D01*
X312Y949D02*
X315Y949D01*
X32Y948D02*
X36Y948D01*
X50Y948D02*
X54Y948D01*
X67Y948D02*
X79Y948D01*
X83Y948D02*
X87Y948D01*
X100Y948D02*
X111Y948D01*
X116Y948D02*
X119Y948D01*
X134Y948D02*
X149Y948D01*
X163Y948D02*
X167Y948D01*
X181Y948D02*
X185Y948D01*
X198Y948D02*
X203Y948D01*
X214Y948D02*
X217Y948D01*
X229Y948D02*
X245Y948D01*
X264Y948D02*
X278Y948D01*
X294Y948D02*
X298Y948D01*
X312Y948D02*
X315Y948D01*
X32Y947D02*
X36Y947D01*
X50Y947D02*
X54Y947D01*
X66Y947D02*
X80Y947D01*
X83Y947D02*
X87Y947D01*
X99Y947D02*
X113Y947D01*
X116Y947D02*
X119Y947D01*
X133Y947D02*
X150Y947D01*
X163Y947D02*
X167Y947D01*
X181Y947D02*
X185Y947D01*
X198Y947D02*
X204Y947D01*
X214Y947D02*
X217Y947D01*
X229Y947D02*
X246Y947D01*
X263Y947D02*
X278Y947D01*
X294Y947D02*
X298Y947D01*
X312Y947D02*
X315Y947D01*
X32Y946D02*
X36Y946D01*
X50Y946D02*
X54Y946D01*
X66Y946D02*
X81Y946D01*
X83Y946D02*
X87Y946D01*
X98Y946D02*
X114Y946D01*
X116Y946D02*
X119Y946D01*
X132Y946D02*
X151Y946D01*
X164Y946D02*
X168Y946D01*
X181Y946D02*
X185Y946D01*
X199Y946D02*
X205Y946D01*
X214Y946D02*
X217Y946D01*
X230Y946D02*
X247Y946D01*
X262Y946D02*
X277Y946D01*
X294Y946D02*
X298Y946D01*
X312Y946D02*
X315Y946D01*
X32Y945D02*
X36Y945D01*
X50Y945D02*
X54Y945D01*
X65Y945D02*
X69Y945D01*
X76Y945D02*
X87Y945D01*
X98Y945D02*
X102Y945D01*
X109Y945D02*
X119Y945D01*
X131Y945D02*
X136Y945D01*
X146Y945D02*
X151Y945D01*
X164Y945D02*
X169Y945D01*
X181Y945D02*
X185Y945D01*
X200Y945D02*
X206Y945D01*
X214Y945D02*
X217Y945D01*
X242Y945D02*
X248Y945D01*
X262Y945D02*
X266Y945D01*
X294Y945D02*
X298Y945D01*
X312Y945D02*
X315Y945D01*
X32Y944D02*
X36Y944D01*
X50Y944D02*
X54Y944D01*
X65Y944D02*
X69Y944D01*
X77Y944D02*
X87Y944D01*
X98Y944D02*
X102Y944D01*
X110Y944D02*
X119Y944D01*
X131Y944D02*
X135Y944D01*
X147Y944D02*
X152Y944D01*
X165Y944D02*
X185Y944D01*
X202Y944D02*
X208Y944D01*
X214Y944D02*
X217Y944D01*
X243Y944D02*
X249Y944D01*
X262Y944D02*
X266Y944D01*
X294Y944D02*
X315Y944D01*
X33Y943D02*
X37Y943D01*
X50Y943D02*
X54Y943D01*
X65Y943D02*
X69Y943D01*
X79Y943D02*
X87Y943D01*
X98Y943D02*
X101Y943D01*
X111Y943D02*
X119Y943D01*
X131Y943D02*
X134Y943D01*
X148Y943D02*
X152Y943D01*
X166Y943D02*
X185Y943D01*
X203Y943D02*
X209Y943D01*
X214Y943D02*
X217Y943D01*
X244Y943D02*
X249Y943D01*
X262Y943D02*
X266Y943D01*
X294Y943D02*
X315Y943D01*
X33Y942D02*
X37Y942D01*
X49Y942D02*
X53Y942D01*
X65Y942D02*
X69Y942D01*
X80Y942D02*
X87Y942D01*
X98Y942D02*
X101Y942D01*
X112Y942D02*
X119Y942D01*
X131Y942D02*
X134Y942D01*
X148Y942D02*
X152Y942D01*
X166Y942D02*
X185Y942D01*
X204Y942D02*
X210Y942D01*
X214Y942D02*
X217Y942D01*
X245Y942D02*
X250Y942D01*
X262Y942D02*
X265Y942D01*
X294Y942D02*
X315Y942D01*
X34Y941D02*
X38Y941D01*
X49Y941D02*
X53Y941D01*
X66Y941D02*
X68Y941D01*
X81Y941D02*
X87Y941D01*
X98Y941D02*
X101Y941D01*
X114Y941D02*
X119Y941D01*
X131Y941D02*
X134Y941D01*
X148Y941D02*
X152Y941D01*
X165Y941D02*
X185Y941D01*
X205Y941D02*
X211Y941D01*
X214Y941D02*
X217Y941D01*
X246Y941D02*
X250Y941D01*
X262Y941D02*
X265Y941D01*
X294Y941D02*
X315Y941D01*
X34Y940D02*
X38Y940D01*
X48Y940D02*
X52Y940D01*
X67Y940D02*
X67Y940D01*
X82Y940D02*
X87Y940D01*
X115Y940D02*
X119Y940D01*
X131Y940D02*
X134Y940D01*
X148Y940D02*
X152Y940D01*
X165Y940D02*
X185Y940D01*
X206Y940D02*
X212Y940D01*
X214Y940D02*
X217Y940D01*
X246Y940D02*
X250Y940D01*
X262Y940D02*
X279Y940D01*
X294Y940D02*
X315Y940D01*
X34Y939D02*
X38Y939D01*
X48Y939D02*
X52Y939D01*
X83Y939D02*
X87Y939D01*
X116Y939D02*
X119Y939D01*
X131Y939D02*
X134Y939D01*
X148Y939D02*
X152Y939D01*
X164Y939D02*
X169Y939D01*
X181Y939D02*
X185Y939D01*
X207Y939D02*
X217Y939D01*
X246Y939D02*
X250Y939D01*
X262Y939D02*
X280Y939D01*
X294Y939D02*
X298Y939D01*
X312Y939D02*
X315Y939D01*
X35Y938D02*
X39Y938D01*
X47Y938D02*
X51Y938D01*
X83Y938D02*
X87Y938D01*
X116Y938D02*
X119Y938D01*
X131Y938D02*
X152Y938D01*
X164Y938D02*
X168Y938D01*
X181Y938D02*
X185Y938D01*
X208Y938D02*
X217Y938D01*
X246Y938D02*
X250Y938D01*
X262Y938D02*
X281Y938D01*
X294Y938D02*
X298Y938D01*
X312Y938D02*
X315Y938D01*
X35Y937D02*
X39Y937D01*
X47Y937D02*
X51Y937D01*
X83Y937D02*
X87Y937D01*
X116Y937D02*
X119Y937D01*
X131Y937D02*
X152Y937D01*
X163Y937D02*
X167Y937D01*
X181Y937D02*
X185Y937D01*
X207Y937D02*
X217Y937D01*
X246Y937D02*
X250Y937D01*
X262Y937D02*
X282Y937D01*
X294Y937D02*
X298Y937D01*
X312Y937D02*
X315Y937D01*
X36Y936D02*
X40Y936D01*
X47Y936D02*
X51Y936D01*
X83Y936D02*
X87Y936D01*
X116Y936D02*
X119Y936D01*
X131Y936D02*
X152Y936D01*
X163Y936D02*
X167Y936D01*
X181Y936D02*
X185Y936D01*
X205Y936D02*
X217Y936D01*
X246Y936D02*
X250Y936D01*
X262Y936D02*
X267Y936D01*
X278Y936D02*
X282Y936D01*
X294Y936D02*
X298Y936D01*
X312Y936D02*
X315Y936D01*
X36Y935D02*
X40Y935D01*
X46Y935D02*
X50Y935D01*
X83Y935D02*
X87Y935D01*
X116Y935D02*
X119Y935D01*
X131Y935D02*
X152Y935D01*
X163Y935D02*
X167Y935D01*
X181Y935D02*
X185Y935D01*
X204Y935D02*
X210Y935D01*
X212Y935D02*
X217Y935D01*
X246Y935D02*
X250Y935D01*
X262Y935D02*
X266Y935D01*
X279Y935D02*
X283Y935D01*
X294Y935D02*
X298Y935D01*
X312Y935D02*
X315Y935D01*
X37Y934D02*
X41Y934D01*
X46Y934D02*
X50Y934D01*
X83Y934D02*
X87Y934D01*
X116Y934D02*
X119Y934D01*
X148Y934D02*
X152Y934D01*
X163Y934D02*
X167Y934D01*
X181Y934D02*
X185Y934D01*
X203Y934D02*
X209Y934D01*
X213Y934D02*
X217Y934D01*
X246Y934D02*
X250Y934D01*
X262Y934D02*
X265Y934D01*
X279Y934D02*
X283Y934D01*
X294Y934D02*
X298Y934D01*
X312Y934D02*
X315Y934D01*
X37Y933D02*
X41Y933D01*
X45Y933D02*
X49Y933D01*
X83Y933D02*
X87Y933D01*
X116Y933D02*
X119Y933D01*
X148Y933D02*
X152Y933D01*
X163Y933D02*
X167Y933D01*
X181Y933D02*
X185Y933D01*
X202Y933D02*
X208Y933D01*
X214Y933D02*
X217Y933D01*
X246Y933D02*
X250Y933D01*
X262Y933D02*
X265Y933D01*
X279Y933D02*
X283Y933D01*
X294Y933D02*
X298Y933D01*
X312Y933D02*
X315Y933D01*
X38Y932D02*
X42Y932D01*
X45Y932D02*
X49Y932D01*
X83Y932D02*
X87Y932D01*
X116Y932D02*
X119Y932D01*
X148Y932D02*
X152Y932D01*
X163Y932D02*
X167Y932D01*
X181Y932D02*
X185Y932D01*
X201Y932D02*
X207Y932D01*
X214Y932D02*
X217Y932D01*
X245Y932D02*
X249Y932D01*
X262Y932D02*
X265Y932D01*
X279Y932D02*
X283Y932D01*
X294Y932D02*
X298Y932D01*
X312Y932D02*
X315Y932D01*
X38Y931D02*
X48Y931D01*
X83Y931D02*
X87Y931D01*
X116Y931D02*
X119Y931D01*
X148Y931D02*
X152Y931D01*
X164Y931D02*
X168Y931D01*
X181Y931D02*
X185Y931D01*
X200Y931D02*
X206Y931D01*
X214Y931D02*
X217Y931D01*
X243Y931D02*
X249Y931D01*
X261Y931D02*
X267Y931D01*
X279Y931D02*
X283Y931D01*
X294Y931D02*
X298Y931D01*
X312Y931D02*
X315Y931D01*
X38Y930D02*
X48Y930D01*
X83Y930D02*
X87Y930D01*
X116Y930D02*
X119Y930D01*
X146Y930D02*
X151Y930D01*
X164Y930D02*
X169Y930D01*
X181Y930D02*
X185Y930D01*
X198Y930D02*
X204Y930D01*
X214Y930D02*
X217Y930D01*
X242Y930D02*
X248Y930D01*
X261Y930D02*
X269Y930D01*
X279Y930D02*
X283Y930D01*
X294Y930D02*
X298Y930D01*
X312Y930D02*
X315Y930D01*
X39Y929D02*
X47Y929D01*
X83Y929D02*
X87Y929D01*
X116Y929D02*
X119Y929D01*
X132Y929D02*
X151Y929D01*
X165Y929D02*
X185Y929D01*
X197Y929D02*
X203Y929D01*
X214Y929D02*
X217Y929D01*
X230Y929D02*
X247Y929D01*
X261Y929D02*
X282Y929D01*
X294Y929D02*
X298Y929D01*
X312Y929D02*
X315Y929D01*
X39Y928D02*
X47Y928D01*
X83Y928D02*
X87Y928D01*
X116Y928D02*
X119Y928D01*
X131Y928D02*
X150Y928D01*
X165Y928D02*
X185Y928D01*
X196Y928D02*
X202Y928D01*
X214Y928D02*
X217Y928D01*
X229Y928D02*
X246Y928D01*
X261Y928D02*
X282Y928D01*
X294Y928D02*
X298Y928D01*
X312Y928D02*
X315Y928D01*
X40Y927D02*
X46Y927D01*
X83Y927D02*
X87Y927D01*
X116Y927D02*
X119Y927D01*
X131Y927D02*
X149Y927D01*
X166Y927D02*
X185Y927D01*
X196Y927D02*
X201Y927D01*
X214Y927D02*
X217Y927D01*
X229Y927D02*
X245Y927D01*
X261Y927D02*
X281Y927D01*
X294Y927D02*
X298Y927D01*
X312Y927D02*
X315Y927D01*
X40Y926D02*
X44Y926D01*
X83Y926D02*
X86Y926D01*
X116Y926D02*
X119Y926D01*
X131Y926D02*
X148Y926D01*
X168Y926D02*
X185Y926D01*
X196Y926D02*
X200Y926D01*
X214Y926D02*
X217Y926D01*
X229Y926D02*
X243Y926D01*
X262Y926D02*
X265Y926D01*
X267Y926D02*
X280Y926D01*
X294Y926D02*
X297Y926D01*
X312Y926D02*
X315Y926D01*
X41Y925D02*
X45Y925D01*
X84Y925D02*
X85Y925D01*
X117Y925D02*
X118Y925D01*
X132Y925D02*
X146Y925D01*
X170Y925D02*
X185Y925D01*
X197Y925D02*
X198Y925D01*
X215Y925D02*
X216Y925D01*
X230Y925D02*
X241Y925D01*
X263Y925D02*
X264Y925D01*
X269Y925D02*
X278Y925D01*
X295Y925D02*
X296Y925D01*
X313Y925D02*
X314Y925D01*
X41Y924D02*
X45Y924D01*
X42Y923D02*
X46Y923D01*
X42Y922D02*
X46Y922D01*
X42Y921D02*
X46Y921D01*
X43Y920D02*
X47Y920D01*
X43Y919D02*
X53Y919D01*
X44Y918D02*
X54Y918D01*
X44Y917D02*
X54Y917D01*
X45Y916D02*
X53Y916D01*
X29Y909D02*
X46Y909D01*
X101Y909D02*
X113Y909D01*
X176Y909D02*
X178Y909D01*
X423Y909D02*
X438Y909D01*
X28Y908D02*
X47Y908D01*
X101Y908D02*
X113Y908D01*
X175Y908D02*
X179Y908D01*
X421Y908D02*
X439Y908D01*
X27Y907D02*
X48Y907D01*
X101Y907D02*
X113Y907D01*
X175Y907D02*
X179Y907D01*
X237Y907D02*
X239Y907D01*
X400Y907D02*
X403Y907D01*
X420Y907D02*
X440Y907D01*
X27Y906D02*
X48Y906D01*
X101Y906D02*
X113Y906D01*
X175Y906D02*
X179Y906D01*
X236Y906D02*
X240Y906D01*
X400Y906D02*
X403Y906D01*
X420Y906D02*
X440Y906D01*
X27Y905D02*
X31Y905D01*
X44Y905D02*
X48Y905D01*
X101Y905D02*
X105Y905D01*
X175Y905D02*
X179Y905D01*
X236Y905D02*
X240Y905D01*
X400Y905D02*
X403Y905D01*
X419Y905D02*
X424Y905D01*
X437Y905D02*
X440Y905D01*
X27Y904D02*
X30Y904D01*
X45Y904D02*
X48Y904D01*
X101Y904D02*
X105Y904D01*
X175Y904D02*
X179Y904D01*
X236Y904D02*
X240Y904D01*
X400Y904D02*
X403Y904D01*
X419Y904D02*
X423Y904D01*
X437Y904D02*
X440Y904D01*
X27Y903D02*
X30Y903D01*
X45Y903D02*
X48Y903D01*
X101Y903D02*
X105Y903D01*
X175Y903D02*
X179Y903D01*
X236Y903D02*
X240Y903D01*
X400Y903D02*
X403Y903D01*
X419Y903D02*
X423Y903D01*
X436Y903D02*
X440Y903D01*
X27Y902D02*
X30Y902D01*
X45Y902D02*
X48Y902D01*
X101Y902D02*
X105Y902D01*
X175Y902D02*
X179Y902D01*
X236Y902D02*
X240Y902D01*
X400Y902D02*
X403Y902D01*
X420Y902D02*
X422Y902D01*
X435Y902D02*
X440Y902D01*
X27Y901D02*
X30Y901D01*
X45Y901D02*
X48Y901D01*
X101Y901D02*
X105Y901D01*
X175Y901D02*
X179Y901D01*
X236Y901D02*
X240Y901D01*
X331Y901D02*
X333Y901D01*
X341Y901D02*
X341Y901D01*
X400Y901D02*
X403Y901D01*
X434Y901D02*
X439Y901D01*
X27Y900D02*
X30Y900D01*
X45Y900D02*
X48Y900D01*
X101Y900D02*
X105Y900D01*
X163Y900D02*
X168Y900D01*
X175Y900D02*
X179Y900D01*
X192Y900D02*
X202Y900D01*
X227Y900D02*
X243Y900D01*
X261Y900D02*
X271Y900D01*
X289Y900D02*
X290Y900D01*
X308Y900D02*
X309Y900D01*
X328Y900D02*
X335Y900D01*
X339Y900D02*
X342Y900D01*
X361Y900D02*
X368Y900D01*
X390Y900D02*
X406Y900D01*
X434Y900D02*
X438Y900D01*
X27Y899D02*
X30Y899D01*
X45Y899D02*
X48Y899D01*
X101Y899D02*
X105Y899D01*
X161Y899D02*
X170Y899D01*
X175Y899D02*
X179Y899D01*
X191Y899D02*
X205Y899D01*
X226Y899D02*
X244Y899D01*
X259Y899D02*
X272Y899D01*
X288Y899D02*
X291Y899D01*
X307Y899D02*
X310Y899D01*
X327Y899D02*
X337Y899D01*
X339Y899D02*
X342Y899D01*
X358Y899D02*
X370Y899D01*
X389Y899D02*
X407Y899D01*
X433Y899D02*
X438Y899D01*
X27Y898D02*
X30Y898D01*
X45Y898D02*
X48Y898D01*
X101Y898D02*
X105Y898D01*
X160Y898D02*
X172Y898D01*
X175Y898D02*
X179Y898D01*
X190Y898D02*
X206Y898D01*
X225Y898D02*
X244Y898D01*
X258Y898D02*
X273Y898D01*
X288Y898D02*
X291Y898D01*
X307Y898D02*
X310Y898D01*
X325Y898D02*
X342Y898D01*
X357Y898D02*
X372Y898D01*
X389Y898D02*
X408Y898D01*
X432Y898D02*
X437Y898D01*
X27Y897D02*
X30Y897D01*
X45Y897D02*
X48Y897D01*
X101Y897D02*
X105Y897D01*
X159Y897D02*
X173Y897D01*
X175Y897D02*
X179Y897D01*
X190Y897D02*
X207Y897D01*
X225Y897D02*
X244Y897D01*
X257Y897D02*
X272Y897D01*
X288Y897D02*
X291Y897D01*
X307Y897D02*
X310Y897D01*
X324Y897D02*
X342Y897D01*
X356Y897D02*
X373Y897D01*
X389Y897D02*
X408Y897D01*
X431Y897D02*
X436Y897D01*
X27Y896D02*
X30Y896D01*
X45Y896D02*
X48Y896D01*
X101Y896D02*
X105Y896D01*
X159Y896D02*
X179Y896D01*
X191Y896D02*
X208Y896D01*
X226Y896D02*
X243Y896D01*
X257Y896D02*
X271Y896D01*
X288Y896D02*
X291Y896D01*
X307Y896D02*
X310Y896D01*
X323Y896D02*
X329Y896D01*
X334Y896D02*
X342Y896D01*
X355Y896D02*
X374Y896D01*
X390Y896D02*
X407Y896D01*
X430Y896D02*
X435Y896D01*
X27Y895D02*
X30Y895D01*
X45Y895D02*
X48Y895D01*
X101Y895D02*
X105Y895D01*
X158Y895D02*
X162Y895D01*
X169Y895D02*
X179Y895D01*
X204Y895D02*
X209Y895D01*
X236Y895D02*
X240Y895D01*
X256Y895D02*
X260Y895D01*
X288Y895D02*
X292Y895D01*
X307Y895D02*
X310Y895D01*
X322Y895D02*
X328Y895D01*
X335Y895D02*
X342Y895D01*
X354Y895D02*
X359Y895D01*
X369Y895D02*
X374Y895D01*
X400Y895D02*
X403Y895D01*
X430Y895D02*
X434Y895D01*
X27Y894D02*
X30Y894D01*
X45Y894D02*
X48Y894D01*
X101Y894D02*
X105Y894D01*
X158Y894D02*
X162Y894D01*
X171Y894D02*
X179Y894D01*
X205Y894D02*
X210Y894D01*
X236Y894D02*
X240Y894D01*
X256Y894D02*
X260Y894D01*
X288Y894D02*
X292Y894D01*
X307Y894D02*
X310Y894D01*
X322Y894D02*
X327Y894D01*
X336Y894D02*
X342Y894D01*
X354Y894D02*
X358Y894D01*
X370Y894D02*
X375Y894D01*
X400Y894D02*
X403Y894D01*
X429Y894D02*
X434Y894D01*
X27Y893D02*
X30Y893D01*
X45Y893D02*
X48Y893D01*
X101Y893D02*
X105Y893D01*
X158Y893D02*
X162Y893D01*
X172Y893D02*
X179Y893D01*
X206Y893D02*
X211Y893D01*
X236Y893D02*
X240Y893D01*
X256Y893D02*
X260Y893D01*
X288Y893D02*
X292Y893D01*
X306Y893D02*
X310Y893D01*
X321Y893D02*
X326Y893D01*
X337Y893D02*
X342Y893D01*
X354Y893D02*
X358Y893D01*
X371Y893D02*
X375Y893D01*
X400Y893D02*
X403Y893D01*
X428Y893D02*
X433Y893D01*
X27Y892D02*
X30Y892D01*
X45Y892D02*
X48Y892D01*
X101Y892D02*
X105Y892D01*
X158Y892D02*
X162Y892D01*
X174Y892D02*
X179Y892D01*
X207Y892D02*
X211Y892D01*
X236Y892D02*
X240Y892D01*
X256Y892D02*
X260Y892D01*
X288Y892D02*
X292Y892D01*
X298Y892D02*
X300Y892D01*
X306Y892D02*
X310Y892D01*
X321Y892D02*
X325Y892D01*
X338Y892D02*
X342Y892D01*
X354Y892D02*
X357Y892D01*
X372Y892D02*
X375Y892D01*
X400Y892D02*
X403Y892D01*
X427Y892D02*
X432Y892D01*
X27Y891D02*
X30Y891D01*
X45Y891D02*
X48Y891D01*
X101Y891D02*
X105Y891D01*
X158Y891D02*
X162Y891D01*
X175Y891D02*
X179Y891D01*
X208Y891D02*
X212Y891D01*
X236Y891D02*
X240Y891D01*
X256Y891D02*
X260Y891D01*
X288Y891D02*
X292Y891D01*
X297Y891D02*
X301Y891D01*
X306Y891D02*
X310Y891D01*
X321Y891D02*
X325Y891D01*
X339Y891D02*
X342Y891D01*
X354Y891D02*
X357Y891D01*
X372Y891D02*
X375Y891D01*
X400Y891D02*
X403Y891D01*
X427Y891D02*
X431Y891D01*
X27Y890D02*
X30Y890D01*
X45Y890D02*
X48Y890D01*
X93Y890D02*
X95Y890D01*
X101Y890D02*
X105Y890D01*
X158Y890D02*
X162Y890D01*
X175Y890D02*
X179Y890D01*
X208Y890D02*
X212Y890D01*
X236Y890D02*
X240Y890D01*
X256Y890D02*
X273Y890D01*
X288Y890D02*
X292Y890D01*
X297Y890D02*
X301Y890D01*
X306Y890D02*
X310Y890D01*
X321Y890D02*
X325Y890D01*
X339Y890D02*
X342Y890D01*
X354Y890D02*
X357Y890D01*
X372Y890D02*
X375Y890D01*
X400Y890D02*
X403Y890D01*
X426Y890D02*
X431Y890D01*
X27Y889D02*
X30Y889D01*
X45Y889D02*
X48Y889D01*
X92Y889D02*
X96Y889D01*
X101Y889D02*
X105Y889D01*
X158Y889D02*
X161Y889D01*
X175Y889D02*
X179Y889D01*
X208Y889D02*
X212Y889D01*
X236Y889D02*
X240Y889D01*
X256Y889D02*
X275Y889D01*
X288Y889D02*
X292Y889D01*
X297Y889D02*
X301Y889D01*
X306Y889D02*
X310Y889D01*
X321Y889D02*
X325Y889D01*
X339Y889D02*
X342Y889D01*
X354Y889D02*
X357Y889D01*
X372Y889D02*
X375Y889D01*
X400Y889D02*
X403Y889D01*
X425Y889D02*
X430Y889D01*
X27Y888D02*
X30Y888D01*
X45Y888D02*
X48Y888D01*
X67Y888D02*
X73Y888D01*
X92Y888D02*
X96Y888D01*
X101Y888D02*
X105Y888D01*
X158Y888D02*
X161Y888D01*
X175Y888D02*
X179Y888D01*
X208Y888D02*
X212Y888D01*
X236Y888D02*
X240Y888D01*
X256Y888D02*
X276Y888D01*
X288Y888D02*
X292Y888D01*
X297Y888D02*
X301Y888D01*
X306Y888D02*
X310Y888D01*
X321Y888D02*
X325Y888D01*
X339Y888D02*
X342Y888D01*
X354Y888D02*
X357Y888D01*
X372Y888D02*
X375Y888D01*
X400Y888D02*
X403Y888D01*
X424Y888D02*
X429Y888D01*
X27Y887D02*
X30Y887D01*
X45Y887D02*
X48Y887D01*
X66Y887D02*
X74Y887D01*
X92Y887D02*
X96Y887D01*
X101Y887D02*
X105Y887D01*
X158Y887D02*
X161Y887D01*
X175Y887D02*
X179Y887D01*
X208Y887D02*
X212Y887D01*
X236Y887D02*
X240Y887D01*
X256Y887D02*
X276Y887D01*
X288Y887D02*
X292Y887D01*
X297Y887D02*
X301Y887D01*
X306Y887D02*
X310Y887D01*
X321Y887D02*
X325Y887D01*
X339Y887D02*
X342Y887D01*
X354Y887D02*
X357Y887D01*
X372Y887D02*
X375Y887D01*
X400Y887D02*
X403Y887D01*
X423Y887D02*
X428Y887D01*
X27Y886D02*
X30Y886D01*
X45Y886D02*
X48Y886D01*
X66Y886D02*
X74Y886D01*
X92Y886D02*
X96Y886D01*
X101Y886D02*
X105Y886D01*
X158Y886D02*
X161Y886D01*
X175Y886D02*
X179Y886D01*
X208Y886D02*
X212Y886D01*
X236Y886D02*
X240Y886D01*
X256Y886D02*
X261Y886D01*
X272Y886D02*
X277Y886D01*
X288Y886D02*
X292Y886D01*
X297Y886D02*
X301Y886D01*
X306Y886D02*
X310Y886D01*
X321Y886D02*
X325Y886D01*
X339Y886D02*
X342Y886D01*
X354Y886D02*
X357Y886D01*
X372Y886D02*
X375Y886D01*
X400Y886D02*
X403Y886D01*
X423Y886D02*
X427Y886D01*
X27Y885D02*
X30Y885D01*
X45Y885D02*
X48Y885D01*
X66Y885D02*
X74Y885D01*
X92Y885D02*
X96Y885D01*
X101Y885D02*
X105Y885D01*
X158Y885D02*
X161Y885D01*
X175Y885D02*
X179Y885D01*
X208Y885D02*
X212Y885D01*
X236Y885D02*
X240Y885D01*
X256Y885D02*
X260Y885D01*
X273Y885D02*
X277Y885D01*
X288Y885D02*
X292Y885D01*
X297Y885D02*
X301Y885D01*
X306Y885D02*
X310Y885D01*
X321Y885D02*
X325Y885D01*
X339Y885D02*
X342Y885D01*
X354Y885D02*
X357Y885D01*
X372Y885D02*
X375Y885D01*
X400Y885D02*
X403Y885D01*
X422Y885D02*
X427Y885D01*
X27Y884D02*
X30Y884D01*
X45Y884D02*
X48Y884D01*
X66Y884D02*
X74Y884D01*
X92Y884D02*
X96Y884D01*
X101Y884D02*
X105Y884D01*
X158Y884D02*
X161Y884D01*
X175Y884D02*
X179Y884D01*
X208Y884D02*
X212Y884D01*
X236Y884D02*
X240Y884D01*
X256Y884D02*
X259Y884D01*
X273Y884D02*
X277Y884D01*
X288Y884D02*
X292Y884D01*
X297Y884D02*
X301Y884D01*
X306Y884D02*
X310Y884D01*
X321Y884D02*
X325Y884D01*
X339Y884D02*
X342Y884D01*
X354Y884D02*
X357Y884D01*
X372Y884D02*
X375Y884D01*
X400Y884D02*
X403Y884D01*
X421Y884D02*
X426Y884D01*
X27Y883D02*
X30Y883D01*
X45Y883D02*
X48Y883D01*
X66Y883D02*
X74Y883D01*
X92Y883D02*
X96Y883D01*
X101Y883D02*
X105Y883D01*
X158Y883D02*
X161Y883D01*
X175Y883D02*
X179Y883D01*
X207Y883D02*
X211Y883D01*
X236Y883D02*
X240Y883D01*
X256Y883D02*
X259Y883D01*
X273Y883D02*
X277Y883D01*
X289Y883D02*
X292Y883D01*
X296Y883D02*
X302Y883D01*
X306Y883D02*
X309Y883D01*
X321Y883D02*
X325Y883D01*
X338Y883D02*
X342Y883D01*
X354Y883D02*
X357Y883D01*
X372Y883D02*
X375Y883D01*
X400Y883D02*
X403Y883D01*
X420Y883D02*
X425Y883D01*
X27Y882D02*
X30Y882D01*
X45Y882D02*
X48Y882D01*
X66Y882D02*
X74Y882D01*
X92Y882D02*
X96Y882D01*
X101Y882D02*
X105Y882D01*
X158Y882D02*
X161Y882D01*
X175Y882D02*
X179Y882D01*
X206Y882D02*
X211Y882D01*
X223Y882D02*
X226Y882D01*
X236Y882D02*
X240Y882D01*
X256Y882D02*
X260Y882D01*
X273Y882D02*
X277Y882D01*
X289Y882D02*
X293Y882D01*
X295Y882D02*
X303Y882D01*
X305Y882D02*
X309Y882D01*
X321Y882D02*
X325Y882D01*
X337Y882D02*
X342Y882D01*
X354Y882D02*
X357Y882D01*
X371Y882D02*
X375Y882D01*
X387Y882D02*
X389Y882D01*
X400Y882D02*
X403Y882D01*
X420Y882D02*
X424Y882D01*
X437Y882D02*
X440Y882D01*
X27Y881D02*
X30Y881D01*
X45Y881D02*
X48Y881D01*
X67Y881D02*
X73Y881D01*
X92Y881D02*
X96Y881D01*
X101Y881D02*
X105Y881D01*
X158Y881D02*
X161Y881D01*
X175Y881D02*
X179Y881D01*
X205Y881D02*
X210Y881D01*
X223Y881D02*
X226Y881D01*
X236Y881D02*
X240Y881D01*
X256Y881D02*
X261Y881D01*
X273Y881D02*
X277Y881D01*
X289Y881D02*
X293Y881D01*
X295Y881D02*
X303Y881D01*
X305Y881D02*
X309Y881D01*
X322Y881D02*
X327Y881D01*
X336Y881D02*
X342Y881D01*
X354Y881D02*
X358Y881D01*
X371Y881D02*
X375Y881D01*
X386Y881D02*
X390Y881D01*
X400Y881D02*
X403Y881D01*
X419Y881D02*
X424Y881D01*
X437Y881D02*
X440Y881D01*
X27Y880D02*
X30Y880D01*
X45Y880D02*
X48Y880D01*
X92Y880D02*
X96Y880D01*
X101Y880D02*
X105Y880D01*
X158Y880D02*
X161Y880D01*
X175Y880D02*
X179Y880D01*
X204Y880D02*
X210Y880D01*
X223Y880D02*
X227Y880D01*
X236Y880D02*
X240Y880D01*
X256Y880D02*
X263Y880D01*
X273Y880D02*
X277Y880D01*
X290Y880D02*
X308Y880D01*
X322Y880D02*
X328Y880D01*
X335Y880D02*
X342Y880D01*
X354Y880D02*
X359Y880D01*
X370Y880D02*
X375Y880D01*
X387Y880D02*
X391Y880D01*
X399Y880D02*
X403Y880D01*
X419Y880D02*
X423Y880D01*
X437Y880D02*
X440Y880D01*
X27Y879D02*
X48Y879D01*
X92Y879D02*
X112Y879D01*
X158Y879D02*
X161Y879D01*
X175Y879D02*
X179Y879D01*
X192Y879D02*
X209Y879D01*
X223Y879D02*
X239Y879D01*
X256Y879D02*
X277Y879D01*
X290Y879D02*
X298Y879D01*
X300Y879D02*
X308Y879D01*
X323Y879D02*
X329Y879D01*
X334Y879D02*
X342Y879D01*
X355Y879D02*
X374Y879D01*
X387Y879D02*
X403Y879D01*
X419Y879D02*
X440Y879D01*
X27Y878D02*
X48Y878D01*
X92Y878D02*
X113Y878D01*
X158Y878D02*
X161Y878D01*
X175Y878D02*
X179Y878D01*
X191Y878D02*
X207Y878D01*
X224Y878D02*
X239Y878D01*
X256Y878D02*
X276Y878D01*
X290Y878D02*
X297Y878D01*
X301Y878D02*
X308Y878D01*
X324Y878D02*
X342Y878D01*
X356Y878D02*
X373Y878D01*
X387Y878D02*
X402Y878D01*
X420Y878D02*
X440Y878D01*
X27Y877D02*
X47Y877D01*
X92Y877D02*
X113Y877D01*
X158Y877D02*
X161Y877D01*
X175Y877D02*
X179Y877D01*
X190Y877D02*
X206Y877D01*
X225Y877D02*
X238Y877D01*
X256Y877D02*
X275Y877D01*
X290Y877D02*
X297Y877D01*
X301Y877D02*
X308Y877D01*
X325Y877D02*
X342Y877D01*
X357Y877D02*
X372Y877D01*
X388Y877D02*
X402Y877D01*
X420Y877D02*
X439Y877D01*
X28Y876D02*
X47Y876D01*
X92Y876D02*
X113Y876D01*
X158Y876D02*
X161Y876D01*
X176Y876D02*
X179Y876D01*
X190Y876D02*
X205Y876D01*
X226Y876D02*
X237Y876D01*
X256Y876D02*
X259Y876D01*
X262Y876D02*
X274Y876D01*
X291Y876D02*
X296Y876D01*
X302Y876D02*
X307Y876D01*
X326Y876D02*
X337Y876D01*
X339Y876D02*
X342Y876D01*
X358Y876D02*
X371Y876D01*
X389Y876D02*
X400Y876D01*
X421Y876D02*
X438Y876D01*
X30Y875D02*
X45Y875D01*
X93Y875D02*
X112Y875D01*
X159Y875D02*
X160Y875D01*
X177Y875D02*
X178Y875D01*
X191Y875D02*
X203Y875D01*
X228Y875D02*
X235Y875D01*
X257Y875D02*
X258Y875D01*
X263Y875D02*
X272Y875D01*
X292Y875D02*
X295Y875D01*
X303Y875D02*
X306Y875D01*
X328Y875D02*
X336Y875D01*
X339Y875D02*
X342Y875D01*
X360Y875D02*
X369Y875D01*
X391Y875D02*
X399Y875D01*
X422Y875D02*
X436Y875D01*
X330Y874D02*
X334Y874D01*
X339Y874D02*
X342Y874D01*
X339Y873D02*
X342Y873D01*
X339Y872D02*
X342Y872D01*
X339Y871D02*
X342Y871D01*
X339Y870D02*
X342Y870D01*
X339Y869D02*
X342Y869D01*
X339Y868D02*
X342Y868D01*
X339Y867D02*
X342Y867D01*
X339Y866D02*
X342Y866D01*
X335Y846D02*
X335Y846D01*
X654Y846D02*
X655Y846D01*
X332Y845D02*
X336Y845D01*
X653Y845D02*
X657Y845D01*
X330Y844D02*
X336Y844D01*
X653Y844D02*
X659Y844D01*
X328Y843D02*
X337Y843D01*
X653Y843D02*
X662Y843D01*
X325Y842D02*
X337Y842D01*
X652Y842D02*
X664Y842D01*
X323Y841D02*
X337Y841D01*
X652Y841D02*
X666Y841D01*
X320Y840D02*
X338Y840D01*
X651Y840D02*
X669Y840D01*
X318Y839D02*
X338Y839D01*
X652Y839D02*
X671Y839D01*
X316Y838D02*
X335Y838D01*
X654Y838D02*
X673Y838D01*
X314Y837D02*
X333Y837D01*
X656Y837D02*
X675Y837D01*
X312Y836D02*
X330Y836D01*
X659Y836D02*
X677Y836D01*
X310Y835D02*
X328Y835D01*
X661Y835D02*
X679Y835D01*
X308Y834D02*
X326Y834D01*
X663Y834D02*
X681Y834D01*
X306Y833D02*
X323Y833D01*
X666Y833D02*
X683Y833D01*
X304Y832D02*
X321Y832D01*
X668Y832D02*
X686Y832D01*
X302Y831D02*
X319Y831D01*
X670Y831D02*
X688Y831D01*
X300Y830D02*
X317Y830D01*
X672Y830D02*
X689Y830D01*
X298Y829D02*
X315Y829D01*
X674Y829D02*
X691Y829D01*
X296Y828D02*
X313Y828D01*
X676Y828D02*
X693Y828D01*
X294Y827D02*
X311Y827D01*
X678Y827D02*
X695Y827D01*
X292Y826D02*
X309Y826D01*
X681Y826D02*
X697Y826D01*
X290Y825D02*
X306Y825D01*
X683Y825D02*
X699Y825D01*
X288Y824D02*
X304Y824D01*
X685Y824D02*
X701Y824D01*
X287Y823D02*
X302Y823D01*
X687Y823D02*
X703Y823D01*
X285Y822D02*
X301Y822D01*
X689Y822D02*
X704Y822D01*
X283Y821D02*
X299Y821D01*
X690Y821D02*
X706Y821D01*
X281Y820D02*
X297Y820D01*
X692Y820D02*
X708Y820D01*
X280Y819D02*
X295Y819D01*
X694Y819D02*
X709Y819D01*
X278Y818D02*
X293Y818D01*
X696Y818D02*
X711Y818D01*
X276Y817D02*
X291Y817D01*
X698Y817D02*
X713Y817D01*
X275Y816D02*
X289Y816D01*
X700Y816D02*
X715Y816D01*
X273Y815D02*
X287Y815D01*
X702Y815D02*
X716Y815D01*
X271Y814D02*
X286Y814D01*
X703Y814D02*
X718Y814D01*
X270Y813D02*
X284Y813D01*
X705Y813D02*
X720Y813D01*
X268Y812D02*
X282Y812D01*
X707Y812D02*
X721Y812D01*
X266Y811D02*
X281Y811D01*
X708Y811D02*
X723Y811D01*
X265Y810D02*
X279Y810D01*
X710Y810D02*
X724Y810D01*
X263Y809D02*
X277Y809D01*
X712Y809D02*
X726Y809D01*
X262Y808D02*
X276Y808D01*
X713Y808D02*
X727Y808D01*
X260Y807D02*
X274Y807D01*
X715Y807D02*
X729Y807D01*
X259Y806D02*
X272Y806D01*
X717Y806D02*
X730Y806D01*
X257Y805D02*
X271Y805D01*
X718Y805D02*
X732Y805D01*
X256Y804D02*
X269Y804D01*
X720Y804D02*
X733Y804D01*
X254Y803D02*
X268Y803D01*
X722Y803D02*
X735Y803D01*
X253Y802D02*
X266Y802D01*
X723Y802D02*
X736Y802D01*
X251Y801D02*
X265Y801D01*
X725Y801D02*
X738Y801D01*
X250Y800D02*
X263Y800D01*
X726Y800D02*
X739Y800D01*
X249Y799D02*
X261Y799D01*
X728Y799D02*
X741Y799D01*
X247Y798D02*
X260Y798D01*
X729Y798D02*
X742Y798D01*
X246Y797D02*
X258Y797D01*
X731Y797D02*
X743Y797D01*
X244Y796D02*
X257Y796D01*
X732Y796D02*
X745Y796D01*
X243Y795D02*
X255Y795D01*
X734Y795D02*
X746Y795D01*
X242Y794D02*
X254Y794D01*
X735Y794D02*
X748Y794D01*
X240Y793D02*
X253Y793D01*
X736Y793D02*
X749Y793D01*
X239Y792D02*
X251Y792D01*
X738Y792D02*
X750Y792D01*
X237Y791D02*
X250Y791D01*
X739Y791D02*
X752Y791D01*
X236Y790D02*
X248Y790D01*
X741Y790D02*
X753Y790D01*
X235Y789D02*
X247Y789D01*
X742Y789D02*
X754Y789D01*
X234Y788D02*
X246Y788D01*
X743Y788D02*
X755Y788D01*
X232Y787D02*
X244Y787D01*
X745Y787D02*
X757Y787D01*
X231Y786D02*
X243Y786D01*
X746Y786D02*
X758Y786D01*
X230Y785D02*
X242Y785D01*
X748Y785D02*
X759Y785D01*
X229Y784D02*
X240Y784D01*
X749Y784D02*
X761Y784D01*
X227Y783D02*
X239Y783D01*
X750Y783D02*
X762Y783D01*
X226Y782D02*
X238Y782D01*
X751Y782D02*
X763Y782D01*
X225Y781D02*
X236Y781D01*
X753Y781D02*
X764Y781D01*
X224Y780D02*
X235Y780D01*
X754Y780D02*
X766Y780D01*
X222Y779D02*
X234Y779D01*
X755Y779D02*
X767Y779D01*
X221Y778D02*
X233Y778D01*
X757Y778D02*
X768Y778D01*
X220Y777D02*
X231Y777D01*
X758Y777D02*
X769Y777D01*
X219Y776D02*
X230Y776D01*
X759Y776D02*
X770Y776D01*
X218Y775D02*
X229Y775D01*
X760Y775D02*
X771Y775D01*
X217Y774D02*
X227Y774D01*
X762Y774D02*
X773Y774D01*
X215Y773D02*
X226Y773D01*
X763Y773D02*
X774Y773D01*
X214Y772D02*
X225Y772D01*
X764Y772D02*
X775Y772D01*
X213Y771D02*
X224Y771D01*
X765Y771D02*
X776Y771D01*
X212Y770D02*
X223Y770D01*
X766Y770D02*
X777Y770D01*
X211Y769D02*
X222Y769D01*
X767Y769D02*
X778Y769D01*
X210Y768D02*
X220Y768D01*
X769Y768D02*
X780Y768D01*
X208Y767D02*
X219Y767D01*
X770Y767D02*
X781Y767D01*
X207Y766D02*
X218Y766D01*
X771Y766D02*
X782Y766D01*
X206Y765D02*
X217Y765D01*
X772Y765D02*
X783Y765D01*
X205Y764D02*
X216Y764D01*
X773Y764D02*
X784Y764D01*
X204Y763D02*
X215Y763D01*
X774Y763D02*
X785Y763D01*
X203Y762D02*
X213Y762D01*
X776Y762D02*
X786Y762D01*
X202Y761D02*
X212Y761D01*
X777Y761D02*
X787Y761D01*
X201Y760D02*
X211Y760D01*
X778Y760D02*
X788Y760D01*
X200Y759D02*
X210Y759D01*
X779Y759D02*
X789Y759D01*
X199Y758D02*
X209Y758D01*
X780Y758D02*
X790Y758D01*
X198Y757D02*
X208Y757D01*
X781Y757D02*
X791Y757D01*
X197Y756D02*
X207Y756D01*
X782Y756D02*
X792Y756D01*
X196Y755D02*
X206Y755D01*
X783Y755D02*
X793Y755D01*
X195Y754D02*
X205Y754D01*
X784Y754D02*
X794Y754D01*
X194Y753D02*
X204Y753D01*
X785Y753D02*
X795Y753D01*
X193Y752D02*
X203Y752D01*
X786Y752D02*
X796Y752D01*
X192Y751D02*
X202Y751D01*
X787Y751D02*
X797Y751D01*
X191Y750D02*
X201Y750D01*
X788Y750D02*
X798Y750D01*
X190Y749D02*
X200Y749D01*
X789Y749D02*
X799Y749D01*
X189Y748D02*
X199Y748D01*
X790Y748D02*
X800Y748D01*
X188Y747D02*
X198Y747D01*
X791Y747D02*
X801Y747D01*
X187Y746D02*
X197Y746D01*
X792Y746D02*
X802Y746D01*
X186Y745D02*
X196Y745D01*
X793Y745D02*
X803Y745D01*
X185Y744D02*
X195Y744D01*
X794Y744D02*
X804Y744D01*
X184Y743D02*
X194Y743D01*
X795Y743D02*
X805Y743D01*
X183Y742D02*
X193Y742D01*
X796Y742D02*
X806Y742D01*
X182Y741D02*
X192Y741D01*
X797Y741D02*
X807Y741D01*
X181Y740D02*
X191Y740D01*
X798Y740D02*
X808Y740D01*
X180Y739D02*
X190Y739D01*
X799Y739D02*
X809Y739D01*
X179Y738D02*
X189Y738D01*
X800Y738D02*
X810Y738D01*
X179Y737D02*
X188Y737D01*
X801Y737D02*
X811Y737D01*
X178Y736D02*
X187Y736D01*
X802Y736D02*
X811Y736D01*
X177Y735D02*
X186Y735D01*
X803Y735D02*
X812Y735D01*
X176Y734D02*
X185Y734D01*
X804Y734D02*
X813Y734D01*
X175Y733D02*
X184Y733D01*
X805Y733D02*
X814Y733D01*
X174Y732D02*
X183Y732D01*
X806Y732D02*
X815Y732D01*
X173Y731D02*
X182Y731D01*
X807Y731D02*
X816Y731D01*
X172Y730D02*
X182Y730D01*
X808Y730D02*
X817Y730D01*
X171Y729D02*
X181Y729D01*
X808Y729D02*
X818Y729D01*
X171Y728D02*
X180Y728D01*
X809Y728D02*
X819Y728D01*
X170Y727D02*
X179Y727D01*
X810Y727D02*
X819Y727D01*
X169Y726D02*
X178Y726D01*
X811Y726D02*
X820Y726D01*
X168Y725D02*
X177Y725D01*
X812Y725D02*
X821Y725D01*
X167Y724D02*
X176Y724D01*
X813Y724D02*
X822Y724D01*
X166Y723D02*
X175Y723D01*
X814Y723D02*
X823Y723D01*
X166Y722D02*
X174Y722D01*
X815Y722D02*
X824Y722D01*
X165Y721D02*
X174Y721D01*
X815Y721D02*
X824Y721D01*
X164Y720D02*
X173Y720D01*
X816Y720D02*
X825Y720D01*
X163Y719D02*
X172Y719D01*
X817Y719D02*
X826Y719D01*
X162Y718D02*
X171Y718D01*
X818Y718D02*
X827Y718D01*
X161Y717D02*
X170Y717D01*
X819Y717D02*
X828Y717D01*
X161Y716D02*
X170Y716D01*
X820Y716D02*
X828Y716D01*
X160Y715D02*
X169Y715D01*
X820Y715D02*
X829Y715D01*
X159Y714D02*
X168Y714D01*
X821Y714D02*
X830Y714D01*
X158Y713D02*
X167Y713D01*
X822Y713D02*
X831Y713D01*
X158Y712D02*
X166Y712D01*
X823Y712D02*
X832Y712D01*
X157Y711D02*
X165Y711D01*
X824Y711D02*
X832Y711D01*
X156Y710D02*
X165Y710D01*
X825Y710D02*
X833Y710D01*
X155Y709D02*
X164Y709D01*
X825Y709D02*
X834Y709D01*
X155Y708D02*
X163Y708D01*
X826Y708D02*
X835Y708D01*
X154Y707D02*
X162Y707D01*
X827Y707D02*
X835Y707D01*
X153Y706D02*
X162Y706D01*
X828Y706D02*
X836Y706D01*
X152Y705D02*
X161Y705D01*
X828Y705D02*
X837Y705D01*
X151Y704D02*
X160Y704D01*
X829Y704D02*
X838Y704D01*
X151Y703D02*
X159Y703D01*
X830Y703D02*
X838Y703D01*
X150Y702D02*
X158Y702D01*
X831Y702D02*
X839Y702D01*
X149Y701D02*
X158Y701D01*
X831Y701D02*
X840Y701D01*
X148Y700D02*
X157Y700D01*
X832Y700D02*
X841Y700D01*
X148Y699D02*
X156Y699D01*
X833Y699D02*
X841Y699D01*
X147Y698D02*
X155Y698D01*
X834Y698D02*
X842Y698D01*
X146Y697D02*
X155Y697D01*
X834Y697D02*
X843Y697D01*
X146Y696D02*
X154Y696D01*
X835Y696D02*
X843Y696D01*
X145Y695D02*
X153Y695D01*
X836Y695D02*
X844Y695D01*
X144Y694D02*
X153Y694D01*
X837Y694D02*
X845Y694D01*
X144Y693D02*
X152Y693D01*
X837Y693D02*
X845Y693D01*
X143Y692D02*
X151Y692D01*
X838Y692D02*
X846Y692D01*
X142Y691D02*
X150Y691D01*
X839Y691D02*
X847Y691D01*
X142Y690D02*
X150Y690D01*
X839Y690D02*
X848Y690D01*
X141Y689D02*
X149Y689D01*
X840Y689D02*
X848Y689D01*
X140Y688D02*
X148Y688D01*
X841Y688D02*
X849Y688D01*
X139Y687D02*
X148Y687D01*
X841Y687D02*
X850Y687D01*
X139Y686D02*
X147Y686D01*
X842Y686D02*
X850Y686D01*
X138Y685D02*
X146Y685D01*
X843Y685D02*
X851Y685D01*
X138Y684D02*
X146Y684D01*
X844Y684D02*
X852Y684D01*
X137Y683D02*
X145Y683D01*
X844Y683D02*
X852Y683D01*
X136Y682D02*
X144Y682D01*
X845Y682D02*
X853Y682D01*
X136Y681D02*
X144Y681D01*
X846Y681D02*
X854Y681D01*
X135Y680D02*
X143Y680D01*
X846Y680D02*
X854Y680D01*
X134Y679D02*
X142Y679D01*
X847Y679D02*
X855Y679D01*
X134Y678D02*
X142Y678D01*
X847Y678D02*
X855Y678D01*
X133Y677D02*
X141Y677D01*
X848Y677D02*
X856Y677D01*
X132Y676D02*
X140Y676D01*
X849Y676D02*
X857Y676D01*
X132Y675D02*
X140Y675D01*
X849Y675D02*
X857Y675D01*
X131Y674D02*
X139Y674D01*
X850Y674D02*
X858Y674D01*
X131Y673D02*
X138Y673D01*
X851Y673D02*
X859Y673D01*
X130Y672D02*
X138Y672D01*
X851Y672D02*
X859Y672D01*
X129Y671D02*
X137Y671D01*
X852Y671D02*
X860Y671D01*
X129Y670D02*
X137Y670D01*
X853Y670D02*
X860Y670D01*
X128Y669D02*
X136Y669D01*
X853Y669D02*
X861Y669D01*
X128Y668D02*
X135Y668D01*
X854Y668D02*
X862Y668D01*
X127Y667D02*
X135Y667D01*
X854Y667D02*
X862Y667D01*
X126Y666D02*
X134Y666D01*
X855Y666D02*
X863Y666D01*
X126Y665D02*
X134Y665D01*
X856Y665D02*
X863Y665D01*
X125Y664D02*
X133Y664D01*
X856Y664D02*
X864Y664D01*
X125Y663D02*
X132Y663D01*
X857Y663D02*
X864Y663D01*
X124Y662D02*
X132Y662D01*
X857Y662D02*
X865Y662D01*
X124Y661D02*
X131Y661D01*
X858Y661D02*
X866Y661D01*
X123Y660D02*
X131Y660D01*
X858Y660D02*
X866Y660D01*
X122Y659D02*
X130Y659D01*
X859Y659D02*
X867Y659D01*
X122Y658D02*
X129Y658D01*
X860Y658D02*
X867Y658D01*
X121Y657D02*
X129Y657D01*
X860Y657D02*
X868Y657D01*
X121Y656D02*
X128Y656D01*
X861Y656D02*
X868Y656D01*
X120Y655D02*
X128Y655D01*
X861Y655D02*
X869Y655D01*
X120Y654D02*
X127Y654D01*
X862Y654D02*
X870Y654D01*
X119Y653D02*
X127Y653D01*
X862Y653D02*
X870Y653D01*
X118Y652D02*
X126Y652D01*
X863Y652D02*
X871Y652D01*
X118Y651D02*
X125Y651D01*
X864Y651D02*
X871Y651D01*
X117Y650D02*
X125Y650D01*
X864Y650D02*
X872Y650D01*
X117Y649D02*
X124Y649D01*
X865Y649D02*
X872Y649D01*
X116Y648D02*
X124Y648D01*
X865Y648D02*
X873Y648D01*
X116Y647D02*
X123Y647D01*
X866Y647D02*
X873Y647D01*
X115Y646D02*
X123Y646D01*
X866Y646D02*
X874Y646D01*
X115Y645D02*
X122Y645D01*
X867Y645D02*
X874Y645D01*
X114Y644D02*
X122Y644D01*
X867Y644D02*
X875Y644D01*
X114Y643D02*
X121Y643D01*
X868Y643D02*
X875Y643D01*
X113Y642D02*
X121Y642D01*
X868Y642D02*
X876Y642D01*
X113Y641D02*
X120Y641D01*
X869Y641D02*
X876Y641D01*
X112Y640D02*
X120Y640D01*
X869Y640D02*
X877Y640D01*
X112Y639D02*
X119Y639D01*
X870Y639D02*
X877Y639D01*
X111Y638D02*
X119Y638D01*
X870Y638D02*
X878Y638D01*
X111Y637D02*
X118Y637D01*
X871Y637D02*
X878Y637D01*
X110Y636D02*
X118Y636D01*
X871Y636D02*
X879Y636D01*
X110Y635D02*
X117Y635D01*
X872Y635D02*
X879Y635D01*
X109Y634D02*
X117Y634D01*
X872Y634D02*
X880Y634D01*
X109Y633D02*
X116Y633D01*
X873Y633D02*
X880Y633D01*
X108Y632D02*
X116Y632D01*
X873Y632D02*
X881Y632D01*
X108Y631D02*
X115Y631D01*
X874Y631D02*
X881Y631D01*
X107Y630D02*
X115Y630D01*
X874Y630D02*
X882Y630D01*
X107Y629D02*
X114Y629D01*
X875Y629D02*
X882Y629D01*
X107Y628D02*
X114Y628D01*
X875Y628D02*
X883Y628D01*
X106Y627D02*
X113Y627D01*
X876Y627D02*
X883Y627D01*
X106Y626D02*
X113Y626D01*
X876Y626D02*
X884Y626D01*
X105Y625D02*
X112Y625D01*
X877Y625D02*
X884Y625D01*
X105Y624D02*
X112Y624D01*
X877Y624D02*
X884Y624D01*
X104Y623D02*
X112Y623D01*
X878Y623D02*
X885Y623D01*
X104Y622D02*
X111Y622D01*
X878Y622D02*
X885Y622D01*
X103Y621D02*
X111Y621D01*
X879Y621D02*
X886Y621D01*
X103Y620D02*
X110Y620D01*
X879Y620D02*
X886Y620D01*
X102Y619D02*
X110Y619D01*
X879Y619D02*
X887Y619D01*
X102Y618D02*
X109Y618D01*
X880Y618D02*
X887Y618D01*
X102Y617D02*
X109Y617D01*
X880Y617D02*
X887Y617D01*
X101Y616D02*
X108Y616D01*
X881Y616D02*
X888Y616D01*
X101Y615D02*
X108Y615D01*
X881Y615D02*
X888Y615D01*
X100Y614D02*
X108Y614D01*
X882Y614D02*
X889Y614D01*
X100Y613D02*
X107Y613D01*
X882Y613D02*
X889Y613D01*
X100Y612D02*
X107Y612D01*
X882Y612D02*
X890Y612D01*
X99Y611D02*
X106Y611D01*
X883Y611D02*
X890Y611D01*
X99Y610D02*
X106Y610D01*
X883Y610D02*
X890Y610D01*
X98Y609D02*
X106Y609D01*
X884Y609D02*
X891Y609D01*
X98Y608D02*
X105Y608D01*
X884Y608D02*
X891Y608D01*
X97Y607D02*
X105Y607D01*
X884Y607D02*
X892Y607D01*
X97Y606D02*
X104Y606D01*
X885Y606D02*
X892Y606D01*
X97Y605D02*
X104Y605D01*
X885Y605D02*
X892Y605D01*
X96Y604D02*
X103Y604D01*
X886Y604D02*
X893Y604D01*
X96Y603D02*
X103Y603D01*
X886Y603D02*
X893Y603D01*
X96Y602D02*
X103Y602D01*
X886Y602D02*
X894Y602D01*
X95Y601D02*
X102Y601D01*
X887Y601D02*
X894Y601D01*
X95Y600D02*
X102Y600D01*
X887Y600D02*
X894Y600D01*
X94Y599D02*
X102Y599D01*
X888Y599D02*
X895Y599D01*
X94Y598D02*
X101Y598D01*
X888Y598D02*
X895Y598D01*
X94Y597D02*
X101Y597D01*
X888Y597D02*
X895Y597D01*
X93Y596D02*
X100Y596D01*
X889Y596D02*
X896Y596D01*
X93Y595D02*
X100Y595D01*
X889Y595D02*
X896Y595D01*
X93Y594D02*
X100Y594D01*
X889Y594D02*
X897Y594D01*
X92Y593D02*
X99Y593D01*
X890Y593D02*
X897Y593D01*
X92Y592D02*
X99Y592D01*
X890Y592D02*
X897Y592D01*
X92Y591D02*
X99Y591D01*
X891Y591D02*
X898Y591D01*
X91Y590D02*
X98Y590D01*
X891Y590D02*
X898Y590D01*
X91Y589D02*
X98Y589D01*
X891Y589D02*
X898Y589D01*
X90Y588D02*
X97Y588D01*
X892Y588D02*
X899Y588D01*
X90Y587D02*
X97Y587D01*
X892Y587D02*
X899Y587D01*
X90Y586D02*
X97Y586D01*
X892Y586D02*
X899Y586D01*
X89Y585D02*
X96Y585D01*
X893Y585D02*
X900Y585D01*
X89Y584D02*
X96Y584D01*
X893Y584D02*
X900Y584D01*
X89Y583D02*
X96Y583D01*
X893Y583D02*
X900Y583D01*
X88Y582D02*
X95Y582D01*
X894Y582D02*
X901Y582D01*
X88Y581D02*
X95Y581D01*
X894Y581D02*
X901Y581D01*
X88Y580D02*
X95Y580D01*
X894Y580D02*
X901Y580D01*
X88Y579D02*
X95Y579D01*
X895Y579D02*
X902Y579D01*
X87Y578D02*
X94Y578D01*
X895Y578D02*
X902Y578D01*
X87Y577D02*
X94Y577D01*
X895Y577D02*
X902Y577D01*
X87Y576D02*
X94Y576D01*
X896Y576D02*
X903Y576D01*
X86Y575D02*
X93Y575D01*
X896Y575D02*
X903Y575D01*
X86Y574D02*
X93Y574D01*
X896Y574D02*
X903Y574D01*
X86Y573D02*
X93Y573D01*
X897Y573D02*
X904Y573D01*
X85Y572D02*
X92Y572D01*
X897Y572D02*
X904Y572D01*
X85Y571D02*
X92Y571D01*
X897Y571D02*
X904Y571D01*
X85Y570D02*
X92Y570D01*
X897Y570D02*
X904Y570D01*
X84Y569D02*
X91Y569D01*
X898Y569D02*
X905Y569D01*
X84Y568D02*
X91Y568D01*
X898Y568D02*
X905Y568D01*
X84Y567D02*
X91Y567D01*
X898Y567D02*
X905Y567D01*
X84Y566D02*
X90Y566D01*
X899Y566D02*
X906Y566D01*
X83Y565D02*
X90Y565D01*
X899Y565D02*
X906Y565D01*
X83Y564D02*
X90Y564D01*
X899Y564D02*
X906Y564D01*
X83Y563D02*
X90Y563D01*
X899Y563D02*
X906Y563D01*
X82Y562D02*
X89Y562D01*
X900Y562D02*
X907Y562D01*
X82Y561D02*
X89Y561D01*
X900Y561D02*
X907Y561D01*
X82Y560D02*
X89Y560D01*
X900Y560D02*
X907Y560D01*
X82Y559D02*
X89Y559D01*
X901Y559D02*
X907Y559D01*
X81Y558D02*
X88Y558D01*
X901Y558D02*
X908Y558D01*
X81Y557D02*
X88Y557D01*
X901Y557D02*
X908Y557D01*
X81Y556D02*
X88Y556D01*
X901Y556D02*
X908Y556D01*
X81Y555D02*
X88Y555D01*
X902Y555D02*
X909Y555D01*
X80Y554D02*
X87Y554D01*
X902Y554D02*
X909Y554D01*
X80Y553D02*
X87Y553D01*
X902Y553D02*
X909Y553D01*
X80Y552D02*
X87Y552D01*
X902Y552D02*
X909Y552D01*
X80Y551D02*
X86Y551D01*
X903Y551D02*
X910Y551D01*
X79Y550D02*
X86Y550D01*
X903Y550D02*
X910Y550D01*
X79Y549D02*
X86Y549D01*
X903Y549D02*
X910Y549D01*
X79Y548D02*
X86Y548D01*
X903Y548D02*
X910Y548D01*
X79Y547D02*
X86Y547D01*
X904Y547D02*
X910Y547D01*
X78Y546D02*
X85Y546D01*
X904Y546D02*
X911Y546D01*
X78Y545D02*
X85Y545D01*
X904Y545D02*
X911Y545D01*
X78Y544D02*
X85Y544D01*
X904Y544D02*
X911Y544D01*
X78Y543D02*
X85Y543D01*
X905Y543D02*
X911Y543D01*
X78Y542D02*
X84Y542D01*
X905Y542D02*
X912Y542D01*
X77Y541D02*
X84Y541D01*
X905Y541D02*
X912Y541D01*
X77Y540D02*
X84Y540D01*
X905Y540D02*
X912Y540D01*
X77Y539D02*
X84Y539D01*
X905Y539D02*
X912Y539D01*
X77Y538D02*
X83Y538D01*
X906Y538D02*
X913Y538D01*
X76Y537D02*
X83Y537D01*
X906Y537D02*
X913Y537D01*
X76Y536D02*
X83Y536D01*
X906Y536D02*
X913Y536D01*
X76Y535D02*
X83Y535D01*
X906Y535D02*
X913Y535D01*
X76Y534D02*
X83Y534D01*
X907Y534D02*
X913Y534D01*
X76Y533D02*
X82Y533D01*
X907Y533D02*
X914Y533D01*
X75Y532D02*
X82Y532D01*
X907Y532D02*
X914Y532D01*
X75Y531D02*
X82Y531D01*
X907Y531D02*
X914Y531D01*
X75Y530D02*
X82Y530D01*
X907Y530D02*
X914Y530D01*
X75Y529D02*
X82Y529D01*
X907Y529D02*
X914Y529D01*
X75Y528D02*
X81Y528D01*
X908Y528D02*
X914Y528D01*
X74Y527D02*
X81Y527D01*
X908Y527D02*
X915Y527D01*
X74Y526D02*
X81Y526D01*
X908Y526D02*
X915Y526D01*
X74Y525D02*
X81Y525D01*
X908Y525D02*
X915Y525D01*
X74Y524D02*
X81Y524D01*
X908Y524D02*
X915Y524D01*
X74Y523D02*
X81Y523D01*
X909Y523D02*
X915Y523D01*
X74Y522D02*
X80Y522D01*
X909Y522D02*
X916Y522D01*
X73Y521D02*
X80Y521D01*
X909Y521D02*
X916Y521D01*
X73Y520D02*
X80Y520D01*
X909Y520D02*
X916Y520D01*
X73Y519D02*
X80Y519D01*
X909Y519D02*
X916Y519D01*
X73Y518D02*
X80Y518D01*
X909Y518D02*
X916Y518D01*
X73Y517D02*
X79Y517D01*
X910Y517D02*
X917Y517D01*
X72Y516D02*
X79Y516D01*
X910Y516D02*
X917Y516D01*
X72Y515D02*
X79Y515D01*
X910Y515D02*
X917Y515D01*
X72Y514D02*
X79Y514D01*
X910Y514D02*
X917Y514D01*
X72Y513D02*
X79Y513D01*
X910Y513D02*
X917Y513D01*
X72Y512D02*
X79Y512D01*
X910Y512D02*
X917Y512D01*
X72Y511D02*
X79Y511D01*
X911Y511D02*
X917Y511D01*
X72Y510D02*
X78Y510D01*
X911Y510D02*
X917Y510D01*
X71Y509D02*
X78Y509D01*
X911Y509D02*
X918Y509D01*
X71Y508D02*
X78Y508D01*
X911Y508D02*
X918Y508D01*
X71Y507D02*
X78Y507D01*
X911Y507D02*
X918Y507D01*
X71Y506D02*
X78Y506D01*
X911Y506D02*
X918Y506D01*
X71Y505D02*
X78Y505D01*
X911Y505D02*
X918Y505D01*
X71Y504D02*
X78Y504D01*
X911Y504D02*
X918Y504D01*
X71Y503D02*
X77Y503D01*
X912Y503D02*
X918Y503D01*
X71Y502D02*
X77Y502D01*
X912Y502D02*
X919Y502D01*
X70Y501D02*
X77Y501D01*
X912Y501D02*
X919Y501D01*
X70Y500D02*
X77Y500D01*
X912Y500D02*
X919Y500D01*
X70Y499D02*
X77Y499D01*
X912Y499D02*
X919Y499D01*
X70Y498D02*
X77Y498D01*
X912Y498D02*
X919Y498D01*
X70Y497D02*
X77Y497D01*
X912Y497D02*
X919Y497D01*
X70Y496D02*
X77Y496D01*
X912Y496D02*
X919Y496D01*
X70Y495D02*
X77Y495D01*
X913Y495D02*
X919Y495D01*
X70Y494D02*
X76Y494D01*
X913Y494D02*
X920Y494D01*
X70Y493D02*
X76Y493D01*
X913Y493D02*
X920Y493D01*
X69Y492D02*
X76Y492D01*
X913Y492D02*
X920Y492D01*
X69Y491D02*
X76Y491D01*
X913Y491D02*
X920Y491D01*
X69Y490D02*
X76Y490D01*
X913Y490D02*
X920Y490D01*
X69Y489D02*
X76Y489D01*
X913Y489D02*
X920Y489D01*
X69Y488D02*
X76Y488D01*
X913Y488D02*
X920Y488D01*
X69Y487D02*
X76Y487D01*
X913Y487D02*
X920Y487D01*
X69Y486D02*
X76Y486D01*
X913Y486D02*
X920Y486D01*
X69Y485D02*
X76Y485D01*
X914Y485D02*
X920Y485D01*
X69Y484D02*
X75Y484D01*
X914Y484D02*
X920Y484D01*
X69Y483D02*
X75Y483D01*
X914Y483D02*
X921Y483D01*
X68Y482D02*
X75Y482D01*
X914Y482D02*
X921Y482D01*
X68Y481D02*
X75Y481D01*
X914Y481D02*
X921Y481D01*
X68Y480D02*
X75Y480D01*
X914Y480D02*
X921Y480D01*
X68Y479D02*
X75Y479D01*
X914Y479D02*
X921Y479D01*
X68Y478D02*
X75Y478D01*
X914Y478D02*
X921Y478D01*
X68Y477D02*
X75Y477D01*
X914Y477D02*
X921Y477D01*
X68Y476D02*
X75Y476D01*
X914Y476D02*
X921Y476D01*
X68Y475D02*
X75Y475D01*
X914Y475D02*
X921Y475D01*
X68Y474D02*
X75Y474D01*
X914Y474D02*
X921Y474D01*
X68Y473D02*
X75Y473D01*
X914Y473D02*
X921Y473D01*
X68Y472D02*
X75Y472D01*
X914Y472D02*
X921Y472D01*
X68Y471D02*
X75Y471D01*
X915Y471D02*
X921Y471D01*
X68Y470D02*
X75Y470D01*
X915Y470D02*
X921Y470D01*
X68Y469D02*
X75Y469D01*
X915Y469D02*
X921Y469D01*
X68Y468D02*
X74Y468D01*
X915Y468D02*
X922Y468D01*
X68Y467D02*
X74Y467D01*
X915Y467D02*
X922Y467D01*
X68Y466D02*
X74Y466D01*
X915Y466D02*
X922Y466D01*
X67Y465D02*
X74Y465D01*
X915Y465D02*
X922Y465D01*
X67Y464D02*
X74Y464D01*
X915Y464D02*
X922Y464D01*
X67Y463D02*
X74Y463D01*
X915Y463D02*
X922Y463D01*
X67Y462D02*
X74Y462D01*
X915Y462D02*
X922Y462D01*
X67Y461D02*
X74Y461D01*
X915Y461D02*
X922Y461D01*
X67Y460D02*
X74Y460D01*
X915Y460D02*
X922Y460D01*
X67Y459D02*
X74Y459D01*
X915Y459D02*
X922Y459D01*
X67Y458D02*
X74Y458D01*
X915Y458D02*
X922Y458D01*
X67Y457D02*
X74Y457D01*
X915Y457D02*
X922Y457D01*
X67Y456D02*
X74Y456D01*
X915Y456D02*
X922Y456D01*
X67Y455D02*
X74Y455D01*
X915Y455D02*
X922Y455D01*
X67Y454D02*
X74Y454D01*
X915Y454D02*
X922Y454D01*
X67Y453D02*
X74Y453D01*
X915Y453D02*
X922Y453D01*
X67Y452D02*
X74Y452D01*
X915Y452D02*
X922Y452D01*
X67Y451D02*
X74Y451D01*
X915Y451D02*
X922Y451D01*
X67Y450D02*
X74Y450D01*
X915Y450D02*
X922Y450D01*
X67Y449D02*
X74Y449D01*
X915Y449D02*
X922Y449D01*
X67Y448D02*
X74Y448D01*
X915Y448D02*
X922Y448D01*
X67Y447D02*
X74Y447D01*
X915Y447D02*
X922Y447D01*
X67Y446D02*
X74Y446D01*
X915Y446D02*
X922Y446D01*
X67Y445D02*
X74Y445D01*
X915Y445D02*
X922Y445D01*
X67Y444D02*
X74Y444D01*
X915Y444D02*
X922Y444D01*
X67Y443D02*
X74Y443D01*
X915Y443D02*
X922Y443D01*
X67Y442D02*
X74Y442D01*
X915Y442D02*
X922Y442D01*
X67Y441D02*
X74Y441D01*
X915Y441D02*
X922Y441D01*
X67Y440D02*
X74Y440D01*
X915Y440D02*
X922Y440D01*
X67Y439D02*
X74Y439D01*
X915Y439D02*
X922Y439D01*
X67Y438D02*
X74Y438D01*
X915Y438D02*
X922Y438D01*
X67Y437D02*
X74Y437D01*
X915Y437D02*
X922Y437D01*
X67Y436D02*
X74Y436D01*
X915Y436D02*
X922Y436D01*
X67Y435D02*
X74Y435D01*
X915Y435D02*
X922Y435D01*
X67Y434D02*
X74Y434D01*
X915Y434D02*
X922Y434D01*
X67Y433D02*
X74Y433D01*
X915Y433D02*
X922Y433D01*
X68Y432D02*
X74Y432D01*
X915Y432D02*
X922Y432D01*
X68Y431D02*
X75Y431D01*
X915Y431D02*
X922Y431D01*
X68Y430D02*
X75Y430D01*
X915Y430D02*
X922Y430D01*
X68Y429D02*
X75Y429D01*
X915Y429D02*
X921Y429D01*
X68Y428D02*
X75Y428D01*
X914Y428D02*
X921Y428D01*
X68Y427D02*
X75Y427D01*
X914Y427D02*
X921Y427D01*
X68Y426D02*
X75Y426D01*
X914Y426D02*
X921Y426D01*
X68Y425D02*
X75Y425D01*
X914Y425D02*
X921Y425D01*
X68Y424D02*
X75Y424D01*
X914Y424D02*
X921Y424D01*
X68Y423D02*
X75Y423D01*
X914Y423D02*
X921Y423D01*
X68Y422D02*
X75Y422D01*
X914Y422D02*
X921Y422D01*
X68Y421D02*
X75Y421D01*
X916Y421D02*
X921Y421D01*
X68Y420D02*
X75Y420D01*
X917Y420D02*
X921Y420D01*
X68Y419D02*
X75Y419D01*
X919Y419D02*
X921Y419D01*
X68Y418D02*
X75Y418D01*
X920Y418D02*
X921Y418D01*
X68Y417D02*
X75Y417D01*
X68Y416D02*
X75Y416D01*
X69Y415D02*
X76Y415D01*
X69Y414D02*
X76Y414D01*
X69Y413D02*
X76Y413D01*
X69Y412D02*
X76Y412D01*
X69Y411D02*
X76Y411D01*
X69Y410D02*
X76Y410D01*
X69Y409D02*
X76Y409D01*
X69Y408D02*
X76Y408D01*
X69Y407D02*
X76Y407D01*
X69Y406D02*
X76Y406D01*
X69Y405D02*
X77Y405D01*
X70Y404D02*
X77Y404D01*
X70Y403D02*
X77Y403D01*
X70Y402D02*
X77Y402D01*
X70Y401D02*
X77Y401D01*
X70Y400D02*
X77Y400D01*
X70Y399D02*
X77Y399D01*
X70Y398D02*
X77Y398D01*
X70Y397D02*
X78Y397D01*
X70Y396D02*
X78Y396D01*
X71Y395D02*
X78Y395D01*
X71Y394D02*
X78Y394D01*
X71Y393D02*
X78Y393D01*
X71Y392D02*
X78Y392D01*
X71Y391D02*
X78Y391D01*
X71Y390D02*
X78Y390D01*
X71Y389D02*
X79Y389D01*
X72Y388D02*
X79Y388D01*
X72Y387D02*
X79Y387D01*
X72Y386D02*
X79Y386D01*
X72Y385D02*
X79Y385D01*
X72Y384D02*
X79Y384D01*
X72Y383D02*
X79Y383D01*
X73Y382D02*
X80Y382D01*
X73Y381D02*
X80Y381D01*
X73Y380D02*
X80Y380D01*
X73Y379D02*
X80Y379D01*
X73Y378D02*
X80Y378D01*
X73Y377D02*
X81Y377D01*
X74Y376D02*
X81Y376D01*
X74Y375D02*
X81Y375D01*
X74Y374D02*
X81Y374D01*
X74Y373D02*
X81Y373D01*
X74Y372D02*
X81Y372D01*
X74Y371D02*
X82Y371D01*
X75Y370D02*
X82Y370D01*
X75Y369D02*
X82Y369D01*
X75Y368D02*
X82Y368D01*
X75Y367D02*
X82Y367D01*
X75Y366D02*
X83Y366D01*
X76Y365D02*
X83Y365D01*
X76Y364D02*
X83Y364D01*
X76Y363D02*
X83Y363D01*
X76Y362D02*
X83Y362D01*
X76Y361D02*
X84Y361D01*
X77Y360D02*
X84Y360D01*
X77Y359D02*
X84Y359D01*
X77Y358D02*
X84Y358D01*
X77Y357D02*
X85Y357D01*
X78Y356D02*
X85Y356D01*
X78Y355D02*
X85Y355D01*
X78Y354D02*
X85Y354D01*
X78Y353D02*
X85Y353D01*
X78Y352D02*
X86Y352D01*
X79Y351D02*
X86Y351D01*
X79Y350D02*
X86Y350D01*
X79Y349D02*
X86Y349D01*
X79Y348D02*
X87Y348D01*
X80Y347D02*
X87Y347D01*
X80Y346D02*
X87Y346D01*
X80Y345D02*
X87Y345D01*
X80Y344D02*
X88Y344D01*
X909Y344D02*
X909Y344D01*
X81Y343D02*
X88Y343D01*
X906Y343D02*
X908Y343D01*
X81Y342D02*
X88Y342D01*
X901Y342D02*
X908Y342D01*
X81Y341D02*
X88Y341D01*
X901Y341D02*
X908Y341D01*
X81Y340D02*
X89Y340D01*
X900Y340D02*
X908Y340D01*
X82Y339D02*
X89Y339D01*
X900Y339D02*
X907Y339D01*
X82Y338D02*
X89Y338D01*
X900Y338D02*
X907Y338D01*
X82Y337D02*
X89Y337D01*
X900Y337D02*
X907Y337D01*
X83Y336D02*
X90Y336D01*
X899Y336D02*
X907Y336D01*
X83Y335D02*
X90Y335D01*
X899Y335D02*
X906Y335D01*
X83Y334D02*
X90Y334D01*
X899Y334D02*
X906Y334D01*
X83Y333D02*
X91Y333D01*
X899Y333D02*
X906Y333D01*
X84Y332D02*
X91Y332D01*
X898Y332D02*
X906Y332D01*
X84Y331D02*
X91Y331D01*
X898Y331D02*
X905Y331D01*
X84Y330D02*
X91Y330D01*
X898Y330D02*
X905Y330D01*
X84Y329D02*
X92Y329D01*
X897Y329D02*
X905Y329D01*
X85Y328D02*
X92Y328D01*
X897Y328D02*
X904Y328D01*
X85Y327D02*
X92Y327D01*
X897Y327D02*
X904Y327D01*
X85Y326D02*
X93Y326D01*
X900Y326D02*
X904Y326D01*
X86Y325D02*
X93Y325D01*
X86Y324D02*
X93Y324D01*
X86Y323D02*
X94Y323D01*
X87Y322D02*
X94Y322D01*
X87Y321D02*
X94Y321D01*
X87Y320D02*
X95Y320D01*
X88Y319D02*
X95Y319D01*
X88Y318D02*
X95Y318D01*
X88Y317D02*
X96Y317D01*
X88Y316D02*
X96Y316D01*
X89Y315D02*
X96Y315D01*
X89Y314D02*
X97Y314D01*
X89Y313D02*
X97Y313D01*
X90Y312D02*
X97Y312D01*
X90Y311D02*
X98Y311D01*
X91Y310D02*
X98Y310D01*
X91Y309D02*
X98Y309D01*
X91Y308D02*
X99Y308D01*
X92Y307D02*
X99Y307D01*
X92Y306D02*
X99Y306D01*
X92Y305D02*
X100Y305D01*
X93Y304D02*
X100Y304D01*
X93Y303D02*
X100Y303D01*
X93Y302D02*
X101Y302D01*
X94Y301D02*
X101Y301D01*
X94Y300D02*
X102Y300D01*
X94Y299D02*
X102Y299D01*
X95Y298D02*
X102Y298D01*
X95Y297D02*
X103Y297D01*
X96Y296D02*
X103Y296D01*
X96Y295D02*
X104Y295D01*
X96Y294D02*
X104Y294D01*
X97Y293D02*
X104Y293D01*
X97Y292D02*
X105Y292D01*
X98Y291D02*
X105Y291D01*
X98Y290D02*
X106Y290D01*
X98Y289D02*
X106Y289D01*
X99Y288D02*
X106Y288D01*
X99Y287D02*
X107Y287D01*
X100Y286D02*
X107Y286D01*
X100Y285D02*
X108Y285D01*
X100Y284D02*
X108Y284D01*
X101Y283D02*
X108Y283D01*
X101Y282D02*
X109Y282D01*
X102Y281D02*
X109Y281D01*
X102Y280D02*
X110Y280D01*
X103Y279D02*
X110Y279D01*
X103Y278D02*
X109Y278D01*
X103Y277D02*
X109Y277D01*
X104Y276D02*
X109Y276D01*
X104Y275D02*
X109Y275D01*
X105Y274D02*
X109Y274D01*
X105Y273D02*
X109Y273D01*
X106Y272D02*
X109Y272D01*
X106Y271D02*
X109Y271D01*
X107Y270D02*
X109Y270D01*
X107Y269D02*
X109Y269D01*
X108Y268D02*
X109Y268D01*
X108Y267D02*
X109Y267D01*
X109Y266D02*
X109Y266D01*
X109Y265D02*
X109Y265D01*
X109Y264D02*
X109Y264D01*
X110Y263D02*
X110Y263D01*
X110Y262D02*
X110Y262D01*
X866Y252D02*
X866Y252D01*
X865Y251D02*
X867Y251D01*
X865Y250D02*
X869Y250D01*
X864Y249D02*
X870Y249D01*
X864Y248D02*
X872Y248D01*
X863Y247D02*
X871Y247D01*
X863Y246D02*
X871Y246D01*
X862Y245D02*
X870Y245D01*
X861Y244D02*
X869Y244D01*
X861Y243D02*
X869Y243D01*
X860Y242D02*
X868Y242D01*
X121Y241D02*
X121Y241D01*
X860Y241D02*
X868Y241D01*
X122Y240D02*
X122Y240D01*
X859Y240D02*
X867Y240D01*
X123Y239D02*
X123Y239D01*
X859Y239D02*
X867Y239D01*
X123Y238D02*
X125Y238D01*
X858Y238D02*
X866Y238D01*
X124Y237D02*
X126Y237D01*
X857Y237D02*
X865Y237D01*
X124Y236D02*
X127Y236D01*
X857Y236D02*
X865Y236D01*
X125Y235D02*
X129Y235D01*
X856Y235D02*
X864Y235D01*
X125Y234D02*
X131Y234D01*
X856Y234D02*
X864Y234D01*
X126Y233D02*
X132Y233D01*
X855Y233D02*
X863Y233D01*
X127Y232D02*
X135Y232D01*
X855Y232D02*
X863Y232D01*
X127Y231D02*
X135Y231D01*
X854Y231D02*
X862Y231D01*
X128Y230D02*
X136Y230D01*
X853Y230D02*
X861Y230D01*
X128Y229D02*
X136Y229D01*
X853Y229D02*
X861Y229D01*
X129Y228D02*
X137Y228D01*
X852Y228D02*
X860Y228D01*
X130Y227D02*
X138Y227D01*
X851Y227D02*
X860Y227D01*
X130Y226D02*
X138Y226D01*
X851Y226D02*
X859Y226D01*
X131Y225D02*
X139Y225D01*
X850Y225D02*
X858Y225D01*
X131Y224D02*
X140Y224D01*
X850Y224D02*
X858Y224D01*
X132Y223D02*
X140Y223D01*
X849Y223D02*
X857Y223D01*
X133Y222D02*
X141Y222D01*
X848Y222D02*
X856Y222D01*
X133Y221D02*
X142Y221D01*
X848Y221D02*
X856Y221D01*
X134Y220D02*
X142Y220D01*
X847Y220D02*
X855Y220D01*
X135Y219D02*
X143Y219D01*
X846Y219D02*
X854Y219D01*
X135Y218D02*
X143Y218D01*
X846Y218D02*
X854Y218D01*
X136Y217D02*
X144Y217D01*
X845Y217D02*
X853Y217D01*
X137Y216D02*
X145Y216D01*
X844Y216D02*
X853Y216D01*
X137Y215D02*
X145Y215D01*
X844Y215D02*
X852Y215D01*
X138Y214D02*
X146Y214D01*
X843Y214D02*
X851Y214D01*
X138Y213D02*
X147Y213D01*
X842Y213D02*
X851Y213D01*
X139Y212D02*
X148Y212D01*
X842Y212D02*
X850Y212D01*
X140Y211D02*
X148Y211D01*
X841Y211D02*
X849Y211D01*
X141Y210D02*
X149Y210D01*
X840Y210D02*
X849Y210D01*
X141Y209D02*
X150Y209D01*
X840Y209D02*
X848Y209D01*
X142Y208D02*
X150Y208D01*
X839Y208D02*
X847Y208D01*
X143Y207D02*
X151Y207D01*
X838Y207D02*
X846Y207D01*
X143Y206D02*
X152Y206D01*
X837Y206D02*
X846Y206D01*
X144Y205D02*
X152Y205D01*
X837Y205D02*
X845Y205D01*
X145Y204D02*
X153Y204D01*
X836Y204D02*
X844Y204D01*
X145Y203D02*
X154Y203D01*
X835Y203D02*
X844Y203D01*
X146Y202D02*
X155Y202D01*
X835Y202D02*
X843Y202D01*
X147Y201D02*
X155Y201D01*
X834Y201D02*
X842Y201D01*
X147Y200D02*
X156Y200D01*
X833Y200D02*
X842Y200D01*
X148Y199D02*
X157Y199D01*
X832Y199D02*
X841Y199D01*
X149Y198D02*
X158Y198D01*
X832Y198D02*
X840Y198D01*
X150Y197D02*
X158Y197D01*
X831Y197D02*
X839Y197D01*
X150Y196D02*
X159Y196D01*
X830Y196D02*
X839Y196D01*
X151Y195D02*
X160Y195D01*
X829Y195D02*
X838Y195D01*
X152Y194D02*
X161Y194D01*
X829Y194D02*
X837Y194D01*
X153Y193D02*
X161Y193D01*
X828Y193D02*
X836Y193D01*
X153Y192D02*
X162Y192D01*
X827Y192D02*
X836Y192D01*
X154Y191D02*
X163Y191D01*
X826Y191D02*
X835Y191D01*
X155Y190D02*
X164Y190D01*
X826Y190D02*
X834Y190D01*
X156Y189D02*
X164Y189D01*
X825Y189D02*
X833Y189D01*
X157Y188D02*
X165Y188D01*
X824Y188D02*
X833Y188D01*
X157Y187D02*
X166Y187D01*
X823Y187D02*
X832Y187D01*
X158Y186D02*
X167Y186D01*
X822Y186D02*
X831Y186D01*
X159Y185D02*
X168Y185D01*
X821Y185D02*
X830Y185D01*
X160Y184D02*
X168Y184D01*
X821Y184D02*
X830Y184D01*
X160Y183D02*
X169Y183D01*
X820Y183D02*
X829Y183D01*
X161Y182D02*
X170Y182D01*
X819Y182D02*
X828Y182D01*
X162Y181D02*
X171Y181D01*
X818Y181D02*
X827Y181D01*
X163Y180D02*
X172Y180D01*
X817Y180D02*
X826Y180D01*
X164Y179D02*
X173Y179D01*
X817Y179D02*
X825Y179D01*
X165Y178D02*
X173Y178D01*
X816Y178D02*
X825Y178D01*
X165Y177D02*
X174Y177D01*
X815Y177D02*
X824Y177D01*
X166Y176D02*
X175Y176D01*
X814Y176D02*
X823Y176D01*
X167Y175D02*
X176Y175D01*
X813Y175D02*
X822Y175D01*
X168Y174D02*
X177Y174D01*
X812Y174D02*
X821Y174D01*
X169Y173D02*
X178Y173D01*
X811Y173D02*
X820Y173D01*
X169Y172D02*
X179Y172D01*
X811Y172D02*
X820Y172D01*
X170Y171D02*
X179Y171D01*
X810Y171D02*
X819Y171D01*
X171Y170D02*
X180Y170D01*
X809Y170D02*
X818Y170D01*
X172Y169D02*
X181Y169D01*
X808Y169D02*
X817Y169D01*
X173Y168D02*
X182Y168D01*
X807Y168D02*
X816Y168D01*
X174Y167D02*
X183Y167D01*
X806Y167D02*
X815Y167D01*
X175Y166D02*
X184Y166D01*
X805Y166D02*
X814Y166D01*
X176Y165D02*
X185Y165D01*
X804Y165D02*
X813Y165D01*
X177Y164D02*
X186Y164D01*
X803Y164D02*
X813Y164D01*
X177Y163D02*
X187Y163D01*
X802Y163D02*
X812Y163D01*
X178Y162D02*
X188Y162D01*
X802Y162D02*
X811Y162D01*
X179Y161D02*
X189Y161D01*
X801Y161D02*
X810Y161D01*
X180Y160D02*
X190Y160D01*
X800Y160D02*
X809Y160D01*
X181Y159D02*
X190Y159D01*
X799Y159D02*
X808Y159D01*
X182Y158D02*
X191Y158D01*
X798Y158D02*
X807Y158D01*
X183Y157D02*
X192Y157D01*
X797Y157D02*
X806Y157D01*
X184Y156D02*
X193Y156D01*
X796Y156D02*
X805Y156D01*
X185Y155D02*
X194Y155D01*
X795Y155D02*
X804Y155D01*
X186Y154D02*
X195Y154D01*
X794Y154D02*
X803Y154D01*
X187Y153D02*
X196Y153D01*
X793Y153D02*
X802Y153D01*
X188Y152D02*
X197Y152D01*
X792Y152D02*
X801Y152D01*
X189Y151D02*
X198Y151D01*
X791Y151D02*
X800Y151D01*
X190Y150D02*
X199Y150D01*
X790Y150D02*
X799Y150D01*
X191Y149D02*
X200Y149D01*
X789Y149D02*
X798Y149D01*
X192Y148D02*
X201Y148D01*
X788Y148D02*
X797Y148D01*
X193Y147D02*
X202Y147D01*
X787Y147D02*
X796Y147D01*
X194Y146D02*
X203Y146D01*
X786Y146D02*
X795Y146D01*
X195Y145D02*
X205Y145D01*
X785Y145D02*
X795Y145D01*
X196Y144D02*
X206Y144D01*
X783Y144D02*
X794Y144D01*
X197Y143D02*
X207Y143D01*
X782Y143D02*
X792Y143D01*
X198Y142D02*
X208Y142D01*
X781Y142D02*
X791Y142D01*
X199Y141D02*
X209Y141D01*
X780Y141D02*
X790Y141D01*
X200Y140D02*
X210Y140D01*
X779Y140D02*
X789Y140D01*
X201Y139D02*
X211Y139D01*
X778Y139D02*
X788Y139D01*
X202Y138D02*
X212Y138D01*
X777Y138D02*
X787Y138D01*
X203Y137D02*
X213Y137D01*
X776Y137D02*
X786Y137D01*
X204Y136D02*
X214Y136D01*
X775Y136D02*
X785Y136D01*
X205Y135D02*
X215Y135D01*
X774Y135D02*
X784Y135D01*
X206Y134D02*
X217Y134D01*
X773Y134D02*
X783Y134D01*
X207Y133D02*
X218Y133D01*
X771Y133D02*
X782Y133D01*
X208Y132D02*
X219Y132D01*
X770Y132D02*
X781Y132D01*
X209Y131D02*
X220Y131D01*
X769Y131D02*
X780Y131D01*
X211Y130D02*
X221Y130D01*
X768Y130D02*
X778Y130D01*
X212Y129D02*
X222Y129D01*
X767Y129D02*
X777Y129D01*
X213Y128D02*
X224Y128D01*
X766Y128D02*
X776Y128D01*
X214Y127D02*
X225Y127D01*
X764Y127D02*
X775Y127D01*
X215Y126D02*
X226Y126D01*
X763Y126D02*
X774Y126D01*
X216Y125D02*
X227Y125D01*
X762Y125D02*
X773Y125D01*
X218Y124D02*
X228Y124D01*
X761Y124D02*
X772Y124D01*
X219Y123D02*
X230Y123D01*
X760Y123D02*
X770Y123D01*
X220Y122D02*
X231Y122D01*
X758Y122D02*
X769Y122D01*
X221Y121D02*
X232Y121D01*
X757Y121D02*
X768Y121D01*
X222Y120D02*
X233Y120D01*
X756Y120D02*
X767Y120D01*
X223Y119D02*
X235Y119D01*
X755Y119D02*
X766Y119D01*
X225Y118D02*
X236Y118D01*
X753Y118D02*
X764Y118D01*
X226Y117D02*
X237Y117D01*
X752Y117D02*
X763Y117D01*
X227Y116D02*
X238Y116D01*
X751Y116D02*
X762Y116D01*
X229Y115D02*
X240Y115D01*
X749Y115D02*
X761Y115D01*
X230Y114D02*
X241Y114D01*
X748Y114D02*
X759Y114D01*
X231Y113D02*
X242Y113D01*
X747Y113D02*
X758Y113D01*
X232Y112D02*
X244Y112D01*
X745Y112D02*
X757Y112D01*
X234Y111D02*
X245Y111D01*
X744Y111D02*
X756Y111D01*
X235Y110D02*
X246Y110D01*
X743Y110D02*
X754Y110D01*
X236Y109D02*
X248Y109D01*
X741Y109D02*
X753Y109D01*
X237Y108D02*
X249Y108D01*
X740Y108D02*
X752Y108D01*
X239Y107D02*
X251Y107D01*
X738Y107D02*
X750Y107D01*
X240Y106D02*
X252Y106D01*
X737Y106D02*
X749Y106D01*
X242Y105D02*
X253Y105D01*
X736Y105D02*
X748Y105D01*
X243Y104D02*
X255Y104D01*
X734Y104D02*
X746Y104D01*
X244Y103D02*
X256Y103D01*
X733Y103D02*
X745Y103D01*
X246Y102D02*
X258Y102D01*
X731Y102D02*
X743Y102D01*
X247Y101D02*
X259Y101D01*
X730Y101D02*
X742Y101D01*
X248Y100D02*
X261Y100D01*
X728Y100D02*
X741Y100D01*
X250Y99D02*
X262Y99D01*
X727Y99D02*
X739Y99D01*
X251Y98D02*
X264Y98D01*
X725Y98D02*
X738Y98D01*
X253Y97D02*
X265Y97D01*
X724Y97D02*
X736Y97D01*
X254Y96D02*
X267Y96D01*
X722Y96D02*
X735Y96D01*
X256Y95D02*
X268Y95D01*
X721Y95D02*
X733Y95D01*
X257Y94D02*
X270Y94D01*
X719Y94D02*
X732Y94D01*
X259Y93D02*
X272Y93D01*
X718Y93D02*
X730Y93D01*
X260Y92D02*
X273Y92D01*
X716Y92D02*
X729Y92D01*
X262Y91D02*
X275Y91D01*
X714Y91D02*
X727Y91D01*
X263Y90D02*
X277Y90D01*
X713Y90D02*
X726Y90D01*
X265Y89D02*
X278Y89D01*
X711Y89D02*
X724Y89D01*
X266Y88D02*
X280Y88D01*
X709Y88D02*
X723Y88D01*
X268Y87D02*
X282Y87D01*
X708Y87D02*
X721Y87D01*
X270Y86D02*
X283Y86D01*
X706Y86D02*
X720Y86D01*
X271Y85D02*
X285Y85D01*
X704Y85D02*
X718Y85D01*
X273Y84D02*
X287Y84D01*
X702Y84D02*
X716Y84D01*
X274Y83D02*
X289Y83D01*
X701Y83D02*
X715Y83D01*
X276Y82D02*
X290Y82D01*
X699Y82D02*
X713Y82D01*
X278Y81D02*
X292Y81D01*
X697Y81D02*
X711Y81D01*
X279Y80D02*
X294Y80D01*
X695Y80D02*
X710Y80D01*
X281Y79D02*
X296Y79D01*
X693Y79D02*
X708Y79D01*
X283Y78D02*
X298Y78D01*
X691Y78D02*
X706Y78D01*
X285Y77D02*
X300Y77D01*
X690Y77D02*
X704Y77D01*
X286Y76D02*
X301Y76D01*
X688Y76D02*
X703Y76D01*
X288Y75D02*
X303Y75D01*
X686Y75D02*
X701Y75D01*
X290Y74D02*
X306Y74D01*
X684Y74D02*
X699Y74D01*
X292Y73D02*
X308Y73D01*
X682Y73D02*
X697Y73D01*
X294Y72D02*
X310Y72D01*
X680Y72D02*
X695Y72D01*
X296Y71D02*
X312Y71D01*
X677Y71D02*
X694Y71D01*
X297Y70D02*
X314Y70D01*
X675Y70D02*
X692Y70D01*
X299Y69D02*
X316Y69D01*
X673Y69D02*
X690Y69D01*
X301Y68D02*
X318Y68D01*
X671Y68D02*
X688Y68D01*
X303Y67D02*
X320Y67D01*
X669Y67D02*
X686Y67D01*
X305Y66D02*
X322Y66D01*
X667Y66D02*
X684Y66D01*
X307Y65D02*
X325Y65D01*
X664Y65D02*
X682Y65D01*
X310Y64D02*
X327Y64D01*
X662Y64D02*
X680Y64D01*
X312Y63D02*
X329Y63D01*
X660Y63D02*
X678Y63D01*
X314Y62D02*
X332Y62D01*
X658Y62D02*
X676Y62D01*
X316Y61D02*
X334Y61D01*
X655Y61D02*
X673Y61D01*
X318Y60D02*
X336Y60D01*
X653Y60D02*
X671Y60D01*
X320Y59D02*
X339Y59D01*
X650Y59D02*
X669Y59D01*
X323Y58D02*
X342Y58D01*
X648Y58D02*
X667Y58D01*
X325Y57D02*
X344Y57D01*
X645Y57D02*
X664Y57D01*
X327Y56D02*
X347Y56D01*
X642Y56D02*
X662Y56D01*
X329Y55D02*
X349Y55D01*
X640Y55D02*
X660Y55D01*
X332Y54D02*
X352Y54D01*
X637Y54D02*
X658Y54D01*
X334Y53D02*
X355Y53D01*
X634Y53D02*
X655Y53D01*
X337Y52D02*
X358Y52D01*
X631Y52D02*
X652Y52D01*
X339Y51D02*
X361Y51D01*
X628Y51D02*
X650Y51D01*
X342Y50D02*
X364Y50D01*
X625Y50D02*
X647Y50D01*
X344Y49D02*
X367Y49D01*
X622Y49D02*
X645Y49D01*
X347Y48D02*
X370Y48D01*
X619Y48D02*
X642Y48D01*
X350Y47D02*
X374Y47D01*
X616Y47D02*
X639Y47D01*
X353Y46D02*
X377Y46D01*
X614Y46D02*
X637Y46D01*
X356Y45D02*
X381Y45D01*
X612Y45D02*
X634Y45D01*
X358Y44D02*
X384Y44D01*
X609Y44D02*
X631Y44D01*
X361Y43D02*
X388Y43D01*
X606Y43D02*
X628Y43D01*
X364Y42D02*
X392Y42D01*
X601Y42D02*
X625Y42D01*
X367Y41D02*
X396Y41D01*
X593Y41D02*
X622Y41D01*
X371Y40D02*
X400Y40D01*
X589Y40D02*
X618Y40D01*
X374Y39D02*
X405Y39D01*
X584Y39D02*
X615Y39D01*
X378Y38D02*
X410Y38D01*
X579Y38D02*
X612Y38D01*
X381Y37D02*
X415Y37D01*
X574Y37D02*
X608Y37D01*
X385Y36D02*
X420Y36D01*
X569Y36D02*
X605Y36D01*
X389Y35D02*
X426Y35D01*
X563Y35D02*
X601Y35D01*
X393Y34D02*
X433Y34D01*
X557Y34D02*
X596Y34D01*
X397Y33D02*
X439Y33D01*
X550Y33D02*
X592Y33D01*
X401Y32D02*
X448Y32D01*
X541Y32D02*
X588Y32D01*
X405Y31D02*
X458Y31D01*
X531Y31D02*
X584Y31D01*
X410Y30D02*
X472Y30D01*
X517Y30D02*
X579Y30D01*
X415Y29D02*
X574Y29D01*
X421Y28D02*
X569Y28D01*
X427Y27D02*
X562Y27D01*
X433Y26D02*
X556Y26D01*
X440Y25D02*
X549Y25D01*
X448Y24D02*
X541Y24D01*
X459Y23D02*
X530Y23D01*
X473Y22D02*
X516Y22D01*
D02*
G04 End of Silk0*
M02*