G04 MADE WITH FRITZING*
G04 WWW.FRITZING.ORG*
G04 DOUBLE SIDED*
G04 HOLES PLATED*
G04 CONTOUR ON CENTER OF CONTOUR VECTOR*
%ASAXBY*%
%FSLAX23Y23*%
%MOIN*%
%OFA0B0*%
%SFA1.0B1.0*%
%ADD10C,0.010000*%
%ADD11R,0.001000X0.001000*%
%LNSILK1*%
G90*
G70*
G54D10*
X294Y690D02*
X294Y290D01*
D02*
X694Y290D02*
X694Y690D01*
D02*
X871Y359D02*
X793Y359D01*
D02*
X950Y556D02*
X950Y389D01*
D02*
X714Y556D02*
X714Y389D01*
D02*
X871Y595D02*
X793Y595D01*
D02*
X852Y477D02*
X812Y477D01*
D02*
X832Y458D02*
X832Y497D01*
D02*
X187Y379D02*
X109Y379D01*
D02*
X266Y575D02*
X266Y408D01*
D02*
X30Y575D02*
X30Y408D01*
D02*
X187Y615D02*
X109Y615D01*
D02*
X168Y497D02*
X128Y497D01*
D02*
X148Y477D02*
X148Y516D01*
D02*
X612Y199D02*
X612Y120D01*
D02*
X415Y278D02*
X582Y278D01*
D02*
X415Y41D02*
X582Y41D01*
D02*
X375Y199D02*
X375Y120D01*
D02*
X493Y179D02*
X493Y140D01*
D02*
X513Y160D02*
X474Y160D01*
D02*
X377Y785D02*
X377Y863D01*
D02*
X573Y706D02*
X406Y706D01*
D02*
X573Y942D02*
X406Y942D01*
D02*
X613Y785D02*
X613Y863D01*
D02*
X475Y824D02*
X514Y824D01*
G54D11*
X0Y984D02*
X983Y984D01*
X0Y983D02*
X983Y983D01*
X0Y982D02*
X983Y982D01*
X0Y981D02*
X983Y981D01*
X0Y980D02*
X983Y980D01*
X0Y979D02*
X983Y979D01*
X0Y978D02*
X983Y978D01*
X0Y977D02*
X983Y977D01*
X0Y976D02*
X7Y976D01*
X976Y976D02*
X983Y976D01*
X0Y975D02*
X7Y975D01*
X976Y975D02*
X983Y975D01*
X0Y974D02*
X7Y974D01*
X976Y974D02*
X983Y974D01*
X0Y973D02*
X7Y973D01*
X976Y973D02*
X983Y973D01*
X0Y972D02*
X7Y972D01*
X976Y972D02*
X983Y972D01*
X0Y971D02*
X7Y971D01*
X976Y971D02*
X983Y971D01*
X0Y970D02*
X7Y970D01*
X976Y970D02*
X983Y970D01*
X0Y969D02*
X7Y969D01*
X976Y969D02*
X983Y969D01*
X0Y968D02*
X7Y968D01*
X976Y968D02*
X983Y968D01*
X0Y967D02*
X7Y967D01*
X976Y967D02*
X983Y967D01*
X0Y966D02*
X7Y966D01*
X976Y966D02*
X983Y966D01*
X0Y965D02*
X7Y965D01*
X976Y965D02*
X983Y965D01*
X0Y964D02*
X7Y964D01*
X976Y964D02*
X983Y964D01*
X0Y963D02*
X7Y963D01*
X976Y963D02*
X983Y963D01*
X0Y962D02*
X7Y962D01*
X976Y962D02*
X983Y962D01*
X0Y961D02*
X7Y961D01*
X976Y961D02*
X983Y961D01*
X0Y960D02*
X7Y960D01*
X976Y960D02*
X983Y960D01*
X0Y959D02*
X7Y959D01*
X976Y959D02*
X983Y959D01*
X0Y958D02*
X7Y958D01*
X976Y958D02*
X983Y958D01*
X0Y957D02*
X7Y957D01*
X976Y957D02*
X983Y957D01*
X0Y956D02*
X7Y956D01*
X976Y956D02*
X983Y956D01*
X0Y955D02*
X7Y955D01*
X976Y955D02*
X983Y955D01*
X0Y954D02*
X7Y954D01*
X976Y954D02*
X983Y954D01*
X0Y953D02*
X7Y953D01*
X976Y953D02*
X983Y953D01*
X0Y952D02*
X7Y952D01*
X976Y952D02*
X983Y952D01*
X0Y951D02*
X7Y951D01*
X976Y951D02*
X983Y951D01*
X0Y950D02*
X7Y950D01*
X976Y950D02*
X983Y950D01*
X0Y949D02*
X7Y949D01*
X976Y949D02*
X983Y949D01*
X0Y948D02*
X7Y948D01*
X976Y948D02*
X983Y948D01*
X0Y947D02*
X7Y947D01*
X976Y947D02*
X983Y947D01*
X0Y946D02*
X7Y946D01*
X976Y946D02*
X983Y946D01*
X0Y945D02*
X7Y945D01*
X976Y945D02*
X983Y945D01*
X0Y944D02*
X7Y944D01*
X976Y944D02*
X983Y944D01*
X0Y943D02*
X7Y943D01*
X976Y943D02*
X983Y943D01*
X0Y942D02*
X7Y942D01*
X976Y942D02*
X983Y942D01*
X0Y941D02*
X7Y941D01*
X976Y941D02*
X983Y941D01*
X0Y940D02*
X7Y940D01*
X976Y940D02*
X983Y940D01*
X0Y939D02*
X7Y939D01*
X976Y939D02*
X983Y939D01*
X0Y938D02*
X7Y938D01*
X976Y938D02*
X983Y938D01*
X0Y937D02*
X7Y937D01*
X976Y937D02*
X983Y937D01*
X0Y936D02*
X7Y936D01*
X976Y936D02*
X983Y936D01*
X0Y935D02*
X7Y935D01*
X976Y935D02*
X983Y935D01*
X0Y934D02*
X7Y934D01*
X976Y934D02*
X983Y934D01*
X0Y933D02*
X7Y933D01*
X976Y933D02*
X983Y933D01*
X0Y932D02*
X7Y932D01*
X976Y932D02*
X983Y932D01*
X0Y931D02*
X7Y931D01*
X976Y931D02*
X983Y931D01*
X0Y930D02*
X7Y930D01*
X976Y930D02*
X983Y930D01*
X0Y929D02*
X7Y929D01*
X976Y929D02*
X983Y929D01*
X0Y928D02*
X7Y928D01*
X976Y928D02*
X983Y928D01*
X0Y927D02*
X7Y927D01*
X976Y927D02*
X983Y927D01*
X0Y926D02*
X7Y926D01*
X976Y926D02*
X983Y926D01*
X0Y925D02*
X7Y925D01*
X976Y925D02*
X983Y925D01*
X0Y924D02*
X7Y924D01*
X976Y924D02*
X983Y924D01*
X0Y923D02*
X7Y923D01*
X976Y923D02*
X983Y923D01*
X0Y922D02*
X7Y922D01*
X976Y922D02*
X983Y922D01*
X0Y921D02*
X7Y921D01*
X976Y921D02*
X983Y921D01*
X0Y920D02*
X7Y920D01*
X976Y920D02*
X983Y920D01*
X0Y919D02*
X7Y919D01*
X976Y919D02*
X983Y919D01*
X0Y918D02*
X7Y918D01*
X976Y918D02*
X983Y918D01*
X0Y917D02*
X7Y917D01*
X976Y917D02*
X983Y917D01*
X0Y916D02*
X7Y916D01*
X738Y916D02*
X751Y916D01*
X802Y916D02*
X880Y916D01*
X932Y916D02*
X938Y916D01*
X976Y916D02*
X983Y916D01*
X0Y915D02*
X7Y915D01*
X738Y915D02*
X751Y915D01*
X802Y915D02*
X880Y915D01*
X932Y915D02*
X938Y915D01*
X976Y915D02*
X983Y915D01*
X0Y914D02*
X7Y914D01*
X738Y914D02*
X751Y914D01*
X802Y914D02*
X880Y914D01*
X932Y914D02*
X938Y914D01*
X976Y914D02*
X983Y914D01*
X0Y913D02*
X7Y913D01*
X738Y913D02*
X751Y913D01*
X802Y913D02*
X880Y913D01*
X932Y913D02*
X938Y913D01*
X976Y913D02*
X983Y913D01*
X0Y912D02*
X7Y912D01*
X738Y912D02*
X751Y912D01*
X802Y912D02*
X880Y912D01*
X932Y912D02*
X938Y912D01*
X976Y912D02*
X983Y912D01*
X0Y911D02*
X7Y911D01*
X738Y911D02*
X751Y911D01*
X802Y911D02*
X880Y911D01*
X932Y911D02*
X938Y911D01*
X976Y911D02*
X983Y911D01*
X0Y910D02*
X7Y910D01*
X38Y910D02*
X51Y910D01*
X102Y910D02*
X181Y910D01*
X232Y910D02*
X238Y910D01*
X738Y910D02*
X751Y910D01*
X802Y910D02*
X880Y910D01*
X932Y910D02*
X938Y910D01*
X976Y910D02*
X983Y910D01*
X0Y909D02*
X7Y909D01*
X38Y909D02*
X51Y909D01*
X102Y909D02*
X181Y909D01*
X232Y909D02*
X238Y909D01*
X738Y909D02*
X744Y909D01*
X932Y909D02*
X938Y909D01*
X976Y909D02*
X983Y909D01*
X0Y908D02*
X7Y908D01*
X38Y908D02*
X51Y908D01*
X102Y908D02*
X181Y908D01*
X232Y908D02*
X238Y908D01*
X738Y908D02*
X744Y908D01*
X932Y908D02*
X938Y908D01*
X976Y908D02*
X983Y908D01*
X0Y907D02*
X7Y907D01*
X38Y907D02*
X51Y907D01*
X102Y907D02*
X181Y907D01*
X232Y907D02*
X238Y907D01*
X738Y907D02*
X744Y907D01*
X932Y907D02*
X938Y907D01*
X976Y907D02*
X983Y907D01*
X0Y906D02*
X7Y906D01*
X38Y906D02*
X51Y906D01*
X102Y906D02*
X181Y906D01*
X232Y906D02*
X238Y906D01*
X738Y906D02*
X744Y906D01*
X932Y906D02*
X938Y906D01*
X976Y906D02*
X983Y906D01*
X0Y905D02*
X7Y905D01*
X38Y905D02*
X51Y905D01*
X102Y905D02*
X181Y905D01*
X232Y905D02*
X238Y905D01*
X738Y905D02*
X744Y905D01*
X932Y905D02*
X938Y905D01*
X976Y905D02*
X983Y905D01*
X0Y904D02*
X7Y904D01*
X38Y904D02*
X51Y904D01*
X102Y904D02*
X181Y904D01*
X232Y904D02*
X238Y904D01*
X738Y904D02*
X744Y904D01*
X932Y904D02*
X938Y904D01*
X976Y904D02*
X983Y904D01*
X0Y903D02*
X7Y903D01*
X38Y903D02*
X44Y903D01*
X232Y903D02*
X238Y903D01*
X738Y903D02*
X744Y903D01*
X932Y903D02*
X938Y903D01*
X976Y903D02*
X983Y903D01*
X0Y902D02*
X7Y902D01*
X38Y902D02*
X44Y902D01*
X232Y902D02*
X238Y902D01*
X738Y902D02*
X744Y902D01*
X932Y902D02*
X938Y902D01*
X976Y902D02*
X983Y902D01*
X0Y901D02*
X7Y901D01*
X38Y901D02*
X44Y901D01*
X232Y901D02*
X238Y901D01*
X738Y901D02*
X744Y901D01*
X932Y901D02*
X938Y901D01*
X976Y901D02*
X983Y901D01*
X0Y900D02*
X7Y900D01*
X38Y900D02*
X44Y900D01*
X232Y900D02*
X238Y900D01*
X738Y900D02*
X744Y900D01*
X932Y900D02*
X938Y900D01*
X976Y900D02*
X983Y900D01*
X0Y899D02*
X7Y899D01*
X38Y899D02*
X44Y899D01*
X232Y899D02*
X238Y899D01*
X738Y899D02*
X744Y899D01*
X932Y899D02*
X938Y899D01*
X976Y899D02*
X983Y899D01*
X0Y898D02*
X7Y898D01*
X38Y898D02*
X44Y898D01*
X232Y898D02*
X238Y898D01*
X738Y898D02*
X744Y898D01*
X932Y898D02*
X938Y898D01*
X976Y898D02*
X983Y898D01*
X0Y897D02*
X7Y897D01*
X38Y897D02*
X44Y897D01*
X232Y897D02*
X238Y897D01*
X738Y897D02*
X744Y897D01*
X932Y897D02*
X938Y897D01*
X976Y897D02*
X983Y897D01*
X0Y896D02*
X7Y896D01*
X38Y896D02*
X44Y896D01*
X232Y896D02*
X238Y896D01*
X738Y896D02*
X744Y896D01*
X932Y896D02*
X938Y896D01*
X976Y896D02*
X983Y896D01*
X0Y895D02*
X7Y895D01*
X38Y895D02*
X44Y895D01*
X232Y895D02*
X238Y895D01*
X738Y895D02*
X744Y895D01*
X932Y895D02*
X938Y895D01*
X976Y895D02*
X983Y895D01*
X0Y894D02*
X7Y894D01*
X38Y894D02*
X44Y894D01*
X232Y894D02*
X238Y894D01*
X738Y894D02*
X744Y894D01*
X932Y894D02*
X938Y894D01*
X976Y894D02*
X983Y894D01*
X0Y893D02*
X7Y893D01*
X38Y893D02*
X44Y893D01*
X232Y893D02*
X238Y893D01*
X738Y893D02*
X744Y893D01*
X932Y893D02*
X938Y893D01*
X976Y893D02*
X983Y893D01*
X0Y892D02*
X7Y892D01*
X38Y892D02*
X44Y892D01*
X232Y892D02*
X238Y892D01*
X738Y892D02*
X744Y892D01*
X932Y892D02*
X938Y892D01*
X976Y892D02*
X983Y892D01*
X0Y891D02*
X7Y891D01*
X38Y891D02*
X44Y891D01*
X232Y891D02*
X238Y891D01*
X738Y891D02*
X744Y891D01*
X932Y891D02*
X938Y891D01*
X976Y891D02*
X983Y891D01*
X0Y890D02*
X7Y890D01*
X38Y890D02*
X44Y890D01*
X232Y890D02*
X238Y890D01*
X738Y890D02*
X744Y890D01*
X932Y890D02*
X938Y890D01*
X976Y890D02*
X983Y890D01*
X0Y889D02*
X7Y889D01*
X38Y889D02*
X44Y889D01*
X232Y889D02*
X238Y889D01*
X738Y889D02*
X744Y889D01*
X932Y889D02*
X938Y889D01*
X976Y889D02*
X983Y889D01*
X0Y888D02*
X7Y888D01*
X38Y888D02*
X44Y888D01*
X232Y888D02*
X238Y888D01*
X738Y888D02*
X744Y888D01*
X932Y888D02*
X938Y888D01*
X976Y888D02*
X983Y888D01*
X0Y887D02*
X7Y887D01*
X38Y887D02*
X44Y887D01*
X232Y887D02*
X238Y887D01*
X738Y887D02*
X744Y887D01*
X932Y887D02*
X938Y887D01*
X976Y887D02*
X983Y887D01*
X0Y886D02*
X7Y886D01*
X38Y886D02*
X44Y886D01*
X232Y886D02*
X238Y886D01*
X738Y886D02*
X744Y886D01*
X932Y886D02*
X938Y886D01*
X976Y886D02*
X983Y886D01*
X0Y885D02*
X7Y885D01*
X38Y885D02*
X44Y885D01*
X232Y885D02*
X238Y885D01*
X738Y885D02*
X744Y885D01*
X932Y885D02*
X938Y885D01*
X976Y885D02*
X983Y885D01*
X0Y884D02*
X7Y884D01*
X38Y884D02*
X44Y884D01*
X232Y884D02*
X238Y884D01*
X738Y884D02*
X744Y884D01*
X932Y884D02*
X938Y884D01*
X976Y884D02*
X983Y884D01*
X0Y883D02*
X7Y883D01*
X38Y883D02*
X44Y883D01*
X232Y883D02*
X238Y883D01*
X738Y883D02*
X744Y883D01*
X932Y883D02*
X938Y883D01*
X976Y883D02*
X983Y883D01*
X0Y882D02*
X7Y882D01*
X38Y882D02*
X44Y882D01*
X232Y882D02*
X238Y882D01*
X738Y882D02*
X744Y882D01*
X932Y882D02*
X938Y882D01*
X976Y882D02*
X983Y882D01*
X0Y881D02*
X7Y881D01*
X38Y881D02*
X44Y881D01*
X232Y881D02*
X238Y881D01*
X738Y881D02*
X744Y881D01*
X932Y881D02*
X938Y881D01*
X976Y881D02*
X983Y881D01*
X0Y880D02*
X7Y880D01*
X38Y880D02*
X44Y880D01*
X232Y880D02*
X238Y880D01*
X738Y880D02*
X744Y880D01*
X932Y880D02*
X938Y880D01*
X976Y880D02*
X983Y880D01*
X0Y879D02*
X7Y879D01*
X38Y879D02*
X44Y879D01*
X232Y879D02*
X238Y879D01*
X738Y879D02*
X744Y879D01*
X932Y879D02*
X938Y879D01*
X976Y879D02*
X983Y879D01*
X0Y878D02*
X7Y878D01*
X38Y878D02*
X44Y878D01*
X232Y878D02*
X238Y878D01*
X738Y878D02*
X744Y878D01*
X932Y878D02*
X938Y878D01*
X976Y878D02*
X983Y878D01*
X0Y877D02*
X7Y877D01*
X38Y877D02*
X44Y877D01*
X232Y877D02*
X238Y877D01*
X738Y877D02*
X744Y877D01*
X932Y877D02*
X938Y877D01*
X976Y877D02*
X983Y877D01*
X0Y876D02*
X7Y876D01*
X38Y876D02*
X44Y876D01*
X232Y876D02*
X238Y876D01*
X738Y876D02*
X744Y876D01*
X932Y876D02*
X938Y876D01*
X976Y876D02*
X983Y876D01*
X0Y875D02*
X7Y875D01*
X38Y875D02*
X44Y875D01*
X232Y875D02*
X238Y875D01*
X738Y875D02*
X744Y875D01*
X880Y875D02*
X881Y875D01*
X932Y875D02*
X938Y875D01*
X976Y875D02*
X983Y875D01*
X0Y874D02*
X7Y874D01*
X38Y874D02*
X44Y874D01*
X232Y874D02*
X238Y874D01*
X738Y874D02*
X744Y874D01*
X873Y874D02*
X875Y874D01*
X878Y874D02*
X883Y874D01*
X891Y874D02*
X892Y874D01*
X900Y874D02*
X902Y874D01*
X908Y874D02*
X919Y874D01*
X926Y874D02*
X930Y874D01*
X932Y874D02*
X938Y874D01*
X976Y874D02*
X983Y874D01*
X0Y873D02*
X7Y873D01*
X38Y873D02*
X44Y873D01*
X232Y873D02*
X238Y873D01*
X738Y873D02*
X744Y873D01*
X873Y873D02*
X875Y873D01*
X877Y873D02*
X884Y873D01*
X891Y873D02*
X892Y873D01*
X900Y873D02*
X902Y873D01*
X908Y873D02*
X911Y873D01*
X916Y873D02*
X920Y873D01*
X927Y873D02*
X938Y873D01*
X976Y873D02*
X983Y873D01*
X0Y872D02*
X7Y872D01*
X38Y872D02*
X44Y872D01*
X232Y872D02*
X238Y872D01*
X738Y872D02*
X744Y872D01*
X766Y872D02*
X767Y872D01*
X775Y872D02*
X776Y872D01*
X782Y872D02*
X783Y872D01*
X873Y872D02*
X877Y872D01*
X883Y872D02*
X885Y872D01*
X891Y872D02*
X892Y872D01*
X900Y872D02*
X902Y872D01*
X908Y872D02*
X910Y872D01*
X918Y872D02*
X921Y872D01*
X928Y872D02*
X938Y872D01*
X976Y872D02*
X983Y872D01*
X0Y871D02*
X7Y871D01*
X38Y871D02*
X44Y871D01*
X232Y871D02*
X238Y871D01*
X738Y871D02*
X744Y871D01*
X765Y871D02*
X767Y871D01*
X775Y871D02*
X776Y871D01*
X782Y871D02*
X783Y871D01*
X873Y871D02*
X876Y871D01*
X883Y871D02*
X885Y871D01*
X891Y871D02*
X892Y871D01*
X900Y871D02*
X902Y871D01*
X908Y871D02*
X910Y871D01*
X919Y871D02*
X922Y871D01*
X929Y871D02*
X938Y871D01*
X976Y871D02*
X983Y871D01*
X0Y870D02*
X7Y870D01*
X38Y870D02*
X44Y870D01*
X232Y870D02*
X238Y870D01*
X738Y870D02*
X744Y870D01*
X765Y870D02*
X767Y870D01*
X775Y870D02*
X776Y870D01*
X782Y870D02*
X783Y870D01*
X873Y870D02*
X875Y870D01*
X884Y870D02*
X886Y870D01*
X891Y870D02*
X892Y870D01*
X900Y870D02*
X902Y870D01*
X908Y870D02*
X910Y870D01*
X920Y870D02*
X922Y870D01*
X930Y870D02*
X938Y870D01*
X976Y870D02*
X983Y870D01*
X0Y869D02*
X7Y869D01*
X38Y869D02*
X44Y869D01*
X232Y869D02*
X238Y869D01*
X738Y869D02*
X744Y869D01*
X765Y869D02*
X767Y869D01*
X775Y869D02*
X776Y869D01*
X782Y869D02*
X783Y869D01*
X873Y869D02*
X875Y869D01*
X884Y869D02*
X886Y869D01*
X891Y869D02*
X892Y869D01*
X900Y869D02*
X902Y869D01*
X908Y869D02*
X910Y869D01*
X920Y869D02*
X923Y869D01*
X931Y869D02*
X938Y869D01*
X976Y869D02*
X983Y869D01*
X0Y868D02*
X7Y868D01*
X38Y868D02*
X44Y868D01*
X174Y868D02*
X175Y868D01*
X179Y868D02*
X183Y868D01*
X191Y868D02*
X193Y868D01*
X201Y868D02*
X202Y868D01*
X209Y868D02*
X218Y868D01*
X226Y868D02*
X230Y868D01*
X232Y868D02*
X238Y868D01*
X738Y868D02*
X744Y868D01*
X765Y868D02*
X767Y868D01*
X775Y868D02*
X776Y868D01*
X782Y868D02*
X783Y868D01*
X873Y868D02*
X875Y868D01*
X884Y868D02*
X886Y868D01*
X891Y868D02*
X892Y868D01*
X900Y868D02*
X902Y868D01*
X908Y868D02*
X910Y868D01*
X921Y868D02*
X923Y868D01*
X932Y868D02*
X938Y868D01*
X976Y868D02*
X983Y868D01*
X0Y867D02*
X7Y867D01*
X38Y867D02*
X44Y867D01*
X174Y867D02*
X175Y867D01*
X177Y867D02*
X184Y867D01*
X191Y867D02*
X193Y867D01*
X200Y867D02*
X202Y867D01*
X208Y867D02*
X220Y867D01*
X227Y867D02*
X238Y867D01*
X738Y867D02*
X744Y867D01*
X765Y867D02*
X767Y867D01*
X775Y867D02*
X776Y867D01*
X782Y867D02*
X783Y867D01*
X873Y867D02*
X875Y867D01*
X884Y867D02*
X886Y867D01*
X891Y867D02*
X892Y867D01*
X900Y867D02*
X902Y867D01*
X908Y867D02*
X910Y867D01*
X921Y867D02*
X923Y867D01*
X932Y867D02*
X938Y867D01*
X976Y867D02*
X983Y867D01*
X0Y866D02*
X7Y866D01*
X38Y866D02*
X44Y866D01*
X174Y866D02*
X178Y866D01*
X182Y866D02*
X185Y866D01*
X191Y866D02*
X193Y866D01*
X200Y866D02*
X202Y866D01*
X208Y866D02*
X210Y866D01*
X218Y866D02*
X221Y866D01*
X228Y866D02*
X238Y866D01*
X738Y866D02*
X744Y866D01*
X765Y866D02*
X767Y866D01*
X775Y866D02*
X776Y866D01*
X782Y866D02*
X783Y866D01*
X873Y866D02*
X875Y866D01*
X884Y866D02*
X886Y866D01*
X891Y866D02*
X892Y866D01*
X900Y866D02*
X902Y866D01*
X921Y866D02*
X923Y866D01*
X932Y866D02*
X938Y866D01*
X976Y866D02*
X983Y866D01*
X0Y865D02*
X7Y865D01*
X38Y865D02*
X44Y865D01*
X66Y865D02*
X67Y865D01*
X75Y865D02*
X77Y865D01*
X82Y865D02*
X84Y865D01*
X174Y865D02*
X177Y865D01*
X183Y865D02*
X185Y865D01*
X191Y865D02*
X193Y865D01*
X200Y865D02*
X202Y865D01*
X208Y865D02*
X210Y865D01*
X219Y865D02*
X222Y865D01*
X229Y865D02*
X238Y865D01*
X738Y865D02*
X744Y865D01*
X765Y865D02*
X767Y865D01*
X775Y865D02*
X776Y865D01*
X782Y865D02*
X783Y865D01*
X873Y865D02*
X875Y865D01*
X884Y865D02*
X885Y865D01*
X891Y865D02*
X892Y865D01*
X900Y865D02*
X902Y865D01*
X921Y865D02*
X923Y865D01*
X932Y865D02*
X938Y865D01*
X976Y865D02*
X983Y865D01*
X0Y864D02*
X7Y864D01*
X38Y864D02*
X44Y864D01*
X66Y864D02*
X67Y864D01*
X75Y864D02*
X77Y864D01*
X82Y864D02*
X84Y864D01*
X174Y864D02*
X176Y864D01*
X184Y864D02*
X186Y864D01*
X191Y864D02*
X193Y864D01*
X200Y864D02*
X202Y864D01*
X208Y864D02*
X210Y864D01*
X220Y864D02*
X222Y864D01*
X230Y864D02*
X238Y864D01*
X738Y864D02*
X744Y864D01*
X765Y864D02*
X767Y864D01*
X775Y864D02*
X776Y864D01*
X782Y864D02*
X783Y864D01*
X873Y864D02*
X875Y864D01*
X883Y864D02*
X885Y864D01*
X891Y864D02*
X893Y864D01*
X899Y864D02*
X902Y864D01*
X921Y864D02*
X923Y864D01*
X932Y864D02*
X938Y864D01*
X976Y864D02*
X983Y864D01*
X0Y863D02*
X7Y863D01*
X38Y863D02*
X44Y863D01*
X66Y863D02*
X67Y863D01*
X75Y863D02*
X77Y863D01*
X82Y863D02*
X84Y863D01*
X174Y863D02*
X175Y863D01*
X184Y863D02*
X186Y863D01*
X191Y863D02*
X193Y863D01*
X200Y863D02*
X202Y863D01*
X208Y863D02*
X210Y863D01*
X221Y863D02*
X223Y863D01*
X231Y863D02*
X238Y863D01*
X738Y863D02*
X744Y863D01*
X765Y863D02*
X767Y863D01*
X775Y863D02*
X776Y863D01*
X782Y863D02*
X783Y863D01*
X873Y863D02*
X876Y863D01*
X883Y863D02*
X885Y863D01*
X891Y863D02*
X893Y863D01*
X898Y863D02*
X902Y863D01*
X921Y863D02*
X923Y863D01*
X932Y863D02*
X938Y863D01*
X976Y863D02*
X983Y863D01*
X0Y862D02*
X7Y862D01*
X38Y862D02*
X44Y862D01*
X66Y862D02*
X67Y862D01*
X75Y862D02*
X77Y862D01*
X82Y862D02*
X84Y862D01*
X174Y862D02*
X175Y862D01*
X184Y862D02*
X186Y862D01*
X191Y862D02*
X193Y862D01*
X200Y862D02*
X202Y862D01*
X208Y862D02*
X210Y862D01*
X221Y862D02*
X223Y862D01*
X232Y862D02*
X238Y862D01*
X738Y862D02*
X744Y862D01*
X765Y862D02*
X767Y862D01*
X774Y862D02*
X776Y862D01*
X782Y862D02*
X783Y862D01*
X873Y862D02*
X878Y862D01*
X881Y862D02*
X884Y862D01*
X891Y862D02*
X898Y862D01*
X900Y862D02*
X902Y862D01*
X921Y862D02*
X923Y862D01*
X932Y862D02*
X938Y862D01*
X976Y862D02*
X983Y862D01*
X0Y861D02*
X7Y861D01*
X38Y861D02*
X44Y861D01*
X66Y861D02*
X67Y861D01*
X75Y861D02*
X77Y861D01*
X82Y861D02*
X84Y861D01*
X174Y861D02*
X175Y861D01*
X184Y861D02*
X186Y861D01*
X191Y861D02*
X193Y861D01*
X200Y861D02*
X202Y861D01*
X208Y861D02*
X210Y861D01*
X221Y861D02*
X223Y861D01*
X232Y861D02*
X238Y861D01*
X738Y861D02*
X744Y861D01*
X765Y861D02*
X767Y861D01*
X773Y861D02*
X776Y861D01*
X782Y861D02*
X783Y861D01*
X873Y861D02*
X875Y861D01*
X877Y861D02*
X883Y861D01*
X892Y861D02*
X897Y861D01*
X900Y861D02*
X902Y861D01*
X921Y861D02*
X923Y861D01*
X932Y861D02*
X938Y861D01*
X976Y861D02*
X983Y861D01*
X0Y860D02*
X7Y860D01*
X38Y860D02*
X44Y860D01*
X66Y860D02*
X67Y860D01*
X75Y860D02*
X77Y860D01*
X82Y860D02*
X84Y860D01*
X174Y860D02*
X175Y860D01*
X184Y860D02*
X186Y860D01*
X191Y860D02*
X193Y860D01*
X200Y860D02*
X202Y860D01*
X208Y860D02*
X210Y860D01*
X221Y860D02*
X223Y860D01*
X232Y860D02*
X238Y860D01*
X738Y860D02*
X744Y860D01*
X766Y860D02*
X768Y860D01*
X772Y860D02*
X776Y860D01*
X782Y860D02*
X783Y860D01*
X873Y860D02*
X875Y860D01*
X879Y860D02*
X881Y860D01*
X894Y860D02*
X895Y860D01*
X920Y860D02*
X922Y860D01*
X932Y860D02*
X938Y860D01*
X976Y860D02*
X983Y860D01*
X0Y859D02*
X7Y859D01*
X38Y859D02*
X44Y859D01*
X66Y859D02*
X67Y859D01*
X75Y859D02*
X77Y859D01*
X82Y859D02*
X84Y859D01*
X174Y859D02*
X175Y859D01*
X184Y859D02*
X186Y859D01*
X191Y859D02*
X193Y859D01*
X200Y859D02*
X202Y859D01*
X221Y859D02*
X223Y859D01*
X232Y859D02*
X238Y859D01*
X738Y859D02*
X744Y859D01*
X766Y859D02*
X773Y859D01*
X775Y859D02*
X776Y859D01*
X782Y859D02*
X783Y859D01*
X873Y859D02*
X875Y859D01*
X920Y859D02*
X922Y859D01*
X932Y859D02*
X938Y859D01*
X976Y859D02*
X983Y859D01*
X0Y858D02*
X7Y858D01*
X38Y858D02*
X44Y858D01*
X66Y858D02*
X67Y858D01*
X75Y858D02*
X77Y858D01*
X82Y858D02*
X84Y858D01*
X174Y858D02*
X175Y858D01*
X184Y858D02*
X186Y858D01*
X191Y858D02*
X193Y858D01*
X200Y858D02*
X202Y858D01*
X221Y858D02*
X223Y858D01*
X232Y858D02*
X238Y858D01*
X738Y858D02*
X744Y858D01*
X767Y858D02*
X771Y858D01*
X775Y858D02*
X776Y858D01*
X782Y858D02*
X783Y858D01*
X873Y858D02*
X875Y858D01*
X919Y858D02*
X921Y858D01*
X932Y858D02*
X938Y858D01*
X976Y858D02*
X983Y858D01*
X0Y857D02*
X7Y857D01*
X38Y857D02*
X44Y857D01*
X66Y857D02*
X67Y857D01*
X75Y857D02*
X77Y857D01*
X82Y857D02*
X84Y857D01*
X174Y857D02*
X176Y857D01*
X183Y857D02*
X185Y857D01*
X191Y857D02*
X193Y857D01*
X199Y857D02*
X202Y857D01*
X221Y857D02*
X223Y857D01*
X232Y857D02*
X238Y857D01*
X738Y857D02*
X744Y857D01*
X782Y857D02*
X783Y857D01*
X873Y857D02*
X875Y857D01*
X908Y857D02*
X910Y857D01*
X917Y857D02*
X920Y857D01*
X932Y857D02*
X938Y857D01*
X976Y857D02*
X983Y857D01*
X0Y856D02*
X7Y856D01*
X38Y856D02*
X44Y856D01*
X66Y856D02*
X67Y856D01*
X75Y856D02*
X77Y856D01*
X82Y856D02*
X84Y856D01*
X174Y856D02*
X177Y856D01*
X182Y856D02*
X185Y856D01*
X191Y856D02*
X194Y856D01*
X197Y856D02*
X202Y856D01*
X221Y856D02*
X223Y856D01*
X232Y856D02*
X238Y856D01*
X738Y856D02*
X744Y856D01*
X782Y856D02*
X783Y856D01*
X873Y856D02*
X875Y856D01*
X908Y856D02*
X919Y856D01*
X932Y856D02*
X938Y856D01*
X976Y856D02*
X983Y856D01*
X0Y855D02*
X7Y855D01*
X38Y855D02*
X44Y855D01*
X66Y855D02*
X67Y855D01*
X74Y855D02*
X77Y855D01*
X82Y855D02*
X84Y855D01*
X174Y855D02*
X184Y855D01*
X192Y855D02*
X198Y855D01*
X200Y855D02*
X202Y855D01*
X221Y855D02*
X223Y855D01*
X232Y855D02*
X238Y855D01*
X738Y855D02*
X744Y855D01*
X782Y855D02*
X783Y855D01*
X873Y855D02*
X875Y855D01*
X909Y855D02*
X917Y855D01*
X932Y855D02*
X938Y855D01*
X976Y855D02*
X983Y855D01*
X0Y854D02*
X7Y854D01*
X38Y854D02*
X44Y854D01*
X66Y854D02*
X68Y854D01*
X73Y854D02*
X77Y854D01*
X82Y854D02*
X84Y854D01*
X174Y854D02*
X175Y854D01*
X178Y854D02*
X182Y854D01*
X193Y854D02*
X197Y854D01*
X201Y854D02*
X202Y854D01*
X221Y854D02*
X223Y854D01*
X232Y854D02*
X238Y854D01*
X738Y854D02*
X744Y854D01*
X782Y854D02*
X783Y854D01*
X873Y854D02*
X875Y854D01*
X932Y854D02*
X938Y854D01*
X976Y854D02*
X983Y854D01*
X0Y853D02*
X7Y853D01*
X38Y853D02*
X44Y853D01*
X66Y853D02*
X73Y853D01*
X75Y853D02*
X77Y853D01*
X82Y853D02*
X84Y853D01*
X174Y853D02*
X175Y853D01*
X220Y853D02*
X222Y853D01*
X232Y853D02*
X238Y853D01*
X738Y853D02*
X744Y853D01*
X782Y853D02*
X783Y853D01*
X932Y853D02*
X938Y853D01*
X976Y853D02*
X983Y853D01*
X0Y852D02*
X7Y852D01*
X38Y852D02*
X44Y852D01*
X67Y852D02*
X72Y852D01*
X75Y852D02*
X77Y852D01*
X82Y852D02*
X84Y852D01*
X174Y852D02*
X175Y852D01*
X219Y852D02*
X222Y852D01*
X232Y852D02*
X238Y852D01*
X738Y852D02*
X744Y852D01*
X932Y852D02*
X938Y852D01*
X976Y852D02*
X983Y852D01*
X0Y851D02*
X7Y851D01*
X38Y851D02*
X44Y851D01*
X69Y851D02*
X70Y851D01*
X82Y851D02*
X84Y851D01*
X174Y851D02*
X175Y851D01*
X208Y851D02*
X209Y851D01*
X218Y851D02*
X221Y851D01*
X232Y851D02*
X238Y851D01*
X738Y851D02*
X744Y851D01*
X932Y851D02*
X938Y851D01*
X976Y851D02*
X983Y851D01*
X0Y850D02*
X7Y850D01*
X38Y850D02*
X44Y850D01*
X82Y850D02*
X84Y850D01*
X174Y850D02*
X175Y850D01*
X208Y850D02*
X220Y850D01*
X232Y850D02*
X238Y850D01*
X738Y850D02*
X744Y850D01*
X932Y850D02*
X938Y850D01*
X976Y850D02*
X983Y850D01*
X0Y849D02*
X7Y849D01*
X38Y849D02*
X44Y849D01*
X82Y849D02*
X84Y849D01*
X174Y849D02*
X175Y849D01*
X208Y849D02*
X219Y849D01*
X232Y849D02*
X238Y849D01*
X738Y849D02*
X744Y849D01*
X932Y849D02*
X938Y849D01*
X976Y849D02*
X983Y849D01*
X0Y848D02*
X7Y848D01*
X38Y848D02*
X44Y848D01*
X82Y848D02*
X84Y848D01*
X174Y848D02*
X175Y848D01*
X212Y848D02*
X216Y848D01*
X232Y848D02*
X238Y848D01*
X738Y848D02*
X744Y848D01*
X932Y848D02*
X938Y848D01*
X976Y848D02*
X983Y848D01*
X0Y847D02*
X7Y847D01*
X38Y847D02*
X44Y847D01*
X82Y847D02*
X84Y847D01*
X174Y847D02*
X175Y847D01*
X232Y847D02*
X238Y847D01*
X738Y847D02*
X744Y847D01*
X932Y847D02*
X938Y847D01*
X976Y847D02*
X983Y847D01*
X0Y846D02*
X7Y846D01*
X38Y846D02*
X44Y846D01*
X82Y846D02*
X84Y846D01*
X232Y846D02*
X238Y846D01*
X738Y846D02*
X744Y846D01*
X932Y846D02*
X938Y846D01*
X976Y846D02*
X983Y846D01*
X0Y845D02*
X7Y845D01*
X38Y845D02*
X44Y845D01*
X232Y845D02*
X238Y845D01*
X738Y845D02*
X744Y845D01*
X932Y845D02*
X938Y845D01*
X976Y845D02*
X983Y845D01*
X0Y844D02*
X7Y844D01*
X38Y844D02*
X44Y844D01*
X232Y844D02*
X238Y844D01*
X738Y844D02*
X744Y844D01*
X932Y844D02*
X938Y844D01*
X976Y844D02*
X983Y844D01*
X0Y843D02*
X7Y843D01*
X38Y843D02*
X44Y843D01*
X232Y843D02*
X238Y843D01*
X738Y843D02*
X744Y843D01*
X932Y843D02*
X938Y843D01*
X976Y843D02*
X983Y843D01*
X0Y842D02*
X7Y842D01*
X38Y842D02*
X44Y842D01*
X232Y842D02*
X238Y842D01*
X489Y842D02*
X490Y842D01*
X738Y842D02*
X744Y842D01*
X932Y842D02*
X938Y842D01*
X976Y842D02*
X983Y842D01*
X0Y841D02*
X7Y841D01*
X38Y841D02*
X44Y841D01*
X232Y841D02*
X238Y841D01*
X489Y841D02*
X498Y841D01*
X738Y841D02*
X744Y841D01*
X932Y841D02*
X938Y841D01*
X976Y841D02*
X983Y841D01*
X0Y840D02*
X7Y840D01*
X38Y840D02*
X44Y840D01*
X232Y840D02*
X238Y840D01*
X489Y840D02*
X498Y840D01*
X738Y840D02*
X744Y840D01*
X932Y840D02*
X938Y840D01*
X976Y840D02*
X983Y840D01*
X0Y839D02*
X7Y839D01*
X38Y839D02*
X44Y839D01*
X232Y839D02*
X238Y839D01*
X489Y839D02*
X498Y839D01*
X738Y839D02*
X744Y839D01*
X932Y839D02*
X938Y839D01*
X976Y839D02*
X983Y839D01*
X0Y838D02*
X7Y838D01*
X38Y838D02*
X44Y838D01*
X232Y838D02*
X238Y838D01*
X489Y838D02*
X498Y838D01*
X738Y838D02*
X744Y838D01*
X932Y838D02*
X938Y838D01*
X976Y838D02*
X983Y838D01*
X0Y837D02*
X7Y837D01*
X38Y837D02*
X44Y837D01*
X232Y837D02*
X238Y837D01*
X489Y837D02*
X498Y837D01*
X738Y837D02*
X744Y837D01*
X932Y837D02*
X938Y837D01*
X976Y837D02*
X983Y837D01*
X0Y836D02*
X7Y836D01*
X38Y836D02*
X44Y836D01*
X232Y836D02*
X238Y836D01*
X489Y836D02*
X498Y836D01*
X738Y836D02*
X744Y836D01*
X932Y836D02*
X938Y836D01*
X976Y836D02*
X983Y836D01*
X0Y835D02*
X7Y835D01*
X38Y835D02*
X44Y835D01*
X232Y835D02*
X238Y835D01*
X489Y835D02*
X498Y835D01*
X738Y835D02*
X744Y835D01*
X932Y835D02*
X938Y835D01*
X976Y835D02*
X983Y835D01*
X0Y834D02*
X7Y834D01*
X38Y834D02*
X44Y834D01*
X232Y834D02*
X238Y834D01*
X489Y834D02*
X498Y834D01*
X738Y834D02*
X744Y834D01*
X932Y834D02*
X938Y834D01*
X976Y834D02*
X983Y834D01*
X0Y833D02*
X7Y833D01*
X38Y833D02*
X44Y833D01*
X232Y833D02*
X238Y833D01*
X489Y833D02*
X498Y833D01*
X738Y833D02*
X744Y833D01*
X932Y833D02*
X938Y833D01*
X976Y833D02*
X983Y833D01*
X0Y832D02*
X7Y832D01*
X38Y832D02*
X44Y832D01*
X232Y832D02*
X238Y832D01*
X489Y832D02*
X498Y832D01*
X738Y832D02*
X744Y832D01*
X932Y832D02*
X938Y832D01*
X976Y832D02*
X983Y832D01*
X0Y831D02*
X7Y831D01*
X38Y831D02*
X44Y831D01*
X232Y831D02*
X238Y831D01*
X489Y831D02*
X498Y831D01*
X738Y831D02*
X744Y831D01*
X932Y831D02*
X938Y831D01*
X976Y831D02*
X983Y831D01*
X0Y830D02*
X7Y830D01*
X38Y830D02*
X44Y830D01*
X232Y830D02*
X238Y830D01*
X489Y830D02*
X498Y830D01*
X738Y830D02*
X744Y830D01*
X932Y830D02*
X938Y830D01*
X976Y830D02*
X983Y830D01*
X0Y829D02*
X7Y829D01*
X38Y829D02*
X44Y829D01*
X232Y829D02*
X238Y829D01*
X489Y829D02*
X498Y829D01*
X738Y829D02*
X744Y829D01*
X932Y829D02*
X938Y829D01*
X976Y829D02*
X983Y829D01*
X0Y828D02*
X7Y828D01*
X38Y828D02*
X44Y828D01*
X232Y828D02*
X238Y828D01*
X489Y828D02*
X498Y828D01*
X738Y828D02*
X744Y828D01*
X842Y828D02*
X848Y828D01*
X881Y828D02*
X887Y828D01*
X932Y828D02*
X938Y828D01*
X976Y828D02*
X983Y828D01*
X0Y827D02*
X7Y827D01*
X38Y827D02*
X44Y827D01*
X232Y827D02*
X238Y827D01*
X489Y827D02*
X498Y827D01*
X738Y827D02*
X744Y827D01*
X784Y827D02*
X794Y827D01*
X800Y827D02*
X814Y827D01*
X819Y827D02*
X831Y827D01*
X840Y827D02*
X850Y827D01*
X858Y827D02*
X872Y827D01*
X879Y827D02*
X890Y827D01*
X900Y827D02*
X903Y827D01*
X912Y827D02*
X915Y827D01*
X932Y827D02*
X938Y827D01*
X976Y827D02*
X983Y827D01*
X0Y826D02*
X7Y826D01*
X38Y826D02*
X44Y826D01*
X232Y826D02*
X238Y826D01*
X489Y826D02*
X498Y826D01*
X738Y826D02*
X744Y826D01*
X782Y826D02*
X794Y826D01*
X800Y826D02*
X814Y826D01*
X819Y826D02*
X831Y826D01*
X839Y826D02*
X851Y826D01*
X858Y826D02*
X872Y826D01*
X878Y826D02*
X890Y826D01*
X899Y826D02*
X903Y826D01*
X912Y826D02*
X915Y826D01*
X932Y826D02*
X938Y826D01*
X976Y826D02*
X983Y826D01*
X0Y825D02*
X7Y825D01*
X38Y825D02*
X44Y825D01*
X232Y825D02*
X238Y825D01*
X489Y825D02*
X498Y825D01*
X738Y825D02*
X744Y825D01*
X781Y825D02*
X787Y825D01*
X792Y825D02*
X794Y825D01*
X800Y825D02*
X814Y825D01*
X824Y825D02*
X826Y825D01*
X838Y825D02*
X841Y825D01*
X848Y825D02*
X852Y825D01*
X858Y825D02*
X872Y825D01*
X877Y825D02*
X881Y825D01*
X888Y825D02*
X890Y825D01*
X899Y825D02*
X903Y825D01*
X912Y825D02*
X916Y825D01*
X932Y825D02*
X938Y825D01*
X976Y825D02*
X983Y825D01*
X0Y824D02*
X7Y824D01*
X38Y824D02*
X44Y824D01*
X232Y824D02*
X238Y824D01*
X489Y824D02*
X498Y824D01*
X738Y824D02*
X744Y824D01*
X781Y824D02*
X784Y824D01*
X792Y824D02*
X794Y824D01*
X811Y824D02*
X814Y824D01*
X824Y824D02*
X826Y824D01*
X837Y824D02*
X840Y824D01*
X849Y824D02*
X852Y824D01*
X869Y824D02*
X872Y824D01*
X877Y824D02*
X879Y824D01*
X899Y824D02*
X903Y824D01*
X911Y824D02*
X916Y824D01*
X932Y824D02*
X938Y824D01*
X976Y824D02*
X983Y824D01*
X0Y823D02*
X7Y823D01*
X38Y823D02*
X44Y823D01*
X232Y823D02*
X238Y823D01*
X489Y823D02*
X498Y823D01*
X738Y823D02*
X744Y823D01*
X780Y823D02*
X783Y823D01*
X792Y823D02*
X794Y823D01*
X810Y823D02*
X813Y823D01*
X824Y823D02*
X826Y823D01*
X837Y823D02*
X840Y823D01*
X850Y823D02*
X852Y823D01*
X868Y823D02*
X871Y823D01*
X876Y823D02*
X879Y823D01*
X898Y823D02*
X903Y823D01*
X911Y823D02*
X916Y823D01*
X932Y823D02*
X938Y823D01*
X976Y823D02*
X983Y823D01*
X0Y822D02*
X7Y822D01*
X38Y822D02*
X44Y822D01*
X145Y822D02*
X145Y822D01*
X232Y822D02*
X238Y822D01*
X489Y822D02*
X498Y822D01*
X738Y822D02*
X744Y822D01*
X780Y822D02*
X783Y822D01*
X792Y822D02*
X794Y822D01*
X810Y822D02*
X812Y822D01*
X824Y822D02*
X826Y822D01*
X837Y822D02*
X839Y822D01*
X850Y822D02*
X853Y822D01*
X868Y822D02*
X870Y822D01*
X876Y822D02*
X879Y822D01*
X898Y822D02*
X904Y822D01*
X911Y822D02*
X916Y822D01*
X932Y822D02*
X938Y822D01*
X976Y822D02*
X983Y822D01*
X0Y821D02*
X7Y821D01*
X38Y821D02*
X44Y821D01*
X85Y821D02*
X95Y821D01*
X101Y821D02*
X114Y821D01*
X119Y821D02*
X131Y821D01*
X141Y821D02*
X149Y821D01*
X158Y821D02*
X172Y821D01*
X180Y821D02*
X190Y821D01*
X200Y821D02*
X203Y821D01*
X213Y821D02*
X215Y821D01*
X232Y821D02*
X238Y821D01*
X489Y821D02*
X498Y821D01*
X738Y821D02*
X744Y821D01*
X780Y821D02*
X783Y821D01*
X792Y821D02*
X794Y821D01*
X809Y821D02*
X812Y821D01*
X824Y821D02*
X826Y821D01*
X837Y821D02*
X839Y821D01*
X850Y821D02*
X853Y821D01*
X867Y821D02*
X869Y821D01*
X876Y821D02*
X879Y821D01*
X898Y821D02*
X904Y821D01*
X911Y821D02*
X912Y821D01*
X914Y821D02*
X917Y821D01*
X932Y821D02*
X938Y821D01*
X976Y821D02*
X983Y821D01*
X0Y820D02*
X7Y820D01*
X38Y820D02*
X44Y820D01*
X83Y820D02*
X95Y820D01*
X101Y820D02*
X114Y820D01*
X119Y820D02*
X131Y820D01*
X140Y820D02*
X151Y820D01*
X158Y820D02*
X172Y820D01*
X179Y820D02*
X191Y820D01*
X200Y820D02*
X203Y820D01*
X212Y820D02*
X216Y820D01*
X232Y820D02*
X238Y820D01*
X489Y820D02*
X498Y820D01*
X738Y820D02*
X744Y820D01*
X780Y820D02*
X783Y820D01*
X792Y820D02*
X794Y820D01*
X808Y820D02*
X811Y820D01*
X824Y820D02*
X826Y820D01*
X837Y820D02*
X840Y820D01*
X850Y820D02*
X852Y820D01*
X866Y820D02*
X869Y820D01*
X876Y820D02*
X879Y820D01*
X898Y820D02*
X900Y820D01*
X902Y820D02*
X904Y820D01*
X910Y820D02*
X912Y820D01*
X914Y820D02*
X917Y820D01*
X932Y820D02*
X938Y820D01*
X976Y820D02*
X983Y820D01*
X0Y819D02*
X7Y819D01*
X38Y819D02*
X44Y819D01*
X82Y819D02*
X95Y819D01*
X101Y819D02*
X114Y819D01*
X119Y819D02*
X131Y819D01*
X139Y819D02*
X142Y819D01*
X148Y819D02*
X152Y819D01*
X158Y819D02*
X172Y819D01*
X178Y819D02*
X182Y819D01*
X187Y819D02*
X191Y819D01*
X199Y819D02*
X203Y819D01*
X212Y819D02*
X216Y819D01*
X232Y819D02*
X238Y819D01*
X489Y819D02*
X498Y819D01*
X738Y819D02*
X744Y819D01*
X781Y819D02*
X784Y819D01*
X792Y819D02*
X794Y819D01*
X807Y819D02*
X810Y819D01*
X824Y819D02*
X826Y819D01*
X837Y819D02*
X841Y819D01*
X850Y819D02*
X852Y819D01*
X865Y819D02*
X868Y819D01*
X876Y819D02*
X880Y819D01*
X897Y819D02*
X899Y819D01*
X902Y819D02*
X904Y819D01*
X910Y819D02*
X912Y819D01*
X915Y819D02*
X917Y819D01*
X932Y819D02*
X938Y819D01*
X976Y819D02*
X983Y819D01*
X0Y818D02*
X7Y818D01*
X38Y818D02*
X44Y818D01*
X81Y818D02*
X85Y818D01*
X92Y818D02*
X95Y818D01*
X111Y818D02*
X114Y818D01*
X124Y818D02*
X126Y818D01*
X138Y818D02*
X141Y818D01*
X149Y818D02*
X152Y818D01*
X169Y818D02*
X172Y818D01*
X177Y818D02*
X180Y818D01*
X190Y818D02*
X191Y818D01*
X199Y818D02*
X203Y818D01*
X212Y818D02*
X216Y818D01*
X232Y818D02*
X238Y818D01*
X489Y818D02*
X498Y818D01*
X738Y818D02*
X744Y818D01*
X781Y818D02*
X784Y818D01*
X792Y818D02*
X794Y818D01*
X806Y818D02*
X809Y818D01*
X824Y818D02*
X826Y818D01*
X838Y818D02*
X842Y818D01*
X849Y818D02*
X852Y818D01*
X864Y818D02*
X867Y818D01*
X877Y818D02*
X881Y818D01*
X897Y818D02*
X899Y818D01*
X902Y818D02*
X905Y818D01*
X910Y818D02*
X912Y818D01*
X915Y818D02*
X917Y818D01*
X932Y818D02*
X938Y818D01*
X976Y818D02*
X983Y818D01*
X0Y817D02*
X7Y817D01*
X38Y817D02*
X44Y817D01*
X81Y817D02*
X84Y817D01*
X92Y817D02*
X95Y817D01*
X111Y817D02*
X114Y817D01*
X124Y817D02*
X126Y817D01*
X138Y817D02*
X140Y817D01*
X150Y817D02*
X153Y817D01*
X169Y817D02*
X172Y817D01*
X177Y817D02*
X179Y817D01*
X199Y817D02*
X204Y817D01*
X212Y817D02*
X216Y817D01*
X232Y817D02*
X238Y817D01*
X489Y817D02*
X498Y817D01*
X738Y817D02*
X744Y817D01*
X782Y817D02*
X786Y817D01*
X792Y817D02*
X794Y817D01*
X805Y817D02*
X808Y817D01*
X824Y817D02*
X826Y817D01*
X839Y817D02*
X843Y817D01*
X848Y817D02*
X851Y817D01*
X863Y817D02*
X866Y817D01*
X878Y817D02*
X883Y817D01*
X897Y817D02*
X899Y817D01*
X902Y817D02*
X905Y817D01*
X910Y817D02*
X911Y817D01*
X915Y817D02*
X918Y817D01*
X932Y817D02*
X938Y817D01*
X976Y817D02*
X983Y817D01*
X0Y816D02*
X7Y816D01*
X38Y816D02*
X44Y816D01*
X81Y816D02*
X83Y816D01*
X92Y816D02*
X95Y816D01*
X110Y816D02*
X113Y816D01*
X124Y816D02*
X126Y816D01*
X137Y816D02*
X140Y816D01*
X150Y816D02*
X153Y816D01*
X168Y816D02*
X171Y816D01*
X176Y816D02*
X179Y816D01*
X199Y816D02*
X204Y816D01*
X211Y816D02*
X217Y816D01*
X232Y816D02*
X238Y816D01*
X489Y816D02*
X498Y816D01*
X738Y816D02*
X744Y816D01*
X784Y816D02*
X794Y816D01*
X804Y816D02*
X807Y816D01*
X824Y816D02*
X826Y816D01*
X840Y816D02*
X845Y816D01*
X847Y816D02*
X850Y816D01*
X862Y816D02*
X864Y816D01*
X879Y816D02*
X884Y816D01*
X896Y816D02*
X898Y816D01*
X903Y816D02*
X905Y816D01*
X910Y816D02*
X911Y816D01*
X915Y816D02*
X918Y816D01*
X932Y816D02*
X938Y816D01*
X976Y816D02*
X983Y816D01*
X0Y815D02*
X7Y815D01*
X38Y815D02*
X44Y815D01*
X81Y815D02*
X83Y815D01*
X92Y815D02*
X95Y815D01*
X110Y815D02*
X112Y815D01*
X124Y815D02*
X126Y815D01*
X137Y815D02*
X140Y815D01*
X151Y815D02*
X153Y815D01*
X168Y815D02*
X170Y815D01*
X176Y815D02*
X179Y815D01*
X198Y815D02*
X204Y815D01*
X211Y815D02*
X217Y815D01*
X232Y815D02*
X238Y815D01*
X489Y815D02*
X498Y815D01*
X738Y815D02*
X744Y815D01*
X786Y815D02*
X794Y815D01*
X803Y815D02*
X806Y815D01*
X824Y815D02*
X826Y815D01*
X841Y815D02*
X849Y815D01*
X861Y815D02*
X863Y815D01*
X880Y815D02*
X886Y815D01*
X896Y815D02*
X898Y815D01*
X903Y815D02*
X905Y815D01*
X909Y815D02*
X911Y815D01*
X916Y815D02*
X918Y815D01*
X932Y815D02*
X938Y815D01*
X976Y815D02*
X983Y815D01*
X0Y814D02*
X7Y814D01*
X38Y814D02*
X44Y814D01*
X81Y814D02*
X83Y814D01*
X92Y814D02*
X95Y814D01*
X109Y814D02*
X111Y814D01*
X124Y814D02*
X126Y814D01*
X137Y814D02*
X140Y814D01*
X151Y814D02*
X153Y814D01*
X167Y814D02*
X169Y814D01*
X176Y814D02*
X179Y814D01*
X198Y814D02*
X200Y814D01*
X202Y814D02*
X204Y814D01*
X211Y814D02*
X213Y814D01*
X215Y814D02*
X217Y814D01*
X232Y814D02*
X238Y814D01*
X489Y814D02*
X498Y814D01*
X738Y814D02*
X744Y814D01*
X785Y814D02*
X794Y814D01*
X802Y814D02*
X805Y814D01*
X824Y814D02*
X826Y814D01*
X842Y814D02*
X848Y814D01*
X860Y814D02*
X863Y814D01*
X882Y814D02*
X887Y814D01*
X896Y814D02*
X898Y814D01*
X903Y814D02*
X905Y814D01*
X909Y814D02*
X911Y814D01*
X916Y814D02*
X918Y814D01*
X932Y814D02*
X938Y814D01*
X976Y814D02*
X983Y814D01*
X0Y813D02*
X7Y813D01*
X38Y813D02*
X44Y813D01*
X81Y813D02*
X84Y813D01*
X92Y813D02*
X95Y813D01*
X108Y813D02*
X110Y813D01*
X124Y813D02*
X126Y813D01*
X137Y813D02*
X141Y813D01*
X150Y813D02*
X153Y813D01*
X166Y813D02*
X168Y813D01*
X177Y813D02*
X180Y813D01*
X198Y813D02*
X200Y813D01*
X202Y813D02*
X205Y813D01*
X211Y813D02*
X212Y813D01*
X215Y813D02*
X217Y813D01*
X232Y813D02*
X238Y813D01*
X489Y813D02*
X498Y813D01*
X738Y813D02*
X744Y813D01*
X783Y813D02*
X786Y813D01*
X792Y813D02*
X794Y813D01*
X801Y813D02*
X804Y813D01*
X824Y813D02*
X826Y813D01*
X841Y813D02*
X849Y813D01*
X859Y813D02*
X862Y813D01*
X883Y813D02*
X888Y813D01*
X896Y813D02*
X898Y813D01*
X903Y813D02*
X906Y813D01*
X909Y813D02*
X911Y813D01*
X916Y813D02*
X919Y813D01*
X932Y813D02*
X938Y813D01*
X976Y813D02*
X983Y813D01*
X0Y812D02*
X7Y812D01*
X38Y812D02*
X44Y812D01*
X81Y812D02*
X84Y812D01*
X92Y812D02*
X95Y812D01*
X107Y812D02*
X109Y812D01*
X124Y812D02*
X126Y812D01*
X138Y812D02*
X142Y812D01*
X150Y812D02*
X152Y812D01*
X165Y812D02*
X167Y812D01*
X177Y812D02*
X181Y812D01*
X197Y812D02*
X199Y812D01*
X202Y812D02*
X205Y812D01*
X210Y812D02*
X212Y812D01*
X215Y812D02*
X218Y812D01*
X232Y812D02*
X238Y812D01*
X489Y812D02*
X498Y812D01*
X738Y812D02*
X744Y812D01*
X782Y812D02*
X785Y812D01*
X792Y812D02*
X794Y812D01*
X801Y812D02*
X803Y812D01*
X824Y812D02*
X826Y812D01*
X840Y812D02*
X842Y812D01*
X846Y812D02*
X850Y812D01*
X859Y812D02*
X861Y812D01*
X885Y812D02*
X889Y812D01*
X895Y812D02*
X897Y812D01*
X904Y812D02*
X906Y812D01*
X909Y812D02*
X910Y812D01*
X917Y812D02*
X919Y812D01*
X932Y812D02*
X938Y812D01*
X976Y812D02*
X983Y812D01*
X0Y811D02*
X7Y811D01*
X38Y811D02*
X44Y811D01*
X82Y811D02*
X85Y811D01*
X92Y811D02*
X95Y811D01*
X106Y811D02*
X109Y811D01*
X124Y811D02*
X126Y811D01*
X139Y811D02*
X143Y811D01*
X149Y811D02*
X152Y811D01*
X164Y811D02*
X166Y811D01*
X178Y811D02*
X182Y811D01*
X197Y811D02*
X199Y811D01*
X203Y811D02*
X205Y811D01*
X210Y811D02*
X212Y811D01*
X215Y811D02*
X218Y811D01*
X232Y811D02*
X238Y811D01*
X489Y811D02*
X498Y811D01*
X738Y811D02*
X744Y811D01*
X782Y811D02*
X784Y811D01*
X792Y811D02*
X794Y811D01*
X800Y811D02*
X803Y811D01*
X824Y811D02*
X826Y811D01*
X839Y811D02*
X841Y811D01*
X847Y811D02*
X851Y811D01*
X858Y811D02*
X861Y811D01*
X886Y811D02*
X890Y811D01*
X895Y811D02*
X897Y811D01*
X904Y811D02*
X906Y811D01*
X908Y811D02*
X910Y811D01*
X917Y811D02*
X919Y811D01*
X932Y811D02*
X938Y811D01*
X976Y811D02*
X983Y811D01*
X0Y810D02*
X7Y810D01*
X38Y810D02*
X44Y810D01*
X83Y810D02*
X87Y810D01*
X92Y810D02*
X95Y810D01*
X105Y810D02*
X107Y810D01*
X124Y810D02*
X126Y810D01*
X140Y810D02*
X145Y810D01*
X148Y810D02*
X151Y810D01*
X162Y810D02*
X165Y810D01*
X179Y810D02*
X184Y810D01*
X197Y810D02*
X199Y810D01*
X203Y810D02*
X205Y810D01*
X210Y810D02*
X212Y810D01*
X216Y810D02*
X218Y810D01*
X232Y810D02*
X238Y810D01*
X489Y810D02*
X498Y810D01*
X738Y810D02*
X744Y810D01*
X781Y810D02*
X784Y810D01*
X792Y810D02*
X794Y810D01*
X800Y810D02*
X803Y810D01*
X824Y810D02*
X826Y810D01*
X838Y810D02*
X840Y810D01*
X848Y810D02*
X851Y810D01*
X858Y810D02*
X861Y810D01*
X887Y810D02*
X890Y810D01*
X895Y810D02*
X897Y810D01*
X904Y810D02*
X906Y810D01*
X908Y810D02*
X910Y810D01*
X917Y810D02*
X919Y810D01*
X932Y810D02*
X938Y810D01*
X976Y810D02*
X983Y810D01*
X0Y809D02*
X7Y809D01*
X38Y809D02*
X44Y809D01*
X85Y809D02*
X95Y809D01*
X104Y809D02*
X106Y809D01*
X124Y809D02*
X126Y809D01*
X141Y809D02*
X150Y809D01*
X161Y809D02*
X164Y809D01*
X180Y809D02*
X186Y809D01*
X197Y809D02*
X199Y809D01*
X203Y809D02*
X205Y809D01*
X210Y809D02*
X211Y809D01*
X216Y809D02*
X218Y809D01*
X232Y809D02*
X238Y809D01*
X489Y809D02*
X498Y809D01*
X738Y809D02*
X744Y809D01*
X781Y809D02*
X784Y809D01*
X792Y809D02*
X794Y809D01*
X800Y809D02*
X803Y809D01*
X824Y809D02*
X826Y809D01*
X838Y809D02*
X840Y809D01*
X849Y809D02*
X851Y809D01*
X858Y809D02*
X861Y809D01*
X888Y809D02*
X890Y809D01*
X894Y809D02*
X896Y809D01*
X904Y809D02*
X910Y809D01*
X917Y809D02*
X920Y809D01*
X932Y809D02*
X938Y809D01*
X976Y809D02*
X983Y809D01*
X0Y808D02*
X7Y808D01*
X38Y808D02*
X44Y808D01*
X86Y808D02*
X95Y808D01*
X103Y808D02*
X105Y808D01*
X124Y808D02*
X126Y808D01*
X142Y808D02*
X148Y808D01*
X160Y808D02*
X163Y808D01*
X181Y808D02*
X187Y808D01*
X196Y808D02*
X198Y808D01*
X203Y808D02*
X206Y808D01*
X209Y808D02*
X211Y808D01*
X216Y808D02*
X219Y808D01*
X232Y808D02*
X238Y808D01*
X489Y808D02*
X498Y808D01*
X738Y808D02*
X744Y808D01*
X781Y808D02*
X784Y808D01*
X792Y808D02*
X794Y808D01*
X800Y808D02*
X803Y808D01*
X824Y808D02*
X826Y808D01*
X838Y808D02*
X840Y808D01*
X849Y808D02*
X851Y808D01*
X858Y808D02*
X861Y808D01*
X888Y808D02*
X890Y808D01*
X894Y808D02*
X896Y808D01*
X904Y808D02*
X909Y808D01*
X918Y808D02*
X920Y808D01*
X932Y808D02*
X938Y808D01*
X976Y808D02*
X983Y808D01*
X0Y807D02*
X7Y807D01*
X38Y807D02*
X44Y807D01*
X84Y807D02*
X88Y807D01*
X92Y807D02*
X95Y807D01*
X102Y807D02*
X105Y807D01*
X124Y807D02*
X126Y807D01*
X142Y807D02*
X149Y807D01*
X160Y807D02*
X162Y807D01*
X183Y807D02*
X188Y807D01*
X196Y807D02*
X198Y807D01*
X204Y807D02*
X206Y807D01*
X209Y807D02*
X211Y807D01*
X216Y807D02*
X219Y807D01*
X232Y807D02*
X238Y807D01*
X489Y807D02*
X498Y807D01*
X738Y807D02*
X744Y807D01*
X781Y807D02*
X785Y807D01*
X792Y807D02*
X794Y807D01*
X800Y807D02*
X803Y807D01*
X824Y807D02*
X826Y807D01*
X838Y807D02*
X840Y807D01*
X849Y807D02*
X851Y807D01*
X858Y807D02*
X861Y807D01*
X887Y807D02*
X890Y807D01*
X894Y807D02*
X896Y807D01*
X905Y807D02*
X909Y807D01*
X918Y807D02*
X920Y807D01*
X932Y807D02*
X938Y807D01*
X976Y807D02*
X983Y807D01*
X0Y806D02*
X7Y806D01*
X38Y806D02*
X44Y806D01*
X83Y806D02*
X86Y806D01*
X92Y806D02*
X95Y806D01*
X101Y806D02*
X104Y806D01*
X124Y806D02*
X126Y806D01*
X141Y806D02*
X143Y806D01*
X146Y806D02*
X150Y806D01*
X159Y806D02*
X162Y806D01*
X185Y806D02*
X189Y806D01*
X196Y806D02*
X198Y806D01*
X204Y806D02*
X206Y806D01*
X209Y806D02*
X211Y806D01*
X217Y806D02*
X219Y806D01*
X232Y806D02*
X238Y806D01*
X489Y806D02*
X498Y806D01*
X738Y806D02*
X744Y806D01*
X782Y806D02*
X786Y806D01*
X792Y806D02*
X794Y806D01*
X801Y806D02*
X804Y806D01*
X813Y806D02*
X813Y806D01*
X824Y806D02*
X826Y806D01*
X829Y806D02*
X831Y806D01*
X838Y806D02*
X841Y806D01*
X848Y806D02*
X851Y806D01*
X859Y806D02*
X862Y806D01*
X871Y806D02*
X871Y806D01*
X878Y806D02*
X878Y806D01*
X887Y806D02*
X890Y806D01*
X894Y806D02*
X896Y806D01*
X905Y806D02*
X909Y806D01*
X918Y806D02*
X921Y806D01*
X932Y806D02*
X938Y806D01*
X976Y806D02*
X983Y806D01*
X0Y805D02*
X7Y805D01*
X38Y805D02*
X44Y805D01*
X82Y805D02*
X85Y805D01*
X92Y805D02*
X95Y805D01*
X101Y805D02*
X103Y805D01*
X124Y805D02*
X126Y805D01*
X140Y805D02*
X142Y805D01*
X147Y805D02*
X151Y805D01*
X159Y805D02*
X161Y805D01*
X186Y805D02*
X190Y805D01*
X196Y805D02*
X197Y805D01*
X204Y805D02*
X206Y805D01*
X209Y805D02*
X210Y805D01*
X217Y805D02*
X219Y805D01*
X232Y805D02*
X238Y805D01*
X490Y805D02*
X498Y805D01*
X738Y805D02*
X744Y805D01*
X782Y805D02*
X794Y805D01*
X801Y805D02*
X805Y805D01*
X811Y805D02*
X813Y805D01*
X824Y805D02*
X831Y805D01*
X839Y805D02*
X842Y805D01*
X847Y805D02*
X850Y805D01*
X859Y805D02*
X863Y805D01*
X869Y805D02*
X871Y805D01*
X878Y805D02*
X881Y805D01*
X885Y805D02*
X889Y805D01*
X893Y805D02*
X895Y805D01*
X905Y805D02*
X909Y805D01*
X918Y805D02*
X921Y805D01*
X932Y805D02*
X938Y805D01*
X976Y805D02*
X983Y805D01*
X0Y804D02*
X7Y804D01*
X38Y804D02*
X44Y804D01*
X82Y804D02*
X84Y804D01*
X92Y804D02*
X95Y804D01*
X101Y804D02*
X103Y804D01*
X124Y804D02*
X126Y804D01*
X139Y804D02*
X141Y804D01*
X148Y804D02*
X151Y804D01*
X158Y804D02*
X161Y804D01*
X187Y804D02*
X190Y804D01*
X195Y804D02*
X197Y804D01*
X204Y804D02*
X207Y804D01*
X209Y804D02*
X210Y804D01*
X217Y804D02*
X220Y804D01*
X232Y804D02*
X238Y804D01*
X738Y804D02*
X744Y804D01*
X783Y804D02*
X794Y804D01*
X802Y804D02*
X813Y804D01*
X824Y804D02*
X830Y804D01*
X839Y804D02*
X849Y804D01*
X860Y804D02*
X871Y804D01*
X878Y804D02*
X888Y804D01*
X893Y804D02*
X895Y804D01*
X905Y804D02*
X908Y804D01*
X919Y804D02*
X921Y804D01*
X932Y804D02*
X938Y804D01*
X976Y804D02*
X983Y804D01*
X0Y803D02*
X7Y803D01*
X38Y803D02*
X44Y803D01*
X82Y803D02*
X84Y803D01*
X92Y803D02*
X95Y803D01*
X100Y803D02*
X103Y803D01*
X124Y803D02*
X126Y803D01*
X139Y803D02*
X140Y803D01*
X149Y803D02*
X151Y803D01*
X158Y803D02*
X161Y803D01*
X188Y803D02*
X190Y803D01*
X195Y803D02*
X197Y803D01*
X204Y803D02*
X210Y803D01*
X218Y803D02*
X220Y803D01*
X232Y803D02*
X238Y803D01*
X738Y803D02*
X744Y803D01*
X786Y803D02*
X794Y803D01*
X804Y803D02*
X812Y803D01*
X824Y803D02*
X826Y803D01*
X841Y803D02*
X848Y803D01*
X862Y803D02*
X869Y803D01*
X878Y803D02*
X887Y803D01*
X893Y803D02*
X895Y803D01*
X906Y803D02*
X908Y803D01*
X919Y803D02*
X921Y803D01*
X932Y803D02*
X938Y803D01*
X976Y803D02*
X983Y803D01*
X0Y802D02*
X7Y802D01*
X38Y802D02*
X44Y802D01*
X82Y802D02*
X84Y802D01*
X92Y802D02*
X95Y802D01*
X100Y802D02*
X103Y802D01*
X124Y802D02*
X126Y802D01*
X138Y802D02*
X140Y802D01*
X149Y802D02*
X152Y802D01*
X158Y802D02*
X161Y802D01*
X188Y802D02*
X190Y802D01*
X195Y802D02*
X197Y802D01*
X205Y802D02*
X210Y802D01*
X218Y802D02*
X220Y802D01*
X232Y802D02*
X238Y802D01*
X738Y802D02*
X744Y802D01*
X932Y802D02*
X938Y802D01*
X976Y802D02*
X983Y802D01*
X0Y801D02*
X7Y801D01*
X38Y801D02*
X44Y801D01*
X82Y801D02*
X85Y801D01*
X92Y801D02*
X95Y801D01*
X101Y801D02*
X103Y801D01*
X124Y801D02*
X126Y801D01*
X138Y801D02*
X140Y801D01*
X150Y801D02*
X152Y801D01*
X158Y801D02*
X161Y801D01*
X188Y801D02*
X190Y801D01*
X194Y801D02*
X196Y801D01*
X205Y801D02*
X210Y801D01*
X218Y801D02*
X220Y801D01*
X232Y801D02*
X238Y801D01*
X738Y801D02*
X744Y801D01*
X932Y801D02*
X938Y801D01*
X976Y801D02*
X983Y801D01*
X0Y800D02*
X7Y800D01*
X38Y800D02*
X44Y800D01*
X82Y800D02*
X86Y800D01*
X92Y800D02*
X95Y800D01*
X101Y800D02*
X104Y800D01*
X124Y800D02*
X126Y800D01*
X131Y800D02*
X131Y800D01*
X138Y800D02*
X141Y800D01*
X149Y800D02*
X151Y800D01*
X159Y800D02*
X162Y800D01*
X187Y800D02*
X190Y800D01*
X194Y800D02*
X196Y800D01*
X205Y800D02*
X209Y800D01*
X218Y800D02*
X221Y800D01*
X232Y800D02*
X238Y800D01*
X738Y800D02*
X744Y800D01*
X932Y800D02*
X938Y800D01*
X976Y800D02*
X983Y800D01*
X0Y799D02*
X7Y799D01*
X38Y799D02*
X44Y799D01*
X82Y799D02*
X90Y799D01*
X92Y799D02*
X95Y799D01*
X101Y799D02*
X105Y799D01*
X112Y799D02*
X114Y799D01*
X124Y799D02*
X131Y799D01*
X139Y799D02*
X142Y799D01*
X148Y799D02*
X151Y799D01*
X159Y799D02*
X163Y799D01*
X170Y799D02*
X172Y799D01*
X178Y799D02*
X180Y799D01*
X186Y799D02*
X190Y799D01*
X194Y799D02*
X196Y799D01*
X205Y799D02*
X209Y799D01*
X219Y799D02*
X221Y799D01*
X232Y799D02*
X238Y799D01*
X738Y799D02*
X744Y799D01*
X932Y799D02*
X938Y799D01*
X976Y799D02*
X983Y799D01*
X0Y798D02*
X7Y798D01*
X38Y798D02*
X44Y798D01*
X83Y798D02*
X95Y798D01*
X102Y798D02*
X114Y798D01*
X124Y798D02*
X131Y798D01*
X139Y798D02*
X150Y798D01*
X160Y798D02*
X172Y798D01*
X178Y798D02*
X189Y798D01*
X194Y798D02*
X195Y798D01*
X206Y798D02*
X209Y798D01*
X219Y798D02*
X221Y798D01*
X232Y798D02*
X238Y798D01*
X738Y798D02*
X744Y798D01*
X932Y798D02*
X938Y798D01*
X976Y798D02*
X983Y798D01*
X0Y797D02*
X7Y797D01*
X38Y797D02*
X44Y797D01*
X85Y797D02*
X95Y797D01*
X103Y797D02*
X113Y797D01*
X124Y797D02*
X128Y797D01*
X140Y797D02*
X149Y797D01*
X161Y797D02*
X171Y797D01*
X178Y797D02*
X188Y797D01*
X193Y797D02*
X195Y797D01*
X206Y797D02*
X209Y797D01*
X219Y797D02*
X222Y797D01*
X232Y797D02*
X238Y797D01*
X738Y797D02*
X744Y797D01*
X932Y797D02*
X938Y797D01*
X976Y797D02*
X983Y797D01*
X0Y796D02*
X7Y796D01*
X38Y796D02*
X44Y796D01*
X106Y796D02*
X110Y796D01*
X124Y796D02*
X124Y796D01*
X143Y796D02*
X147Y796D01*
X164Y796D02*
X168Y796D01*
X181Y796D02*
X185Y796D01*
X232Y796D02*
X238Y796D01*
X738Y796D02*
X744Y796D01*
X932Y796D02*
X938Y796D01*
X976Y796D02*
X983Y796D01*
X0Y795D02*
X7Y795D01*
X38Y795D02*
X44Y795D01*
X232Y795D02*
X238Y795D01*
X738Y795D02*
X744Y795D01*
X932Y795D02*
X938Y795D01*
X976Y795D02*
X983Y795D01*
X0Y794D02*
X7Y794D01*
X38Y794D02*
X44Y794D01*
X232Y794D02*
X238Y794D01*
X738Y794D02*
X744Y794D01*
X932Y794D02*
X938Y794D01*
X976Y794D02*
X983Y794D01*
X0Y793D02*
X7Y793D01*
X38Y793D02*
X44Y793D01*
X232Y793D02*
X238Y793D01*
X738Y793D02*
X744Y793D01*
X932Y793D02*
X938Y793D01*
X976Y793D02*
X983Y793D01*
X0Y792D02*
X7Y792D01*
X38Y792D02*
X44Y792D01*
X232Y792D02*
X238Y792D01*
X738Y792D02*
X744Y792D01*
X932Y792D02*
X938Y792D01*
X976Y792D02*
X983Y792D01*
X0Y791D02*
X7Y791D01*
X38Y791D02*
X44Y791D01*
X232Y791D02*
X238Y791D01*
X738Y791D02*
X744Y791D01*
X932Y791D02*
X938Y791D01*
X976Y791D02*
X983Y791D01*
X0Y790D02*
X7Y790D01*
X38Y790D02*
X44Y790D01*
X232Y790D02*
X238Y790D01*
X738Y790D02*
X744Y790D01*
X932Y790D02*
X938Y790D01*
X976Y790D02*
X983Y790D01*
X0Y789D02*
X7Y789D01*
X38Y789D02*
X44Y789D01*
X232Y789D02*
X238Y789D01*
X738Y789D02*
X744Y789D01*
X932Y789D02*
X938Y789D01*
X976Y789D02*
X983Y789D01*
X0Y788D02*
X7Y788D01*
X38Y788D02*
X44Y788D01*
X232Y788D02*
X238Y788D01*
X738Y788D02*
X744Y788D01*
X932Y788D02*
X938Y788D01*
X976Y788D02*
X983Y788D01*
X0Y787D02*
X7Y787D01*
X38Y787D02*
X44Y787D01*
X232Y787D02*
X238Y787D01*
X738Y787D02*
X744Y787D01*
X932Y787D02*
X938Y787D01*
X976Y787D02*
X983Y787D01*
X0Y786D02*
X7Y786D01*
X38Y786D02*
X44Y786D01*
X232Y786D02*
X238Y786D01*
X738Y786D02*
X744Y786D01*
X932Y786D02*
X938Y786D01*
X976Y786D02*
X983Y786D01*
X0Y785D02*
X7Y785D01*
X38Y785D02*
X44Y785D01*
X232Y785D02*
X238Y785D01*
X738Y785D02*
X744Y785D01*
X932Y785D02*
X938Y785D01*
X976Y785D02*
X983Y785D01*
X0Y784D02*
X7Y784D01*
X38Y784D02*
X44Y784D01*
X232Y784D02*
X238Y784D01*
X738Y784D02*
X744Y784D01*
X932Y784D02*
X938Y784D01*
X976Y784D02*
X983Y784D01*
X0Y783D02*
X7Y783D01*
X38Y783D02*
X44Y783D01*
X232Y783D02*
X238Y783D01*
X738Y783D02*
X744Y783D01*
X932Y783D02*
X938Y783D01*
X976Y783D02*
X983Y783D01*
X0Y782D02*
X7Y782D01*
X38Y782D02*
X44Y782D01*
X232Y782D02*
X238Y782D01*
X738Y782D02*
X744Y782D01*
X932Y782D02*
X938Y782D01*
X976Y782D02*
X983Y782D01*
X0Y781D02*
X7Y781D01*
X38Y781D02*
X44Y781D01*
X232Y781D02*
X238Y781D01*
X738Y781D02*
X744Y781D01*
X932Y781D02*
X938Y781D01*
X976Y781D02*
X983Y781D01*
X0Y780D02*
X7Y780D01*
X38Y780D02*
X44Y780D01*
X232Y780D02*
X238Y780D01*
X738Y780D02*
X744Y780D01*
X932Y780D02*
X938Y780D01*
X976Y780D02*
X983Y780D01*
X0Y779D02*
X7Y779D01*
X38Y779D02*
X44Y779D01*
X232Y779D02*
X238Y779D01*
X738Y779D02*
X744Y779D01*
X932Y779D02*
X938Y779D01*
X976Y779D02*
X983Y779D01*
X0Y778D02*
X7Y778D01*
X38Y778D02*
X44Y778D01*
X232Y778D02*
X238Y778D01*
X738Y778D02*
X744Y778D01*
X932Y778D02*
X938Y778D01*
X976Y778D02*
X983Y778D01*
X0Y777D02*
X7Y777D01*
X38Y777D02*
X44Y777D01*
X232Y777D02*
X238Y777D01*
X738Y777D02*
X744Y777D01*
X762Y777D02*
X768Y777D01*
X782Y777D02*
X789Y777D01*
X801Y777D02*
X802Y777D01*
X883Y777D02*
X886Y777D01*
X893Y777D02*
X894Y777D01*
X899Y777D02*
X902Y777D01*
X912Y777D02*
X918Y777D01*
X932Y777D02*
X938Y777D01*
X976Y777D02*
X983Y777D01*
X0Y776D02*
X7Y776D01*
X38Y776D02*
X44Y776D01*
X232Y776D02*
X238Y776D01*
X738Y776D02*
X744Y776D01*
X758Y776D02*
X769Y776D01*
X779Y776D02*
X790Y776D01*
X800Y776D02*
X803Y776D01*
X883Y776D02*
X887Y776D01*
X893Y776D02*
X894Y776D01*
X897Y776D02*
X903Y776D01*
X910Y776D02*
X920Y776D01*
X932Y776D02*
X938Y776D01*
X976Y776D02*
X983Y776D01*
X0Y775D02*
X7Y775D01*
X38Y775D02*
X44Y775D01*
X232Y775D02*
X238Y775D01*
X738Y775D02*
X744Y775D01*
X756Y775D02*
X769Y775D01*
X777Y775D02*
X790Y775D01*
X800Y775D02*
X803Y775D01*
X886Y775D02*
X888Y775D01*
X893Y775D02*
X898Y775D01*
X901Y775D02*
X903Y775D01*
X909Y775D02*
X912Y775D01*
X918Y775D02*
X921Y775D01*
X932Y775D02*
X938Y775D01*
X976Y775D02*
X983Y775D01*
X0Y774D02*
X7Y774D01*
X38Y774D02*
X44Y774D01*
X232Y774D02*
X238Y774D01*
X738Y774D02*
X744Y774D01*
X755Y774D02*
X758Y774D01*
X767Y774D02*
X769Y774D01*
X776Y774D02*
X779Y774D01*
X788Y774D02*
X790Y774D01*
X799Y774D02*
X803Y774D01*
X886Y774D02*
X888Y774D01*
X893Y774D02*
X896Y774D01*
X902Y774D02*
X904Y774D01*
X908Y774D02*
X911Y774D01*
X920Y774D02*
X922Y774D01*
X932Y774D02*
X938Y774D01*
X976Y774D02*
X983Y774D01*
X0Y773D02*
X7Y773D01*
X38Y773D02*
X44Y773D01*
X232Y773D02*
X238Y773D01*
X738Y773D02*
X744Y773D01*
X755Y773D02*
X757Y773D01*
X767Y773D02*
X769Y773D01*
X775Y773D02*
X778Y773D01*
X788Y773D02*
X790Y773D01*
X799Y773D02*
X804Y773D01*
X887Y773D02*
X888Y773D01*
X893Y773D02*
X895Y773D01*
X902Y773D02*
X904Y773D01*
X908Y773D02*
X910Y773D01*
X921Y773D02*
X923Y773D01*
X932Y773D02*
X938Y773D01*
X976Y773D02*
X983Y773D01*
X0Y772D02*
X7Y772D01*
X38Y772D02*
X44Y772D01*
X232Y772D02*
X238Y772D01*
X738Y772D02*
X744Y772D01*
X754Y772D02*
X756Y772D01*
X767Y772D02*
X769Y772D01*
X775Y772D02*
X777Y772D01*
X788Y772D02*
X790Y772D01*
X799Y772D02*
X800Y772D01*
X802Y772D02*
X804Y772D01*
X887Y772D02*
X888Y772D01*
X893Y772D02*
X895Y772D01*
X902Y772D02*
X904Y772D01*
X907Y772D02*
X909Y772D01*
X921Y772D02*
X923Y772D01*
X932Y772D02*
X938Y772D01*
X976Y772D02*
X983Y772D01*
X0Y771D02*
X7Y771D01*
X38Y771D02*
X44Y771D01*
X214Y771D02*
X217Y771D01*
X232Y771D02*
X238Y771D01*
X738Y771D02*
X744Y771D01*
X754Y771D02*
X756Y771D01*
X767Y771D02*
X769Y771D01*
X774Y771D02*
X777Y771D01*
X788Y771D02*
X790Y771D01*
X798Y771D02*
X800Y771D01*
X803Y771D02*
X805Y771D01*
X887Y771D02*
X888Y771D01*
X893Y771D02*
X894Y771D01*
X902Y771D02*
X904Y771D01*
X907Y771D02*
X909Y771D01*
X922Y771D02*
X924Y771D01*
X932Y771D02*
X938Y771D01*
X976Y771D02*
X983Y771D01*
X0Y770D02*
X7Y770D01*
X38Y770D02*
X44Y770D01*
X59Y770D02*
X69Y770D01*
X80Y770D02*
X90Y770D01*
X101Y770D02*
X103Y770D01*
X183Y770D02*
X187Y770D01*
X193Y770D02*
X195Y770D01*
X198Y770D02*
X203Y770D01*
X211Y770D02*
X220Y770D01*
X232Y770D02*
X238Y770D01*
X738Y770D02*
X744Y770D01*
X753Y770D02*
X755Y770D01*
X767Y770D02*
X769Y770D01*
X774Y770D02*
X776Y770D01*
X788Y770D02*
X790Y770D01*
X798Y770D02*
X800Y770D01*
X803Y770D02*
X805Y770D01*
X887Y770D02*
X888Y770D01*
X893Y770D02*
X894Y770D01*
X902Y770D02*
X904Y770D01*
X907Y770D02*
X909Y770D01*
X922Y770D02*
X924Y770D01*
X932Y770D02*
X938Y770D01*
X976Y770D02*
X983Y770D01*
X0Y769D02*
X7Y769D01*
X38Y769D02*
X44Y769D01*
X57Y769D02*
X69Y769D01*
X78Y769D02*
X90Y769D01*
X100Y769D02*
X103Y769D01*
X183Y769D02*
X188Y769D01*
X193Y769D02*
X195Y769D01*
X197Y769D02*
X204Y769D01*
X210Y769D02*
X215Y769D01*
X217Y769D02*
X221Y769D01*
X232Y769D02*
X238Y769D01*
X738Y769D02*
X744Y769D01*
X753Y769D02*
X755Y769D01*
X767Y769D02*
X769Y769D01*
X774Y769D02*
X776Y769D01*
X788Y769D02*
X790Y769D01*
X798Y769D02*
X799Y769D01*
X803Y769D02*
X805Y769D01*
X887Y769D02*
X888Y769D01*
X893Y769D02*
X894Y769D01*
X902Y769D02*
X904Y769D01*
X907Y769D02*
X909Y769D01*
X922Y769D02*
X924Y769D01*
X932Y769D02*
X938Y769D01*
X976Y769D02*
X983Y769D01*
X0Y768D02*
X7Y768D01*
X38Y768D02*
X44Y768D01*
X56Y768D02*
X59Y768D01*
X67Y768D02*
X69Y768D01*
X77Y768D02*
X80Y768D01*
X88Y768D02*
X90Y768D01*
X100Y768D02*
X104Y768D01*
X186Y768D02*
X188Y768D01*
X193Y768D02*
X197Y768D01*
X202Y768D02*
X204Y768D01*
X209Y768D02*
X212Y768D01*
X220Y768D02*
X222Y768D01*
X232Y768D02*
X238Y768D01*
X738Y768D02*
X744Y768D01*
X753Y768D02*
X755Y768D01*
X767Y768D02*
X769Y768D01*
X774Y768D02*
X776Y768D01*
X788Y768D02*
X790Y768D01*
X797Y768D02*
X799Y768D01*
X804Y768D02*
X806Y768D01*
X887Y768D02*
X888Y768D01*
X893Y768D02*
X894Y768D01*
X902Y768D02*
X904Y768D01*
X906Y768D02*
X908Y768D01*
X922Y768D02*
X924Y768D01*
X932Y768D02*
X938Y768D01*
X976Y768D02*
X983Y768D01*
X0Y767D02*
X7Y767D01*
X38Y767D02*
X44Y767D01*
X55Y767D02*
X58Y767D01*
X67Y767D02*
X69Y767D01*
X76Y767D02*
X78Y767D01*
X88Y767D02*
X90Y767D01*
X100Y767D02*
X104Y767D01*
X187Y767D02*
X189Y767D01*
X193Y767D02*
X196Y767D01*
X202Y767D02*
X204Y767D01*
X208Y767D02*
X211Y767D01*
X221Y767D02*
X223Y767D01*
X232Y767D02*
X238Y767D01*
X738Y767D02*
X744Y767D01*
X753Y767D02*
X755Y767D01*
X767Y767D02*
X769Y767D01*
X774Y767D02*
X776Y767D01*
X788Y767D02*
X790Y767D01*
X797Y767D02*
X798Y767D01*
X804Y767D02*
X806Y767D01*
X887Y767D02*
X888Y767D01*
X893Y767D02*
X894Y767D01*
X902Y767D02*
X904Y767D01*
X906Y767D02*
X908Y767D01*
X922Y767D02*
X924Y767D01*
X932Y767D02*
X938Y767D01*
X976Y767D02*
X983Y767D01*
X0Y766D02*
X7Y766D01*
X38Y766D02*
X44Y766D01*
X55Y766D02*
X57Y766D01*
X67Y766D02*
X69Y766D01*
X75Y766D02*
X78Y766D01*
X88Y766D02*
X90Y766D01*
X99Y766D02*
X101Y766D01*
X103Y766D02*
X104Y766D01*
X187Y766D02*
X189Y766D01*
X193Y766D02*
X195Y766D01*
X202Y766D02*
X204Y766D01*
X208Y766D02*
X210Y766D01*
X221Y766D02*
X223Y766D01*
X232Y766D02*
X238Y766D01*
X738Y766D02*
X744Y766D01*
X753Y766D02*
X755Y766D01*
X767Y766D02*
X769Y766D01*
X774Y766D02*
X776Y766D01*
X788Y766D02*
X790Y766D01*
X797Y766D02*
X798Y766D01*
X805Y766D02*
X806Y766D01*
X887Y766D02*
X888Y766D01*
X893Y766D02*
X894Y766D01*
X902Y766D02*
X904Y766D01*
X906Y766D02*
X908Y766D01*
X922Y766D02*
X924Y766D01*
X932Y766D02*
X938Y766D01*
X976Y766D02*
X983Y766D01*
X0Y765D02*
X7Y765D01*
X38Y765D02*
X44Y765D01*
X54Y765D02*
X56Y765D01*
X67Y765D02*
X69Y765D01*
X75Y765D02*
X77Y765D01*
X88Y765D02*
X90Y765D01*
X99Y765D02*
X100Y765D01*
X103Y765D02*
X105Y765D01*
X187Y765D02*
X189Y765D01*
X193Y765D02*
X195Y765D01*
X203Y765D02*
X204Y765D01*
X207Y765D02*
X210Y765D01*
X222Y765D02*
X224Y765D01*
X232Y765D02*
X238Y765D01*
X738Y765D02*
X744Y765D01*
X753Y765D02*
X755Y765D01*
X767Y765D02*
X769Y765D01*
X774Y765D02*
X776Y765D01*
X788Y765D02*
X790Y765D01*
X796Y765D02*
X798Y765D01*
X805Y765D02*
X807Y765D01*
X887Y765D02*
X888Y765D01*
X893Y765D02*
X894Y765D01*
X902Y765D02*
X904Y765D01*
X907Y765D02*
X909Y765D01*
X922Y765D02*
X924Y765D01*
X932Y765D02*
X938Y765D01*
X976Y765D02*
X983Y765D01*
X0Y764D02*
X7Y764D01*
X38Y764D02*
X44Y764D01*
X54Y764D02*
X56Y764D01*
X67Y764D02*
X69Y764D01*
X75Y764D02*
X77Y764D01*
X88Y764D02*
X90Y764D01*
X98Y764D02*
X100Y764D01*
X103Y764D02*
X105Y764D01*
X187Y764D02*
X189Y764D01*
X193Y764D02*
X195Y764D01*
X203Y764D02*
X204Y764D01*
X207Y764D02*
X209Y764D01*
X222Y764D02*
X224Y764D01*
X232Y764D02*
X238Y764D01*
X738Y764D02*
X744Y764D01*
X753Y764D02*
X755Y764D01*
X767Y764D02*
X769Y764D01*
X774Y764D02*
X776Y764D01*
X788Y764D02*
X790Y764D01*
X796Y764D02*
X797Y764D01*
X805Y764D02*
X807Y764D01*
X883Y764D02*
X890Y764D01*
X893Y764D02*
X894Y764D01*
X902Y764D02*
X904Y764D01*
X907Y764D02*
X909Y764D01*
X922Y764D02*
X924Y764D01*
X932Y764D02*
X938Y764D01*
X976Y764D02*
X983Y764D01*
X0Y763D02*
X7Y763D01*
X38Y763D02*
X44Y763D01*
X54Y763D02*
X56Y763D01*
X67Y763D02*
X69Y763D01*
X74Y763D02*
X76Y763D01*
X88Y763D02*
X90Y763D01*
X98Y763D02*
X100Y763D01*
X104Y763D02*
X105Y763D01*
X187Y763D02*
X189Y763D01*
X193Y763D02*
X195Y763D01*
X203Y763D02*
X204Y763D01*
X207Y763D02*
X209Y763D01*
X222Y763D02*
X224Y763D01*
X232Y763D02*
X238Y763D01*
X738Y763D02*
X744Y763D01*
X753Y763D02*
X756Y763D01*
X767Y763D02*
X769Y763D01*
X774Y763D02*
X777Y763D01*
X788Y763D02*
X790Y763D01*
X795Y763D02*
X797Y763D01*
X806Y763D02*
X808Y763D01*
X883Y763D02*
X890Y763D01*
X893Y763D02*
X894Y763D01*
X902Y763D02*
X904Y763D01*
X907Y763D02*
X909Y763D01*
X922Y763D02*
X924Y763D01*
X932Y763D02*
X938Y763D01*
X976Y763D02*
X983Y763D01*
X0Y762D02*
X7Y762D01*
X38Y762D02*
X44Y762D01*
X53Y762D02*
X55Y762D01*
X67Y762D02*
X69Y762D01*
X74Y762D02*
X76Y762D01*
X88Y762D02*
X90Y762D01*
X98Y762D02*
X99Y762D01*
X104Y762D02*
X106Y762D01*
X187Y762D02*
X189Y762D01*
X193Y762D02*
X195Y762D01*
X203Y762D02*
X204Y762D01*
X207Y762D02*
X209Y762D01*
X222Y762D02*
X224Y762D01*
X232Y762D02*
X238Y762D01*
X738Y762D02*
X744Y762D01*
X754Y762D02*
X756Y762D01*
X767Y762D02*
X769Y762D01*
X775Y762D02*
X777Y762D01*
X788Y762D02*
X790Y762D01*
X795Y762D02*
X797Y762D01*
X806Y762D02*
X808Y762D01*
X887Y762D02*
X888Y762D01*
X907Y762D02*
X909Y762D01*
X921Y762D02*
X923Y762D01*
X932Y762D02*
X938Y762D01*
X976Y762D02*
X983Y762D01*
X0Y761D02*
X7Y761D01*
X38Y761D02*
X44Y761D01*
X53Y761D02*
X55Y761D01*
X67Y761D02*
X69Y761D01*
X74Y761D02*
X76Y761D01*
X88Y761D02*
X90Y761D01*
X97Y761D02*
X99Y761D01*
X104Y761D02*
X106Y761D01*
X187Y761D02*
X189Y761D01*
X193Y761D02*
X195Y761D01*
X203Y761D02*
X204Y761D01*
X207Y761D02*
X209Y761D01*
X222Y761D02*
X224Y761D01*
X232Y761D02*
X238Y761D01*
X738Y761D02*
X744Y761D01*
X754Y761D02*
X757Y761D01*
X767Y761D02*
X769Y761D01*
X775Y761D02*
X778Y761D01*
X788Y761D02*
X790Y761D01*
X795Y761D02*
X796Y761D01*
X806Y761D02*
X808Y761D01*
X887Y761D02*
X888Y761D01*
X908Y761D02*
X910Y761D01*
X921Y761D02*
X923Y761D01*
X932Y761D02*
X938Y761D01*
X976Y761D02*
X983Y761D01*
X0Y760D02*
X7Y760D01*
X38Y760D02*
X44Y760D01*
X53Y760D02*
X55Y760D01*
X67Y760D02*
X69Y760D01*
X74Y760D02*
X76Y760D01*
X88Y760D02*
X90Y760D01*
X97Y760D02*
X99Y760D01*
X105Y760D02*
X107Y760D01*
X187Y760D02*
X189Y760D01*
X193Y760D02*
X195Y760D01*
X203Y760D02*
X204Y760D01*
X207Y760D02*
X209Y760D01*
X222Y760D02*
X224Y760D01*
X232Y760D02*
X238Y760D01*
X738Y760D02*
X744Y760D01*
X755Y760D02*
X758Y760D01*
X767Y760D02*
X769Y760D01*
X776Y760D02*
X779Y760D01*
X788Y760D02*
X790Y760D01*
X794Y760D02*
X796Y760D01*
X807Y760D02*
X809Y760D01*
X887Y760D02*
X888Y760D01*
X909Y760D02*
X911Y760D01*
X920Y760D02*
X922Y760D01*
X932Y760D02*
X938Y760D01*
X976Y760D02*
X983Y760D01*
X0Y759D02*
X7Y759D01*
X38Y759D02*
X44Y759D01*
X53Y759D02*
X55Y759D01*
X67Y759D02*
X69Y759D01*
X74Y759D02*
X76Y759D01*
X88Y759D02*
X90Y759D01*
X97Y759D02*
X98Y759D01*
X105Y759D02*
X107Y759D01*
X187Y759D02*
X189Y759D01*
X193Y759D02*
X195Y759D01*
X203Y759D02*
X204Y759D01*
X207Y759D02*
X209Y759D01*
X222Y759D02*
X224Y759D01*
X232Y759D02*
X238Y759D01*
X738Y759D02*
X744Y759D01*
X756Y759D02*
X769Y759D01*
X777Y759D02*
X790Y759D01*
X794Y759D02*
X795Y759D01*
X807Y759D02*
X809Y759D01*
X909Y759D02*
X913Y759D01*
X918Y759D02*
X921Y759D01*
X932Y759D02*
X938Y759D01*
X976Y759D02*
X983Y759D01*
X0Y758D02*
X7Y758D01*
X38Y758D02*
X44Y758D01*
X54Y758D02*
X56Y758D01*
X67Y758D02*
X69Y758D01*
X74Y758D02*
X76Y758D01*
X88Y758D02*
X90Y758D01*
X96Y758D02*
X98Y758D01*
X106Y758D02*
X107Y758D01*
X187Y758D02*
X189Y758D01*
X193Y758D02*
X195Y758D01*
X203Y758D02*
X204Y758D01*
X207Y758D02*
X209Y758D01*
X222Y758D02*
X224Y758D01*
X232Y758D02*
X238Y758D01*
X738Y758D02*
X744Y758D01*
X808Y758D02*
X809Y758D01*
X932Y758D02*
X938Y758D01*
X976Y758D02*
X983Y758D01*
X0Y757D02*
X7Y757D01*
X38Y757D02*
X44Y757D01*
X54Y757D02*
X56Y757D01*
X67Y757D02*
X69Y757D01*
X75Y757D02*
X77Y757D01*
X88Y757D02*
X90Y757D01*
X96Y757D02*
X97Y757D01*
X106Y757D02*
X108Y757D01*
X183Y757D02*
X190Y757D01*
X193Y757D02*
X195Y757D01*
X203Y757D02*
X204Y757D01*
X207Y757D02*
X209Y757D01*
X222Y757D02*
X224Y757D01*
X232Y757D02*
X238Y757D01*
X738Y757D02*
X744Y757D01*
X932Y757D02*
X938Y757D01*
X976Y757D02*
X983Y757D01*
X0Y756D02*
X7Y756D01*
X38Y756D02*
X44Y756D01*
X54Y756D02*
X56Y756D01*
X67Y756D02*
X69Y756D01*
X75Y756D02*
X77Y756D01*
X88Y756D02*
X90Y756D01*
X96Y756D02*
X97Y756D01*
X106Y756D02*
X108Y756D01*
X183Y756D02*
X190Y756D01*
X194Y756D02*
X194Y756D01*
X203Y756D02*
X204Y756D01*
X208Y756D02*
X210Y756D01*
X222Y756D02*
X224Y756D01*
X232Y756D02*
X238Y756D01*
X738Y756D02*
X744Y756D01*
X932Y756D02*
X938Y756D01*
X976Y756D02*
X983Y756D01*
X0Y755D02*
X7Y755D01*
X38Y755D02*
X44Y755D01*
X54Y755D02*
X57Y755D01*
X67Y755D02*
X69Y755D01*
X75Y755D02*
X78Y755D01*
X88Y755D02*
X90Y755D01*
X95Y755D02*
X97Y755D01*
X107Y755D02*
X109Y755D01*
X187Y755D02*
X189Y755D01*
X208Y755D02*
X210Y755D01*
X221Y755D02*
X223Y755D01*
X232Y755D02*
X238Y755D01*
X738Y755D02*
X744Y755D01*
X932Y755D02*
X938Y755D01*
X976Y755D02*
X983Y755D01*
X0Y754D02*
X7Y754D01*
X38Y754D02*
X44Y754D01*
X55Y754D02*
X58Y754D01*
X67Y754D02*
X69Y754D01*
X76Y754D02*
X79Y754D01*
X88Y754D02*
X90Y754D01*
X95Y754D02*
X96Y754D01*
X107Y754D02*
X109Y754D01*
X187Y754D02*
X189Y754D01*
X209Y754D02*
X211Y754D01*
X220Y754D02*
X223Y754D01*
X232Y754D02*
X238Y754D01*
X738Y754D02*
X744Y754D01*
X932Y754D02*
X938Y754D01*
X976Y754D02*
X983Y754D01*
X0Y753D02*
X7Y753D01*
X38Y753D02*
X44Y753D01*
X56Y753D02*
X61Y753D01*
X67Y753D02*
X69Y753D01*
X77Y753D02*
X81Y753D01*
X88Y753D02*
X90Y753D01*
X95Y753D02*
X96Y753D01*
X107Y753D02*
X109Y753D01*
X209Y753D02*
X212Y753D01*
X219Y753D02*
X222Y753D01*
X232Y753D02*
X238Y753D01*
X738Y753D02*
X744Y753D01*
X932Y753D02*
X938Y753D01*
X976Y753D02*
X983Y753D01*
X0Y752D02*
X7Y752D01*
X38Y752D02*
X44Y752D01*
X108Y752D02*
X110Y752D01*
X232Y752D02*
X238Y752D01*
X738Y752D02*
X744Y752D01*
X932Y752D02*
X938Y752D01*
X976Y752D02*
X983Y752D01*
X0Y751D02*
X7Y751D01*
X38Y751D02*
X44Y751D01*
X108Y751D02*
X110Y751D01*
X232Y751D02*
X238Y751D01*
X738Y751D02*
X744Y751D01*
X932Y751D02*
X938Y751D01*
X976Y751D02*
X983Y751D01*
X0Y750D02*
X7Y750D01*
X38Y750D02*
X44Y750D01*
X232Y750D02*
X238Y750D01*
X738Y750D02*
X744Y750D01*
X932Y750D02*
X938Y750D01*
X976Y750D02*
X983Y750D01*
X0Y749D02*
X7Y749D01*
X38Y749D02*
X44Y749D01*
X232Y749D02*
X238Y749D01*
X738Y749D02*
X744Y749D01*
X932Y749D02*
X938Y749D01*
X976Y749D02*
X983Y749D01*
X0Y748D02*
X7Y748D01*
X38Y748D02*
X44Y748D01*
X232Y748D02*
X238Y748D01*
X738Y748D02*
X744Y748D01*
X932Y748D02*
X938Y748D01*
X976Y748D02*
X983Y748D01*
X0Y747D02*
X7Y747D01*
X38Y747D02*
X44Y747D01*
X232Y747D02*
X238Y747D01*
X738Y747D02*
X744Y747D01*
X932Y747D02*
X938Y747D01*
X976Y747D02*
X983Y747D01*
X0Y746D02*
X7Y746D01*
X38Y746D02*
X44Y746D01*
X232Y746D02*
X238Y746D01*
X738Y746D02*
X744Y746D01*
X932Y746D02*
X938Y746D01*
X976Y746D02*
X983Y746D01*
X0Y745D02*
X7Y745D01*
X38Y745D02*
X44Y745D01*
X232Y745D02*
X238Y745D01*
X738Y745D02*
X744Y745D01*
X932Y745D02*
X938Y745D01*
X976Y745D02*
X983Y745D01*
X0Y744D02*
X7Y744D01*
X38Y744D02*
X44Y744D01*
X232Y744D02*
X238Y744D01*
X738Y744D02*
X744Y744D01*
X932Y744D02*
X938Y744D01*
X976Y744D02*
X983Y744D01*
X0Y743D02*
X7Y743D01*
X38Y743D02*
X44Y743D01*
X232Y743D02*
X238Y743D01*
X738Y743D02*
X744Y743D01*
X932Y743D02*
X938Y743D01*
X976Y743D02*
X983Y743D01*
X0Y742D02*
X7Y742D01*
X38Y742D02*
X44Y742D01*
X232Y742D02*
X238Y742D01*
X738Y742D02*
X744Y742D01*
X932Y742D02*
X938Y742D01*
X976Y742D02*
X983Y742D01*
X0Y741D02*
X7Y741D01*
X38Y741D02*
X44Y741D01*
X232Y741D02*
X238Y741D01*
X738Y741D02*
X744Y741D01*
X932Y741D02*
X938Y741D01*
X976Y741D02*
X983Y741D01*
X0Y740D02*
X7Y740D01*
X38Y740D02*
X44Y740D01*
X232Y740D02*
X238Y740D01*
X738Y740D02*
X744Y740D01*
X932Y740D02*
X938Y740D01*
X976Y740D02*
X983Y740D01*
X0Y739D02*
X7Y739D01*
X38Y739D02*
X44Y739D01*
X232Y739D02*
X238Y739D01*
X738Y739D02*
X744Y739D01*
X932Y739D02*
X938Y739D01*
X976Y739D02*
X983Y739D01*
X0Y738D02*
X7Y738D01*
X38Y738D02*
X44Y738D01*
X232Y738D02*
X238Y738D01*
X738Y738D02*
X744Y738D01*
X932Y738D02*
X938Y738D01*
X976Y738D02*
X983Y738D01*
X0Y737D02*
X7Y737D01*
X38Y737D02*
X44Y737D01*
X232Y737D02*
X238Y737D01*
X738Y737D02*
X744Y737D01*
X932Y737D02*
X938Y737D01*
X976Y737D02*
X983Y737D01*
X0Y736D02*
X7Y736D01*
X38Y736D02*
X44Y736D01*
X232Y736D02*
X238Y736D01*
X738Y736D02*
X744Y736D01*
X932Y736D02*
X938Y736D01*
X976Y736D02*
X983Y736D01*
X0Y735D02*
X7Y735D01*
X38Y735D02*
X44Y735D01*
X232Y735D02*
X238Y735D01*
X738Y735D02*
X744Y735D01*
X932Y735D02*
X938Y735D01*
X976Y735D02*
X983Y735D01*
X0Y734D02*
X7Y734D01*
X38Y734D02*
X44Y734D01*
X232Y734D02*
X238Y734D01*
X738Y734D02*
X744Y734D01*
X932Y734D02*
X938Y734D01*
X976Y734D02*
X983Y734D01*
X0Y733D02*
X7Y733D01*
X38Y733D02*
X44Y733D01*
X232Y733D02*
X238Y733D01*
X738Y733D02*
X744Y733D01*
X932Y733D02*
X938Y733D01*
X976Y733D02*
X983Y733D01*
X0Y732D02*
X7Y732D01*
X38Y732D02*
X44Y732D01*
X232Y732D02*
X238Y732D01*
X738Y732D02*
X744Y732D01*
X932Y732D02*
X938Y732D01*
X976Y732D02*
X983Y732D01*
X0Y731D02*
X7Y731D01*
X38Y731D02*
X44Y731D01*
X232Y731D02*
X238Y731D01*
X738Y731D02*
X744Y731D01*
X932Y731D02*
X938Y731D01*
X976Y731D02*
X983Y731D01*
X0Y730D02*
X7Y730D01*
X38Y730D02*
X44Y730D01*
X232Y730D02*
X238Y730D01*
X738Y730D02*
X744Y730D01*
X932Y730D02*
X938Y730D01*
X976Y730D02*
X983Y730D01*
X0Y729D02*
X7Y729D01*
X38Y729D02*
X44Y729D01*
X232Y729D02*
X238Y729D01*
X738Y729D02*
X744Y729D01*
X932Y729D02*
X938Y729D01*
X976Y729D02*
X983Y729D01*
X0Y728D02*
X7Y728D01*
X38Y728D02*
X44Y728D01*
X232Y728D02*
X238Y728D01*
X738Y728D02*
X744Y728D01*
X932Y728D02*
X938Y728D01*
X976Y728D02*
X983Y728D01*
X0Y727D02*
X7Y727D01*
X38Y727D02*
X44Y727D01*
X232Y727D02*
X238Y727D01*
X738Y727D02*
X744Y727D01*
X932Y727D02*
X938Y727D01*
X976Y727D02*
X983Y727D01*
X0Y726D02*
X7Y726D01*
X38Y726D02*
X44Y726D01*
X232Y726D02*
X238Y726D01*
X738Y726D02*
X744Y726D01*
X932Y726D02*
X938Y726D01*
X976Y726D02*
X983Y726D01*
X0Y725D02*
X7Y725D01*
X38Y725D02*
X44Y725D01*
X232Y725D02*
X238Y725D01*
X738Y725D02*
X744Y725D01*
X932Y725D02*
X938Y725D01*
X976Y725D02*
X983Y725D01*
X0Y724D02*
X7Y724D01*
X38Y724D02*
X44Y724D01*
X232Y724D02*
X238Y724D01*
X738Y724D02*
X744Y724D01*
X932Y724D02*
X938Y724D01*
X976Y724D02*
X983Y724D01*
X0Y723D02*
X7Y723D01*
X38Y723D02*
X44Y723D01*
X232Y723D02*
X238Y723D01*
X738Y723D02*
X750Y723D01*
X932Y723D02*
X938Y723D01*
X976Y723D02*
X983Y723D01*
X0Y722D02*
X7Y722D01*
X38Y722D02*
X44Y722D01*
X232Y722D02*
X238Y722D01*
X738Y722D02*
X751Y722D01*
X802Y722D02*
X880Y722D01*
X932Y722D02*
X938Y722D01*
X976Y722D02*
X983Y722D01*
X0Y721D02*
X7Y721D01*
X38Y721D02*
X44Y721D01*
X232Y721D02*
X238Y721D01*
X738Y721D02*
X751Y721D01*
X802Y721D02*
X880Y721D01*
X932Y721D02*
X938Y721D01*
X976Y721D02*
X983Y721D01*
X0Y720D02*
X7Y720D01*
X38Y720D02*
X44Y720D01*
X232Y720D02*
X238Y720D01*
X738Y720D02*
X751Y720D01*
X802Y720D02*
X880Y720D01*
X932Y720D02*
X938Y720D01*
X976Y720D02*
X983Y720D01*
X0Y719D02*
X7Y719D01*
X38Y719D02*
X44Y719D01*
X232Y719D02*
X238Y719D01*
X738Y719D02*
X751Y719D01*
X802Y719D02*
X880Y719D01*
X932Y719D02*
X938Y719D01*
X976Y719D02*
X983Y719D01*
X0Y718D02*
X7Y718D01*
X38Y718D02*
X44Y718D01*
X232Y718D02*
X238Y718D01*
X738Y718D02*
X751Y718D01*
X802Y718D02*
X880Y718D01*
X932Y718D02*
X938Y718D01*
X976Y718D02*
X983Y718D01*
X0Y717D02*
X7Y717D01*
X38Y717D02*
X44Y717D01*
X232Y717D02*
X238Y717D01*
X738Y717D02*
X751Y717D01*
X802Y717D02*
X880Y717D01*
X932Y717D02*
X938Y717D01*
X976Y717D02*
X983Y717D01*
X0Y716D02*
X7Y716D01*
X38Y716D02*
X51Y716D01*
X102Y716D02*
X181Y716D01*
X232Y716D02*
X238Y716D01*
X738Y716D02*
X751Y716D01*
X802Y716D02*
X880Y716D01*
X932Y716D02*
X938Y716D01*
X976Y716D02*
X983Y716D01*
X0Y715D02*
X7Y715D01*
X38Y715D02*
X51Y715D01*
X102Y715D02*
X181Y715D01*
X232Y715D02*
X238Y715D01*
X976Y715D02*
X983Y715D01*
X0Y714D02*
X7Y714D01*
X38Y714D02*
X51Y714D01*
X102Y714D02*
X181Y714D01*
X232Y714D02*
X238Y714D01*
X976Y714D02*
X983Y714D01*
X0Y713D02*
X7Y713D01*
X38Y713D02*
X51Y713D01*
X102Y713D02*
X181Y713D01*
X232Y713D02*
X238Y713D01*
X976Y713D02*
X983Y713D01*
X0Y712D02*
X7Y712D01*
X38Y712D02*
X51Y712D01*
X102Y712D02*
X181Y712D01*
X232Y712D02*
X238Y712D01*
X976Y712D02*
X983Y712D01*
X0Y711D02*
X7Y711D01*
X38Y711D02*
X51Y711D01*
X102Y711D02*
X181Y711D01*
X232Y711D02*
X238Y711D01*
X976Y711D02*
X983Y711D01*
X0Y710D02*
X7Y710D01*
X38Y710D02*
X51Y710D01*
X102Y710D02*
X181Y710D01*
X232Y710D02*
X238Y710D01*
X976Y710D02*
X983Y710D01*
X0Y709D02*
X7Y709D01*
X976Y709D02*
X983Y709D01*
X0Y708D02*
X7Y708D01*
X976Y708D02*
X983Y708D01*
X0Y707D02*
X7Y707D01*
X976Y707D02*
X983Y707D01*
X0Y706D02*
X7Y706D01*
X976Y706D02*
X983Y706D01*
X0Y705D02*
X7Y705D01*
X976Y705D02*
X983Y705D01*
X0Y704D02*
X7Y704D01*
X976Y704D02*
X983Y704D01*
X0Y703D02*
X7Y703D01*
X976Y703D02*
X983Y703D01*
X0Y702D02*
X7Y702D01*
X976Y702D02*
X983Y702D01*
X0Y701D02*
X7Y701D01*
X976Y701D02*
X983Y701D01*
X0Y700D02*
X7Y700D01*
X976Y700D02*
X983Y700D01*
X0Y699D02*
X7Y699D01*
X976Y699D02*
X983Y699D01*
X0Y698D02*
X7Y698D01*
X976Y698D02*
X983Y698D01*
X0Y697D02*
X7Y697D01*
X976Y697D02*
X983Y697D01*
X0Y696D02*
X7Y696D01*
X976Y696D02*
X983Y696D01*
X0Y695D02*
X7Y695D01*
X294Y695D02*
X354Y695D01*
X379Y695D02*
X443Y695D01*
X544Y695D02*
X609Y695D01*
X634Y695D02*
X692Y695D01*
X976Y695D02*
X983Y695D01*
X0Y694D02*
X7Y694D01*
X294Y694D02*
X358Y694D01*
X374Y694D02*
X443Y694D01*
X544Y694D02*
X614Y694D01*
X630Y694D02*
X693Y694D01*
X976Y694D02*
X983Y694D01*
X0Y693D02*
X7Y693D01*
X294Y693D02*
X443Y693D01*
X544Y693D02*
X693Y693D01*
X976Y693D02*
X983Y693D01*
X0Y692D02*
X7Y692D01*
X294Y692D02*
X443Y692D01*
X544Y692D02*
X693Y692D01*
X976Y692D02*
X983Y692D01*
X0Y691D02*
X7Y691D01*
X294Y691D02*
X443Y691D01*
X544Y691D02*
X693Y691D01*
X976Y691D02*
X983Y691D01*
X0Y690D02*
X7Y690D01*
X294Y690D02*
X443Y690D01*
X544Y690D02*
X693Y690D01*
X976Y690D02*
X983Y690D01*
X0Y689D02*
X7Y689D01*
X294Y689D02*
X443Y689D01*
X544Y689D02*
X693Y689D01*
X976Y689D02*
X983Y689D01*
X0Y688D02*
X7Y688D01*
X294Y688D02*
X443Y688D01*
X544Y688D02*
X693Y688D01*
X976Y688D02*
X983Y688D01*
X0Y687D02*
X7Y687D01*
X294Y687D02*
X443Y687D01*
X544Y687D02*
X693Y687D01*
X976Y687D02*
X983Y687D01*
X0Y686D02*
X7Y686D01*
X294Y686D02*
X443Y686D01*
X544Y686D02*
X693Y686D01*
X976Y686D02*
X983Y686D01*
X0Y685D02*
X7Y685D01*
X976Y685D02*
X983Y685D01*
X0Y684D02*
X7Y684D01*
X976Y684D02*
X983Y684D01*
X0Y683D02*
X7Y683D01*
X976Y683D02*
X983Y683D01*
X0Y682D02*
X7Y682D01*
X976Y682D02*
X983Y682D01*
X0Y681D02*
X7Y681D01*
X976Y681D02*
X983Y681D01*
X0Y680D02*
X7Y680D01*
X976Y680D02*
X983Y680D01*
X0Y679D02*
X7Y679D01*
X976Y679D02*
X983Y679D01*
X0Y678D02*
X7Y678D01*
X976Y678D02*
X983Y678D01*
X0Y677D02*
X7Y677D01*
X976Y677D02*
X983Y677D01*
X0Y676D02*
X7Y676D01*
X976Y676D02*
X983Y676D01*
X0Y675D02*
X7Y675D01*
X976Y675D02*
X983Y675D01*
X0Y674D02*
X7Y674D01*
X976Y674D02*
X983Y674D01*
X0Y673D02*
X7Y673D01*
X976Y673D02*
X983Y673D01*
X0Y672D02*
X7Y672D01*
X976Y672D02*
X983Y672D01*
X0Y671D02*
X7Y671D01*
X976Y671D02*
X983Y671D01*
X0Y670D02*
X7Y670D01*
X976Y670D02*
X983Y670D01*
X0Y669D02*
X7Y669D01*
X976Y669D02*
X983Y669D01*
X0Y668D02*
X7Y668D01*
X976Y668D02*
X983Y668D01*
X0Y667D02*
X7Y667D01*
X976Y667D02*
X983Y667D01*
X0Y666D02*
X7Y666D01*
X976Y666D02*
X983Y666D01*
X0Y665D02*
X7Y665D01*
X976Y665D02*
X983Y665D01*
X0Y664D02*
X7Y664D01*
X976Y664D02*
X983Y664D01*
X0Y663D02*
X7Y663D01*
X976Y663D02*
X983Y663D01*
X0Y662D02*
X7Y662D01*
X976Y662D02*
X983Y662D01*
X0Y661D02*
X7Y661D01*
X976Y661D02*
X983Y661D01*
X0Y660D02*
X7Y660D01*
X976Y660D02*
X983Y660D01*
X0Y659D02*
X7Y659D01*
X976Y659D02*
X983Y659D01*
X0Y658D02*
X7Y658D01*
X976Y658D02*
X983Y658D01*
X0Y657D02*
X7Y657D01*
X976Y657D02*
X983Y657D01*
X0Y656D02*
X7Y656D01*
X976Y656D02*
X983Y656D01*
X0Y655D02*
X7Y655D01*
X976Y655D02*
X983Y655D01*
X0Y654D02*
X7Y654D01*
X976Y654D02*
X983Y654D01*
X0Y653D02*
X7Y653D01*
X976Y653D02*
X983Y653D01*
X0Y652D02*
X7Y652D01*
X976Y652D02*
X983Y652D01*
X0Y651D02*
X7Y651D01*
X976Y651D02*
X983Y651D01*
X0Y650D02*
X7Y650D01*
X976Y650D02*
X983Y650D01*
X0Y649D02*
X7Y649D01*
X976Y649D02*
X983Y649D01*
X0Y648D02*
X7Y648D01*
X976Y648D02*
X983Y648D01*
X0Y647D02*
X7Y647D01*
X976Y647D02*
X983Y647D01*
X0Y646D02*
X7Y646D01*
X976Y646D02*
X983Y646D01*
X0Y645D02*
X7Y645D01*
X976Y645D02*
X983Y645D01*
X0Y644D02*
X7Y644D01*
X976Y644D02*
X983Y644D01*
X0Y643D02*
X7Y643D01*
X976Y643D02*
X983Y643D01*
X0Y642D02*
X7Y642D01*
X976Y642D02*
X983Y642D01*
X0Y641D02*
X7Y641D01*
X976Y641D02*
X983Y641D01*
X0Y640D02*
X7Y640D01*
X976Y640D02*
X983Y640D01*
X0Y639D02*
X7Y639D01*
X976Y639D02*
X983Y639D01*
X0Y638D02*
X7Y638D01*
X976Y638D02*
X983Y638D01*
X0Y637D02*
X7Y637D01*
X976Y637D02*
X983Y637D01*
X0Y636D02*
X7Y636D01*
X976Y636D02*
X983Y636D01*
X0Y635D02*
X7Y635D01*
X976Y635D02*
X983Y635D01*
X0Y634D02*
X7Y634D01*
X976Y634D02*
X983Y634D01*
X0Y633D02*
X7Y633D01*
X976Y633D02*
X983Y633D01*
X0Y632D02*
X7Y632D01*
X976Y632D02*
X983Y632D01*
X0Y631D02*
X7Y631D01*
X976Y631D02*
X983Y631D01*
X0Y630D02*
X7Y630D01*
X976Y630D02*
X983Y630D01*
X0Y629D02*
X7Y629D01*
X976Y629D02*
X983Y629D01*
X0Y628D02*
X7Y628D01*
X976Y628D02*
X983Y628D01*
X0Y627D02*
X7Y627D01*
X976Y627D02*
X983Y627D01*
X0Y626D02*
X7Y626D01*
X976Y626D02*
X983Y626D01*
X0Y625D02*
X7Y625D01*
X976Y625D02*
X983Y625D01*
X0Y624D02*
X7Y624D01*
X976Y624D02*
X983Y624D01*
X0Y623D02*
X7Y623D01*
X976Y623D02*
X983Y623D01*
X0Y622D02*
X7Y622D01*
X976Y622D02*
X983Y622D01*
X0Y621D02*
X7Y621D01*
X976Y621D02*
X983Y621D01*
X0Y620D02*
X7Y620D01*
X976Y620D02*
X983Y620D01*
X0Y619D02*
X7Y619D01*
X976Y619D02*
X983Y619D01*
X0Y618D02*
X7Y618D01*
X976Y618D02*
X983Y618D01*
X0Y617D02*
X7Y617D01*
X976Y617D02*
X983Y617D01*
X0Y616D02*
X7Y616D01*
X976Y616D02*
X983Y616D01*
X0Y615D02*
X7Y615D01*
X976Y615D02*
X983Y615D01*
X0Y614D02*
X7Y614D01*
X976Y614D02*
X983Y614D01*
X0Y613D02*
X7Y613D01*
X976Y613D02*
X983Y613D01*
X0Y612D02*
X7Y612D01*
X976Y612D02*
X983Y612D01*
X0Y611D02*
X7Y611D01*
X976Y611D02*
X983Y611D01*
X0Y610D02*
X7Y610D01*
X976Y610D02*
X983Y610D01*
X0Y609D02*
X7Y609D01*
X976Y609D02*
X983Y609D01*
X0Y608D02*
X7Y608D01*
X976Y608D02*
X983Y608D01*
X0Y607D02*
X7Y607D01*
X976Y607D02*
X983Y607D01*
X0Y606D02*
X7Y606D01*
X976Y606D02*
X983Y606D01*
X0Y605D02*
X7Y605D01*
X976Y605D02*
X983Y605D01*
X0Y604D02*
X7Y604D01*
X976Y604D02*
X983Y604D01*
X0Y603D02*
X7Y603D01*
X976Y603D02*
X983Y603D01*
X0Y602D02*
X7Y602D01*
X976Y602D02*
X983Y602D01*
X0Y601D02*
X7Y601D01*
X976Y601D02*
X983Y601D01*
X0Y600D02*
X7Y600D01*
X976Y600D02*
X983Y600D01*
X0Y599D02*
X7Y599D01*
X976Y599D02*
X983Y599D01*
X0Y598D02*
X7Y598D01*
X976Y598D02*
X983Y598D01*
X0Y597D02*
X7Y597D01*
X976Y597D02*
X983Y597D01*
X0Y596D02*
X7Y596D01*
X976Y596D02*
X983Y596D01*
X0Y595D02*
X7Y595D01*
X976Y595D02*
X983Y595D01*
X0Y594D02*
X7Y594D01*
X976Y594D02*
X983Y594D01*
X0Y593D02*
X7Y593D01*
X976Y593D02*
X983Y593D01*
X0Y592D02*
X7Y592D01*
X976Y592D02*
X983Y592D01*
X0Y591D02*
X7Y591D01*
X976Y591D02*
X983Y591D01*
X0Y590D02*
X7Y590D01*
X976Y590D02*
X983Y590D01*
X0Y589D02*
X7Y589D01*
X976Y589D02*
X983Y589D01*
X0Y588D02*
X7Y588D01*
X976Y588D02*
X983Y588D01*
X0Y587D02*
X7Y587D01*
X976Y587D02*
X983Y587D01*
X0Y586D02*
X7Y586D01*
X976Y586D02*
X983Y586D01*
X0Y585D02*
X7Y585D01*
X976Y585D02*
X983Y585D01*
X0Y584D02*
X7Y584D01*
X976Y584D02*
X983Y584D01*
X0Y583D02*
X7Y583D01*
X976Y583D02*
X983Y583D01*
X0Y582D02*
X7Y582D01*
X976Y582D02*
X983Y582D01*
X0Y581D02*
X7Y581D01*
X976Y581D02*
X983Y581D01*
X0Y580D02*
X7Y580D01*
X976Y580D02*
X983Y580D01*
X0Y579D02*
X7Y579D01*
X976Y579D02*
X983Y579D01*
X0Y578D02*
X7Y578D01*
X976Y578D02*
X983Y578D01*
X0Y577D02*
X7Y577D01*
X976Y577D02*
X983Y577D01*
X0Y576D02*
X7Y576D01*
X976Y576D02*
X983Y576D01*
X0Y575D02*
X7Y575D01*
X976Y575D02*
X983Y575D01*
X0Y574D02*
X7Y574D01*
X976Y574D02*
X983Y574D01*
X0Y573D02*
X7Y573D01*
X976Y573D02*
X983Y573D01*
X0Y572D02*
X7Y572D01*
X976Y572D02*
X983Y572D01*
X0Y571D02*
X7Y571D01*
X976Y571D02*
X983Y571D01*
X0Y570D02*
X7Y570D01*
X976Y570D02*
X983Y570D01*
X0Y569D02*
X7Y569D01*
X976Y569D02*
X983Y569D01*
X0Y568D02*
X7Y568D01*
X976Y568D02*
X983Y568D01*
X0Y567D02*
X7Y567D01*
X976Y567D02*
X983Y567D01*
X0Y566D02*
X7Y566D01*
X976Y566D02*
X983Y566D01*
X0Y565D02*
X7Y565D01*
X976Y565D02*
X983Y565D01*
X0Y564D02*
X7Y564D01*
X976Y564D02*
X983Y564D01*
X0Y563D02*
X7Y563D01*
X976Y563D02*
X983Y563D01*
X0Y562D02*
X7Y562D01*
X976Y562D02*
X983Y562D01*
X0Y561D02*
X7Y561D01*
X976Y561D02*
X983Y561D01*
X0Y560D02*
X7Y560D01*
X976Y560D02*
X983Y560D01*
X0Y559D02*
X7Y559D01*
X976Y559D02*
X983Y559D01*
X0Y558D02*
X7Y558D01*
X976Y558D02*
X983Y558D01*
X0Y557D02*
X7Y557D01*
X976Y557D02*
X983Y557D01*
X0Y556D02*
X7Y556D01*
X976Y556D02*
X983Y556D01*
X0Y555D02*
X7Y555D01*
X976Y555D02*
X983Y555D01*
X0Y554D02*
X7Y554D01*
X976Y554D02*
X983Y554D01*
X0Y553D02*
X7Y553D01*
X976Y553D02*
X983Y553D01*
X0Y552D02*
X7Y552D01*
X976Y552D02*
X983Y552D01*
X0Y551D02*
X7Y551D01*
X976Y551D02*
X983Y551D01*
X0Y550D02*
X7Y550D01*
X976Y550D02*
X983Y550D01*
X0Y549D02*
X7Y549D01*
X976Y549D02*
X983Y549D01*
X0Y548D02*
X7Y548D01*
X976Y548D02*
X983Y548D01*
X0Y547D02*
X7Y547D01*
X976Y547D02*
X983Y547D01*
X0Y546D02*
X7Y546D01*
X976Y546D02*
X983Y546D01*
X0Y545D02*
X7Y545D01*
X976Y545D02*
X983Y545D01*
X0Y544D02*
X7Y544D01*
X976Y544D02*
X983Y544D01*
X0Y543D02*
X7Y543D01*
X976Y543D02*
X983Y543D01*
X0Y542D02*
X7Y542D01*
X976Y542D02*
X983Y542D01*
X0Y541D02*
X7Y541D01*
X976Y541D02*
X983Y541D01*
X0Y540D02*
X7Y540D01*
X976Y540D02*
X983Y540D01*
X0Y539D02*
X7Y539D01*
X976Y539D02*
X983Y539D01*
X0Y538D02*
X7Y538D01*
X976Y538D02*
X983Y538D01*
X0Y537D02*
X7Y537D01*
X976Y537D02*
X983Y537D01*
X0Y536D02*
X7Y536D01*
X976Y536D02*
X983Y536D01*
X0Y535D02*
X7Y535D01*
X976Y535D02*
X983Y535D01*
X0Y534D02*
X7Y534D01*
X976Y534D02*
X983Y534D01*
X0Y533D02*
X7Y533D01*
X976Y533D02*
X983Y533D01*
X0Y532D02*
X7Y532D01*
X976Y532D02*
X983Y532D01*
X0Y531D02*
X7Y531D01*
X976Y531D02*
X983Y531D01*
X0Y530D02*
X7Y530D01*
X976Y530D02*
X983Y530D01*
X0Y529D02*
X7Y529D01*
X976Y529D02*
X983Y529D01*
X0Y528D02*
X7Y528D01*
X976Y528D02*
X983Y528D01*
X0Y527D02*
X7Y527D01*
X976Y527D02*
X983Y527D01*
X0Y526D02*
X7Y526D01*
X976Y526D02*
X983Y526D01*
X0Y525D02*
X7Y525D01*
X976Y525D02*
X983Y525D01*
X0Y524D02*
X7Y524D01*
X976Y524D02*
X983Y524D01*
X0Y523D02*
X7Y523D01*
X976Y523D02*
X983Y523D01*
X0Y522D02*
X7Y522D01*
X976Y522D02*
X983Y522D01*
X0Y521D02*
X7Y521D01*
X976Y521D02*
X983Y521D01*
X0Y520D02*
X7Y520D01*
X976Y520D02*
X983Y520D01*
X0Y519D02*
X7Y519D01*
X976Y519D02*
X983Y519D01*
X0Y518D02*
X7Y518D01*
X976Y518D02*
X983Y518D01*
X0Y517D02*
X7Y517D01*
X976Y517D02*
X983Y517D01*
X0Y516D02*
X7Y516D01*
X976Y516D02*
X983Y516D01*
X0Y515D02*
X7Y515D01*
X976Y515D02*
X983Y515D01*
X0Y514D02*
X7Y514D01*
X976Y514D02*
X983Y514D01*
X0Y513D02*
X7Y513D01*
X976Y513D02*
X983Y513D01*
X0Y512D02*
X7Y512D01*
X976Y512D02*
X983Y512D01*
X0Y511D02*
X7Y511D01*
X976Y511D02*
X983Y511D01*
X0Y510D02*
X7Y510D01*
X976Y510D02*
X983Y510D01*
X0Y509D02*
X7Y509D01*
X976Y509D02*
X983Y509D01*
X0Y508D02*
X7Y508D01*
X976Y508D02*
X983Y508D01*
X0Y507D02*
X7Y507D01*
X976Y507D02*
X983Y507D01*
X0Y506D02*
X7Y506D01*
X976Y506D02*
X983Y506D01*
X0Y505D02*
X7Y505D01*
X976Y505D02*
X983Y505D01*
X0Y504D02*
X7Y504D01*
X976Y504D02*
X983Y504D01*
X0Y503D02*
X7Y503D01*
X976Y503D02*
X983Y503D01*
X0Y502D02*
X7Y502D01*
X976Y502D02*
X983Y502D01*
X0Y501D02*
X7Y501D01*
X976Y501D02*
X983Y501D01*
X0Y500D02*
X7Y500D01*
X976Y500D02*
X983Y500D01*
X0Y499D02*
X7Y499D01*
X976Y499D02*
X983Y499D01*
X0Y498D02*
X7Y498D01*
X976Y498D02*
X983Y498D01*
X0Y497D02*
X7Y497D01*
X976Y497D02*
X983Y497D01*
X0Y496D02*
X7Y496D01*
X976Y496D02*
X983Y496D01*
X0Y495D02*
X7Y495D01*
X976Y495D02*
X983Y495D01*
X0Y494D02*
X7Y494D01*
X976Y494D02*
X983Y494D01*
X0Y493D02*
X7Y493D01*
X976Y493D02*
X983Y493D01*
X0Y492D02*
X7Y492D01*
X976Y492D02*
X983Y492D01*
X0Y491D02*
X7Y491D01*
X976Y491D02*
X983Y491D01*
X0Y490D02*
X7Y490D01*
X976Y490D02*
X983Y490D01*
X0Y489D02*
X7Y489D01*
X976Y489D02*
X983Y489D01*
X0Y488D02*
X7Y488D01*
X976Y488D02*
X983Y488D01*
X0Y487D02*
X7Y487D01*
X976Y487D02*
X983Y487D01*
X0Y486D02*
X7Y486D01*
X976Y486D02*
X983Y486D01*
X0Y485D02*
X7Y485D01*
X976Y485D02*
X983Y485D01*
X0Y484D02*
X7Y484D01*
X976Y484D02*
X983Y484D01*
X0Y483D02*
X7Y483D01*
X976Y483D02*
X983Y483D01*
X0Y482D02*
X7Y482D01*
X976Y482D02*
X983Y482D01*
X0Y481D02*
X7Y481D01*
X976Y481D02*
X983Y481D01*
X0Y480D02*
X7Y480D01*
X976Y480D02*
X983Y480D01*
X0Y479D02*
X7Y479D01*
X976Y479D02*
X983Y479D01*
X0Y478D02*
X7Y478D01*
X976Y478D02*
X983Y478D01*
X0Y477D02*
X7Y477D01*
X976Y477D02*
X983Y477D01*
X0Y476D02*
X7Y476D01*
X976Y476D02*
X983Y476D01*
X0Y475D02*
X7Y475D01*
X976Y475D02*
X983Y475D01*
X0Y474D02*
X7Y474D01*
X976Y474D02*
X983Y474D01*
X0Y473D02*
X7Y473D01*
X976Y473D02*
X983Y473D01*
X0Y472D02*
X7Y472D01*
X976Y472D02*
X983Y472D01*
X0Y471D02*
X7Y471D01*
X976Y471D02*
X983Y471D01*
X0Y470D02*
X7Y470D01*
X976Y470D02*
X983Y470D01*
X0Y469D02*
X7Y469D01*
X976Y469D02*
X983Y469D01*
X0Y468D02*
X7Y468D01*
X976Y468D02*
X983Y468D01*
X0Y467D02*
X7Y467D01*
X976Y467D02*
X983Y467D01*
X0Y466D02*
X7Y466D01*
X976Y466D02*
X983Y466D01*
X0Y465D02*
X7Y465D01*
X976Y465D02*
X983Y465D01*
X0Y464D02*
X7Y464D01*
X976Y464D02*
X983Y464D01*
X0Y463D02*
X7Y463D01*
X976Y463D02*
X983Y463D01*
X0Y462D02*
X7Y462D01*
X976Y462D02*
X983Y462D01*
X0Y461D02*
X7Y461D01*
X976Y461D02*
X983Y461D01*
X0Y460D02*
X7Y460D01*
X976Y460D02*
X983Y460D01*
X0Y459D02*
X7Y459D01*
X976Y459D02*
X983Y459D01*
X0Y458D02*
X7Y458D01*
X976Y458D02*
X983Y458D01*
X0Y457D02*
X7Y457D01*
X976Y457D02*
X983Y457D01*
X0Y456D02*
X7Y456D01*
X976Y456D02*
X983Y456D01*
X0Y455D02*
X7Y455D01*
X976Y455D02*
X983Y455D01*
X0Y454D02*
X7Y454D01*
X976Y454D02*
X983Y454D01*
X0Y453D02*
X7Y453D01*
X976Y453D02*
X983Y453D01*
X0Y452D02*
X7Y452D01*
X976Y452D02*
X983Y452D01*
X0Y451D02*
X7Y451D01*
X976Y451D02*
X983Y451D01*
X0Y450D02*
X7Y450D01*
X976Y450D02*
X983Y450D01*
X0Y449D02*
X7Y449D01*
X976Y449D02*
X983Y449D01*
X0Y448D02*
X7Y448D01*
X976Y448D02*
X983Y448D01*
X0Y447D02*
X7Y447D01*
X976Y447D02*
X983Y447D01*
X0Y446D02*
X7Y446D01*
X976Y446D02*
X983Y446D01*
X0Y445D02*
X7Y445D01*
X976Y445D02*
X983Y445D01*
X0Y444D02*
X7Y444D01*
X976Y444D02*
X983Y444D01*
X0Y443D02*
X7Y443D01*
X976Y443D02*
X983Y443D01*
X0Y442D02*
X7Y442D01*
X976Y442D02*
X983Y442D01*
X0Y441D02*
X7Y441D01*
X976Y441D02*
X983Y441D01*
X0Y440D02*
X7Y440D01*
X976Y440D02*
X983Y440D01*
X0Y439D02*
X7Y439D01*
X976Y439D02*
X983Y439D01*
X0Y438D02*
X7Y438D01*
X976Y438D02*
X983Y438D01*
X0Y437D02*
X7Y437D01*
X976Y437D02*
X983Y437D01*
X0Y436D02*
X7Y436D01*
X976Y436D02*
X983Y436D01*
X0Y435D02*
X7Y435D01*
X976Y435D02*
X983Y435D01*
X0Y434D02*
X7Y434D01*
X976Y434D02*
X983Y434D01*
X0Y433D02*
X7Y433D01*
X976Y433D02*
X983Y433D01*
X0Y432D02*
X7Y432D01*
X976Y432D02*
X983Y432D01*
X0Y431D02*
X7Y431D01*
X976Y431D02*
X983Y431D01*
X0Y430D02*
X7Y430D01*
X976Y430D02*
X983Y430D01*
X0Y429D02*
X7Y429D01*
X976Y429D02*
X983Y429D01*
X0Y428D02*
X7Y428D01*
X976Y428D02*
X983Y428D01*
X0Y427D02*
X7Y427D01*
X976Y427D02*
X983Y427D01*
X0Y426D02*
X7Y426D01*
X976Y426D02*
X983Y426D01*
X0Y425D02*
X7Y425D01*
X976Y425D02*
X983Y425D01*
X0Y424D02*
X7Y424D01*
X976Y424D02*
X983Y424D01*
X0Y423D02*
X7Y423D01*
X976Y423D02*
X983Y423D01*
X0Y422D02*
X7Y422D01*
X976Y422D02*
X983Y422D01*
X0Y421D02*
X7Y421D01*
X976Y421D02*
X983Y421D01*
X0Y420D02*
X7Y420D01*
X976Y420D02*
X983Y420D01*
X0Y419D02*
X7Y419D01*
X976Y419D02*
X983Y419D01*
X0Y418D02*
X7Y418D01*
X976Y418D02*
X983Y418D01*
X0Y417D02*
X7Y417D01*
X976Y417D02*
X983Y417D01*
X0Y416D02*
X7Y416D01*
X976Y416D02*
X983Y416D01*
X0Y415D02*
X7Y415D01*
X976Y415D02*
X983Y415D01*
X0Y414D02*
X7Y414D01*
X976Y414D02*
X983Y414D01*
X0Y413D02*
X7Y413D01*
X976Y413D02*
X983Y413D01*
X0Y412D02*
X7Y412D01*
X976Y412D02*
X983Y412D01*
X0Y411D02*
X7Y411D01*
X976Y411D02*
X983Y411D01*
X0Y410D02*
X7Y410D01*
X976Y410D02*
X983Y410D01*
X0Y409D02*
X7Y409D01*
X976Y409D02*
X983Y409D01*
X0Y408D02*
X7Y408D01*
X976Y408D02*
X983Y408D01*
X0Y407D02*
X7Y407D01*
X976Y407D02*
X983Y407D01*
X0Y406D02*
X7Y406D01*
X976Y406D02*
X983Y406D01*
X0Y405D02*
X7Y405D01*
X976Y405D02*
X983Y405D01*
X0Y404D02*
X7Y404D01*
X976Y404D02*
X983Y404D01*
X0Y403D02*
X7Y403D01*
X976Y403D02*
X983Y403D01*
X0Y402D02*
X7Y402D01*
X976Y402D02*
X983Y402D01*
X0Y401D02*
X7Y401D01*
X976Y401D02*
X983Y401D01*
X0Y400D02*
X7Y400D01*
X976Y400D02*
X983Y400D01*
X0Y399D02*
X7Y399D01*
X976Y399D02*
X983Y399D01*
X0Y398D02*
X7Y398D01*
X976Y398D02*
X983Y398D01*
X0Y397D02*
X7Y397D01*
X976Y397D02*
X983Y397D01*
X0Y396D02*
X7Y396D01*
X976Y396D02*
X983Y396D01*
X0Y395D02*
X7Y395D01*
X976Y395D02*
X983Y395D01*
X0Y394D02*
X7Y394D01*
X976Y394D02*
X983Y394D01*
X0Y393D02*
X7Y393D01*
X976Y393D02*
X983Y393D01*
X0Y392D02*
X7Y392D01*
X976Y392D02*
X983Y392D01*
X0Y391D02*
X7Y391D01*
X976Y391D02*
X983Y391D01*
X0Y390D02*
X7Y390D01*
X976Y390D02*
X983Y390D01*
X0Y389D02*
X7Y389D01*
X976Y389D02*
X983Y389D01*
X0Y388D02*
X7Y388D01*
X976Y388D02*
X983Y388D01*
X0Y387D02*
X7Y387D01*
X976Y387D02*
X983Y387D01*
X0Y386D02*
X7Y386D01*
X976Y386D02*
X983Y386D01*
X0Y385D02*
X7Y385D01*
X976Y385D02*
X983Y385D01*
X0Y384D02*
X7Y384D01*
X976Y384D02*
X983Y384D01*
X0Y383D02*
X7Y383D01*
X976Y383D02*
X983Y383D01*
X0Y382D02*
X7Y382D01*
X976Y382D02*
X983Y382D01*
X0Y381D02*
X7Y381D01*
X976Y381D02*
X983Y381D01*
X0Y380D02*
X7Y380D01*
X976Y380D02*
X983Y380D01*
X0Y379D02*
X7Y379D01*
X976Y379D02*
X983Y379D01*
X0Y378D02*
X7Y378D01*
X976Y378D02*
X983Y378D01*
X0Y377D02*
X7Y377D01*
X976Y377D02*
X983Y377D01*
X0Y376D02*
X7Y376D01*
X976Y376D02*
X983Y376D01*
X0Y375D02*
X7Y375D01*
X976Y375D02*
X983Y375D01*
X0Y374D02*
X7Y374D01*
X976Y374D02*
X983Y374D01*
X0Y373D02*
X7Y373D01*
X976Y373D02*
X983Y373D01*
X0Y372D02*
X7Y372D01*
X976Y372D02*
X983Y372D01*
X0Y371D02*
X7Y371D01*
X976Y371D02*
X983Y371D01*
X0Y370D02*
X7Y370D01*
X976Y370D02*
X983Y370D01*
X0Y369D02*
X7Y369D01*
X976Y369D02*
X983Y369D01*
X0Y368D02*
X7Y368D01*
X976Y368D02*
X983Y368D01*
X0Y367D02*
X7Y367D01*
X976Y367D02*
X983Y367D01*
X0Y366D02*
X7Y366D01*
X976Y366D02*
X983Y366D01*
X0Y365D02*
X7Y365D01*
X976Y365D02*
X983Y365D01*
X0Y364D02*
X7Y364D01*
X976Y364D02*
X983Y364D01*
X0Y363D02*
X7Y363D01*
X976Y363D02*
X983Y363D01*
X0Y362D02*
X7Y362D01*
X976Y362D02*
X983Y362D01*
X0Y361D02*
X7Y361D01*
X976Y361D02*
X983Y361D01*
X0Y360D02*
X7Y360D01*
X976Y360D02*
X983Y360D01*
X0Y359D02*
X7Y359D01*
X976Y359D02*
X983Y359D01*
X0Y358D02*
X7Y358D01*
X976Y358D02*
X983Y358D01*
X0Y357D02*
X7Y357D01*
X976Y357D02*
X983Y357D01*
X0Y356D02*
X7Y356D01*
X976Y356D02*
X983Y356D01*
X0Y355D02*
X7Y355D01*
X976Y355D02*
X983Y355D01*
X0Y354D02*
X7Y354D01*
X976Y354D02*
X983Y354D01*
X0Y353D02*
X7Y353D01*
X976Y353D02*
X983Y353D01*
X0Y352D02*
X7Y352D01*
X976Y352D02*
X983Y352D01*
X0Y351D02*
X7Y351D01*
X976Y351D02*
X983Y351D01*
X0Y350D02*
X7Y350D01*
X976Y350D02*
X983Y350D01*
X0Y349D02*
X7Y349D01*
X976Y349D02*
X983Y349D01*
X0Y348D02*
X7Y348D01*
X976Y348D02*
X983Y348D01*
X0Y347D02*
X7Y347D01*
X976Y347D02*
X983Y347D01*
X0Y346D02*
X7Y346D01*
X976Y346D02*
X983Y346D01*
X0Y345D02*
X7Y345D01*
X976Y345D02*
X983Y345D01*
X0Y344D02*
X7Y344D01*
X976Y344D02*
X983Y344D01*
X0Y343D02*
X7Y343D01*
X976Y343D02*
X983Y343D01*
X0Y342D02*
X7Y342D01*
X976Y342D02*
X983Y342D01*
X0Y341D02*
X7Y341D01*
X976Y341D02*
X983Y341D01*
X0Y340D02*
X7Y340D01*
X976Y340D02*
X983Y340D01*
X0Y339D02*
X7Y339D01*
X976Y339D02*
X983Y339D01*
X0Y338D02*
X7Y338D01*
X976Y338D02*
X983Y338D01*
X0Y337D02*
X7Y337D01*
X976Y337D02*
X983Y337D01*
X0Y336D02*
X7Y336D01*
X976Y336D02*
X983Y336D01*
X0Y335D02*
X7Y335D01*
X976Y335D02*
X983Y335D01*
X0Y334D02*
X7Y334D01*
X976Y334D02*
X983Y334D01*
X0Y333D02*
X7Y333D01*
X976Y333D02*
X983Y333D01*
X0Y332D02*
X7Y332D01*
X976Y332D02*
X983Y332D01*
X0Y331D02*
X7Y331D01*
X976Y331D02*
X983Y331D01*
X0Y330D02*
X7Y330D01*
X976Y330D02*
X983Y330D01*
X0Y329D02*
X7Y329D01*
X976Y329D02*
X983Y329D01*
X0Y328D02*
X7Y328D01*
X976Y328D02*
X983Y328D01*
X0Y327D02*
X7Y327D01*
X976Y327D02*
X983Y327D01*
X0Y326D02*
X7Y326D01*
X976Y326D02*
X983Y326D01*
X0Y325D02*
X7Y325D01*
X976Y325D02*
X983Y325D01*
X0Y324D02*
X7Y324D01*
X976Y324D02*
X983Y324D01*
X0Y323D02*
X7Y323D01*
X976Y323D02*
X983Y323D01*
X0Y322D02*
X7Y322D01*
X976Y322D02*
X983Y322D01*
X0Y321D02*
X7Y321D01*
X976Y321D02*
X983Y321D01*
X0Y320D02*
X7Y320D01*
X976Y320D02*
X983Y320D01*
X0Y319D02*
X7Y319D01*
X976Y319D02*
X983Y319D01*
X0Y318D02*
X7Y318D01*
X976Y318D02*
X983Y318D01*
X0Y317D02*
X7Y317D01*
X976Y317D02*
X983Y317D01*
X0Y316D02*
X7Y316D01*
X976Y316D02*
X983Y316D01*
X0Y315D02*
X7Y315D01*
X976Y315D02*
X983Y315D01*
X0Y314D02*
X7Y314D01*
X976Y314D02*
X983Y314D01*
X0Y313D02*
X7Y313D01*
X976Y313D02*
X983Y313D01*
X0Y312D02*
X7Y312D01*
X976Y312D02*
X983Y312D01*
X0Y311D02*
X7Y311D01*
X976Y311D02*
X983Y311D01*
X0Y310D02*
X7Y310D01*
X976Y310D02*
X983Y310D01*
X0Y309D02*
X7Y309D01*
X976Y309D02*
X983Y309D01*
X0Y308D02*
X7Y308D01*
X976Y308D02*
X983Y308D01*
X0Y307D02*
X7Y307D01*
X976Y307D02*
X983Y307D01*
X0Y306D02*
X7Y306D01*
X976Y306D02*
X983Y306D01*
X0Y305D02*
X7Y305D01*
X976Y305D02*
X983Y305D01*
X0Y304D02*
X7Y304D01*
X976Y304D02*
X983Y304D01*
X0Y303D02*
X7Y303D01*
X976Y303D02*
X983Y303D01*
X0Y302D02*
X7Y302D01*
X976Y302D02*
X983Y302D01*
X0Y301D02*
X7Y301D01*
X976Y301D02*
X983Y301D01*
X0Y300D02*
X7Y300D01*
X976Y300D02*
X983Y300D01*
X0Y299D02*
X7Y299D01*
X976Y299D02*
X983Y299D01*
X0Y298D02*
X7Y298D01*
X976Y298D02*
X983Y298D01*
X0Y297D02*
X7Y297D01*
X976Y297D02*
X983Y297D01*
X0Y296D02*
X7Y296D01*
X976Y296D02*
X983Y296D01*
X0Y295D02*
X7Y295D01*
X294Y295D02*
X693Y295D01*
X976Y295D02*
X983Y295D01*
X0Y294D02*
X7Y294D01*
X294Y294D02*
X693Y294D01*
X976Y294D02*
X983Y294D01*
X0Y293D02*
X7Y293D01*
X294Y293D02*
X693Y293D01*
X976Y293D02*
X983Y293D01*
X0Y292D02*
X7Y292D01*
X294Y292D02*
X693Y292D01*
X976Y292D02*
X983Y292D01*
X0Y291D02*
X7Y291D01*
X294Y291D02*
X363Y291D01*
X367Y291D02*
X619Y291D01*
X623Y291D02*
X693Y291D01*
X976Y291D02*
X983Y291D01*
X0Y290D02*
X7Y290D01*
X294Y290D02*
X355Y290D01*
X375Y290D02*
X611Y290D01*
X630Y290D02*
X693Y290D01*
X976Y290D02*
X983Y290D01*
X0Y289D02*
X7Y289D01*
X294Y289D02*
X351Y289D01*
X378Y289D02*
X607Y289D01*
X634Y289D02*
X693Y289D01*
X976Y289D02*
X983Y289D01*
X0Y288D02*
X7Y288D01*
X294Y288D02*
X349Y288D01*
X381Y288D02*
X604Y288D01*
X637Y288D02*
X693Y288D01*
X976Y288D02*
X983Y288D01*
X0Y287D02*
X7Y287D01*
X294Y287D02*
X346Y287D01*
X384Y287D02*
X602Y287D01*
X639Y287D02*
X693Y287D01*
X976Y287D02*
X983Y287D01*
X0Y286D02*
X7Y286D01*
X294Y286D02*
X344Y286D01*
X386Y286D02*
X600Y286D01*
X641Y286D02*
X693Y286D01*
X976Y286D02*
X983Y286D01*
X0Y285D02*
X7Y285D01*
X42Y285D02*
X55Y285D01*
X106Y285D02*
X185Y285D01*
X236Y285D02*
X243Y285D01*
X976Y285D02*
X983Y285D01*
X0Y284D02*
X7Y284D01*
X42Y284D02*
X55Y284D01*
X106Y284D02*
X185Y284D01*
X236Y284D02*
X243Y284D01*
X976Y284D02*
X983Y284D01*
X0Y283D02*
X7Y283D01*
X42Y283D02*
X55Y283D01*
X106Y283D02*
X185Y283D01*
X236Y283D02*
X243Y283D01*
X976Y283D02*
X983Y283D01*
X0Y282D02*
X7Y282D01*
X42Y282D02*
X55Y282D01*
X106Y282D02*
X185Y282D01*
X236Y282D02*
X243Y282D01*
X976Y282D02*
X983Y282D01*
X0Y281D02*
X7Y281D01*
X42Y281D02*
X55Y281D01*
X106Y281D02*
X185Y281D01*
X236Y281D02*
X243Y281D01*
X976Y281D02*
X983Y281D01*
X0Y280D02*
X7Y280D01*
X42Y280D02*
X55Y280D01*
X106Y280D02*
X185Y280D01*
X236Y280D02*
X243Y280D01*
X976Y280D02*
X983Y280D01*
X0Y279D02*
X7Y279D01*
X42Y279D02*
X55Y279D01*
X106Y279D02*
X185Y279D01*
X236Y279D02*
X243Y279D01*
X976Y279D02*
X983Y279D01*
X0Y278D02*
X7Y278D01*
X42Y278D02*
X48Y278D01*
X237Y278D02*
X243Y278D01*
X976Y278D02*
X983Y278D01*
X0Y277D02*
X7Y277D01*
X42Y277D02*
X48Y277D01*
X237Y277D02*
X243Y277D01*
X976Y277D02*
X983Y277D01*
X0Y276D02*
X7Y276D01*
X42Y276D02*
X48Y276D01*
X237Y276D02*
X243Y276D01*
X976Y276D02*
X983Y276D01*
X0Y275D02*
X7Y275D01*
X42Y275D02*
X48Y275D01*
X237Y275D02*
X243Y275D01*
X976Y275D02*
X983Y275D01*
X0Y274D02*
X7Y274D01*
X42Y274D02*
X48Y274D01*
X237Y274D02*
X243Y274D01*
X976Y274D02*
X983Y274D01*
X0Y273D02*
X7Y273D01*
X42Y273D02*
X48Y273D01*
X237Y273D02*
X243Y273D01*
X976Y273D02*
X983Y273D01*
X0Y272D02*
X7Y272D01*
X42Y272D02*
X48Y272D01*
X237Y272D02*
X243Y272D01*
X976Y272D02*
X983Y272D01*
X0Y271D02*
X7Y271D01*
X42Y271D02*
X48Y271D01*
X237Y271D02*
X243Y271D01*
X976Y271D02*
X983Y271D01*
X0Y270D02*
X7Y270D01*
X42Y270D02*
X48Y270D01*
X237Y270D02*
X243Y270D01*
X976Y270D02*
X983Y270D01*
X0Y269D02*
X7Y269D01*
X42Y269D02*
X48Y269D01*
X237Y269D02*
X243Y269D01*
X976Y269D02*
X983Y269D01*
X0Y268D02*
X7Y268D01*
X42Y268D02*
X48Y268D01*
X237Y268D02*
X243Y268D01*
X976Y268D02*
X983Y268D01*
X0Y267D02*
X7Y267D01*
X42Y267D02*
X48Y267D01*
X237Y267D02*
X243Y267D01*
X976Y267D02*
X983Y267D01*
X0Y266D02*
X7Y266D01*
X42Y266D02*
X48Y266D01*
X237Y266D02*
X243Y266D01*
X976Y266D02*
X983Y266D01*
X0Y265D02*
X7Y265D01*
X42Y265D02*
X48Y265D01*
X237Y265D02*
X243Y265D01*
X976Y265D02*
X983Y265D01*
X0Y264D02*
X7Y264D01*
X42Y264D02*
X48Y264D01*
X237Y264D02*
X243Y264D01*
X976Y264D02*
X983Y264D01*
X0Y263D02*
X7Y263D01*
X42Y263D02*
X48Y263D01*
X237Y263D02*
X243Y263D01*
X744Y263D02*
X756Y263D01*
X807Y263D02*
X886Y263D01*
X937Y263D02*
X943Y263D01*
X976Y263D02*
X983Y263D01*
X0Y262D02*
X7Y262D01*
X42Y262D02*
X48Y262D01*
X237Y262D02*
X243Y262D01*
X743Y262D02*
X756Y262D01*
X807Y262D02*
X886Y262D01*
X937Y262D02*
X943Y262D01*
X976Y262D02*
X983Y262D01*
X0Y261D02*
X7Y261D01*
X42Y261D02*
X48Y261D01*
X237Y261D02*
X243Y261D01*
X743Y261D02*
X756Y261D01*
X807Y261D02*
X886Y261D01*
X937Y261D02*
X943Y261D01*
X976Y261D02*
X983Y261D01*
X0Y260D02*
X7Y260D01*
X42Y260D02*
X48Y260D01*
X237Y260D02*
X243Y260D01*
X743Y260D02*
X756Y260D01*
X807Y260D02*
X886Y260D01*
X937Y260D02*
X943Y260D01*
X976Y260D02*
X983Y260D01*
X0Y259D02*
X7Y259D01*
X42Y259D02*
X48Y259D01*
X237Y259D02*
X243Y259D01*
X743Y259D02*
X756Y259D01*
X807Y259D02*
X886Y259D01*
X937Y259D02*
X943Y259D01*
X976Y259D02*
X983Y259D01*
X0Y258D02*
X7Y258D01*
X42Y258D02*
X48Y258D01*
X237Y258D02*
X243Y258D01*
X743Y258D02*
X756Y258D01*
X807Y258D02*
X886Y258D01*
X937Y258D02*
X943Y258D01*
X976Y258D02*
X983Y258D01*
X0Y257D02*
X7Y257D01*
X42Y257D02*
X48Y257D01*
X237Y257D02*
X243Y257D01*
X743Y257D02*
X756Y257D01*
X807Y257D02*
X886Y257D01*
X937Y257D02*
X943Y257D01*
X976Y257D02*
X983Y257D01*
X0Y256D02*
X7Y256D01*
X42Y256D02*
X48Y256D01*
X237Y256D02*
X243Y256D01*
X743Y256D02*
X749Y256D01*
X937Y256D02*
X943Y256D01*
X976Y256D02*
X983Y256D01*
X0Y255D02*
X7Y255D01*
X42Y255D02*
X48Y255D01*
X237Y255D02*
X243Y255D01*
X743Y255D02*
X749Y255D01*
X937Y255D02*
X943Y255D01*
X976Y255D02*
X983Y255D01*
X0Y254D02*
X7Y254D01*
X42Y254D02*
X48Y254D01*
X237Y254D02*
X243Y254D01*
X743Y254D02*
X749Y254D01*
X937Y254D02*
X943Y254D01*
X976Y254D02*
X983Y254D01*
X0Y253D02*
X7Y253D01*
X42Y253D02*
X48Y253D01*
X237Y253D02*
X243Y253D01*
X743Y253D02*
X749Y253D01*
X937Y253D02*
X943Y253D01*
X976Y253D02*
X983Y253D01*
X0Y252D02*
X7Y252D01*
X42Y252D02*
X48Y252D01*
X237Y252D02*
X243Y252D01*
X743Y252D02*
X749Y252D01*
X937Y252D02*
X943Y252D01*
X976Y252D02*
X983Y252D01*
X0Y251D02*
X7Y251D01*
X42Y251D02*
X48Y251D01*
X237Y251D02*
X243Y251D01*
X743Y251D02*
X749Y251D01*
X937Y251D02*
X943Y251D01*
X976Y251D02*
X983Y251D01*
X0Y250D02*
X7Y250D01*
X42Y250D02*
X48Y250D01*
X237Y250D02*
X243Y250D01*
X743Y250D02*
X749Y250D01*
X937Y250D02*
X943Y250D01*
X976Y250D02*
X983Y250D01*
X0Y249D02*
X7Y249D01*
X42Y249D02*
X48Y249D01*
X237Y249D02*
X243Y249D01*
X743Y249D02*
X749Y249D01*
X937Y249D02*
X943Y249D01*
X976Y249D02*
X983Y249D01*
X0Y248D02*
X7Y248D01*
X42Y248D02*
X48Y248D01*
X237Y248D02*
X243Y248D01*
X743Y248D02*
X749Y248D01*
X937Y248D02*
X943Y248D01*
X976Y248D02*
X983Y248D01*
X0Y247D02*
X7Y247D01*
X42Y247D02*
X48Y247D01*
X237Y247D02*
X243Y247D01*
X743Y247D02*
X749Y247D01*
X937Y247D02*
X943Y247D01*
X976Y247D02*
X983Y247D01*
X0Y246D02*
X7Y246D01*
X42Y246D02*
X48Y246D01*
X237Y246D02*
X243Y246D01*
X743Y246D02*
X749Y246D01*
X937Y246D02*
X943Y246D01*
X976Y246D02*
X983Y246D01*
X0Y245D02*
X7Y245D01*
X42Y245D02*
X48Y245D01*
X237Y245D02*
X243Y245D01*
X743Y245D02*
X749Y245D01*
X937Y245D02*
X943Y245D01*
X976Y245D02*
X983Y245D01*
X0Y244D02*
X7Y244D01*
X42Y244D02*
X48Y244D01*
X184Y244D02*
X185Y244D01*
X237Y244D02*
X243Y244D01*
X743Y244D02*
X749Y244D01*
X937Y244D02*
X943Y244D01*
X976Y244D02*
X983Y244D01*
X0Y243D02*
X7Y243D01*
X42Y243D02*
X48Y243D01*
X178Y243D02*
X180Y243D01*
X182Y243D02*
X188Y243D01*
X195Y243D02*
X197Y243D01*
X205Y243D02*
X206Y243D01*
X213Y243D02*
X223Y243D01*
X230Y243D02*
X235Y243D01*
X237Y243D02*
X243Y243D01*
X743Y243D02*
X749Y243D01*
X937Y243D02*
X943Y243D01*
X976Y243D02*
X983Y243D01*
X0Y242D02*
X7Y242D01*
X42Y242D02*
X48Y242D01*
X178Y242D02*
X189Y242D01*
X195Y242D02*
X197Y242D01*
X205Y242D02*
X206Y242D01*
X213Y242D02*
X215Y242D01*
X220Y242D02*
X225Y242D01*
X231Y242D02*
X243Y242D01*
X743Y242D02*
X749Y242D01*
X937Y242D02*
X943Y242D01*
X976Y242D02*
X983Y242D01*
X0Y241D02*
X7Y241D01*
X42Y241D02*
X48Y241D01*
X70Y241D02*
X72Y241D01*
X80Y241D02*
X81Y241D01*
X86Y241D02*
X88Y241D01*
X178Y241D02*
X182Y241D01*
X187Y241D02*
X189Y241D01*
X195Y241D02*
X197Y241D01*
X205Y241D02*
X206Y241D01*
X213Y241D02*
X214Y241D01*
X223Y241D02*
X226Y241D01*
X232Y241D02*
X243Y241D01*
X743Y241D02*
X749Y241D01*
X937Y241D02*
X943Y241D01*
X976Y241D02*
X983Y241D01*
X0Y240D02*
X7Y240D01*
X42Y240D02*
X48Y240D01*
X70Y240D02*
X72Y240D01*
X79Y240D02*
X81Y240D01*
X86Y240D02*
X88Y240D01*
X178Y240D02*
X180Y240D01*
X188Y240D02*
X190Y240D01*
X195Y240D02*
X197Y240D01*
X205Y240D02*
X206Y240D01*
X213Y240D02*
X214Y240D01*
X224Y240D02*
X226Y240D01*
X233Y240D02*
X243Y240D01*
X743Y240D02*
X749Y240D01*
X937Y240D02*
X943Y240D01*
X976Y240D02*
X983Y240D01*
X0Y239D02*
X7Y239D01*
X42Y239D02*
X48Y239D01*
X70Y239D02*
X72Y239D01*
X79Y239D02*
X81Y239D01*
X86Y239D02*
X88Y239D01*
X178Y239D02*
X180Y239D01*
X188Y239D02*
X190Y239D01*
X195Y239D02*
X197Y239D01*
X205Y239D02*
X206Y239D01*
X213Y239D02*
X214Y239D01*
X225Y239D02*
X227Y239D01*
X234Y239D02*
X243Y239D01*
X743Y239D02*
X749Y239D01*
X937Y239D02*
X943Y239D01*
X976Y239D02*
X983Y239D01*
X0Y238D02*
X7Y238D01*
X42Y238D02*
X48Y238D01*
X70Y238D02*
X72Y238D01*
X79Y238D02*
X81Y238D01*
X86Y238D02*
X88Y238D01*
X178Y238D02*
X180Y238D01*
X188Y238D02*
X190Y238D01*
X195Y238D02*
X197Y238D01*
X205Y238D02*
X206Y238D01*
X213Y238D02*
X214Y238D01*
X225Y238D02*
X227Y238D01*
X235Y238D02*
X243Y238D01*
X743Y238D02*
X749Y238D01*
X937Y238D02*
X943Y238D01*
X976Y238D02*
X983Y238D01*
X0Y237D02*
X7Y237D01*
X42Y237D02*
X48Y237D01*
X70Y237D02*
X72Y237D01*
X79Y237D02*
X81Y237D01*
X86Y237D02*
X88Y237D01*
X178Y237D02*
X180Y237D01*
X188Y237D02*
X190Y237D01*
X195Y237D02*
X197Y237D01*
X205Y237D02*
X206Y237D01*
X213Y237D02*
X214Y237D01*
X225Y237D02*
X227Y237D01*
X236Y237D02*
X243Y237D01*
X743Y237D02*
X749Y237D01*
X937Y237D02*
X943Y237D01*
X976Y237D02*
X983Y237D01*
X0Y236D02*
X7Y236D01*
X42Y236D02*
X48Y236D01*
X70Y236D02*
X72Y236D01*
X79Y236D02*
X81Y236D01*
X86Y236D02*
X88Y236D01*
X178Y236D02*
X180Y236D01*
X188Y236D02*
X190Y236D01*
X195Y236D02*
X197Y236D01*
X205Y236D02*
X206Y236D01*
X213Y236D02*
X214Y236D01*
X226Y236D02*
X228Y236D01*
X237Y236D02*
X243Y236D01*
X743Y236D02*
X749Y236D01*
X937Y236D02*
X943Y236D01*
X976Y236D02*
X983Y236D01*
X0Y235D02*
X7Y235D01*
X42Y235D02*
X48Y235D01*
X70Y235D02*
X72Y235D01*
X79Y235D02*
X81Y235D01*
X86Y235D02*
X88Y235D01*
X178Y235D02*
X180Y235D01*
X188Y235D02*
X190Y235D01*
X195Y235D02*
X197Y235D01*
X205Y235D02*
X206Y235D01*
X226Y235D02*
X228Y235D01*
X237Y235D02*
X243Y235D01*
X743Y235D02*
X749Y235D01*
X937Y235D02*
X943Y235D01*
X976Y235D02*
X983Y235D01*
X0Y234D02*
X7Y234D01*
X42Y234D02*
X48Y234D01*
X70Y234D02*
X72Y234D01*
X79Y234D02*
X81Y234D01*
X86Y234D02*
X88Y234D01*
X178Y234D02*
X180Y234D01*
X188Y234D02*
X190Y234D01*
X195Y234D02*
X197Y234D01*
X204Y234D02*
X206Y234D01*
X226Y234D02*
X228Y234D01*
X237Y234D02*
X243Y234D01*
X743Y234D02*
X749Y234D01*
X937Y234D02*
X943Y234D01*
X976Y234D02*
X983Y234D01*
X0Y233D02*
X7Y233D01*
X42Y233D02*
X48Y233D01*
X70Y233D02*
X72Y233D01*
X79Y233D02*
X81Y233D01*
X86Y233D02*
X88Y233D01*
X178Y233D02*
X180Y233D01*
X188Y233D02*
X190Y233D01*
X195Y233D02*
X197Y233D01*
X204Y233D02*
X206Y233D01*
X226Y233D02*
X228Y233D01*
X237Y233D02*
X243Y233D01*
X743Y233D02*
X749Y233D01*
X937Y233D02*
X943Y233D01*
X976Y233D02*
X983Y233D01*
X0Y232D02*
X7Y232D01*
X42Y232D02*
X48Y232D01*
X70Y232D02*
X72Y232D01*
X79Y232D02*
X81Y232D01*
X86Y232D02*
X88Y232D01*
X178Y232D02*
X181Y232D01*
X187Y232D02*
X189Y232D01*
X196Y232D02*
X198Y232D01*
X203Y232D02*
X206Y232D01*
X226Y232D02*
X228Y232D01*
X237Y232D02*
X243Y232D01*
X743Y232D02*
X749Y232D01*
X937Y232D02*
X943Y232D01*
X976Y232D02*
X983Y232D01*
X0Y231D02*
X7Y231D01*
X42Y231D02*
X48Y231D01*
X70Y231D02*
X72Y231D01*
X79Y231D02*
X81Y231D01*
X86Y231D02*
X88Y231D01*
X178Y231D02*
X183Y231D01*
X185Y231D02*
X189Y231D01*
X196Y231D02*
X203Y231D01*
X205Y231D02*
X206Y231D01*
X225Y231D02*
X227Y231D01*
X237Y231D02*
X243Y231D01*
X743Y231D02*
X749Y231D01*
X937Y231D02*
X943Y231D01*
X976Y231D02*
X983Y231D01*
X0Y230D02*
X7Y230D01*
X42Y230D02*
X48Y230D01*
X70Y230D02*
X72Y230D01*
X78Y230D02*
X81Y230D01*
X86Y230D02*
X88Y230D01*
X178Y230D02*
X180Y230D01*
X182Y230D02*
X188Y230D01*
X197Y230D02*
X202Y230D01*
X205Y230D02*
X206Y230D01*
X225Y230D02*
X227Y230D01*
X237Y230D02*
X243Y230D01*
X743Y230D02*
X749Y230D01*
X937Y230D02*
X943Y230D01*
X976Y230D02*
X983Y230D01*
X0Y229D02*
X7Y229D01*
X42Y229D02*
X48Y229D01*
X70Y229D02*
X72Y229D01*
X77Y229D02*
X81Y229D01*
X86Y229D02*
X88Y229D01*
X178Y229D02*
X180Y229D01*
X184Y229D02*
X185Y229D01*
X199Y229D02*
X200Y229D01*
X225Y229D02*
X227Y229D01*
X237Y229D02*
X243Y229D01*
X743Y229D02*
X749Y229D01*
X937Y229D02*
X943Y229D01*
X976Y229D02*
X983Y229D01*
X0Y228D02*
X7Y228D01*
X42Y228D02*
X48Y228D01*
X71Y228D02*
X77Y228D01*
X79Y228D02*
X81Y228D01*
X86Y228D02*
X88Y228D01*
X178Y228D02*
X180Y228D01*
X224Y228D02*
X226Y228D01*
X237Y228D02*
X243Y228D01*
X743Y228D02*
X749Y228D01*
X937Y228D02*
X943Y228D01*
X976Y228D02*
X983Y228D01*
X0Y227D02*
X7Y227D01*
X42Y227D02*
X48Y227D01*
X72Y227D02*
X76Y227D01*
X79Y227D02*
X81Y227D01*
X86Y227D02*
X88Y227D01*
X178Y227D02*
X180Y227D01*
X223Y227D02*
X226Y227D01*
X237Y227D02*
X243Y227D01*
X743Y227D02*
X749Y227D01*
X937Y227D02*
X943Y227D01*
X976Y227D02*
X983Y227D01*
X0Y226D02*
X7Y226D01*
X42Y226D02*
X48Y226D01*
X86Y226D02*
X88Y226D01*
X178Y226D02*
X180Y226D01*
X213Y226D02*
X214Y226D01*
X222Y226D02*
X225Y226D01*
X237Y226D02*
X243Y226D01*
X743Y226D02*
X749Y226D01*
X937Y226D02*
X943Y226D01*
X976Y226D02*
X983Y226D01*
X0Y225D02*
X7Y225D01*
X42Y225D02*
X48Y225D01*
X86Y225D02*
X88Y225D01*
X178Y225D02*
X180Y225D01*
X213Y225D02*
X224Y225D01*
X237Y225D02*
X243Y225D01*
X743Y225D02*
X749Y225D01*
X937Y225D02*
X943Y225D01*
X976Y225D02*
X983Y225D01*
X0Y224D02*
X7Y224D01*
X42Y224D02*
X48Y224D01*
X86Y224D02*
X88Y224D01*
X178Y224D02*
X180Y224D01*
X214Y224D02*
X222Y224D01*
X237Y224D02*
X243Y224D01*
X743Y224D02*
X749Y224D01*
X937Y224D02*
X943Y224D01*
X976Y224D02*
X983Y224D01*
X0Y223D02*
X7Y223D01*
X42Y223D02*
X48Y223D01*
X86Y223D02*
X88Y223D01*
X178Y223D02*
X180Y223D01*
X237Y223D02*
X243Y223D01*
X743Y223D02*
X749Y223D01*
X937Y223D02*
X943Y223D01*
X976Y223D02*
X983Y223D01*
X0Y222D02*
X7Y222D01*
X42Y222D02*
X48Y222D01*
X86Y222D02*
X88Y222D01*
X237Y222D02*
X243Y222D01*
X743Y222D02*
X749Y222D01*
X937Y222D02*
X943Y222D01*
X976Y222D02*
X983Y222D01*
X0Y221D02*
X7Y221D01*
X42Y221D02*
X48Y221D01*
X237Y221D02*
X243Y221D01*
X743Y221D02*
X749Y221D01*
X879Y221D02*
X880Y221D01*
X884Y221D02*
X888Y221D01*
X896Y221D02*
X898Y221D01*
X906Y221D02*
X907Y221D01*
X914Y221D02*
X923Y221D01*
X931Y221D02*
X935Y221D01*
X937Y221D02*
X943Y221D01*
X976Y221D02*
X983Y221D01*
X0Y220D02*
X7Y220D01*
X42Y220D02*
X48Y220D01*
X237Y220D02*
X243Y220D01*
X743Y220D02*
X749Y220D01*
X879Y220D02*
X881Y220D01*
X883Y220D02*
X889Y220D01*
X896Y220D02*
X898Y220D01*
X906Y220D02*
X907Y220D01*
X913Y220D02*
X925Y220D01*
X932Y220D02*
X943Y220D01*
X976Y220D02*
X983Y220D01*
X0Y219D02*
X7Y219D01*
X42Y219D02*
X48Y219D01*
X237Y219D02*
X243Y219D01*
X743Y219D02*
X749Y219D01*
X879Y219D02*
X883Y219D01*
X887Y219D02*
X890Y219D01*
X896Y219D02*
X898Y219D01*
X906Y219D02*
X907Y219D01*
X913Y219D02*
X915Y219D01*
X922Y219D02*
X926Y219D01*
X933Y219D02*
X943Y219D01*
X976Y219D02*
X983Y219D01*
X0Y218D02*
X7Y218D01*
X42Y218D02*
X48Y218D01*
X237Y218D02*
X243Y218D01*
X743Y218D02*
X749Y218D01*
X771Y218D02*
X772Y218D01*
X780Y218D02*
X782Y218D01*
X787Y218D02*
X789Y218D01*
X879Y218D02*
X882Y218D01*
X888Y218D02*
X890Y218D01*
X896Y218D02*
X898Y218D01*
X906Y218D02*
X907Y218D01*
X913Y218D02*
X915Y218D01*
X924Y218D02*
X927Y218D01*
X934Y218D02*
X943Y218D01*
X976Y218D02*
X983Y218D01*
X0Y217D02*
X7Y217D01*
X42Y217D02*
X48Y217D01*
X237Y217D02*
X243Y217D01*
X743Y217D02*
X749Y217D01*
X771Y217D02*
X772Y217D01*
X780Y217D02*
X782Y217D01*
X787Y217D02*
X789Y217D01*
X879Y217D02*
X881Y217D01*
X889Y217D02*
X891Y217D01*
X896Y217D02*
X898Y217D01*
X906Y217D02*
X907Y217D01*
X913Y217D02*
X915Y217D01*
X925Y217D02*
X927Y217D01*
X935Y217D02*
X943Y217D01*
X976Y217D02*
X983Y217D01*
X0Y216D02*
X7Y216D01*
X42Y216D02*
X48Y216D01*
X237Y216D02*
X243Y216D01*
X743Y216D02*
X749Y216D01*
X771Y216D02*
X772Y216D01*
X780Y216D02*
X782Y216D01*
X787Y216D02*
X789Y216D01*
X879Y216D02*
X881Y216D01*
X889Y216D02*
X891Y216D01*
X896Y216D02*
X898Y216D01*
X906Y216D02*
X907Y216D01*
X913Y216D02*
X915Y216D01*
X926Y216D02*
X928Y216D01*
X936Y216D02*
X943Y216D01*
X976Y216D02*
X983Y216D01*
X0Y215D02*
X7Y215D01*
X42Y215D02*
X48Y215D01*
X237Y215D02*
X243Y215D01*
X743Y215D02*
X749Y215D01*
X771Y215D02*
X772Y215D01*
X780Y215D02*
X782Y215D01*
X787Y215D02*
X789Y215D01*
X879Y215D02*
X881Y215D01*
X889Y215D02*
X891Y215D01*
X896Y215D02*
X898Y215D01*
X906Y215D02*
X907Y215D01*
X913Y215D02*
X915Y215D01*
X926Y215D02*
X928Y215D01*
X937Y215D02*
X943Y215D01*
X976Y215D02*
X983Y215D01*
X0Y214D02*
X7Y214D01*
X42Y214D02*
X48Y214D01*
X237Y214D02*
X243Y214D01*
X743Y214D02*
X749Y214D01*
X771Y214D02*
X772Y214D01*
X780Y214D02*
X782Y214D01*
X787Y214D02*
X789Y214D01*
X879Y214D02*
X881Y214D01*
X889Y214D02*
X891Y214D01*
X896Y214D02*
X898Y214D01*
X906Y214D02*
X907Y214D01*
X913Y214D02*
X915Y214D01*
X926Y214D02*
X928Y214D01*
X937Y214D02*
X943Y214D01*
X976Y214D02*
X983Y214D01*
X0Y213D02*
X7Y213D01*
X42Y213D02*
X48Y213D01*
X237Y213D02*
X243Y213D01*
X743Y213D02*
X749Y213D01*
X771Y213D02*
X772Y213D01*
X780Y213D02*
X782Y213D01*
X787Y213D02*
X789Y213D01*
X879Y213D02*
X881Y213D01*
X889Y213D02*
X891Y213D01*
X896Y213D02*
X898Y213D01*
X906Y213D02*
X907Y213D01*
X913Y213D02*
X915Y213D01*
X926Y213D02*
X928Y213D01*
X937Y213D02*
X943Y213D01*
X976Y213D02*
X983Y213D01*
X0Y212D02*
X7Y212D01*
X42Y212D02*
X48Y212D01*
X237Y212D02*
X243Y212D01*
X743Y212D02*
X749Y212D01*
X771Y212D02*
X772Y212D01*
X780Y212D02*
X782Y212D01*
X787Y212D02*
X789Y212D01*
X879Y212D02*
X881Y212D01*
X889Y212D02*
X891Y212D01*
X896Y212D02*
X898Y212D01*
X905Y212D02*
X907Y212D01*
X926Y212D02*
X928Y212D01*
X937Y212D02*
X943Y212D01*
X976Y212D02*
X983Y212D01*
X0Y211D02*
X7Y211D01*
X42Y211D02*
X48Y211D01*
X237Y211D02*
X243Y211D01*
X743Y211D02*
X749Y211D01*
X771Y211D02*
X772Y211D01*
X780Y211D02*
X782Y211D01*
X787Y211D02*
X789Y211D01*
X879Y211D02*
X881Y211D01*
X889Y211D02*
X891Y211D01*
X896Y211D02*
X898Y211D01*
X905Y211D02*
X907Y211D01*
X926Y211D02*
X929Y211D01*
X937Y211D02*
X943Y211D01*
X976Y211D02*
X983Y211D01*
X0Y210D02*
X7Y210D01*
X42Y210D02*
X48Y210D01*
X237Y210D02*
X243Y210D01*
X743Y210D02*
X749Y210D01*
X771Y210D02*
X772Y210D01*
X780Y210D02*
X782Y210D01*
X787Y210D02*
X789Y210D01*
X879Y210D02*
X881Y210D01*
X888Y210D02*
X890Y210D01*
X896Y210D02*
X898Y210D01*
X904Y210D02*
X907Y210D01*
X926Y210D02*
X928Y210D01*
X937Y210D02*
X943Y210D01*
X976Y210D02*
X983Y210D01*
X0Y209D02*
X7Y209D01*
X42Y209D02*
X48Y209D01*
X237Y209D02*
X243Y209D01*
X743Y209D02*
X749Y209D01*
X771Y209D02*
X772Y209D01*
X780Y209D02*
X782Y209D01*
X787Y209D02*
X789Y209D01*
X879Y209D02*
X882Y209D01*
X888Y209D02*
X890Y209D01*
X896Y209D02*
X899Y209D01*
X903Y209D02*
X907Y209D01*
X926Y209D02*
X928Y209D01*
X937Y209D02*
X943Y209D01*
X976Y209D02*
X983Y209D01*
X0Y208D02*
X7Y208D01*
X42Y208D02*
X48Y208D01*
X237Y208D02*
X243Y208D01*
X743Y208D02*
X749Y208D01*
X771Y208D02*
X773Y208D01*
X779Y208D02*
X782Y208D01*
X787Y208D02*
X789Y208D01*
X879Y208D02*
X889Y208D01*
X897Y208D02*
X903Y208D01*
X906Y208D02*
X907Y208D01*
X926Y208D02*
X928Y208D01*
X937Y208D02*
X943Y208D01*
X976Y208D02*
X983Y208D01*
X0Y207D02*
X7Y207D01*
X42Y207D02*
X48Y207D01*
X237Y207D02*
X243Y207D01*
X743Y207D02*
X749Y207D01*
X771Y207D02*
X773Y207D01*
X778Y207D02*
X782Y207D01*
X787Y207D02*
X789Y207D01*
X879Y207D02*
X881Y207D01*
X883Y207D02*
X888Y207D01*
X898Y207D02*
X902Y207D01*
X906Y207D02*
X907Y207D01*
X926Y207D02*
X928Y207D01*
X937Y207D02*
X943Y207D01*
X976Y207D02*
X983Y207D01*
X0Y206D02*
X7Y206D01*
X42Y206D02*
X48Y206D01*
X237Y206D02*
X243Y206D01*
X743Y206D02*
X749Y206D01*
X771Y206D02*
X782Y206D01*
X787Y206D02*
X789Y206D01*
X879Y206D02*
X881Y206D01*
X925Y206D02*
X928Y206D01*
X937Y206D02*
X943Y206D01*
X976Y206D02*
X983Y206D01*
X0Y205D02*
X7Y205D01*
X42Y205D02*
X48Y205D01*
X237Y205D02*
X243Y205D01*
X743Y205D02*
X749Y205D01*
X772Y205D02*
X778Y205D01*
X780Y205D02*
X782Y205D01*
X787Y205D02*
X789Y205D01*
X879Y205D02*
X881Y205D01*
X925Y205D02*
X927Y205D01*
X937Y205D02*
X943Y205D01*
X976Y205D02*
X983Y205D01*
X0Y204D02*
X7Y204D01*
X42Y204D02*
X48Y204D01*
X237Y204D02*
X243Y204D01*
X743Y204D02*
X749Y204D01*
X773Y204D02*
X776Y204D01*
X781Y204D02*
X781Y204D01*
X787Y204D02*
X789Y204D01*
X879Y204D02*
X881Y204D01*
X923Y204D02*
X926Y204D01*
X937Y204D02*
X943Y204D01*
X976Y204D02*
X983Y204D01*
X0Y203D02*
X7Y203D01*
X42Y203D02*
X48Y203D01*
X237Y203D02*
X243Y203D01*
X743Y203D02*
X749Y203D01*
X787Y203D02*
X789Y203D01*
X879Y203D02*
X881Y203D01*
X913Y203D02*
X918Y203D01*
X921Y203D02*
X925Y203D01*
X937Y203D02*
X943Y203D01*
X976Y203D02*
X983Y203D01*
X0Y202D02*
X7Y202D01*
X42Y202D02*
X48Y202D01*
X237Y202D02*
X243Y202D01*
X743Y202D02*
X749Y202D01*
X787Y202D02*
X789Y202D01*
X879Y202D02*
X881Y202D01*
X913Y202D02*
X924Y202D01*
X937Y202D02*
X943Y202D01*
X976Y202D02*
X983Y202D01*
X0Y201D02*
X7Y201D01*
X42Y201D02*
X48Y201D01*
X237Y201D02*
X243Y201D01*
X743Y201D02*
X749Y201D01*
X787Y201D02*
X789Y201D01*
X879Y201D02*
X881Y201D01*
X916Y201D02*
X921Y201D01*
X937Y201D02*
X943Y201D01*
X976Y201D02*
X983Y201D01*
X0Y200D02*
X7Y200D01*
X42Y200D02*
X48Y200D01*
X237Y200D02*
X243Y200D01*
X743Y200D02*
X749Y200D01*
X787Y200D02*
X789Y200D01*
X879Y200D02*
X880Y200D01*
X937Y200D02*
X943Y200D01*
X976Y200D02*
X983Y200D01*
X0Y199D02*
X7Y199D01*
X42Y199D02*
X48Y199D01*
X237Y199D02*
X243Y199D01*
X743Y199D02*
X749Y199D01*
X787Y199D02*
X789Y199D01*
X937Y199D02*
X943Y199D01*
X976Y199D02*
X983Y199D01*
X0Y198D02*
X7Y198D01*
X42Y198D02*
X48Y198D01*
X237Y198D02*
X243Y198D01*
X743Y198D02*
X749Y198D01*
X937Y198D02*
X943Y198D01*
X976Y198D02*
X983Y198D01*
X0Y197D02*
X7Y197D01*
X42Y197D02*
X48Y197D01*
X147Y197D02*
X152Y197D01*
X186Y197D02*
X192Y197D01*
X237Y197D02*
X243Y197D01*
X743Y197D02*
X749Y197D01*
X937Y197D02*
X943Y197D01*
X976Y197D02*
X983Y197D01*
X0Y196D02*
X7Y196D01*
X42Y196D02*
X48Y196D01*
X88Y196D02*
X99Y196D01*
X105Y196D02*
X119Y196D01*
X123Y196D02*
X136Y196D01*
X145Y196D02*
X154Y196D01*
X163Y196D02*
X177Y196D01*
X184Y196D02*
X195Y196D01*
X204Y196D02*
X207Y196D01*
X217Y196D02*
X220Y196D01*
X237Y196D02*
X243Y196D01*
X743Y196D02*
X749Y196D01*
X937Y196D02*
X943Y196D01*
X976Y196D02*
X983Y196D01*
X0Y195D02*
X7Y195D01*
X42Y195D02*
X48Y195D01*
X87Y195D02*
X99Y195D01*
X105Y195D02*
X119Y195D01*
X123Y195D02*
X136Y195D01*
X143Y195D02*
X156Y195D01*
X163Y195D02*
X177Y195D01*
X183Y195D02*
X195Y195D01*
X204Y195D02*
X207Y195D01*
X217Y195D02*
X220Y195D01*
X237Y195D02*
X243Y195D01*
X743Y195D02*
X749Y195D01*
X937Y195D02*
X943Y195D01*
X976Y195D02*
X983Y195D01*
X0Y194D02*
X7Y194D01*
X42Y194D02*
X48Y194D01*
X86Y194D02*
X91Y194D01*
X96Y194D02*
X99Y194D01*
X105Y194D02*
X119Y194D01*
X128Y194D02*
X131Y194D01*
X143Y194D02*
X146Y194D01*
X153Y194D02*
X156Y194D01*
X163Y194D02*
X177Y194D01*
X182Y194D02*
X185Y194D01*
X193Y194D02*
X195Y194D01*
X204Y194D02*
X208Y194D01*
X216Y194D02*
X220Y194D01*
X237Y194D02*
X243Y194D01*
X743Y194D02*
X749Y194D01*
X937Y194D02*
X943Y194D01*
X976Y194D02*
X983Y194D01*
X0Y193D02*
X7Y193D01*
X42Y193D02*
X48Y193D01*
X85Y193D02*
X89Y193D01*
X97Y193D02*
X99Y193D01*
X115Y193D02*
X118Y193D01*
X128Y193D02*
X131Y193D01*
X142Y193D02*
X145Y193D01*
X154Y193D02*
X157Y193D01*
X173Y193D02*
X176Y193D01*
X181Y193D02*
X184Y193D01*
X203Y193D02*
X208Y193D01*
X216Y193D02*
X221Y193D01*
X237Y193D02*
X243Y193D01*
X743Y193D02*
X749Y193D01*
X937Y193D02*
X943Y193D01*
X976Y193D02*
X983Y193D01*
X0Y192D02*
X7Y192D01*
X42Y192D02*
X48Y192D01*
X85Y192D02*
X88Y192D01*
X97Y192D02*
X99Y192D01*
X115Y192D02*
X118Y192D01*
X128Y192D02*
X131Y192D01*
X142Y192D02*
X144Y192D01*
X155Y192D02*
X157Y192D01*
X173Y192D02*
X176Y192D01*
X181Y192D02*
X184Y192D01*
X203Y192D02*
X208Y192D01*
X216Y192D02*
X221Y192D01*
X237Y192D02*
X243Y192D01*
X743Y192D02*
X749Y192D01*
X937Y192D02*
X943Y192D01*
X976Y192D02*
X983Y192D01*
X0Y191D02*
X7Y191D01*
X42Y191D02*
X48Y191D01*
X85Y191D02*
X88Y191D01*
X97Y191D02*
X99Y191D01*
X114Y191D02*
X117Y191D01*
X128Y191D02*
X131Y191D01*
X142Y191D02*
X144Y191D01*
X155Y191D02*
X157Y191D01*
X172Y191D02*
X175Y191D01*
X181Y191D02*
X183Y191D01*
X203Y191D02*
X208Y191D01*
X216Y191D02*
X221Y191D01*
X237Y191D02*
X243Y191D01*
X743Y191D02*
X749Y191D01*
X937Y191D02*
X943Y191D01*
X976Y191D02*
X983Y191D01*
X0Y190D02*
X7Y190D01*
X42Y190D02*
X48Y190D01*
X85Y190D02*
X88Y190D01*
X97Y190D02*
X99Y190D01*
X114Y190D02*
X116Y190D01*
X128Y190D02*
X131Y190D01*
X142Y190D02*
X144Y190D01*
X155Y190D02*
X157Y190D01*
X172Y190D02*
X174Y190D01*
X181Y190D02*
X183Y190D01*
X202Y190D02*
X204Y190D01*
X206Y190D02*
X209Y190D01*
X215Y190D02*
X217Y190D01*
X219Y190D02*
X221Y190D01*
X237Y190D02*
X243Y190D01*
X743Y190D02*
X749Y190D01*
X937Y190D02*
X943Y190D01*
X976Y190D02*
X983Y190D01*
X0Y189D02*
X7Y189D01*
X42Y189D02*
X48Y189D01*
X85Y189D02*
X88Y189D01*
X97Y189D02*
X99Y189D01*
X113Y189D02*
X115Y189D01*
X128Y189D02*
X131Y189D01*
X142Y189D02*
X144Y189D01*
X155Y189D02*
X157Y189D01*
X171Y189D02*
X173Y189D01*
X181Y189D02*
X184Y189D01*
X202Y189D02*
X204Y189D01*
X206Y189D02*
X209Y189D01*
X215Y189D02*
X217Y189D01*
X219Y189D02*
X222Y189D01*
X237Y189D02*
X243Y189D01*
X743Y189D02*
X749Y189D01*
X937Y189D02*
X943Y189D01*
X976Y189D02*
X983Y189D01*
X0Y188D02*
X7Y188D01*
X42Y188D02*
X48Y188D01*
X85Y188D02*
X88Y188D01*
X97Y188D02*
X99Y188D01*
X112Y188D02*
X114Y188D01*
X128Y188D02*
X131Y188D01*
X142Y188D02*
X145Y188D01*
X154Y188D02*
X157Y188D01*
X170Y188D02*
X172Y188D01*
X181Y188D02*
X185Y188D01*
X202Y188D02*
X204Y188D01*
X207Y188D02*
X209Y188D01*
X215Y188D02*
X217Y188D01*
X219Y188D02*
X222Y188D01*
X237Y188D02*
X243Y188D01*
X743Y188D02*
X749Y188D01*
X937Y188D02*
X943Y188D01*
X976Y188D02*
X983Y188D01*
X0Y187D02*
X7Y187D01*
X42Y187D02*
X48Y187D01*
X86Y187D02*
X89Y187D01*
X97Y187D02*
X99Y187D01*
X111Y187D02*
X113Y187D01*
X128Y187D02*
X131Y187D01*
X143Y187D02*
X146Y187D01*
X154Y187D02*
X156Y187D01*
X168Y187D02*
X171Y187D01*
X182Y187D02*
X186Y187D01*
X202Y187D02*
X204Y187D01*
X207Y187D02*
X209Y187D01*
X215Y187D02*
X216Y187D01*
X220Y187D02*
X222Y187D01*
X237Y187D02*
X243Y187D01*
X743Y187D02*
X749Y187D01*
X937Y187D02*
X943Y187D01*
X976Y187D02*
X983Y187D01*
X0Y186D02*
X7Y186D01*
X42Y186D02*
X48Y186D01*
X87Y186D02*
X91Y186D01*
X97Y186D02*
X99Y186D01*
X109Y186D02*
X112Y186D01*
X128Y186D02*
X131Y186D01*
X143Y186D02*
X148Y186D01*
X153Y186D02*
X156Y186D01*
X167Y186D02*
X170Y186D01*
X182Y186D02*
X187Y186D01*
X201Y186D02*
X203Y186D01*
X207Y186D02*
X209Y186D01*
X214Y186D02*
X216Y186D01*
X220Y186D02*
X222Y186D01*
X237Y186D02*
X243Y186D01*
X743Y186D02*
X749Y186D01*
X937Y186D02*
X943Y186D01*
X976Y186D02*
X983Y186D01*
X0Y185D02*
X7Y185D01*
X42Y185D02*
X48Y185D01*
X88Y185D02*
X99Y185D01*
X108Y185D02*
X111Y185D01*
X128Y185D02*
X131Y185D01*
X144Y185D02*
X150Y185D01*
X152Y185D02*
X155Y185D01*
X166Y185D02*
X169Y185D01*
X183Y185D02*
X189Y185D01*
X201Y185D02*
X203Y185D01*
X207Y185D02*
X210Y185D01*
X214Y185D02*
X216Y185D01*
X220Y185D02*
X223Y185D01*
X237Y185D02*
X243Y185D01*
X743Y185D02*
X749Y185D01*
X937Y185D02*
X943Y185D01*
X976Y185D02*
X983Y185D01*
X0Y184D02*
X7Y184D01*
X42Y184D02*
X48Y184D01*
X90Y184D02*
X99Y184D01*
X107Y184D02*
X110Y184D01*
X128Y184D02*
X131Y184D01*
X146Y184D02*
X153Y184D01*
X165Y184D02*
X168Y184D01*
X185Y184D02*
X191Y184D01*
X201Y184D02*
X203Y184D01*
X207Y184D02*
X210Y184D01*
X214Y184D02*
X216Y184D01*
X220Y184D02*
X223Y184D01*
X237Y184D02*
X243Y184D01*
X743Y184D02*
X749Y184D01*
X937Y184D02*
X943Y184D01*
X976Y184D02*
X983Y184D01*
X0Y183D02*
X7Y183D01*
X42Y183D02*
X48Y183D01*
X89Y183D02*
X99Y183D01*
X107Y183D02*
X109Y183D01*
X128Y183D02*
X131Y183D01*
X147Y183D02*
X153Y183D01*
X164Y183D02*
X167Y183D01*
X186Y183D02*
X192Y183D01*
X201Y183D02*
X202Y183D01*
X208Y183D02*
X210Y183D01*
X214Y183D02*
X215Y183D01*
X221Y183D02*
X223Y183D01*
X237Y183D02*
X243Y183D01*
X743Y183D02*
X749Y183D01*
X937Y183D02*
X943Y183D01*
X976Y183D02*
X983Y183D01*
X0Y182D02*
X7Y182D01*
X42Y182D02*
X48Y182D01*
X88Y182D02*
X91Y182D01*
X97Y182D02*
X99Y182D01*
X106Y182D02*
X109Y182D01*
X128Y182D02*
X131Y182D01*
X146Y182D02*
X154Y182D01*
X164Y182D02*
X166Y182D01*
X188Y182D02*
X193Y182D01*
X200Y182D02*
X202Y182D01*
X208Y182D02*
X210Y182D01*
X213Y182D02*
X215Y182D01*
X221Y182D02*
X223Y182D01*
X237Y182D02*
X243Y182D01*
X743Y182D02*
X749Y182D01*
X937Y182D02*
X943Y182D01*
X976Y182D02*
X983Y182D01*
X0Y181D02*
X7Y181D01*
X42Y181D02*
X48Y181D01*
X87Y181D02*
X90Y181D01*
X97Y181D02*
X99Y181D01*
X105Y181D02*
X108Y181D01*
X128Y181D02*
X131Y181D01*
X145Y181D02*
X147Y181D01*
X151Y181D02*
X155Y181D01*
X163Y181D02*
X166Y181D01*
X190Y181D02*
X194Y181D01*
X200Y181D02*
X202Y181D01*
X208Y181D02*
X211Y181D01*
X213Y181D02*
X215Y181D01*
X221Y181D02*
X224Y181D01*
X237Y181D02*
X243Y181D01*
X743Y181D02*
X749Y181D01*
X937Y181D02*
X943Y181D01*
X976Y181D02*
X983Y181D01*
X0Y180D02*
X7Y180D01*
X42Y180D02*
X48Y180D01*
X86Y180D02*
X89Y180D01*
X97Y180D02*
X99Y180D01*
X105Y180D02*
X108Y180D01*
X128Y180D02*
X131Y180D01*
X144Y180D02*
X146Y180D01*
X152Y180D02*
X155Y180D01*
X163Y180D02*
X165Y180D01*
X191Y180D02*
X194Y180D01*
X200Y180D02*
X202Y180D01*
X208Y180D02*
X211Y180D01*
X213Y180D02*
X215Y180D01*
X221Y180D02*
X224Y180D01*
X237Y180D02*
X243Y180D01*
X743Y180D02*
X749Y180D01*
X937Y180D02*
X943Y180D01*
X976Y180D02*
X983Y180D01*
X0Y179D02*
X7Y179D01*
X42Y179D02*
X48Y179D01*
X86Y179D02*
X89Y179D01*
X97Y179D02*
X99Y179D01*
X105Y179D02*
X107Y179D01*
X128Y179D02*
X131Y179D01*
X143Y179D02*
X145Y179D01*
X153Y179D02*
X156Y179D01*
X163Y179D02*
X165Y179D01*
X192Y179D02*
X195Y179D01*
X199Y179D02*
X201Y179D01*
X209Y179D02*
X211Y179D01*
X213Y179D02*
X214Y179D01*
X222Y179D02*
X224Y179D01*
X237Y179D02*
X243Y179D01*
X743Y179D02*
X749Y179D01*
X937Y179D02*
X943Y179D01*
X976Y179D02*
X983Y179D01*
X0Y178D02*
X7Y178D01*
X42Y178D02*
X48Y178D01*
X86Y178D02*
X89Y178D01*
X97Y178D02*
X99Y178D01*
X105Y178D02*
X107Y178D01*
X128Y178D02*
X131Y178D01*
X143Y178D02*
X145Y178D01*
X154Y178D02*
X156Y178D01*
X163Y178D02*
X165Y178D01*
X192Y178D02*
X195Y178D01*
X199Y178D02*
X201Y178D01*
X209Y178D02*
X214Y178D01*
X222Y178D02*
X224Y178D01*
X237Y178D02*
X243Y178D01*
X743Y178D02*
X749Y178D01*
X937Y178D02*
X943Y178D01*
X976Y178D02*
X983Y178D01*
X0Y177D02*
X7Y177D01*
X42Y177D02*
X48Y177D01*
X86Y177D02*
X89Y177D01*
X97Y177D02*
X99Y177D01*
X105Y177D02*
X107Y177D01*
X128Y177D02*
X131Y177D01*
X143Y177D02*
X145Y177D01*
X154Y177D02*
X156Y177D01*
X163Y177D02*
X165Y177D01*
X192Y177D02*
X195Y177D01*
X199Y177D02*
X201Y177D01*
X209Y177D02*
X214Y177D01*
X222Y177D02*
X225Y177D01*
X237Y177D02*
X243Y177D01*
X743Y177D02*
X749Y177D01*
X937Y177D02*
X943Y177D01*
X976Y177D02*
X983Y177D01*
X0Y176D02*
X7Y176D01*
X42Y176D02*
X48Y176D01*
X86Y176D02*
X89Y176D01*
X97Y176D02*
X99Y176D01*
X105Y176D02*
X108Y176D01*
X128Y176D02*
X131Y176D01*
X143Y176D02*
X145Y176D01*
X154Y176D02*
X156Y176D01*
X163Y176D02*
X166Y176D01*
X192Y176D02*
X195Y176D01*
X199Y176D02*
X200Y176D01*
X209Y176D02*
X214Y176D01*
X222Y176D02*
X225Y176D01*
X237Y176D02*
X243Y176D01*
X743Y176D02*
X749Y176D01*
X937Y176D02*
X943Y176D01*
X976Y176D02*
X983Y176D01*
X0Y175D02*
X7Y175D01*
X42Y175D02*
X48Y175D01*
X86Y175D02*
X91Y175D01*
X97Y175D02*
X99Y175D01*
X105Y175D02*
X108Y175D01*
X118Y175D02*
X118Y175D01*
X128Y175D02*
X131Y175D01*
X134Y175D02*
X136Y175D01*
X143Y175D02*
X145Y175D01*
X153Y175D02*
X155Y175D01*
X163Y175D02*
X166Y175D01*
X176Y175D02*
X176Y175D01*
X182Y175D02*
X182Y175D01*
X191Y175D02*
X194Y175D01*
X198Y175D02*
X200Y175D01*
X210Y175D02*
X213Y175D01*
X223Y175D02*
X225Y175D01*
X237Y175D02*
X243Y175D01*
X743Y175D02*
X749Y175D01*
X937Y175D02*
X943Y175D01*
X976Y175D02*
X983Y175D01*
X0Y174D02*
X7Y174D01*
X42Y174D02*
X48Y174D01*
X87Y174D02*
X99Y174D01*
X106Y174D02*
X110Y174D01*
X115Y174D02*
X118Y174D01*
X128Y174D02*
X136Y174D01*
X143Y174D02*
X147Y174D01*
X152Y174D02*
X155Y174D01*
X164Y174D02*
X168Y174D01*
X173Y174D02*
X176Y174D01*
X182Y174D02*
X186Y174D01*
X189Y174D02*
X194Y174D01*
X198Y174D02*
X200Y174D01*
X210Y174D02*
X213Y174D01*
X223Y174D02*
X225Y174D01*
X237Y174D02*
X243Y174D01*
X743Y174D02*
X749Y174D01*
X791Y174D02*
X800Y174D01*
X806Y174D02*
X819Y174D01*
X824Y174D02*
X836Y174D01*
X846Y174D02*
X854Y174D01*
X864Y174D02*
X877Y174D01*
X886Y174D02*
X895Y174D01*
X905Y174D02*
X908Y174D01*
X918Y174D02*
X920Y174D01*
X937Y174D02*
X943Y174D01*
X976Y174D02*
X983Y174D01*
X0Y173D02*
X7Y173D01*
X42Y173D02*
X48Y173D01*
X88Y173D02*
X99Y173D01*
X107Y173D02*
X118Y173D01*
X128Y173D02*
X135Y173D01*
X144Y173D02*
X154Y173D01*
X165Y173D02*
X176Y173D01*
X182Y173D02*
X193Y173D01*
X198Y173D02*
X200Y173D01*
X210Y173D02*
X213Y173D01*
X223Y173D02*
X226Y173D01*
X237Y173D02*
X243Y173D01*
X743Y173D02*
X749Y173D01*
X788Y173D02*
X800Y173D01*
X806Y173D02*
X820Y173D01*
X824Y173D02*
X836Y173D01*
X845Y173D02*
X856Y173D01*
X863Y173D02*
X877Y173D01*
X884Y173D02*
X896Y173D01*
X905Y173D02*
X908Y173D01*
X917Y173D02*
X921Y173D01*
X937Y173D02*
X943Y173D01*
X976Y173D02*
X983Y173D01*
X0Y172D02*
X7Y172D01*
X42Y172D02*
X48Y172D01*
X91Y172D02*
X99Y172D01*
X108Y172D02*
X116Y172D01*
X128Y172D02*
X131Y172D01*
X146Y172D02*
X152Y172D01*
X166Y172D02*
X174Y172D01*
X183Y172D02*
X191Y172D01*
X198Y172D02*
X199Y172D01*
X210Y172D02*
X213Y172D01*
X224Y172D02*
X226Y172D01*
X237Y172D02*
X243Y172D01*
X743Y172D02*
X749Y172D01*
X787Y172D02*
X800Y172D01*
X806Y172D02*
X820Y172D01*
X824Y172D02*
X836Y172D01*
X844Y172D02*
X847Y172D01*
X853Y172D02*
X857Y172D01*
X863Y172D02*
X877Y172D01*
X883Y172D02*
X887Y172D01*
X891Y172D02*
X896Y172D01*
X905Y172D02*
X908Y172D01*
X917Y172D02*
X921Y172D01*
X937Y172D02*
X943Y172D01*
X976Y172D02*
X983Y172D01*
X0Y171D02*
X7Y171D01*
X42Y171D02*
X48Y171D01*
X237Y171D02*
X243Y171D01*
X743Y171D02*
X749Y171D01*
X786Y171D02*
X790Y171D01*
X797Y171D02*
X800Y171D01*
X816Y171D02*
X819Y171D01*
X829Y171D02*
X831Y171D01*
X843Y171D02*
X846Y171D01*
X854Y171D02*
X857Y171D01*
X874Y171D02*
X877Y171D01*
X882Y171D02*
X885Y171D01*
X895Y171D02*
X896Y171D01*
X904Y171D02*
X908Y171D01*
X917Y171D02*
X921Y171D01*
X937Y171D02*
X943Y171D01*
X976Y171D02*
X983Y171D01*
X0Y170D02*
X7Y170D01*
X42Y170D02*
X48Y170D01*
X237Y170D02*
X243Y170D01*
X743Y170D02*
X749Y170D01*
X786Y170D02*
X789Y170D01*
X797Y170D02*
X800Y170D01*
X816Y170D02*
X819Y170D01*
X829Y170D02*
X831Y170D01*
X843Y170D02*
X845Y170D01*
X855Y170D02*
X858Y170D01*
X874Y170D02*
X877Y170D01*
X882Y170D02*
X885Y170D01*
X904Y170D02*
X909Y170D01*
X917Y170D02*
X921Y170D01*
X937Y170D02*
X943Y170D01*
X976Y170D02*
X983Y170D01*
X0Y169D02*
X7Y169D01*
X42Y169D02*
X48Y169D01*
X237Y169D02*
X243Y169D01*
X743Y169D02*
X749Y169D01*
X786Y169D02*
X789Y169D01*
X797Y169D02*
X800Y169D01*
X815Y169D02*
X818Y169D01*
X829Y169D02*
X831Y169D01*
X842Y169D02*
X845Y169D01*
X855Y169D02*
X858Y169D01*
X873Y169D02*
X876Y169D01*
X882Y169D02*
X884Y169D01*
X904Y169D02*
X909Y169D01*
X916Y169D02*
X922Y169D01*
X937Y169D02*
X943Y169D01*
X976Y169D02*
X983Y169D01*
X0Y168D02*
X7Y168D01*
X42Y168D02*
X48Y168D01*
X237Y168D02*
X243Y168D01*
X743Y168D02*
X749Y168D01*
X786Y168D02*
X788Y168D01*
X797Y168D02*
X800Y168D01*
X815Y168D02*
X817Y168D01*
X829Y168D02*
X831Y168D01*
X842Y168D02*
X845Y168D01*
X856Y168D02*
X858Y168D01*
X873Y168D02*
X875Y168D01*
X881Y168D02*
X884Y168D01*
X903Y168D02*
X909Y168D01*
X916Y168D02*
X922Y168D01*
X937Y168D02*
X943Y168D01*
X976Y168D02*
X983Y168D01*
X0Y167D02*
X7Y167D01*
X42Y167D02*
X48Y167D01*
X237Y167D02*
X243Y167D01*
X743Y167D02*
X749Y167D01*
X786Y167D02*
X788Y167D01*
X797Y167D02*
X800Y167D01*
X814Y167D02*
X817Y167D01*
X829Y167D02*
X831Y167D01*
X842Y167D02*
X845Y167D01*
X856Y167D02*
X858Y167D01*
X872Y167D02*
X874Y167D01*
X882Y167D02*
X884Y167D01*
X903Y167D02*
X905Y167D01*
X907Y167D02*
X909Y167D01*
X916Y167D02*
X918Y167D01*
X920Y167D02*
X922Y167D01*
X937Y167D02*
X943Y167D01*
X976Y167D02*
X983Y167D01*
X0Y166D02*
X7Y166D01*
X42Y166D02*
X48Y166D01*
X237Y166D02*
X243Y166D01*
X743Y166D02*
X749Y166D01*
X786Y166D02*
X789Y166D01*
X797Y166D02*
X800Y166D01*
X813Y166D02*
X816Y166D01*
X829Y166D02*
X831Y166D01*
X843Y166D02*
X845Y166D01*
X855Y166D02*
X858Y166D01*
X871Y166D02*
X874Y166D01*
X882Y166D02*
X885Y166D01*
X903Y166D02*
X905Y166D01*
X907Y166D02*
X910Y166D01*
X916Y166D02*
X917Y166D01*
X920Y166D02*
X922Y166D01*
X937Y166D02*
X943Y166D01*
X976Y166D02*
X983Y166D01*
X0Y165D02*
X7Y165D01*
X42Y165D02*
X48Y165D01*
X237Y165D02*
X243Y165D01*
X743Y165D02*
X749Y165D01*
X786Y165D02*
X789Y165D01*
X797Y165D02*
X800Y165D01*
X812Y165D02*
X815Y165D01*
X829Y165D02*
X831Y165D01*
X843Y165D02*
X846Y165D01*
X855Y165D02*
X857Y165D01*
X870Y165D02*
X873Y165D01*
X882Y165D02*
X886Y165D01*
X903Y165D02*
X905Y165D01*
X907Y165D02*
X910Y165D01*
X916Y165D02*
X917Y165D01*
X920Y165D02*
X923Y165D01*
X937Y165D02*
X943Y165D01*
X976Y165D02*
X983Y165D01*
X0Y164D02*
X7Y164D01*
X42Y164D02*
X48Y164D01*
X237Y164D02*
X243Y164D01*
X743Y164D02*
X749Y164D01*
X787Y164D02*
X790Y164D01*
X797Y164D02*
X800Y164D01*
X811Y164D02*
X814Y164D01*
X829Y164D02*
X831Y164D01*
X844Y164D02*
X848Y164D01*
X854Y164D02*
X857Y164D01*
X869Y164D02*
X872Y164D01*
X883Y164D02*
X887Y164D01*
X902Y164D02*
X904Y164D01*
X908Y164D02*
X910Y164D01*
X915Y164D02*
X917Y164D01*
X920Y164D02*
X923Y164D01*
X937Y164D02*
X943Y164D01*
X976Y164D02*
X983Y164D01*
X0Y163D02*
X7Y163D01*
X42Y163D02*
X48Y163D01*
X237Y163D02*
X243Y163D01*
X743Y163D02*
X749Y163D01*
X788Y163D02*
X792Y163D01*
X797Y163D02*
X800Y163D01*
X810Y163D02*
X813Y163D01*
X829Y163D02*
X831Y163D01*
X844Y163D02*
X849Y163D01*
X853Y163D02*
X856Y163D01*
X868Y163D02*
X870Y163D01*
X883Y163D02*
X889Y163D01*
X902Y163D02*
X904Y163D01*
X908Y163D02*
X910Y163D01*
X915Y163D02*
X917Y163D01*
X921Y163D02*
X923Y163D01*
X937Y163D02*
X943Y163D01*
X976Y163D02*
X983Y163D01*
X0Y162D02*
X7Y162D01*
X42Y162D02*
X48Y162D01*
X237Y162D02*
X243Y162D01*
X743Y162D02*
X749Y162D01*
X790Y162D02*
X800Y162D01*
X809Y162D02*
X812Y162D01*
X829Y162D02*
X831Y162D01*
X846Y162D02*
X855Y162D01*
X867Y162D02*
X869Y162D01*
X885Y162D02*
X890Y162D01*
X902Y162D02*
X904Y162D01*
X908Y162D02*
X911Y162D01*
X915Y162D02*
X917Y162D01*
X921Y162D02*
X923Y162D01*
X937Y162D02*
X943Y162D01*
X976Y162D02*
X983Y162D01*
X0Y161D02*
X7Y161D01*
X42Y161D02*
X48Y161D01*
X237Y161D02*
X243Y161D01*
X743Y161D02*
X749Y161D01*
X791Y161D02*
X800Y161D01*
X808Y161D02*
X811Y161D01*
X829Y161D02*
X831Y161D01*
X847Y161D02*
X854Y161D01*
X866Y161D02*
X868Y161D01*
X886Y161D02*
X892Y161D01*
X901Y161D02*
X903Y161D01*
X908Y161D02*
X911Y161D01*
X915Y161D02*
X916Y161D01*
X921Y161D02*
X924Y161D01*
X937Y161D02*
X943Y161D01*
X976Y161D02*
X983Y161D01*
X0Y160D02*
X7Y160D01*
X42Y160D02*
X48Y160D01*
X237Y160D02*
X243Y160D01*
X743Y160D02*
X749Y160D01*
X789Y160D02*
X793Y160D01*
X797Y160D02*
X800Y160D01*
X807Y160D02*
X810Y160D01*
X829Y160D02*
X831Y160D01*
X847Y160D02*
X854Y160D01*
X865Y160D02*
X868Y160D01*
X888Y160D02*
X893Y160D01*
X901Y160D02*
X903Y160D01*
X909Y160D02*
X911Y160D01*
X914Y160D02*
X916Y160D01*
X922Y160D02*
X924Y160D01*
X937Y160D02*
X943Y160D01*
X976Y160D02*
X983Y160D01*
X0Y159D02*
X7Y159D01*
X42Y159D02*
X48Y159D01*
X237Y159D02*
X243Y159D01*
X743Y159D02*
X749Y159D01*
X788Y159D02*
X791Y159D01*
X797Y159D02*
X800Y159D01*
X806Y159D02*
X809Y159D01*
X829Y159D02*
X831Y159D01*
X846Y159D02*
X848Y159D01*
X851Y159D02*
X855Y159D01*
X864Y159D02*
X867Y159D01*
X889Y159D02*
X894Y159D01*
X901Y159D02*
X903Y159D01*
X909Y159D02*
X911Y159D01*
X914Y159D02*
X916Y159D01*
X922Y159D02*
X924Y159D01*
X937Y159D02*
X943Y159D01*
X976Y159D02*
X983Y159D01*
X0Y158D02*
X7Y158D01*
X42Y158D02*
X48Y158D01*
X237Y158D02*
X243Y158D01*
X743Y158D02*
X749Y158D01*
X788Y158D02*
X790Y158D01*
X797Y158D02*
X800Y158D01*
X806Y158D02*
X809Y158D01*
X829Y158D02*
X831Y158D01*
X845Y158D02*
X847Y158D01*
X852Y158D02*
X856Y158D01*
X864Y158D02*
X866Y158D01*
X891Y158D02*
X895Y158D01*
X901Y158D02*
X903Y158D01*
X909Y158D02*
X911Y158D01*
X914Y158D02*
X916Y158D01*
X922Y158D02*
X924Y158D01*
X937Y158D02*
X943Y158D01*
X976Y158D02*
X983Y158D01*
X0Y157D02*
X7Y157D01*
X42Y157D02*
X48Y157D01*
X237Y157D02*
X243Y157D01*
X743Y157D02*
X749Y157D01*
X787Y157D02*
X790Y157D01*
X797Y157D02*
X800Y157D01*
X806Y157D02*
X808Y157D01*
X829Y157D02*
X831Y157D01*
X844Y157D02*
X846Y157D01*
X853Y157D02*
X856Y157D01*
X864Y157D02*
X866Y157D01*
X892Y157D02*
X895Y157D01*
X900Y157D02*
X902Y157D01*
X909Y157D02*
X912Y157D01*
X914Y157D02*
X915Y157D01*
X922Y157D02*
X925Y157D01*
X937Y157D02*
X943Y157D01*
X976Y157D02*
X983Y157D01*
X0Y156D02*
X7Y156D01*
X42Y156D02*
X48Y156D01*
X237Y156D02*
X243Y156D01*
X743Y156D02*
X749Y156D01*
X787Y156D02*
X789Y156D01*
X797Y156D02*
X800Y156D01*
X806Y156D02*
X808Y156D01*
X829Y156D02*
X831Y156D01*
X844Y156D02*
X846Y156D01*
X854Y156D02*
X857Y156D01*
X863Y156D02*
X866Y156D01*
X893Y156D02*
X895Y156D01*
X900Y156D02*
X902Y156D01*
X909Y156D02*
X915Y156D01*
X923Y156D02*
X925Y156D01*
X937Y156D02*
X943Y156D01*
X976Y156D02*
X983Y156D01*
X0Y155D02*
X7Y155D01*
X42Y155D02*
X48Y155D01*
X237Y155D02*
X243Y155D01*
X743Y155D02*
X749Y155D01*
X787Y155D02*
X789Y155D01*
X797Y155D02*
X800Y155D01*
X806Y155D02*
X808Y155D01*
X829Y155D02*
X831Y155D01*
X843Y155D02*
X845Y155D01*
X855Y155D02*
X857Y155D01*
X863Y155D02*
X866Y155D01*
X893Y155D02*
X896Y155D01*
X900Y155D02*
X902Y155D01*
X910Y155D02*
X915Y155D01*
X923Y155D02*
X925Y155D01*
X937Y155D02*
X943Y155D01*
X976Y155D02*
X983Y155D01*
X0Y154D02*
X7Y154D01*
X42Y154D02*
X48Y154D01*
X237Y154D02*
X243Y154D01*
X743Y154D02*
X749Y154D01*
X787Y154D02*
X790Y154D01*
X797Y154D02*
X800Y154D01*
X806Y154D02*
X808Y154D01*
X829Y154D02*
X831Y154D01*
X843Y154D02*
X845Y154D01*
X855Y154D02*
X857Y154D01*
X864Y154D02*
X866Y154D01*
X893Y154D02*
X895Y154D01*
X899Y154D02*
X901Y154D01*
X910Y154D02*
X915Y154D01*
X923Y154D02*
X926Y154D01*
X937Y154D02*
X943Y154D01*
X976Y154D02*
X983Y154D01*
X0Y153D02*
X7Y153D01*
X42Y153D02*
X48Y153D01*
X237Y153D02*
X243Y153D01*
X743Y153D02*
X749Y153D01*
X787Y153D02*
X790Y153D01*
X797Y153D02*
X800Y153D01*
X806Y153D02*
X809Y153D01*
X829Y153D02*
X831Y153D01*
X843Y153D02*
X846Y153D01*
X854Y153D02*
X856Y153D01*
X864Y153D02*
X867Y153D01*
X893Y153D02*
X895Y153D01*
X899Y153D02*
X901Y153D01*
X910Y153D02*
X914Y153D01*
X923Y153D02*
X926Y153D01*
X937Y153D02*
X943Y153D01*
X976Y153D02*
X983Y153D01*
X0Y152D02*
X7Y152D01*
X42Y152D02*
X48Y152D01*
X237Y152D02*
X243Y152D01*
X743Y152D02*
X749Y152D01*
X787Y152D02*
X793Y152D01*
X797Y152D02*
X800Y152D01*
X806Y152D02*
X810Y152D01*
X817Y152D02*
X819Y152D01*
X829Y152D02*
X836Y152D01*
X844Y152D02*
X847Y152D01*
X853Y152D02*
X856Y152D01*
X864Y152D02*
X868Y152D01*
X875Y152D02*
X877Y152D01*
X883Y152D02*
X884Y152D01*
X892Y152D02*
X895Y152D01*
X899Y152D02*
X901Y152D01*
X910Y152D02*
X914Y152D01*
X924Y152D02*
X926Y152D01*
X937Y152D02*
X943Y152D01*
X976Y152D02*
X983Y152D01*
X0Y151D02*
X7Y151D01*
X42Y151D02*
X48Y151D01*
X237Y151D02*
X243Y151D01*
X743Y151D02*
X749Y151D01*
X788Y151D02*
X800Y151D01*
X807Y151D02*
X819Y151D01*
X829Y151D02*
X836Y151D01*
X844Y151D02*
X855Y151D01*
X865Y151D02*
X877Y151D01*
X883Y151D02*
X894Y151D01*
X899Y151D02*
X901Y151D01*
X911Y151D02*
X914Y151D01*
X924Y151D02*
X926Y151D01*
X937Y151D02*
X943Y151D01*
X976Y151D02*
X983Y151D01*
X0Y150D02*
X7Y150D01*
X42Y150D02*
X48Y150D01*
X237Y150D02*
X243Y150D01*
X743Y150D02*
X749Y150D01*
X790Y150D02*
X800Y150D01*
X808Y150D02*
X818Y150D01*
X829Y150D02*
X834Y150D01*
X845Y150D02*
X854Y150D01*
X866Y150D02*
X876Y150D01*
X883Y150D02*
X893Y150D01*
X898Y150D02*
X900Y150D01*
X911Y150D02*
X914Y150D01*
X924Y150D02*
X927Y150D01*
X937Y150D02*
X943Y150D01*
X976Y150D02*
X983Y150D01*
X0Y149D02*
X7Y149D01*
X42Y149D02*
X48Y149D01*
X237Y149D02*
X243Y149D01*
X743Y149D02*
X749Y149D01*
X810Y149D02*
X816Y149D01*
X829Y149D02*
X830Y149D01*
X847Y149D02*
X852Y149D01*
X868Y149D02*
X874Y149D01*
X885Y149D02*
X891Y149D01*
X937Y149D02*
X943Y149D01*
X976Y149D02*
X983Y149D01*
X0Y148D02*
X7Y148D01*
X42Y148D02*
X48Y148D01*
X237Y148D02*
X243Y148D01*
X743Y148D02*
X749Y148D01*
X937Y148D02*
X943Y148D01*
X976Y148D02*
X983Y148D01*
X0Y147D02*
X7Y147D01*
X42Y147D02*
X48Y147D01*
X237Y147D02*
X243Y147D01*
X743Y147D02*
X749Y147D01*
X937Y147D02*
X943Y147D01*
X976Y147D02*
X983Y147D01*
X0Y146D02*
X7Y146D01*
X42Y146D02*
X48Y146D01*
X66Y146D02*
X73Y146D01*
X87Y146D02*
X94Y146D01*
X105Y146D02*
X107Y146D01*
X188Y146D02*
X191Y146D01*
X198Y146D02*
X199Y146D01*
X203Y146D02*
X206Y146D01*
X217Y146D02*
X223Y146D01*
X237Y146D02*
X243Y146D01*
X743Y146D02*
X749Y146D01*
X937Y146D02*
X943Y146D01*
X976Y146D02*
X983Y146D01*
X0Y145D02*
X7Y145D01*
X42Y145D02*
X48Y145D01*
X63Y145D02*
X73Y145D01*
X83Y145D02*
X94Y145D01*
X105Y145D02*
X107Y145D01*
X187Y145D02*
X192Y145D01*
X197Y145D02*
X199Y145D01*
X202Y145D02*
X207Y145D01*
X215Y145D02*
X225Y145D01*
X237Y145D02*
X243Y145D01*
X743Y145D02*
X749Y145D01*
X937Y145D02*
X943Y145D01*
X976Y145D02*
X983Y145D01*
X0Y144D02*
X7Y144D01*
X42Y144D02*
X48Y144D01*
X61Y144D02*
X73Y144D01*
X82Y144D02*
X94Y144D01*
X104Y144D02*
X108Y144D01*
X190Y144D02*
X193Y144D01*
X197Y144D02*
X199Y144D01*
X201Y144D02*
X203Y144D01*
X206Y144D02*
X208Y144D01*
X214Y144D02*
X217Y144D01*
X223Y144D02*
X226Y144D01*
X237Y144D02*
X243Y144D01*
X743Y144D02*
X749Y144D01*
X937Y144D02*
X943Y144D01*
X976Y144D02*
X983Y144D01*
X0Y143D02*
X7Y143D01*
X42Y143D02*
X48Y143D01*
X60Y143D02*
X63Y143D01*
X72Y143D02*
X73Y143D01*
X81Y143D02*
X83Y143D01*
X92Y143D02*
X94Y143D01*
X104Y143D02*
X108Y143D01*
X191Y143D02*
X193Y143D01*
X197Y143D02*
X201Y143D01*
X207Y143D02*
X208Y143D01*
X213Y143D02*
X215Y143D01*
X224Y143D02*
X227Y143D01*
X237Y143D02*
X243Y143D01*
X743Y143D02*
X749Y143D01*
X937Y143D02*
X943Y143D01*
X976Y143D02*
X983Y143D01*
X0Y142D02*
X7Y142D01*
X42Y142D02*
X48Y142D01*
X59Y142D02*
X62Y142D01*
X72Y142D02*
X73Y142D01*
X80Y142D02*
X82Y142D01*
X92Y142D02*
X94Y142D01*
X104Y142D02*
X108Y142D01*
X191Y142D02*
X193Y142D01*
X197Y142D02*
X200Y142D01*
X207Y142D02*
X208Y142D01*
X212Y142D02*
X215Y142D01*
X225Y142D02*
X227Y142D01*
X237Y142D02*
X243Y142D01*
X743Y142D02*
X749Y142D01*
X937Y142D02*
X943Y142D01*
X976Y142D02*
X983Y142D01*
X0Y141D02*
X7Y141D01*
X42Y141D02*
X48Y141D01*
X59Y141D02*
X61Y141D01*
X72Y141D02*
X73Y141D01*
X80Y141D02*
X82Y141D01*
X92Y141D02*
X94Y141D01*
X103Y141D02*
X105Y141D01*
X107Y141D02*
X109Y141D01*
X191Y141D02*
X193Y141D01*
X197Y141D02*
X199Y141D01*
X207Y141D02*
X209Y141D01*
X212Y141D02*
X214Y141D01*
X226Y141D02*
X228Y141D01*
X237Y141D02*
X243Y141D01*
X743Y141D02*
X749Y141D01*
X937Y141D02*
X943Y141D01*
X976Y141D02*
X983Y141D01*
X0Y140D02*
X7Y140D01*
X42Y140D02*
X48Y140D01*
X58Y140D02*
X60Y140D01*
X72Y140D02*
X73Y140D01*
X79Y140D02*
X81Y140D01*
X92Y140D02*
X94Y140D01*
X103Y140D02*
X105Y140D01*
X107Y140D02*
X109Y140D01*
X191Y140D02*
X193Y140D01*
X197Y140D02*
X199Y140D01*
X207Y140D02*
X209Y140D01*
X212Y140D02*
X214Y140D01*
X226Y140D02*
X228Y140D01*
X237Y140D02*
X243Y140D01*
X743Y140D02*
X749Y140D01*
X937Y140D02*
X943Y140D01*
X976Y140D02*
X983Y140D01*
X0Y139D02*
X7Y139D01*
X42Y139D02*
X48Y139D01*
X58Y139D02*
X60Y139D01*
X72Y139D02*
X73Y139D01*
X79Y139D02*
X81Y139D01*
X92Y139D02*
X94Y139D01*
X103Y139D02*
X104Y139D01*
X108Y139D02*
X110Y139D01*
X191Y139D02*
X193Y139D01*
X197Y139D02*
X199Y139D01*
X207Y139D02*
X209Y139D01*
X211Y139D02*
X213Y139D01*
X226Y139D02*
X229Y139D01*
X237Y139D02*
X243Y139D01*
X743Y139D02*
X749Y139D01*
X937Y139D02*
X943Y139D01*
X976Y139D02*
X983Y139D01*
X0Y138D02*
X7Y138D01*
X42Y138D02*
X48Y138D01*
X58Y138D02*
X60Y138D01*
X72Y138D02*
X73Y138D01*
X79Y138D02*
X81Y138D01*
X92Y138D02*
X94Y138D01*
X102Y138D02*
X104Y138D01*
X108Y138D02*
X110Y138D01*
X191Y138D02*
X193Y138D01*
X197Y138D02*
X199Y138D01*
X207Y138D02*
X209Y138D01*
X211Y138D02*
X213Y138D01*
X227Y138D02*
X229Y138D01*
X237Y138D02*
X243Y138D01*
X743Y138D02*
X749Y138D01*
X937Y138D02*
X943Y138D01*
X976Y138D02*
X983Y138D01*
X0Y137D02*
X7Y137D01*
X42Y137D02*
X48Y137D01*
X58Y137D02*
X60Y137D01*
X72Y137D02*
X73Y137D01*
X79Y137D02*
X81Y137D01*
X92Y137D02*
X94Y137D01*
X102Y137D02*
X103Y137D01*
X108Y137D02*
X110Y137D01*
X191Y137D02*
X193Y137D01*
X197Y137D02*
X199Y137D01*
X207Y137D02*
X209Y137D01*
X211Y137D02*
X213Y137D01*
X227Y137D02*
X229Y137D01*
X237Y137D02*
X243Y137D01*
X743Y137D02*
X749Y137D01*
X937Y137D02*
X943Y137D01*
X976Y137D02*
X983Y137D01*
X0Y136D02*
X7Y136D01*
X42Y136D02*
X48Y136D01*
X58Y136D02*
X60Y136D01*
X72Y136D02*
X73Y136D01*
X78Y136D02*
X80Y136D01*
X92Y136D02*
X94Y136D01*
X102Y136D02*
X103Y136D01*
X109Y136D02*
X111Y136D01*
X191Y136D02*
X193Y136D01*
X197Y136D02*
X199Y136D01*
X207Y136D02*
X209Y136D01*
X211Y136D02*
X213Y136D01*
X227Y136D02*
X229Y136D01*
X237Y136D02*
X243Y136D01*
X743Y136D02*
X749Y136D01*
X937Y136D02*
X943Y136D01*
X976Y136D02*
X983Y136D01*
X0Y135D02*
X7Y135D01*
X42Y135D02*
X48Y135D01*
X58Y135D02*
X60Y135D01*
X72Y135D02*
X73Y135D01*
X78Y135D02*
X80Y135D01*
X92Y135D02*
X94Y135D01*
X101Y135D02*
X103Y135D01*
X109Y135D02*
X111Y135D01*
X191Y135D02*
X193Y135D01*
X197Y135D02*
X199Y135D01*
X207Y135D02*
X209Y135D01*
X211Y135D02*
X213Y135D01*
X227Y135D02*
X229Y135D01*
X237Y135D02*
X243Y135D01*
X743Y135D02*
X749Y135D01*
X937Y135D02*
X943Y135D01*
X976Y135D02*
X983Y135D01*
X0Y134D02*
X7Y134D01*
X42Y134D02*
X48Y134D01*
X58Y134D02*
X60Y134D01*
X72Y134D02*
X73Y134D01*
X79Y134D02*
X81Y134D01*
X92Y134D02*
X94Y134D01*
X101Y134D02*
X102Y134D01*
X110Y134D02*
X111Y134D01*
X191Y134D02*
X193Y134D01*
X197Y134D02*
X199Y134D01*
X207Y134D02*
X209Y134D01*
X211Y134D02*
X213Y134D01*
X227Y134D02*
X229Y134D01*
X237Y134D02*
X243Y134D01*
X743Y134D02*
X749Y134D01*
X937Y134D02*
X943Y134D01*
X976Y134D02*
X983Y134D01*
X0Y133D02*
X7Y133D01*
X42Y133D02*
X48Y133D01*
X58Y133D02*
X60Y133D01*
X72Y133D02*
X73Y133D01*
X79Y133D02*
X81Y133D01*
X92Y133D02*
X94Y133D01*
X100Y133D02*
X102Y133D01*
X110Y133D02*
X112Y133D01*
X187Y133D02*
X195Y133D01*
X197Y133D02*
X199Y133D01*
X207Y133D02*
X209Y133D01*
X211Y133D02*
X213Y133D01*
X226Y133D02*
X228Y133D01*
X237Y133D02*
X243Y133D01*
X743Y133D02*
X749Y133D01*
X937Y133D02*
X943Y133D01*
X976Y133D02*
X983Y133D01*
X0Y132D02*
X7Y132D01*
X42Y132D02*
X48Y132D01*
X58Y132D02*
X60Y132D01*
X72Y132D02*
X73Y132D01*
X79Y132D02*
X81Y132D01*
X92Y132D02*
X94Y132D01*
X100Y132D02*
X102Y132D01*
X110Y132D02*
X112Y132D01*
X187Y132D02*
X195Y132D01*
X197Y132D02*
X199Y132D01*
X207Y132D02*
X209Y132D01*
X212Y132D02*
X214Y132D01*
X226Y132D02*
X228Y132D01*
X237Y132D02*
X243Y132D01*
X743Y132D02*
X749Y132D01*
X937Y132D02*
X943Y132D01*
X976Y132D02*
X983Y132D01*
X0Y131D02*
X7Y131D01*
X42Y131D02*
X48Y131D01*
X59Y131D02*
X61Y131D01*
X72Y131D02*
X73Y131D01*
X79Y131D02*
X82Y131D01*
X92Y131D02*
X94Y131D01*
X100Y131D02*
X101Y131D01*
X111Y131D02*
X113Y131D01*
X191Y131D02*
X193Y131D01*
X212Y131D02*
X214Y131D01*
X226Y131D02*
X228Y131D01*
X237Y131D02*
X243Y131D01*
X743Y131D02*
X749Y131D01*
X937Y131D02*
X943Y131D01*
X976Y131D02*
X983Y131D01*
X0Y130D02*
X7Y130D01*
X42Y130D02*
X48Y130D01*
X59Y130D02*
X62Y130D01*
X72Y130D02*
X73Y130D01*
X80Y130D02*
X83Y130D01*
X92Y130D02*
X94Y130D01*
X99Y130D02*
X101Y130D01*
X111Y130D02*
X113Y130D01*
X191Y130D02*
X193Y130D01*
X212Y130D02*
X215Y130D01*
X225Y130D02*
X227Y130D01*
X237Y130D02*
X243Y130D01*
X743Y130D02*
X749Y130D01*
X937Y130D02*
X943Y130D01*
X976Y130D02*
X983Y130D01*
X0Y129D02*
X7Y129D01*
X42Y129D02*
X48Y129D01*
X60Y129D02*
X63Y129D01*
X72Y129D02*
X73Y129D01*
X81Y129D02*
X84Y129D01*
X92Y129D02*
X94Y129D01*
X99Y129D02*
X100Y129D01*
X112Y129D02*
X113Y129D01*
X191Y129D02*
X193Y129D01*
X213Y129D02*
X216Y129D01*
X224Y129D02*
X227Y129D01*
X237Y129D02*
X243Y129D01*
X743Y129D02*
X749Y129D01*
X937Y129D02*
X943Y129D01*
X976Y129D02*
X983Y129D01*
X0Y128D02*
X7Y128D01*
X42Y128D02*
X48Y128D01*
X61Y128D02*
X73Y128D01*
X82Y128D02*
X94Y128D01*
X99Y128D02*
X100Y128D01*
X112Y128D02*
X114Y128D01*
X214Y128D02*
X218Y128D01*
X222Y128D02*
X226Y128D01*
X237Y128D02*
X243Y128D01*
X743Y128D02*
X749Y128D01*
X937Y128D02*
X943Y128D01*
X976Y128D02*
X983Y128D01*
X0Y127D02*
X7Y127D01*
X42Y127D02*
X48Y127D01*
X112Y127D02*
X114Y127D01*
X237Y127D02*
X243Y127D01*
X743Y127D02*
X749Y127D01*
X937Y127D02*
X943Y127D01*
X976Y127D02*
X983Y127D01*
X0Y126D02*
X7Y126D01*
X42Y126D02*
X48Y126D01*
X237Y126D02*
X243Y126D01*
X743Y126D02*
X749Y126D01*
X937Y126D02*
X943Y126D01*
X976Y126D02*
X983Y126D01*
X0Y125D02*
X7Y125D01*
X42Y125D02*
X48Y125D01*
X237Y125D02*
X243Y125D01*
X743Y125D02*
X749Y125D01*
X937Y125D02*
X943Y125D01*
X976Y125D02*
X983Y125D01*
X0Y124D02*
X7Y124D01*
X42Y124D02*
X48Y124D01*
X237Y124D02*
X243Y124D01*
X743Y124D02*
X749Y124D01*
X920Y124D02*
X921Y124D01*
X937Y124D02*
X943Y124D01*
X976Y124D02*
X983Y124D01*
X0Y123D02*
X7Y123D01*
X42Y123D02*
X48Y123D01*
X237Y123D02*
X243Y123D01*
X743Y123D02*
X749Y123D01*
X765Y123D02*
X774Y123D01*
X785Y123D02*
X795Y123D01*
X806Y123D02*
X808Y123D01*
X888Y123D02*
X892Y123D01*
X898Y123D02*
X900Y123D01*
X903Y123D02*
X908Y123D01*
X917Y123D02*
X925Y123D01*
X937Y123D02*
X943Y123D01*
X976Y123D02*
X983Y123D01*
X0Y122D02*
X7Y122D01*
X42Y122D02*
X48Y122D01*
X237Y122D02*
X243Y122D01*
X743Y122D02*
X749Y122D01*
X763Y122D02*
X774Y122D01*
X783Y122D02*
X795Y122D01*
X805Y122D02*
X808Y122D01*
X888Y122D02*
X893Y122D01*
X898Y122D02*
X900Y122D01*
X902Y122D02*
X909Y122D01*
X915Y122D02*
X926Y122D01*
X937Y122D02*
X943Y122D01*
X976Y122D02*
X983Y122D01*
X0Y121D02*
X7Y121D01*
X42Y121D02*
X48Y121D01*
X237Y121D02*
X243Y121D01*
X743Y121D02*
X749Y121D01*
X761Y121D02*
X765Y121D01*
X772Y121D02*
X774Y121D01*
X782Y121D02*
X786Y121D01*
X793Y121D02*
X795Y121D01*
X805Y121D02*
X809Y121D01*
X891Y121D02*
X893Y121D01*
X898Y121D02*
X903Y121D01*
X907Y121D02*
X909Y121D01*
X914Y121D02*
X917Y121D01*
X924Y121D02*
X927Y121D01*
X937Y121D02*
X943Y121D01*
X976Y121D02*
X983Y121D01*
X0Y120D02*
X7Y120D01*
X42Y120D02*
X48Y120D01*
X237Y120D02*
X243Y120D01*
X743Y120D02*
X749Y120D01*
X760Y120D02*
X763Y120D01*
X772Y120D02*
X774Y120D01*
X781Y120D02*
X784Y120D01*
X793Y120D02*
X795Y120D01*
X805Y120D02*
X809Y120D01*
X892Y120D02*
X894Y120D01*
X898Y120D02*
X901Y120D01*
X907Y120D02*
X909Y120D01*
X913Y120D02*
X916Y120D01*
X926Y120D02*
X928Y120D01*
X937Y120D02*
X943Y120D01*
X976Y120D02*
X983Y120D01*
X0Y119D02*
X7Y119D01*
X42Y119D02*
X48Y119D01*
X237Y119D02*
X243Y119D01*
X743Y119D02*
X749Y119D01*
X760Y119D02*
X762Y119D01*
X772Y119D02*
X774Y119D01*
X781Y119D02*
X783Y119D01*
X793Y119D02*
X795Y119D01*
X804Y119D02*
X806Y119D01*
X808Y119D02*
X809Y119D01*
X892Y119D02*
X894Y119D01*
X898Y119D02*
X900Y119D01*
X908Y119D02*
X909Y119D01*
X913Y119D02*
X915Y119D01*
X926Y119D02*
X928Y119D01*
X937Y119D02*
X943Y119D01*
X976Y119D02*
X983Y119D01*
X0Y118D02*
X7Y118D01*
X42Y118D02*
X48Y118D01*
X237Y118D02*
X243Y118D01*
X743Y118D02*
X749Y118D01*
X759Y118D02*
X761Y118D01*
X772Y118D02*
X774Y118D01*
X780Y118D02*
X782Y118D01*
X793Y118D02*
X795Y118D01*
X804Y118D02*
X805Y118D01*
X808Y118D02*
X810Y118D01*
X892Y118D02*
X894Y118D01*
X898Y118D02*
X900Y118D01*
X908Y118D02*
X909Y118D01*
X913Y118D02*
X915Y118D01*
X927Y118D02*
X929Y118D01*
X937Y118D02*
X943Y118D01*
X976Y118D02*
X983Y118D01*
X0Y117D02*
X7Y117D01*
X42Y117D02*
X48Y117D01*
X237Y117D02*
X243Y117D01*
X743Y117D02*
X749Y117D01*
X759Y117D02*
X761Y117D01*
X772Y117D02*
X774Y117D01*
X780Y117D02*
X782Y117D01*
X793Y117D02*
X795Y117D01*
X804Y117D02*
X805Y117D01*
X808Y117D02*
X810Y117D01*
X892Y117D02*
X894Y117D01*
X898Y117D02*
X900Y117D01*
X908Y117D02*
X909Y117D01*
X912Y117D02*
X914Y117D01*
X927Y117D02*
X929Y117D01*
X937Y117D02*
X943Y117D01*
X976Y117D02*
X983Y117D01*
X0Y116D02*
X7Y116D01*
X42Y116D02*
X48Y116D01*
X237Y116D02*
X243Y116D01*
X743Y116D02*
X749Y116D01*
X759Y116D02*
X761Y116D01*
X772Y116D02*
X774Y116D01*
X779Y116D02*
X781Y116D01*
X793Y116D02*
X795Y116D01*
X803Y116D02*
X805Y116D01*
X809Y116D02*
X811Y116D01*
X892Y116D02*
X894Y116D01*
X898Y116D02*
X900Y116D01*
X908Y116D02*
X909Y116D01*
X912Y116D02*
X914Y116D01*
X927Y116D02*
X929Y116D01*
X937Y116D02*
X943Y116D01*
X976Y116D02*
X983Y116D01*
X0Y115D02*
X7Y115D01*
X42Y115D02*
X48Y115D01*
X237Y115D02*
X243Y115D01*
X743Y115D02*
X749Y115D01*
X759Y115D02*
X761Y115D01*
X772Y115D02*
X774Y115D01*
X779Y115D02*
X781Y115D01*
X793Y115D02*
X795Y115D01*
X803Y115D02*
X804Y115D01*
X809Y115D02*
X811Y115D01*
X892Y115D02*
X894Y115D01*
X898Y115D02*
X900Y115D01*
X908Y115D02*
X909Y115D01*
X912Y115D02*
X914Y115D01*
X927Y115D02*
X929Y115D01*
X937Y115D02*
X943Y115D01*
X976Y115D02*
X983Y115D01*
X0Y114D02*
X7Y114D01*
X42Y114D02*
X48Y114D01*
X237Y114D02*
X243Y114D01*
X743Y114D02*
X749Y114D01*
X758Y114D02*
X760Y114D01*
X772Y114D02*
X774Y114D01*
X779Y114D02*
X781Y114D01*
X793Y114D02*
X795Y114D01*
X802Y114D02*
X804Y114D01*
X809Y114D02*
X811Y114D01*
X892Y114D02*
X894Y114D01*
X898Y114D02*
X900Y114D01*
X908Y114D02*
X909Y114D01*
X912Y114D02*
X914Y114D01*
X928Y114D02*
X930Y114D01*
X937Y114D02*
X943Y114D01*
X976Y114D02*
X983Y114D01*
X0Y113D02*
X7Y113D01*
X42Y113D02*
X48Y113D01*
X237Y113D02*
X243Y113D01*
X743Y113D02*
X749Y113D01*
X758Y113D02*
X760Y113D01*
X772Y113D02*
X774Y113D01*
X779Y113D02*
X781Y113D01*
X793Y113D02*
X795Y113D01*
X802Y113D02*
X804Y113D01*
X810Y113D02*
X812Y113D01*
X892Y113D02*
X894Y113D01*
X898Y113D02*
X900Y113D01*
X908Y113D02*
X909Y113D01*
X912Y113D02*
X914Y113D01*
X928Y113D02*
X930Y113D01*
X937Y113D02*
X943Y113D01*
X976Y113D02*
X983Y113D01*
X0Y112D02*
X7Y112D01*
X42Y112D02*
X48Y112D01*
X237Y112D02*
X243Y112D01*
X743Y112D02*
X749Y112D01*
X758Y112D02*
X760Y112D01*
X772Y112D02*
X774Y112D01*
X779Y112D02*
X781Y112D01*
X793Y112D02*
X795Y112D01*
X802Y112D02*
X803Y112D01*
X810Y112D02*
X812Y112D01*
X892Y112D02*
X894Y112D01*
X898Y112D02*
X900Y112D01*
X908Y112D02*
X909Y112D01*
X912Y112D02*
X914Y112D01*
X927Y112D02*
X929Y112D01*
X937Y112D02*
X943Y112D01*
X976Y112D02*
X983Y112D01*
X0Y111D02*
X7Y111D01*
X42Y111D02*
X48Y111D01*
X237Y111D02*
X243Y111D01*
X743Y111D02*
X749Y111D01*
X759Y111D02*
X761Y111D01*
X772Y111D02*
X774Y111D01*
X779Y111D02*
X781Y111D01*
X793Y111D02*
X795Y111D01*
X801Y111D02*
X803Y111D01*
X811Y111D02*
X812Y111D01*
X892Y111D02*
X894Y111D01*
X898Y111D02*
X900Y111D01*
X908Y111D02*
X909Y111D01*
X912Y111D02*
X914Y111D01*
X927Y111D02*
X929Y111D01*
X937Y111D02*
X943Y111D01*
X976Y111D02*
X983Y111D01*
X0Y110D02*
X7Y110D01*
X42Y110D02*
X48Y110D01*
X237Y110D02*
X243Y110D01*
X743Y110D02*
X749Y110D01*
X759Y110D02*
X761Y110D01*
X772Y110D02*
X774Y110D01*
X780Y110D02*
X782Y110D01*
X793Y110D02*
X795Y110D01*
X801Y110D02*
X803Y110D01*
X811Y110D02*
X813Y110D01*
X888Y110D02*
X896Y110D01*
X898Y110D02*
X900Y110D01*
X908Y110D02*
X909Y110D01*
X912Y110D02*
X914Y110D01*
X927Y110D02*
X929Y110D01*
X937Y110D02*
X943Y110D01*
X976Y110D02*
X983Y110D01*
X0Y109D02*
X7Y109D01*
X42Y109D02*
X48Y109D01*
X237Y109D02*
X243Y109D01*
X743Y109D02*
X749Y109D01*
X759Y109D02*
X761Y109D01*
X772Y109D02*
X774Y109D01*
X780Y109D02*
X782Y109D01*
X793Y109D02*
X795Y109D01*
X801Y109D02*
X802Y109D01*
X811Y109D02*
X813Y109D01*
X888Y109D02*
X895Y109D01*
X898Y109D02*
X900Y109D01*
X908Y109D02*
X909Y109D01*
X913Y109D02*
X915Y109D01*
X927Y109D02*
X929Y109D01*
X937Y109D02*
X943Y109D01*
X976Y109D02*
X983Y109D01*
X0Y108D02*
X7Y108D01*
X42Y108D02*
X48Y108D01*
X237Y108D02*
X243Y108D01*
X743Y108D02*
X749Y108D01*
X759Y108D02*
X762Y108D01*
X772Y108D02*
X774Y108D01*
X780Y108D02*
X783Y108D01*
X793Y108D02*
X795Y108D01*
X800Y108D02*
X802Y108D01*
X812Y108D02*
X814Y108D01*
X892Y108D02*
X894Y108D01*
X913Y108D02*
X915Y108D01*
X926Y108D02*
X928Y108D01*
X937Y108D02*
X943Y108D01*
X976Y108D02*
X983Y108D01*
X0Y107D02*
X7Y107D01*
X42Y107D02*
X48Y107D01*
X237Y107D02*
X243Y107D01*
X743Y107D02*
X749Y107D01*
X760Y107D02*
X763Y107D01*
X772Y107D02*
X774Y107D01*
X781Y107D02*
X784Y107D01*
X793Y107D02*
X795Y107D01*
X800Y107D02*
X801Y107D01*
X812Y107D02*
X814Y107D01*
X892Y107D02*
X894Y107D01*
X914Y107D02*
X916Y107D01*
X926Y107D02*
X928Y107D01*
X937Y107D02*
X943Y107D01*
X976Y107D02*
X983Y107D01*
X0Y106D02*
X7Y106D01*
X42Y106D02*
X48Y106D01*
X237Y106D02*
X243Y106D01*
X743Y106D02*
X749Y106D01*
X761Y106D02*
X765Y106D01*
X772Y106D02*
X774Y106D01*
X782Y106D02*
X786Y106D01*
X793Y106D02*
X795Y106D01*
X800Y106D02*
X801Y106D01*
X812Y106D02*
X814Y106D01*
X892Y106D02*
X892Y106D01*
X914Y106D02*
X917Y106D01*
X924Y106D02*
X927Y106D01*
X937Y106D02*
X943Y106D01*
X976Y106D02*
X983Y106D01*
X0Y105D02*
X7Y105D01*
X42Y105D02*
X48Y105D01*
X237Y105D02*
X243Y105D01*
X743Y105D02*
X749Y105D01*
X813Y105D02*
X815Y105D01*
X937Y105D02*
X943Y105D01*
X976Y105D02*
X983Y105D01*
X0Y104D02*
X7Y104D01*
X42Y104D02*
X48Y104D01*
X237Y104D02*
X243Y104D01*
X743Y104D02*
X749Y104D01*
X813Y104D02*
X815Y104D01*
X937Y104D02*
X943Y104D01*
X976Y104D02*
X983Y104D01*
X0Y103D02*
X7Y103D01*
X42Y103D02*
X48Y103D01*
X237Y103D02*
X243Y103D01*
X743Y103D02*
X749Y103D01*
X937Y103D02*
X943Y103D01*
X976Y103D02*
X983Y103D01*
X0Y102D02*
X7Y102D01*
X42Y102D02*
X48Y102D01*
X237Y102D02*
X243Y102D01*
X743Y102D02*
X749Y102D01*
X937Y102D02*
X943Y102D01*
X976Y102D02*
X983Y102D01*
X0Y101D02*
X7Y101D01*
X42Y101D02*
X48Y101D01*
X237Y101D02*
X243Y101D01*
X743Y101D02*
X749Y101D01*
X937Y101D02*
X943Y101D01*
X976Y101D02*
X983Y101D01*
X0Y100D02*
X7Y100D01*
X42Y100D02*
X48Y100D01*
X237Y100D02*
X243Y100D01*
X743Y100D02*
X749Y100D01*
X937Y100D02*
X943Y100D01*
X976Y100D02*
X983Y100D01*
X0Y99D02*
X7Y99D01*
X42Y99D02*
X48Y99D01*
X237Y99D02*
X243Y99D01*
X743Y99D02*
X749Y99D01*
X937Y99D02*
X943Y99D01*
X976Y99D02*
X983Y99D01*
X0Y98D02*
X7Y98D01*
X42Y98D02*
X48Y98D01*
X237Y98D02*
X243Y98D01*
X743Y98D02*
X749Y98D01*
X937Y98D02*
X943Y98D01*
X976Y98D02*
X983Y98D01*
X0Y97D02*
X7Y97D01*
X42Y97D02*
X48Y97D01*
X237Y97D02*
X243Y97D01*
X743Y97D02*
X749Y97D01*
X937Y97D02*
X943Y97D01*
X976Y97D02*
X983Y97D01*
X0Y96D02*
X7Y96D01*
X42Y96D02*
X48Y96D01*
X237Y96D02*
X243Y96D01*
X743Y96D02*
X749Y96D01*
X937Y96D02*
X943Y96D01*
X976Y96D02*
X983Y96D01*
X0Y95D02*
X7Y95D01*
X42Y95D02*
X48Y95D01*
X237Y95D02*
X243Y95D01*
X743Y95D02*
X749Y95D01*
X937Y95D02*
X943Y95D01*
X976Y95D02*
X983Y95D01*
X0Y94D02*
X7Y94D01*
X42Y94D02*
X48Y94D01*
X237Y94D02*
X243Y94D01*
X743Y94D02*
X749Y94D01*
X937Y94D02*
X943Y94D01*
X976Y94D02*
X983Y94D01*
X0Y93D02*
X7Y93D01*
X42Y93D02*
X48Y93D01*
X237Y93D02*
X243Y93D01*
X743Y93D02*
X749Y93D01*
X937Y93D02*
X943Y93D01*
X976Y93D02*
X983Y93D01*
X0Y92D02*
X7Y92D01*
X42Y92D02*
X55Y92D01*
X236Y92D02*
X243Y92D01*
X743Y92D02*
X749Y92D01*
X937Y92D02*
X943Y92D01*
X976Y92D02*
X983Y92D01*
X0Y91D02*
X7Y91D01*
X42Y91D02*
X55Y91D01*
X106Y91D02*
X185Y91D01*
X236Y91D02*
X243Y91D01*
X743Y91D02*
X749Y91D01*
X937Y91D02*
X943Y91D01*
X976Y91D02*
X983Y91D01*
X0Y90D02*
X7Y90D01*
X42Y90D02*
X55Y90D01*
X106Y90D02*
X185Y90D01*
X236Y90D02*
X243Y90D01*
X743Y90D02*
X749Y90D01*
X937Y90D02*
X943Y90D01*
X976Y90D02*
X983Y90D01*
X0Y89D02*
X7Y89D01*
X42Y89D02*
X55Y89D01*
X106Y89D02*
X185Y89D01*
X236Y89D02*
X243Y89D01*
X743Y89D02*
X749Y89D01*
X937Y89D02*
X943Y89D01*
X976Y89D02*
X983Y89D01*
X0Y88D02*
X7Y88D01*
X42Y88D02*
X55Y88D01*
X106Y88D02*
X185Y88D01*
X236Y88D02*
X243Y88D01*
X743Y88D02*
X749Y88D01*
X937Y88D02*
X943Y88D01*
X976Y88D02*
X983Y88D01*
X0Y87D02*
X7Y87D01*
X42Y87D02*
X55Y87D01*
X106Y87D02*
X185Y87D01*
X236Y87D02*
X243Y87D01*
X743Y87D02*
X749Y87D01*
X937Y87D02*
X943Y87D01*
X976Y87D02*
X983Y87D01*
X0Y86D02*
X7Y86D01*
X42Y86D02*
X55Y86D01*
X106Y86D02*
X185Y86D01*
X236Y86D02*
X243Y86D01*
X743Y86D02*
X749Y86D01*
X937Y86D02*
X943Y86D01*
X976Y86D02*
X983Y86D01*
X0Y85D02*
X7Y85D01*
X43Y85D02*
X55Y85D01*
X106Y85D02*
X185Y85D01*
X236Y85D02*
X242Y85D01*
X743Y85D02*
X749Y85D01*
X937Y85D02*
X943Y85D01*
X976Y85D02*
X983Y85D01*
X0Y84D02*
X7Y84D01*
X743Y84D02*
X749Y84D01*
X937Y84D02*
X943Y84D01*
X976Y84D02*
X983Y84D01*
X0Y83D02*
X7Y83D01*
X743Y83D02*
X749Y83D01*
X937Y83D02*
X943Y83D01*
X976Y83D02*
X983Y83D01*
X0Y82D02*
X7Y82D01*
X743Y82D02*
X749Y82D01*
X937Y82D02*
X943Y82D01*
X976Y82D02*
X983Y82D01*
X0Y81D02*
X7Y81D01*
X743Y81D02*
X749Y81D01*
X937Y81D02*
X943Y81D01*
X976Y81D02*
X983Y81D01*
X0Y80D02*
X7Y80D01*
X743Y80D02*
X749Y80D01*
X937Y80D02*
X943Y80D01*
X976Y80D02*
X983Y80D01*
X0Y79D02*
X7Y79D01*
X743Y79D02*
X749Y79D01*
X937Y79D02*
X943Y79D01*
X976Y79D02*
X983Y79D01*
X0Y78D02*
X7Y78D01*
X743Y78D02*
X749Y78D01*
X937Y78D02*
X943Y78D01*
X976Y78D02*
X983Y78D01*
X0Y77D02*
X7Y77D01*
X743Y77D02*
X749Y77D01*
X937Y77D02*
X943Y77D01*
X976Y77D02*
X983Y77D01*
X0Y76D02*
X7Y76D01*
X743Y76D02*
X749Y76D01*
X937Y76D02*
X943Y76D01*
X976Y76D02*
X983Y76D01*
X0Y75D02*
X7Y75D01*
X743Y75D02*
X749Y75D01*
X937Y75D02*
X943Y75D01*
X976Y75D02*
X983Y75D01*
X0Y74D02*
X7Y74D01*
X743Y74D02*
X749Y74D01*
X937Y74D02*
X943Y74D01*
X976Y74D02*
X983Y74D01*
X0Y73D02*
X7Y73D01*
X743Y73D02*
X749Y73D01*
X937Y73D02*
X943Y73D01*
X976Y73D02*
X983Y73D01*
X0Y72D02*
X7Y72D01*
X743Y72D02*
X749Y72D01*
X937Y72D02*
X943Y72D01*
X976Y72D02*
X983Y72D01*
X0Y71D02*
X7Y71D01*
X743Y71D02*
X749Y71D01*
X937Y71D02*
X943Y71D01*
X976Y71D02*
X983Y71D01*
X0Y70D02*
X7Y70D01*
X743Y70D02*
X749Y70D01*
X937Y70D02*
X943Y70D01*
X976Y70D02*
X983Y70D01*
X0Y69D02*
X7Y69D01*
X743Y69D02*
X756Y69D01*
X807Y69D02*
X886Y69D01*
X937Y69D02*
X943Y69D01*
X976Y69D02*
X983Y69D01*
X0Y68D02*
X7Y68D01*
X743Y68D02*
X756Y68D01*
X807Y68D02*
X886Y68D01*
X937Y68D02*
X943Y68D01*
X976Y68D02*
X983Y68D01*
X0Y67D02*
X7Y67D01*
X743Y67D02*
X756Y67D01*
X807Y67D02*
X886Y67D01*
X937Y67D02*
X943Y67D01*
X976Y67D02*
X983Y67D01*
X0Y66D02*
X7Y66D01*
X743Y66D02*
X756Y66D01*
X807Y66D02*
X886Y66D01*
X937Y66D02*
X943Y66D01*
X976Y66D02*
X983Y66D01*
X0Y65D02*
X7Y65D01*
X743Y65D02*
X756Y65D01*
X807Y65D02*
X886Y65D01*
X937Y65D02*
X943Y65D01*
X976Y65D02*
X983Y65D01*
X0Y64D02*
X7Y64D01*
X743Y64D02*
X756Y64D01*
X807Y64D02*
X886Y64D01*
X937Y64D02*
X943Y64D01*
X976Y64D02*
X983Y64D01*
X0Y63D02*
X7Y63D01*
X743Y63D02*
X756Y63D01*
X807Y63D02*
X886Y63D01*
X937Y63D02*
X943Y63D01*
X976Y63D02*
X983Y63D01*
X0Y62D02*
X7Y62D01*
X976Y62D02*
X983Y62D01*
X0Y61D02*
X7Y61D01*
X976Y61D02*
X983Y61D01*
X0Y60D02*
X7Y60D01*
X976Y60D02*
X983Y60D01*
X0Y59D02*
X7Y59D01*
X976Y59D02*
X983Y59D01*
X0Y58D02*
X7Y58D01*
X976Y58D02*
X983Y58D01*
X0Y57D02*
X7Y57D01*
X976Y57D02*
X983Y57D01*
X0Y56D02*
X7Y56D01*
X976Y56D02*
X983Y56D01*
X0Y55D02*
X7Y55D01*
X976Y55D02*
X983Y55D01*
X0Y54D02*
X7Y54D01*
X976Y54D02*
X983Y54D01*
X0Y53D02*
X7Y53D01*
X976Y53D02*
X983Y53D01*
X0Y52D02*
X7Y52D01*
X976Y52D02*
X983Y52D01*
X0Y51D02*
X7Y51D01*
X976Y51D02*
X983Y51D01*
X0Y50D02*
X7Y50D01*
X976Y50D02*
X983Y50D01*
X0Y49D02*
X7Y49D01*
X976Y49D02*
X983Y49D01*
X0Y48D02*
X7Y48D01*
X976Y48D02*
X983Y48D01*
X0Y47D02*
X7Y47D01*
X976Y47D02*
X983Y47D01*
X0Y46D02*
X7Y46D01*
X976Y46D02*
X983Y46D01*
X0Y45D02*
X7Y45D01*
X976Y45D02*
X983Y45D01*
X0Y44D02*
X7Y44D01*
X976Y44D02*
X983Y44D01*
X0Y43D02*
X7Y43D01*
X976Y43D02*
X983Y43D01*
X0Y42D02*
X7Y42D01*
X976Y42D02*
X983Y42D01*
X0Y41D02*
X7Y41D01*
X976Y41D02*
X983Y41D01*
X0Y40D02*
X7Y40D01*
X976Y40D02*
X983Y40D01*
X0Y39D02*
X7Y39D01*
X976Y39D02*
X983Y39D01*
X0Y38D02*
X7Y38D01*
X976Y38D02*
X983Y38D01*
X0Y37D02*
X7Y37D01*
X976Y37D02*
X983Y37D01*
X0Y36D02*
X7Y36D01*
X976Y36D02*
X983Y36D01*
X0Y35D02*
X7Y35D01*
X976Y35D02*
X983Y35D01*
X0Y34D02*
X7Y34D01*
X976Y34D02*
X983Y34D01*
X0Y33D02*
X7Y33D01*
X976Y33D02*
X983Y33D01*
X0Y32D02*
X7Y32D01*
X976Y32D02*
X983Y32D01*
X0Y31D02*
X7Y31D01*
X976Y31D02*
X983Y31D01*
X0Y30D02*
X7Y30D01*
X976Y30D02*
X983Y30D01*
X0Y29D02*
X7Y29D01*
X976Y29D02*
X983Y29D01*
X0Y28D02*
X7Y28D01*
X976Y28D02*
X983Y28D01*
X0Y27D02*
X7Y27D01*
X976Y27D02*
X983Y27D01*
X0Y26D02*
X7Y26D01*
X976Y26D02*
X983Y26D01*
X0Y25D02*
X7Y25D01*
X976Y25D02*
X983Y25D01*
X0Y24D02*
X7Y24D01*
X976Y24D02*
X983Y24D01*
X0Y23D02*
X7Y23D01*
X976Y23D02*
X983Y23D01*
X0Y22D02*
X7Y22D01*
X976Y22D02*
X983Y22D01*
X0Y21D02*
X7Y21D01*
X976Y21D02*
X983Y21D01*
X0Y20D02*
X7Y20D01*
X976Y20D02*
X983Y20D01*
X0Y19D02*
X7Y19D01*
X976Y19D02*
X983Y19D01*
X0Y18D02*
X7Y18D01*
X976Y18D02*
X983Y18D01*
X0Y17D02*
X7Y17D01*
X976Y17D02*
X983Y17D01*
X0Y16D02*
X7Y16D01*
X976Y16D02*
X983Y16D01*
X0Y15D02*
X7Y15D01*
X976Y15D02*
X983Y15D01*
X0Y14D02*
X7Y14D01*
X976Y14D02*
X983Y14D01*
X0Y13D02*
X7Y13D01*
X976Y13D02*
X983Y13D01*
X0Y12D02*
X7Y12D01*
X976Y12D02*
X983Y12D01*
X0Y11D02*
X7Y11D01*
X976Y11D02*
X983Y11D01*
X0Y10D02*
X7Y10D01*
X976Y10D02*
X983Y10D01*
X0Y9D02*
X7Y9D01*
X976Y9D02*
X983Y9D01*
X0Y8D02*
X983Y8D01*
X0Y7D02*
X983Y7D01*
X0Y6D02*
X983Y6D01*
X0Y5D02*
X983Y5D01*
X0Y4D02*
X983Y4D01*
X0Y3D02*
X983Y3D01*
X0Y2D02*
X983Y2D01*
X0Y1D02*
X983Y1D01*
D02*
G04 End of Silk1*
M02*