G04 MADE WITH FRITZING*
G04 WWW.FRITZING.ORG*
G04 DOUBLE SIDED*
G04 HOLES PLATED*
G04 CONTOUR ON CENTER OF CONTOUR VECTOR*
%ASAXBY*%
%FSLAX23Y23*%
%MOIN*%
%OFA0B0*%
%SFA1.0B1.0*%
%ADD10C,0.071181*%
%ADD11C,0.075000*%
%ADD12R,0.075000X0.075000*%
%ADD13R,0.040236X0.067069*%
%ADD14R,0.040222X0.067069*%
%ADD15R,0.040236X0.067083*%
%ADD16R,0.040222X0.067056*%
%ADD17C,0.024000*%
%ADD18C,0.012000*%
%LNCOPPER1*%
G90*
G70*
G54D10*
X495Y95D03*
X495Y882D03*
X495Y95D03*
X495Y882D03*
X495Y95D03*
X495Y882D03*
G54D11*
X344Y640D03*
X644Y640D03*
X344Y540D03*
X644Y540D03*
X344Y440D03*
X644Y440D03*
X344Y340D03*
X644Y340D03*
X743Y349D03*
X743Y605D03*
X921Y349D03*
X921Y605D03*
X59Y369D03*
X59Y625D03*
X236Y369D03*
X236Y625D03*
X621Y71D03*
X366Y71D03*
X621Y248D03*
X366Y248D03*
X367Y913D03*
X623Y913D03*
X367Y735D03*
X623Y735D03*
G54D12*
X344Y640D03*
G54D13*
X777Y913D03*
G54D14*
X907Y913D03*
G54D15*
X777Y720D03*
G54D16*
X907Y720D03*
G54D13*
X782Y259D03*
G54D14*
X912Y259D03*
G54D15*
X782Y66D03*
G54D16*
X912Y66D03*
G54D13*
X81Y282D03*
G54D14*
X211Y282D03*
G54D15*
X81Y89D03*
G54D16*
X211Y89D03*
G54D13*
X77Y906D03*
G54D14*
X207Y907D03*
G54D15*
X77Y714D03*
G54D16*
X207Y714D03*
G54D17*
X685Y260D02*
X657Y314D01*
D02*
X768Y259D02*
X685Y260D01*
G54D18*
D02*
X23Y282D02*
X23Y14D01*
D02*
X23Y14D02*
X910Y14D01*
D02*
X910Y14D02*
X911Y38D01*
D02*
X67Y282D02*
X23Y282D01*
D02*
X139Y907D02*
X162Y98D01*
D02*
X92Y907D02*
X139Y907D01*
D02*
X162Y98D02*
X197Y92D01*
D02*
X167Y967D02*
X167Y709D01*
D02*
X167Y709D02*
X192Y712D01*
D02*
X778Y941D02*
X779Y967D01*
D02*
X779Y967D02*
X167Y967D01*
G54D17*
D02*
X228Y341D02*
X219Y310D01*
D02*
X839Y314D02*
X898Y270D01*
D02*
X770Y339D02*
X839Y314D01*
D02*
X347Y756D02*
X222Y891D01*
D02*
X848Y913D02*
X892Y913D01*
D02*
X848Y349D02*
X848Y913D01*
D02*
X772Y349D02*
X848Y349D01*
D02*
X541Y168D02*
X782Y168D01*
D02*
X541Y640D02*
X541Y168D01*
D02*
X615Y640D02*
X541Y640D01*
D02*
X782Y168D02*
X782Y94D01*
D02*
X762Y711D02*
X668Y655D01*
G54D18*
D02*
X118Y100D02*
X96Y93D01*
D02*
X118Y714D02*
X118Y100D01*
D02*
X92Y714D02*
X118Y714D01*
D02*
X442Y640D02*
X621Y640D01*
D02*
X287Y52D02*
X283Y151D01*
D02*
X442Y151D02*
X442Y640D01*
D02*
X254Y41D02*
X287Y52D01*
D02*
X283Y151D02*
X442Y151D01*
D02*
X96Y72D02*
X122Y41D01*
D02*
X210Y35D02*
X254Y41D01*
D02*
X122Y41D02*
X210Y35D01*
G04 End of Copper1*
M02*