; NON-PLATED HOLES START AT T1
; THROUGH (PLATED) HOLES START AT T100
M48
INCH
T100C0.035000
T101C0.051181
%
T100
X006225Y009125
X006438Y005398
X000592Y003686
X006214Y000709
X007434Y003492
X002364Y003686
X003666Y007353
X003438Y006398
X003438Y003398
X006438Y004398
X003655Y002481
X003666Y009125
X009206Y006051
X003655Y000709
X003438Y005398
X006438Y006398
X006438Y003398
X000592Y006245
X006225Y007353
X009206Y003492
X007434Y006051
X002364Y006245
X006214Y002481
X003438Y004398
T101
X004951Y000946
X004951Y008820
T00
M30
