G04 MADE WITH FRITZING*
G04 WWW.FRITZING.ORG*
G04 DOUBLE SIDED*
G04 HOLES PLATED*
G04 CONTOUR ON CENTER OF CONTOUR VECTOR*
%ASAXBY*%
%FSLAX23Y23*%
%MOIN*%
%OFA0B0*%
%SFA1.0B1.0*%
%ADD10C,0.071181*%
%ADD11C,0.075000*%
%ADD12R,0.075000X0.075000*%
%ADD13C,0.024000*%
%LNCOPPER0*%
G90*
G70*
G54D10*
X495Y95D03*
X495Y882D03*
X495Y95D03*
X495Y882D03*
X495Y95D03*
X495Y882D03*
G54D11*
X344Y640D03*
X644Y640D03*
X344Y540D03*
X644Y540D03*
X344Y440D03*
X644Y440D03*
X344Y340D03*
X644Y340D03*
X621Y71D03*
X366Y71D03*
X621Y248D03*
X366Y248D03*
X59Y369D03*
X59Y625D03*
X236Y369D03*
X236Y625D03*
X743Y349D03*
X743Y605D03*
X921Y349D03*
X921Y605D03*
X367Y913D03*
X623Y913D03*
X367Y735D03*
X623Y735D03*
G54D12*
X344Y640D03*
G54D13*
X495Y340D02*
X495Y131D01*
D02*
X372Y340D02*
X495Y340D01*
D02*
X615Y640D02*
X495Y640D01*
D02*
X495Y640D02*
X495Y845D01*
D02*
X494Y170D02*
X743Y170D01*
D02*
X743Y170D02*
X743Y321D01*
D02*
X494Y131D02*
X494Y170D01*
D02*
X316Y347D02*
X264Y361D01*
D02*
X451Y340D02*
X451Y735D01*
D02*
X451Y735D02*
X395Y735D01*
D02*
X372Y340D02*
X451Y340D01*
D02*
X350Y312D02*
X359Y276D01*
D02*
X672Y540D02*
X942Y540D01*
D02*
X942Y540D02*
X930Y578D01*
D02*
X856Y437D02*
X856Y106D01*
D02*
X856Y106D02*
X622Y106D01*
D02*
X672Y439D02*
X856Y437D01*
D02*
X622Y106D02*
X622Y100D01*
D02*
X124Y540D02*
X124Y855D01*
D02*
X124Y855D02*
X367Y855D01*
D02*
X315Y540D02*
X124Y540D01*
D02*
X367Y855D02*
X367Y884D01*
D02*
X59Y440D02*
X315Y440D01*
D02*
X59Y397D02*
X59Y440D01*
G04 End of Copper0*
M02*