; NON-PLATED HOLES START AT T1
; THROUGH (PLATED) HOLES START AT T100
M48
INCH
T100C0.040000
T101C0.051181
T102C0.038000
T103C0.035000
T104C0.015748
%
T100
X002348Y001915
X003280Y004442
X002348Y004475
X005060Y001882
X005060Y004442
X000568Y004475
X003280Y001882
X000568Y001915
T101
X004951Y008820
X004951Y000946
T102
X009174Y009184
X002635Y000611
X009174Y007184
X001635Y000611
X000635Y000611
X009174Y008184
T103
X009143Y002715
X006143Y001715
X006143Y000715
X006143Y003715
X009143Y001715
X009143Y000715
X006143Y002715
X009143Y003715
T104
X006151Y006220
X005216Y005818
X002557Y006523
T00
M30
