G04 MADE WITH FRITZING*
G04 WWW.FRITZING.ORG*
G04 DOUBLE SIDED*
G04 HOLES PLATED*
G04 CONTOUR ON CENTER OF CONTOUR VECTOR*
%ASAXBY*%
%FSLAX23Y23*%
%MOIN*%
%OFA0B0*%
%SFA1.0B1.0*%
%ADD10C,0.148000X0.132*%
%ADD11C,0.035590X0.0155904*%
%ADD12C,0.010000*%
%ADD13C,0.008000*%
%ADD14C,0.006000*%
%ADD15R,0.001000X0.001000*%
%LNSILK1*%
G90*
G70*
G54D10*
X146Y320D03*
X417Y316D03*
G54D11*
X105Y694D03*
X400Y686D03*
G54D12*
X564Y422D02*
X564Y22D01*
D02*
X564Y22D02*
X964Y22D01*
D02*
X964Y22D02*
X964Y422D01*
D02*
X564Y422D02*
X714Y422D01*
D02*
X814Y422D02*
X964Y422D01*
D02*
X867Y968D02*
X867Y668D01*
D02*
X867Y668D02*
X967Y668D01*
D02*
X967Y668D02*
X967Y968D01*
D02*
X967Y968D02*
X867Y968D01*
G54D13*
D02*
X266Y235D02*
X266Y405D01*
D02*
X26Y405D02*
X26Y235D01*
D02*
X185Y200D02*
X106Y200D01*
D02*
X186Y440D02*
X106Y440D01*
D02*
X537Y231D02*
X537Y401D01*
D02*
X297Y401D02*
X297Y231D01*
D02*
X456Y196D02*
X377Y196D01*
D02*
X458Y436D02*
X377Y436D01*
G54D12*
D02*
X14Y11D02*
X314Y11D01*
D02*
X314Y11D02*
X314Y111D01*
D02*
X314Y111D02*
X14Y111D01*
D02*
X14Y111D02*
X14Y11D01*
G54D14*
D02*
X167Y724D02*
X264Y724D01*
D02*
X264Y607D02*
X167Y607D01*
D02*
X158Y714D02*
X158Y617D01*
D02*
X31Y727D02*
X128Y727D01*
D02*
X128Y610D02*
X31Y610D01*
D02*
X138Y620D02*
X138Y717D01*
D02*
X21Y717D02*
X21Y620D01*
D02*
X325Y719D02*
X422Y719D01*
D02*
X422Y602D02*
X325Y602D01*
D02*
X432Y612D02*
X432Y709D01*
D02*
X316Y709D02*
X316Y612D01*
G54D15*
X0Y984D02*
X983Y984D01*
X0Y983D02*
X983Y983D01*
X0Y982D02*
X983Y982D01*
X0Y981D02*
X983Y981D01*
X0Y980D02*
X983Y980D01*
X0Y979D02*
X983Y979D01*
X0Y978D02*
X983Y978D01*
X0Y977D02*
X983Y977D01*
X0Y976D02*
X7Y976D01*
X976Y976D02*
X983Y976D01*
X0Y975D02*
X7Y975D01*
X976Y975D02*
X983Y975D01*
X0Y974D02*
X7Y974D01*
X976Y974D02*
X983Y974D01*
X0Y973D02*
X7Y973D01*
X976Y973D02*
X983Y973D01*
X0Y972D02*
X7Y972D01*
X976Y972D02*
X983Y972D01*
X0Y971D02*
X7Y971D01*
X976Y971D02*
X983Y971D01*
X0Y970D02*
X7Y970D01*
X900Y970D02*
X900Y970D01*
X976Y970D02*
X983Y970D01*
X0Y969D02*
X7Y969D01*
X899Y969D02*
X901Y969D01*
X976Y969D02*
X983Y969D01*
X0Y968D02*
X7Y968D01*
X898Y968D02*
X902Y968D01*
X976Y968D02*
X983Y968D01*
X0Y967D02*
X7Y967D01*
X897Y967D02*
X903Y967D01*
X976Y967D02*
X983Y967D01*
X0Y966D02*
X7Y966D01*
X896Y966D02*
X902Y966D01*
X976Y966D02*
X983Y966D01*
X0Y965D02*
X7Y965D01*
X895Y965D02*
X901Y965D01*
X976Y965D02*
X983Y965D01*
X0Y964D02*
X7Y964D01*
X830Y964D02*
X833Y964D01*
X894Y964D02*
X900Y964D01*
X976Y964D02*
X983Y964D01*
X0Y963D02*
X7Y963D01*
X826Y963D02*
X836Y963D01*
X893Y963D02*
X899Y963D01*
X976Y963D02*
X983Y963D01*
X0Y962D02*
X7Y962D01*
X824Y962D02*
X839Y962D01*
X892Y962D02*
X898Y962D01*
X976Y962D02*
X983Y962D01*
X0Y961D02*
X7Y961D01*
X822Y961D02*
X841Y961D01*
X891Y961D02*
X897Y961D01*
X976Y961D02*
X983Y961D01*
X0Y960D02*
X7Y960D01*
X820Y960D02*
X843Y960D01*
X890Y960D02*
X896Y960D01*
X976Y960D02*
X983Y960D01*
X0Y959D02*
X7Y959D01*
X818Y959D02*
X845Y959D01*
X889Y959D02*
X895Y959D01*
X976Y959D02*
X983Y959D01*
X0Y958D02*
X7Y958D01*
X816Y958D02*
X847Y958D01*
X888Y958D02*
X894Y958D01*
X976Y958D02*
X983Y958D01*
X0Y957D02*
X7Y957D01*
X814Y957D02*
X830Y957D01*
X833Y957D02*
X849Y957D01*
X887Y957D02*
X893Y957D01*
X976Y957D02*
X983Y957D01*
X0Y956D02*
X7Y956D01*
X812Y956D02*
X826Y956D01*
X836Y956D02*
X851Y956D01*
X886Y956D02*
X892Y956D01*
X976Y956D02*
X983Y956D01*
X0Y955D02*
X7Y955D01*
X810Y955D02*
X824Y955D01*
X838Y955D02*
X853Y955D01*
X885Y955D02*
X891Y955D01*
X976Y955D02*
X983Y955D01*
X0Y954D02*
X7Y954D01*
X808Y954D02*
X822Y954D01*
X840Y954D02*
X854Y954D01*
X884Y954D02*
X890Y954D01*
X976Y954D02*
X983Y954D01*
X0Y953D02*
X7Y953D01*
X807Y953D02*
X820Y953D01*
X842Y953D02*
X855Y953D01*
X883Y953D02*
X889Y953D01*
X976Y953D02*
X983Y953D01*
X0Y952D02*
X7Y952D01*
X806Y952D02*
X818Y952D01*
X844Y952D02*
X856Y952D01*
X882Y952D02*
X888Y952D01*
X976Y952D02*
X983Y952D01*
X0Y951D02*
X7Y951D01*
X806Y951D02*
X816Y951D01*
X846Y951D02*
X857Y951D01*
X881Y951D02*
X886Y951D01*
X976Y951D02*
X983Y951D01*
X0Y950D02*
X7Y950D01*
X805Y950D02*
X814Y950D01*
X848Y950D02*
X857Y950D01*
X880Y950D02*
X885Y950D01*
X976Y950D02*
X983Y950D01*
X0Y949D02*
X7Y949D01*
X805Y949D02*
X812Y949D01*
X850Y949D02*
X857Y949D01*
X879Y949D02*
X884Y949D01*
X976Y949D02*
X983Y949D01*
X0Y948D02*
X7Y948D01*
X805Y948D02*
X811Y948D01*
X851Y948D02*
X858Y948D01*
X878Y948D02*
X883Y948D01*
X976Y948D02*
X983Y948D01*
X0Y947D02*
X7Y947D01*
X805Y947D02*
X811Y947D01*
X852Y947D02*
X858Y947D01*
X877Y947D02*
X883Y947D01*
X976Y947D02*
X983Y947D01*
X0Y946D02*
X7Y946D01*
X805Y946D02*
X811Y946D01*
X851Y946D02*
X858Y946D01*
X876Y946D02*
X882Y946D01*
X976Y946D02*
X983Y946D01*
X0Y945D02*
X7Y945D01*
X805Y945D02*
X812Y945D01*
X850Y945D02*
X857Y945D01*
X875Y945D02*
X881Y945D01*
X976Y945D02*
X983Y945D01*
X0Y944D02*
X7Y944D01*
X805Y944D02*
X814Y944D01*
X848Y944D02*
X857Y944D01*
X874Y944D02*
X880Y944D01*
X976Y944D02*
X983Y944D01*
X0Y943D02*
X7Y943D01*
X806Y943D02*
X816Y943D01*
X846Y943D02*
X857Y943D01*
X873Y943D02*
X879Y943D01*
X976Y943D02*
X983Y943D01*
X0Y942D02*
X7Y942D01*
X806Y942D02*
X818Y942D01*
X844Y942D02*
X856Y942D01*
X872Y942D02*
X878Y942D01*
X976Y942D02*
X983Y942D01*
X0Y941D02*
X7Y941D01*
X807Y941D02*
X820Y941D01*
X843Y941D02*
X855Y941D01*
X871Y941D02*
X877Y941D01*
X976Y941D02*
X983Y941D01*
X0Y940D02*
X7Y940D01*
X808Y940D02*
X822Y940D01*
X841Y940D02*
X855Y940D01*
X870Y940D02*
X876Y940D01*
X976Y940D02*
X983Y940D01*
X0Y939D02*
X7Y939D01*
X809Y939D02*
X824Y939D01*
X839Y939D02*
X853Y939D01*
X869Y939D02*
X875Y939D01*
X976Y939D02*
X983Y939D01*
X0Y938D02*
X7Y938D01*
X811Y938D02*
X826Y938D01*
X837Y938D02*
X851Y938D01*
X868Y938D02*
X874Y938D01*
X976Y938D02*
X983Y938D01*
X0Y937D02*
X7Y937D01*
X813Y937D02*
X828Y937D01*
X834Y937D02*
X849Y937D01*
X867Y937D02*
X873Y937D01*
X976Y937D02*
X983Y937D01*
X0Y936D02*
X7Y936D01*
X815Y936D02*
X847Y936D01*
X866Y936D02*
X872Y936D01*
X976Y936D02*
X983Y936D01*
X0Y935D02*
X7Y935D01*
X817Y935D02*
X845Y935D01*
X866Y935D02*
X871Y935D01*
X976Y935D02*
X983Y935D01*
X0Y934D02*
X7Y934D01*
X819Y934D02*
X843Y934D01*
X867Y934D02*
X870Y934D01*
X976Y934D02*
X983Y934D01*
X0Y933D02*
X7Y933D01*
X821Y933D02*
X841Y933D01*
X868Y933D02*
X869Y933D01*
X976Y933D02*
X983Y933D01*
X0Y932D02*
X7Y932D01*
X823Y932D02*
X839Y932D01*
X976Y932D02*
X983Y932D01*
X0Y931D02*
X7Y931D01*
X825Y931D02*
X837Y931D01*
X976Y931D02*
X983Y931D01*
X0Y930D02*
X7Y930D01*
X828Y930D02*
X834Y930D01*
X976Y930D02*
X983Y930D01*
X0Y929D02*
X7Y929D01*
X976Y929D02*
X983Y929D01*
X0Y928D02*
X7Y928D01*
X976Y928D02*
X983Y928D01*
X0Y927D02*
X7Y927D01*
X976Y927D02*
X983Y927D01*
X0Y926D02*
X7Y926D01*
X20Y926D02*
X25Y926D01*
X38Y926D02*
X42Y926D01*
X976Y926D02*
X983Y926D01*
X0Y925D02*
X7Y925D01*
X19Y925D02*
X26Y925D01*
X37Y925D02*
X43Y925D01*
X126Y925D02*
X130Y925D01*
X144Y925D02*
X148Y925D01*
X976Y925D02*
X983Y925D01*
X0Y924D02*
X7Y924D01*
X19Y924D02*
X26Y924D01*
X37Y924D02*
X44Y924D01*
X72Y924D02*
X77Y924D01*
X90Y924D02*
X95Y924D01*
X125Y924D02*
X131Y924D01*
X143Y924D02*
X148Y924D01*
X179Y924D02*
X184Y924D01*
X197Y924D02*
X202Y924D01*
X236Y924D02*
X240Y924D01*
X253Y924D02*
X257Y924D01*
X976Y924D02*
X983Y924D01*
X0Y923D02*
X7Y923D01*
X19Y923D02*
X27Y923D01*
X36Y923D02*
X44Y923D01*
X71Y923D02*
X78Y923D01*
X89Y923D02*
X95Y923D01*
X124Y923D02*
X131Y923D01*
X142Y923D02*
X149Y923D01*
X179Y923D02*
X185Y923D01*
X196Y923D02*
X203Y923D01*
X235Y923D02*
X241Y923D01*
X252Y923D02*
X258Y923D01*
X289Y923D02*
X294Y923D01*
X307Y923D02*
X312Y923D01*
X976Y923D02*
X983Y923D01*
X0Y922D02*
X7Y922D01*
X19Y922D02*
X28Y922D01*
X35Y922D02*
X44Y922D01*
X71Y922D02*
X79Y922D01*
X88Y922D02*
X96Y922D01*
X124Y922D02*
X132Y922D01*
X141Y922D02*
X149Y922D01*
X178Y922D02*
X186Y922D01*
X196Y922D02*
X203Y922D01*
X234Y922D02*
X241Y922D01*
X252Y922D02*
X259Y922D01*
X289Y922D02*
X295Y922D01*
X306Y922D02*
X313Y922D01*
X976Y922D02*
X983Y922D01*
X0Y921D02*
X7Y921D01*
X20Y921D02*
X29Y921D01*
X35Y921D02*
X43Y921D01*
X71Y921D02*
X79Y921D01*
X88Y921D02*
X96Y921D01*
X124Y921D02*
X133Y921D01*
X141Y921D02*
X149Y921D01*
X178Y921D02*
X187Y921D01*
X195Y921D02*
X203Y921D01*
X234Y921D02*
X242Y921D01*
X251Y921D02*
X259Y921D01*
X288Y921D02*
X296Y921D01*
X306Y921D02*
X313Y921D01*
X342Y921D02*
X347Y921D01*
X359Y921D02*
X365Y921D01*
X976Y921D02*
X983Y921D01*
X0Y920D02*
X7Y920D01*
X20Y920D02*
X29Y920D01*
X34Y920D02*
X42Y920D01*
X71Y920D02*
X80Y920D01*
X87Y920D02*
X95Y920D01*
X125Y920D02*
X134Y920D01*
X140Y920D02*
X148Y920D01*
X179Y920D02*
X188Y920D01*
X194Y920D02*
X203Y920D01*
X234Y920D02*
X243Y920D01*
X250Y920D02*
X259Y920D01*
X288Y920D02*
X297Y920D01*
X305Y920D02*
X313Y920D01*
X341Y920D02*
X348Y920D01*
X359Y920D02*
X365Y920D01*
X397Y920D02*
X400Y920D01*
X415Y920D02*
X418Y920D01*
X976Y920D02*
X983Y920D01*
X0Y919D02*
X7Y919D01*
X21Y919D02*
X30Y919D01*
X33Y919D02*
X42Y919D01*
X72Y919D02*
X81Y919D01*
X86Y919D02*
X95Y919D01*
X125Y919D02*
X134Y919D01*
X139Y919D02*
X148Y919D01*
X179Y919D02*
X188Y919D01*
X194Y919D02*
X202Y919D01*
X235Y919D02*
X244Y919D01*
X250Y919D02*
X258Y919D01*
X289Y919D02*
X297Y919D01*
X304Y919D02*
X313Y919D01*
X341Y919D02*
X349Y919D01*
X358Y919D02*
X366Y919D01*
X396Y919D02*
X401Y919D01*
X414Y919D02*
X419Y919D01*
X976Y919D02*
X983Y919D01*
X0Y918D02*
X7Y918D01*
X22Y918D02*
X31Y918D01*
X33Y918D02*
X41Y918D01*
X73Y918D02*
X82Y918D01*
X86Y918D02*
X94Y918D01*
X126Y918D02*
X135Y918D01*
X139Y918D02*
X147Y918D01*
X180Y918D02*
X189Y918D01*
X193Y918D02*
X202Y918D01*
X235Y918D02*
X244Y918D01*
X249Y918D02*
X258Y918D01*
X289Y918D02*
X298Y918D01*
X304Y918D02*
X312Y918D01*
X341Y918D02*
X349Y918D01*
X357Y918D02*
X366Y918D01*
X395Y918D02*
X402Y918D01*
X413Y918D02*
X420Y918D01*
X976Y918D02*
X983Y918D01*
X0Y917D02*
X7Y917D01*
X23Y917D02*
X40Y917D01*
X73Y917D02*
X82Y917D01*
X85Y917D02*
X94Y917D01*
X127Y917D02*
X136Y917D01*
X138Y917D02*
X147Y917D01*
X181Y917D02*
X190Y917D01*
X192Y917D02*
X201Y917D01*
X236Y917D02*
X245Y917D01*
X249Y917D02*
X257Y917D01*
X290Y917D02*
X299Y917D01*
X303Y917D02*
X312Y917D01*
X341Y917D02*
X350Y917D01*
X357Y917D02*
X365Y917D01*
X395Y917D02*
X403Y917D01*
X412Y917D02*
X420Y917D01*
X976Y917D02*
X983Y917D01*
X0Y916D02*
X7Y916D01*
X23Y916D02*
X40Y916D01*
X74Y916D02*
X93Y916D01*
X128Y916D02*
X146Y916D01*
X181Y916D02*
X200Y916D01*
X237Y916D02*
X246Y916D01*
X248Y916D02*
X256Y916D01*
X291Y916D02*
X300Y916D01*
X302Y916D02*
X311Y916D01*
X342Y916D02*
X351Y916D01*
X356Y916D02*
X365Y916D01*
X395Y916D02*
X404Y916D01*
X412Y916D02*
X420Y916D01*
X976Y916D02*
X983Y916D01*
X0Y915D02*
X7Y915D01*
X24Y915D02*
X39Y915D01*
X75Y915D02*
X92Y915D01*
X128Y915D02*
X145Y915D01*
X182Y915D02*
X200Y915D01*
X238Y915D02*
X256Y915D01*
X291Y915D02*
X300Y915D01*
X302Y915D02*
X310Y915D01*
X343Y915D02*
X352Y915D01*
X355Y915D02*
X364Y915D01*
X396Y915D02*
X404Y915D01*
X411Y915D02*
X419Y915D01*
X976Y915D02*
X983Y915D01*
X0Y914D02*
X7Y914D01*
X12Y914D02*
X52Y914D01*
X76Y914D02*
X92Y914D01*
X129Y914D02*
X145Y914D01*
X183Y914D02*
X199Y914D01*
X238Y914D02*
X255Y914D01*
X292Y914D02*
X310Y914D01*
X343Y914D02*
X352Y914D01*
X355Y914D02*
X363Y914D01*
X396Y914D02*
X405Y914D01*
X410Y914D02*
X419Y914D01*
X976Y914D02*
X983Y914D01*
X0Y913D02*
X7Y913D01*
X11Y913D02*
X53Y913D01*
X65Y913D02*
X103Y913D01*
X117Y913D02*
X157Y913D01*
X172Y913D02*
X210Y913D01*
X239Y913D02*
X254Y913D01*
X293Y913D02*
X309Y913D01*
X344Y913D02*
X363Y913D01*
X397Y913D02*
X406Y913D01*
X410Y913D02*
X418Y913D01*
X806Y913D02*
X858Y913D01*
X976Y913D02*
X983Y913D01*
X0Y912D02*
X7Y912D01*
X10Y912D02*
X53Y912D01*
X63Y912D02*
X104Y912D01*
X116Y912D02*
X158Y912D01*
X170Y912D02*
X212Y912D01*
X227Y912D02*
X267Y912D01*
X282Y912D02*
X320Y912D01*
X345Y912D02*
X362Y912D01*
X398Y912D02*
X407Y912D01*
X409Y912D02*
X417Y912D01*
X805Y912D02*
X858Y912D01*
X976Y912D02*
X983Y912D01*
X0Y911D02*
X7Y911D01*
X10Y911D02*
X53Y911D01*
X63Y911D02*
X105Y911D01*
X116Y911D02*
X158Y911D01*
X170Y911D02*
X212Y911D01*
X226Y911D02*
X268Y911D01*
X281Y911D02*
X321Y911D01*
X346Y911D02*
X361Y911D01*
X398Y911D02*
X417Y911D01*
X805Y911D02*
X858Y911D01*
X976Y911D02*
X983Y911D01*
X0Y910D02*
X7Y910D01*
X10Y910D02*
X53Y910D01*
X62Y910D02*
X105Y910D01*
X115Y910D02*
X158Y910D01*
X170Y910D02*
X212Y910D01*
X225Y910D02*
X268Y910D01*
X280Y910D02*
X322Y910D01*
X334Y910D02*
X373Y910D01*
X399Y910D02*
X416Y910D01*
X805Y910D02*
X858Y910D01*
X976Y910D02*
X983Y910D01*
X0Y909D02*
X7Y909D01*
X11Y909D02*
X53Y909D01*
X62Y909D02*
X105Y909D01*
X115Y909D02*
X158Y909D01*
X169Y909D02*
X213Y909D01*
X225Y909D02*
X268Y909D01*
X280Y909D02*
X322Y909D01*
X333Y909D02*
X374Y909D01*
X400Y909D02*
X416Y909D01*
X805Y909D02*
X858Y909D01*
X976Y909D02*
X983Y909D01*
X0Y908D02*
X7Y908D01*
X62Y908D02*
X105Y908D01*
X116Y908D02*
X158Y908D01*
X170Y908D02*
X212Y908D01*
X225Y908D02*
X268Y908D01*
X279Y908D02*
X323Y908D01*
X332Y908D02*
X375Y908D01*
X388Y908D02*
X427Y908D01*
X806Y908D02*
X858Y908D01*
X976Y908D02*
X983Y908D01*
X0Y907D02*
X7Y907D01*
X63Y907D02*
X63Y907D01*
X105Y907D02*
X105Y907D01*
X170Y907D02*
X170Y907D01*
X212Y907D02*
X212Y907D01*
X226Y907D02*
X268Y907D01*
X280Y907D02*
X322Y907D01*
X332Y907D02*
X375Y907D01*
X387Y907D02*
X428Y907D01*
X808Y907D02*
X858Y907D01*
X976Y907D02*
X983Y907D01*
X0Y906D02*
X7Y906D01*
X226Y906D02*
X226Y906D01*
X280Y906D02*
X280Y906D01*
X322Y906D02*
X322Y906D01*
X332Y906D02*
X375Y906D01*
X386Y906D02*
X429Y906D01*
X844Y906D02*
X858Y906D01*
X976Y906D02*
X983Y906D01*
X0Y905D02*
X7Y905D01*
X332Y905D02*
X375Y905D01*
X386Y905D02*
X429Y905D01*
X842Y905D02*
X858Y905D01*
X976Y905D02*
X983Y905D01*
X0Y904D02*
X7Y904D01*
X386Y904D02*
X429Y904D01*
X840Y904D02*
X856Y904D01*
X976Y904D02*
X983Y904D01*
X0Y903D02*
X7Y903D01*
X387Y903D02*
X429Y903D01*
X837Y903D02*
X854Y903D01*
X976Y903D02*
X983Y903D01*
X0Y902D02*
X7Y902D01*
X835Y902D02*
X852Y902D01*
X976Y902D02*
X983Y902D01*
X0Y901D02*
X7Y901D01*
X833Y901D02*
X849Y901D01*
X976Y901D02*
X983Y901D01*
X0Y900D02*
X7Y900D01*
X830Y900D02*
X847Y900D01*
X976Y900D02*
X983Y900D01*
X0Y899D02*
X7Y899D01*
X828Y899D02*
X845Y899D01*
X976Y899D02*
X983Y899D01*
X0Y898D02*
X7Y898D01*
X826Y898D02*
X842Y898D01*
X976Y898D02*
X983Y898D01*
X0Y897D02*
X7Y897D01*
X824Y897D02*
X840Y897D01*
X976Y897D02*
X983Y897D01*
X0Y896D02*
X7Y896D01*
X821Y896D02*
X838Y896D01*
X976Y896D02*
X983Y896D01*
X0Y895D02*
X7Y895D01*
X819Y895D02*
X836Y895D01*
X976Y895D02*
X983Y895D01*
X0Y894D02*
X7Y894D01*
X817Y894D02*
X833Y894D01*
X976Y894D02*
X983Y894D01*
X0Y893D02*
X7Y893D01*
X814Y893D02*
X831Y893D01*
X976Y893D02*
X983Y893D01*
X0Y892D02*
X7Y892D01*
X812Y892D02*
X829Y892D01*
X976Y892D02*
X983Y892D01*
X0Y891D02*
X7Y891D01*
X810Y891D02*
X826Y891D01*
X976Y891D02*
X983Y891D01*
X0Y890D02*
X7Y890D01*
X808Y890D02*
X824Y890D01*
X976Y890D02*
X983Y890D01*
X0Y889D02*
X7Y889D01*
X805Y889D02*
X822Y889D01*
X976Y889D02*
X983Y889D01*
X0Y888D02*
X7Y888D01*
X805Y888D02*
X820Y888D01*
X976Y888D02*
X983Y888D01*
X0Y887D02*
X7Y887D01*
X805Y887D02*
X817Y887D01*
X976Y887D02*
X983Y887D01*
X0Y886D02*
X7Y886D01*
X805Y886D02*
X856Y886D01*
X976Y886D02*
X983Y886D01*
X0Y885D02*
X7Y885D01*
X805Y885D02*
X857Y885D01*
X976Y885D02*
X983Y885D01*
X0Y884D02*
X7Y884D01*
X805Y884D02*
X857Y884D01*
X976Y884D02*
X983Y884D01*
X0Y883D02*
X7Y883D01*
X805Y883D02*
X858Y883D01*
X976Y883D02*
X983Y883D01*
X0Y882D02*
X7Y882D01*
X805Y882D02*
X858Y882D01*
X976Y882D02*
X983Y882D01*
X0Y881D02*
X7Y881D01*
X805Y881D02*
X857Y881D01*
X976Y881D02*
X983Y881D01*
X0Y880D02*
X7Y880D01*
X805Y880D02*
X856Y880D01*
X976Y880D02*
X983Y880D01*
X0Y879D02*
X7Y879D01*
X976Y879D02*
X983Y879D01*
X0Y878D02*
X7Y878D01*
X976Y878D02*
X983Y878D01*
X0Y877D02*
X7Y877D01*
X976Y877D02*
X983Y877D01*
X0Y876D02*
X7Y876D01*
X976Y876D02*
X983Y876D01*
X0Y875D02*
X7Y875D01*
X976Y875D02*
X983Y875D01*
X0Y874D02*
X7Y874D01*
X976Y874D02*
X983Y874D01*
X0Y873D02*
X7Y873D01*
X976Y873D02*
X983Y873D01*
X0Y872D02*
X7Y872D01*
X976Y872D02*
X983Y872D01*
X0Y871D02*
X7Y871D01*
X976Y871D02*
X983Y871D01*
X0Y870D02*
X7Y870D01*
X976Y870D02*
X983Y870D01*
X0Y869D02*
X7Y869D01*
X976Y869D02*
X983Y869D01*
X0Y868D02*
X7Y868D01*
X976Y868D02*
X983Y868D01*
X0Y867D02*
X7Y867D01*
X976Y867D02*
X983Y867D01*
X0Y866D02*
X7Y866D01*
X976Y866D02*
X983Y866D01*
X0Y865D02*
X7Y865D01*
X33Y865D02*
X48Y865D01*
X976Y865D02*
X983Y865D01*
X0Y864D02*
X7Y864D01*
X32Y864D02*
X50Y864D01*
X976Y864D02*
X983Y864D01*
X0Y863D02*
X7Y863D01*
X31Y863D02*
X50Y863D01*
X78Y863D02*
X110Y863D01*
X130Y863D02*
X138Y863D01*
X190Y863D02*
X215Y863D01*
X244Y863D02*
X244Y863D01*
X806Y863D02*
X809Y863D01*
X976Y863D02*
X983Y863D01*
X0Y862D02*
X7Y862D01*
X31Y862D02*
X51Y862D01*
X77Y862D02*
X110Y862D01*
X130Y862D02*
X138Y862D01*
X190Y862D02*
X216Y862D01*
X242Y862D02*
X246Y862D01*
X295Y862D02*
X322Y862D01*
X805Y862D02*
X811Y862D01*
X976Y862D02*
X983Y862D01*
X0Y861D02*
X7Y861D01*
X31Y861D02*
X51Y861D01*
X76Y861D02*
X110Y861D01*
X129Y861D02*
X139Y861D01*
X190Y861D02*
X217Y861D01*
X241Y861D02*
X247Y861D01*
X294Y861D02*
X324Y861D01*
X805Y861D02*
X813Y861D01*
X976Y861D02*
X983Y861D01*
X0Y860D02*
X7Y860D01*
X31Y860D02*
X51Y860D01*
X76Y860D02*
X110Y860D01*
X129Y860D02*
X139Y860D01*
X190Y860D02*
X217Y860D01*
X241Y860D02*
X247Y860D01*
X294Y860D02*
X325Y860D01*
X347Y860D02*
X375Y860D01*
X805Y860D02*
X815Y860D01*
X976Y860D02*
X983Y860D01*
X0Y859D02*
X7Y859D01*
X31Y859D02*
X51Y859D01*
X76Y859D02*
X110Y859D01*
X129Y859D02*
X138Y859D01*
X190Y859D02*
X217Y859D01*
X241Y859D02*
X247Y859D01*
X293Y859D02*
X326Y859D01*
X347Y859D02*
X377Y859D01*
X805Y859D02*
X816Y859D01*
X976Y859D02*
X983Y859D01*
X0Y858D02*
X7Y858D01*
X31Y858D02*
X37Y858D01*
X44Y858D02*
X51Y858D01*
X76Y858D02*
X110Y858D01*
X129Y858D02*
X138Y858D01*
X190Y858D02*
X216Y858D01*
X241Y858D02*
X247Y858D01*
X294Y858D02*
X326Y858D01*
X346Y858D02*
X378Y858D01*
X401Y858D02*
X420Y858D01*
X805Y858D02*
X818Y858D01*
X976Y858D02*
X983Y858D01*
X0Y857D02*
X7Y857D01*
X31Y857D02*
X37Y857D01*
X45Y857D02*
X51Y857D01*
X76Y857D02*
X110Y857D01*
X129Y857D02*
X136Y857D01*
X190Y857D02*
X215Y857D01*
X241Y857D02*
X247Y857D01*
X264Y857D02*
X265Y857D01*
X294Y857D02*
X327Y857D01*
X346Y857D02*
X379Y857D01*
X401Y857D02*
X420Y857D01*
X807Y857D02*
X820Y857D01*
X976Y857D02*
X983Y857D01*
X0Y856D02*
X7Y856D01*
X31Y856D02*
X37Y856D01*
X45Y856D02*
X51Y856D01*
X76Y856D02*
X82Y856D01*
X104Y856D02*
X110Y856D01*
X129Y856D02*
X135Y856D01*
X190Y856D02*
X196Y856D01*
X241Y856D02*
X247Y856D01*
X263Y856D02*
X267Y856D01*
X295Y856D02*
X327Y856D01*
X346Y856D02*
X379Y856D01*
X400Y856D02*
X420Y856D01*
X808Y856D02*
X821Y856D01*
X976Y856D02*
X983Y856D01*
X0Y855D02*
X7Y855D01*
X31Y855D02*
X37Y855D01*
X45Y855D02*
X51Y855D01*
X77Y855D02*
X81Y855D01*
X104Y855D02*
X110Y855D01*
X129Y855D02*
X135Y855D01*
X190Y855D02*
X196Y855D01*
X241Y855D02*
X247Y855D01*
X262Y855D02*
X267Y855D01*
X321Y855D02*
X327Y855D01*
X347Y855D02*
X379Y855D01*
X400Y855D02*
X420Y855D01*
X810Y855D02*
X823Y855D01*
X976Y855D02*
X983Y855D01*
X0Y854D02*
X7Y854D01*
X31Y854D02*
X37Y854D01*
X45Y854D02*
X51Y854D01*
X78Y854D02*
X80Y854D01*
X104Y854D02*
X110Y854D01*
X129Y854D02*
X135Y854D01*
X190Y854D02*
X196Y854D01*
X241Y854D02*
X247Y854D01*
X262Y854D02*
X268Y854D01*
X321Y854D02*
X327Y854D01*
X348Y854D02*
X379Y854D01*
X400Y854D02*
X420Y854D01*
X812Y854D02*
X825Y854D01*
X976Y854D02*
X983Y854D01*
X0Y853D02*
X7Y853D01*
X31Y853D02*
X37Y853D01*
X45Y853D02*
X51Y853D01*
X104Y853D02*
X110Y853D01*
X129Y853D02*
X135Y853D01*
X190Y853D02*
X196Y853D01*
X241Y853D02*
X247Y853D01*
X262Y853D02*
X268Y853D01*
X321Y853D02*
X327Y853D01*
X373Y853D02*
X379Y853D01*
X401Y853D02*
X420Y853D01*
X813Y853D02*
X826Y853D01*
X976Y853D02*
X983Y853D01*
X0Y852D02*
X7Y852D01*
X31Y852D02*
X37Y852D01*
X45Y852D02*
X51Y852D01*
X104Y852D02*
X110Y852D01*
X129Y852D02*
X135Y852D01*
X190Y852D02*
X196Y852D01*
X241Y852D02*
X247Y852D01*
X262Y852D02*
X268Y852D01*
X321Y852D02*
X327Y852D01*
X373Y852D02*
X379Y852D01*
X403Y852D02*
X420Y852D01*
X815Y852D02*
X828Y852D01*
X976Y852D02*
X983Y852D01*
X0Y851D02*
X7Y851D01*
X31Y851D02*
X37Y851D01*
X45Y851D02*
X51Y851D01*
X104Y851D02*
X110Y851D01*
X129Y851D02*
X135Y851D01*
X190Y851D02*
X196Y851D01*
X241Y851D02*
X247Y851D01*
X262Y851D02*
X268Y851D01*
X321Y851D02*
X327Y851D01*
X373Y851D02*
X379Y851D01*
X414Y851D02*
X420Y851D01*
X817Y851D02*
X830Y851D01*
X976Y851D02*
X983Y851D01*
X0Y850D02*
X7Y850D01*
X31Y850D02*
X37Y850D01*
X45Y850D02*
X51Y850D01*
X104Y850D02*
X110Y850D01*
X129Y850D02*
X135Y850D01*
X190Y850D02*
X196Y850D01*
X241Y850D02*
X247Y850D01*
X262Y850D02*
X268Y850D01*
X321Y850D02*
X327Y850D01*
X373Y850D02*
X379Y850D01*
X414Y850D02*
X420Y850D01*
X819Y850D02*
X832Y850D01*
X976Y850D02*
X983Y850D01*
X0Y849D02*
X7Y849D01*
X31Y849D02*
X37Y849D01*
X45Y849D02*
X51Y849D01*
X104Y849D02*
X110Y849D01*
X129Y849D02*
X135Y849D01*
X190Y849D02*
X196Y849D01*
X241Y849D02*
X247Y849D01*
X262Y849D02*
X268Y849D01*
X321Y849D02*
X327Y849D01*
X373Y849D02*
X379Y849D01*
X414Y849D02*
X420Y849D01*
X820Y849D02*
X833Y849D01*
X976Y849D02*
X983Y849D01*
X0Y848D02*
X7Y848D01*
X31Y848D02*
X37Y848D01*
X45Y848D02*
X51Y848D01*
X104Y848D02*
X110Y848D01*
X129Y848D02*
X135Y848D01*
X190Y848D02*
X196Y848D01*
X241Y848D02*
X247Y848D01*
X262Y848D02*
X268Y848D01*
X321Y848D02*
X327Y848D01*
X373Y848D02*
X379Y848D01*
X414Y848D02*
X420Y848D01*
X822Y848D02*
X835Y848D01*
X976Y848D02*
X983Y848D01*
X0Y847D02*
X7Y847D01*
X31Y847D02*
X37Y847D01*
X45Y847D02*
X51Y847D01*
X104Y847D02*
X110Y847D01*
X129Y847D02*
X135Y847D01*
X190Y847D02*
X196Y847D01*
X241Y847D02*
X247Y847D01*
X262Y847D02*
X268Y847D01*
X321Y847D02*
X327Y847D01*
X373Y847D02*
X379Y847D01*
X414Y847D02*
X420Y847D01*
X824Y847D02*
X837Y847D01*
X976Y847D02*
X983Y847D01*
X0Y846D02*
X7Y846D01*
X31Y846D02*
X37Y846D01*
X45Y846D02*
X51Y846D01*
X104Y846D02*
X110Y846D01*
X129Y846D02*
X135Y846D01*
X190Y846D02*
X196Y846D01*
X241Y846D02*
X247Y846D01*
X262Y846D02*
X268Y846D01*
X321Y846D02*
X327Y846D01*
X373Y846D02*
X379Y846D01*
X414Y846D02*
X420Y846D01*
X825Y846D02*
X838Y846D01*
X976Y846D02*
X983Y846D01*
X0Y845D02*
X7Y845D01*
X31Y845D02*
X37Y845D01*
X45Y845D02*
X51Y845D01*
X104Y845D02*
X110Y845D01*
X129Y845D02*
X135Y845D01*
X190Y845D02*
X196Y845D01*
X241Y845D02*
X247Y845D01*
X262Y845D02*
X268Y845D01*
X321Y845D02*
X327Y845D01*
X373Y845D02*
X379Y845D01*
X414Y845D02*
X420Y845D01*
X827Y845D02*
X840Y845D01*
X976Y845D02*
X983Y845D01*
X0Y844D02*
X7Y844D01*
X31Y844D02*
X37Y844D01*
X45Y844D02*
X51Y844D01*
X104Y844D02*
X110Y844D01*
X129Y844D02*
X135Y844D01*
X190Y844D02*
X196Y844D01*
X241Y844D02*
X247Y844D01*
X262Y844D02*
X268Y844D01*
X321Y844D02*
X327Y844D01*
X373Y844D02*
X379Y844D01*
X414Y844D02*
X420Y844D01*
X829Y844D02*
X842Y844D01*
X976Y844D02*
X983Y844D01*
X0Y843D02*
X7Y843D01*
X31Y843D02*
X37Y843D01*
X45Y843D02*
X51Y843D01*
X103Y843D02*
X110Y843D01*
X129Y843D02*
X135Y843D01*
X190Y843D02*
X196Y843D01*
X241Y843D02*
X247Y843D01*
X262Y843D02*
X268Y843D01*
X321Y843D02*
X327Y843D01*
X373Y843D02*
X379Y843D01*
X414Y843D02*
X420Y843D01*
X831Y843D02*
X844Y843D01*
X976Y843D02*
X983Y843D01*
X0Y842D02*
X7Y842D01*
X31Y842D02*
X37Y842D01*
X45Y842D02*
X51Y842D01*
X101Y842D02*
X110Y842D01*
X129Y842D02*
X135Y842D01*
X190Y842D02*
X196Y842D01*
X241Y842D02*
X247Y842D01*
X262Y842D02*
X268Y842D01*
X321Y842D02*
X327Y842D01*
X373Y842D02*
X379Y842D01*
X414Y842D02*
X420Y842D01*
X832Y842D02*
X845Y842D01*
X976Y842D02*
X983Y842D01*
X0Y841D02*
X7Y841D01*
X28Y841D02*
X53Y841D01*
X100Y841D02*
X109Y841D01*
X129Y841D02*
X135Y841D01*
X190Y841D02*
X196Y841D01*
X241Y841D02*
X247Y841D01*
X262Y841D02*
X268Y841D01*
X321Y841D02*
X327Y841D01*
X373Y841D02*
X379Y841D01*
X414Y841D02*
X420Y841D01*
X834Y841D02*
X847Y841D01*
X976Y841D02*
X983Y841D01*
X0Y840D02*
X7Y840D01*
X27Y840D02*
X55Y840D01*
X99Y840D02*
X109Y840D01*
X129Y840D02*
X135Y840D01*
X190Y840D02*
X211Y840D01*
X241Y840D02*
X247Y840D01*
X262Y840D02*
X268Y840D01*
X320Y840D02*
X327Y840D01*
X373Y840D02*
X379Y840D01*
X414Y840D02*
X420Y840D01*
X836Y840D02*
X849Y840D01*
X976Y840D02*
X983Y840D01*
X0Y839D02*
X7Y839D01*
X26Y839D02*
X56Y839D01*
X98Y839D02*
X108Y839D01*
X129Y839D02*
X135Y839D01*
X190Y839D02*
X214Y839D01*
X241Y839D02*
X247Y839D01*
X262Y839D02*
X268Y839D01*
X318Y839D02*
X326Y839D01*
X373Y839D02*
X379Y839D01*
X414Y839D02*
X420Y839D01*
X837Y839D02*
X850Y839D01*
X976Y839D02*
X983Y839D01*
X0Y838D02*
X7Y838D01*
X25Y838D02*
X57Y838D01*
X97Y838D02*
X107Y838D01*
X129Y838D02*
X135Y838D01*
X190Y838D02*
X215Y838D01*
X241Y838D02*
X247Y838D01*
X262Y838D02*
X268Y838D01*
X301Y838D02*
X326Y838D01*
X373Y838D02*
X379Y838D01*
X414Y838D02*
X420Y838D01*
X839Y838D02*
X852Y838D01*
X976Y838D02*
X983Y838D01*
X0Y837D02*
X7Y837D01*
X24Y837D02*
X57Y837D01*
X96Y837D02*
X105Y837D01*
X129Y837D02*
X135Y837D01*
X190Y837D02*
X216Y837D01*
X241Y837D02*
X247Y837D01*
X262Y837D02*
X268Y837D01*
X301Y837D02*
X325Y837D01*
X352Y837D02*
X379Y837D01*
X414Y837D02*
X420Y837D01*
X841Y837D02*
X854Y837D01*
X976Y837D02*
X983Y837D01*
X0Y836D02*
X7Y836D01*
X24Y836D02*
X57Y836D01*
X94Y836D02*
X104Y836D01*
X129Y836D02*
X135Y836D01*
X190Y836D02*
X216Y836D01*
X241Y836D02*
X247Y836D01*
X262Y836D02*
X268Y836D01*
X300Y836D02*
X325Y836D01*
X349Y836D02*
X379Y836D01*
X414Y836D02*
X420Y836D01*
X843Y836D02*
X856Y836D01*
X976Y836D02*
X983Y836D01*
X0Y835D02*
X7Y835D01*
X24Y835D02*
X58Y835D01*
X93Y835D02*
X103Y835D01*
X129Y835D02*
X135Y835D01*
X190Y835D02*
X217Y835D01*
X241Y835D02*
X247Y835D01*
X262Y835D02*
X268Y835D01*
X300Y835D02*
X324Y835D01*
X348Y835D02*
X379Y835D01*
X414Y835D02*
X420Y835D01*
X844Y835D02*
X857Y835D01*
X976Y835D02*
X983Y835D01*
X0Y834D02*
X7Y834D01*
X24Y834D02*
X30Y834D01*
X52Y834D02*
X58Y834D01*
X92Y834D02*
X102Y834D01*
X129Y834D02*
X161Y834D01*
X190Y834D02*
X217Y834D01*
X241Y834D02*
X247Y834D01*
X261Y834D02*
X268Y834D01*
X301Y834D02*
X325Y834D01*
X347Y834D02*
X379Y834D01*
X414Y834D02*
X420Y834D01*
X846Y834D02*
X857Y834D01*
X976Y834D02*
X983Y834D01*
X0Y833D02*
X7Y833D01*
X24Y833D02*
X30Y833D01*
X52Y833D02*
X58Y833D01*
X91Y833D02*
X101Y833D01*
X129Y833D02*
X162Y833D01*
X211Y833D02*
X217Y833D01*
X241Y833D02*
X269Y833D01*
X301Y833D02*
X326Y833D01*
X347Y833D02*
X378Y833D01*
X414Y833D02*
X420Y833D01*
X848Y833D02*
X858Y833D01*
X976Y833D02*
X983Y833D01*
X0Y832D02*
X7Y832D01*
X24Y832D02*
X30Y832D01*
X52Y832D02*
X58Y832D01*
X90Y832D02*
X99Y832D01*
X129Y832D02*
X163Y832D01*
X211Y832D02*
X217Y832D01*
X241Y832D02*
X270Y832D01*
X303Y832D02*
X326Y832D01*
X346Y832D02*
X377Y832D01*
X414Y832D02*
X420Y832D01*
X849Y832D02*
X858Y832D01*
X976Y832D02*
X983Y832D01*
X0Y831D02*
X7Y831D01*
X24Y831D02*
X30Y831D01*
X52Y831D02*
X58Y831D01*
X90Y831D02*
X98Y831D01*
X129Y831D02*
X163Y831D01*
X211Y831D02*
X217Y831D01*
X241Y831D02*
X271Y831D01*
X320Y831D02*
X327Y831D01*
X346Y831D02*
X376Y831D01*
X414Y831D02*
X420Y831D01*
X851Y831D02*
X857Y831D01*
X976Y831D02*
X983Y831D01*
X0Y830D02*
X7Y830D01*
X24Y830D02*
X30Y830D01*
X52Y830D02*
X58Y830D01*
X90Y830D02*
X97Y830D01*
X129Y830D02*
X163Y830D01*
X211Y830D02*
X217Y830D01*
X241Y830D02*
X271Y830D01*
X320Y830D02*
X327Y830D01*
X346Y830D02*
X352Y830D01*
X414Y830D02*
X420Y830D01*
X853Y830D02*
X856Y830D01*
X976Y830D02*
X983Y830D01*
X0Y829D02*
X7Y829D01*
X24Y829D02*
X30Y829D01*
X52Y829D02*
X58Y829D01*
X90Y829D02*
X96Y829D01*
X129Y829D02*
X163Y829D01*
X211Y829D02*
X217Y829D01*
X241Y829D02*
X271Y829D01*
X321Y829D02*
X327Y829D01*
X346Y829D02*
X352Y829D01*
X414Y829D02*
X420Y829D01*
X430Y829D02*
X432Y829D01*
X976Y829D02*
X983Y829D01*
X0Y828D02*
X7Y828D01*
X24Y828D02*
X30Y828D01*
X52Y828D02*
X58Y828D01*
X90Y828D02*
X96Y828D01*
X129Y828D02*
X163Y828D01*
X211Y828D02*
X217Y828D01*
X241Y828D02*
X270Y828D01*
X321Y828D02*
X327Y828D01*
X346Y828D02*
X352Y828D01*
X414Y828D02*
X420Y828D01*
X428Y828D02*
X433Y828D01*
X976Y828D02*
X983Y828D01*
X0Y827D02*
X7Y827D01*
X24Y827D02*
X30Y827D01*
X52Y827D02*
X58Y827D01*
X90Y827D02*
X96Y827D01*
X129Y827D02*
X135Y827D01*
X157Y827D02*
X163Y827D01*
X211Y827D02*
X217Y827D01*
X241Y827D02*
X269Y827D01*
X321Y827D02*
X327Y827D01*
X346Y827D02*
X352Y827D01*
X414Y827D02*
X420Y827D01*
X428Y827D02*
X433Y827D01*
X976Y827D02*
X983Y827D01*
X0Y826D02*
X7Y826D01*
X24Y826D02*
X30Y826D01*
X52Y826D02*
X58Y826D01*
X90Y826D02*
X96Y826D01*
X129Y826D02*
X135Y826D01*
X157Y826D02*
X163Y826D01*
X211Y826D02*
X217Y826D01*
X262Y826D02*
X268Y826D01*
X321Y826D02*
X327Y826D01*
X346Y826D02*
X352Y826D01*
X414Y826D02*
X420Y826D01*
X428Y826D02*
X434Y826D01*
X976Y826D02*
X983Y826D01*
X0Y825D02*
X7Y825D01*
X24Y825D02*
X30Y825D01*
X52Y825D02*
X58Y825D01*
X90Y825D02*
X96Y825D01*
X129Y825D02*
X135Y825D01*
X157Y825D02*
X163Y825D01*
X211Y825D02*
X217Y825D01*
X262Y825D02*
X268Y825D01*
X321Y825D02*
X327Y825D01*
X346Y825D02*
X352Y825D01*
X414Y825D02*
X420Y825D01*
X428Y825D02*
X434Y825D01*
X976Y825D02*
X983Y825D01*
X0Y824D02*
X7Y824D01*
X24Y824D02*
X30Y824D01*
X52Y824D02*
X58Y824D01*
X90Y824D02*
X96Y824D01*
X129Y824D02*
X135Y824D01*
X157Y824D02*
X163Y824D01*
X211Y824D02*
X217Y824D01*
X262Y824D02*
X268Y824D01*
X321Y824D02*
X327Y824D01*
X346Y824D02*
X352Y824D01*
X414Y824D02*
X420Y824D01*
X428Y824D02*
X434Y824D01*
X976Y824D02*
X983Y824D01*
X0Y823D02*
X7Y823D01*
X24Y823D02*
X30Y823D01*
X52Y823D02*
X58Y823D01*
X90Y823D02*
X96Y823D01*
X129Y823D02*
X135Y823D01*
X157Y823D02*
X163Y823D01*
X211Y823D02*
X217Y823D01*
X262Y823D02*
X268Y823D01*
X321Y823D02*
X327Y823D01*
X346Y823D02*
X352Y823D01*
X414Y823D02*
X420Y823D01*
X428Y823D02*
X434Y823D01*
X976Y823D02*
X983Y823D01*
X0Y822D02*
X7Y822D01*
X24Y822D02*
X30Y822D01*
X52Y822D02*
X58Y822D01*
X90Y822D02*
X96Y822D01*
X129Y822D02*
X135Y822D01*
X157Y822D02*
X163Y822D01*
X211Y822D02*
X217Y822D01*
X262Y822D02*
X268Y822D01*
X321Y822D02*
X327Y822D01*
X346Y822D02*
X352Y822D01*
X414Y822D02*
X420Y822D01*
X428Y822D02*
X434Y822D01*
X976Y822D02*
X983Y822D01*
X0Y821D02*
X7Y821D01*
X24Y821D02*
X30Y821D01*
X52Y821D02*
X58Y821D01*
X90Y821D02*
X96Y821D01*
X129Y821D02*
X135Y821D01*
X157Y821D02*
X163Y821D01*
X211Y821D02*
X217Y821D01*
X262Y821D02*
X268Y821D01*
X321Y821D02*
X327Y821D01*
X346Y821D02*
X352Y821D01*
X414Y821D02*
X420Y821D01*
X428Y821D02*
X434Y821D01*
X976Y821D02*
X983Y821D01*
X0Y820D02*
X7Y820D01*
X24Y820D02*
X30Y820D01*
X52Y820D02*
X58Y820D01*
X90Y820D02*
X96Y820D01*
X129Y820D02*
X135Y820D01*
X157Y820D02*
X163Y820D01*
X211Y820D02*
X217Y820D01*
X262Y820D02*
X268Y820D01*
X321Y820D02*
X327Y820D01*
X346Y820D02*
X352Y820D01*
X414Y820D02*
X420Y820D01*
X428Y820D02*
X434Y820D01*
X976Y820D02*
X983Y820D01*
X0Y819D02*
X7Y819D01*
X24Y819D02*
X30Y819D01*
X52Y819D02*
X58Y819D01*
X90Y819D02*
X96Y819D01*
X129Y819D02*
X135Y819D01*
X157Y819D02*
X163Y819D01*
X185Y819D02*
X188Y819D01*
X211Y819D02*
X217Y819D01*
X262Y819D02*
X268Y819D01*
X321Y819D02*
X327Y819D01*
X346Y819D02*
X352Y819D01*
X414Y819D02*
X420Y819D01*
X428Y819D02*
X434Y819D01*
X976Y819D02*
X983Y819D01*
X0Y818D02*
X7Y818D01*
X24Y818D02*
X58Y818D01*
X90Y818D02*
X96Y818D01*
X129Y818D02*
X135Y818D01*
X157Y818D02*
X163Y818D01*
X184Y818D02*
X190Y818D01*
X211Y818D02*
X217Y818D01*
X262Y818D02*
X268Y818D01*
X321Y818D02*
X327Y818D01*
X346Y818D02*
X352Y818D01*
X414Y818D02*
X420Y818D01*
X428Y818D02*
X434Y818D01*
X976Y818D02*
X983Y818D01*
X0Y817D02*
X7Y817D01*
X24Y817D02*
X57Y817D01*
X90Y817D02*
X96Y817D01*
X129Y817D02*
X135Y817D01*
X157Y817D02*
X163Y817D01*
X184Y817D02*
X192Y817D01*
X211Y817D02*
X217Y817D01*
X262Y817D02*
X268Y817D01*
X321Y817D02*
X327Y817D01*
X346Y817D02*
X352Y817D01*
X414Y817D02*
X420Y817D01*
X428Y817D02*
X434Y817D01*
X976Y817D02*
X983Y817D01*
X0Y816D02*
X7Y816D01*
X24Y816D02*
X57Y816D01*
X90Y816D02*
X96Y816D01*
X129Y816D02*
X163Y816D01*
X183Y816D02*
X217Y816D01*
X262Y816D02*
X268Y816D01*
X321Y816D02*
X327Y816D01*
X346Y816D02*
X352Y816D01*
X414Y816D02*
X420Y816D01*
X428Y816D02*
X434Y816D01*
X976Y816D02*
X983Y816D01*
X0Y815D02*
X7Y815D01*
X25Y815D02*
X57Y815D01*
X90Y815D02*
X96Y815D01*
X129Y815D02*
X163Y815D01*
X183Y815D02*
X217Y815D01*
X262Y815D02*
X268Y815D01*
X295Y815D02*
X327Y815D01*
X346Y815D02*
X352Y815D01*
X414Y815D02*
X420Y815D01*
X428Y815D02*
X434Y815D01*
X976Y815D02*
X983Y815D01*
X0Y814D02*
X7Y814D01*
X25Y814D02*
X56Y814D01*
X90Y814D02*
X96Y814D01*
X129Y814D02*
X163Y814D01*
X184Y814D02*
X216Y814D01*
X262Y814D02*
X268Y814D01*
X294Y814D02*
X327Y814D01*
X346Y814D02*
X352Y814D01*
X414Y814D02*
X420Y814D01*
X428Y814D02*
X434Y814D01*
X976Y814D02*
X983Y814D01*
X0Y813D02*
X7Y813D01*
X26Y813D02*
X55Y813D01*
X90Y813D02*
X96Y813D01*
X129Y813D02*
X163Y813D01*
X185Y813D02*
X216Y813D01*
X262Y813D02*
X268Y813D01*
X294Y813D02*
X326Y813D01*
X346Y813D02*
X378Y813D01*
X414Y813D02*
X420Y813D01*
X428Y813D02*
X434Y813D01*
X828Y813D02*
X835Y813D01*
X976Y813D02*
X983Y813D01*
X0Y812D02*
X7Y812D01*
X28Y812D02*
X54Y812D01*
X90Y812D02*
X96Y812D01*
X130Y812D02*
X163Y812D01*
X187Y812D02*
X215Y812D01*
X262Y812D02*
X267Y812D01*
X293Y812D02*
X326Y812D01*
X346Y812D02*
X379Y812D01*
X414Y812D02*
X420Y812D01*
X428Y812D02*
X434Y812D01*
X825Y812D02*
X837Y812D01*
X976Y812D02*
X983Y812D01*
X0Y811D02*
X7Y811D01*
X91Y811D02*
X95Y811D01*
X130Y811D02*
X162Y811D01*
X189Y811D02*
X214Y811D01*
X262Y811D02*
X267Y811D01*
X293Y811D02*
X325Y811D01*
X346Y811D02*
X379Y811D01*
X402Y811D02*
X434Y811D01*
X823Y811D02*
X840Y811D01*
X976Y811D02*
X983Y811D01*
X0Y810D02*
X7Y810D01*
X92Y810D02*
X94Y810D01*
X132Y810D02*
X160Y810D01*
X192Y810D02*
X213Y810D01*
X263Y810D02*
X267Y810D01*
X294Y810D02*
X324Y810D01*
X346Y810D02*
X379Y810D01*
X401Y810D02*
X434Y810D01*
X821Y810D02*
X842Y810D01*
X976Y810D02*
X983Y810D01*
X0Y809D02*
X7Y809D01*
X265Y809D02*
X265Y809D01*
X295Y809D02*
X323Y809D01*
X346Y809D02*
X379Y809D01*
X400Y809D02*
X434Y809D01*
X819Y809D02*
X844Y809D01*
X976Y809D02*
X983Y809D01*
X0Y808D02*
X7Y808D01*
X346Y808D02*
X379Y808D01*
X400Y808D02*
X434Y808D01*
X817Y808D02*
X846Y808D01*
X976Y808D02*
X983Y808D01*
X0Y807D02*
X7Y807D01*
X346Y807D02*
X378Y807D01*
X400Y807D02*
X433Y807D01*
X815Y807D02*
X848Y807D01*
X976Y807D02*
X983Y807D01*
X0Y806D02*
X7Y806D01*
X401Y806D02*
X433Y806D01*
X813Y806D02*
X828Y806D01*
X835Y806D02*
X850Y806D01*
X976Y806D02*
X983Y806D01*
X0Y805D02*
X7Y805D01*
X402Y805D02*
X432Y805D01*
X811Y805D02*
X825Y805D01*
X837Y805D02*
X852Y805D01*
X976Y805D02*
X983Y805D01*
X0Y804D02*
X7Y804D01*
X809Y804D02*
X823Y804D01*
X839Y804D02*
X853Y804D01*
X976Y804D02*
X983Y804D01*
X0Y803D02*
X7Y803D01*
X808Y803D02*
X821Y803D01*
X841Y803D02*
X855Y803D01*
X976Y803D02*
X983Y803D01*
X0Y802D02*
X7Y802D01*
X807Y802D02*
X819Y802D01*
X843Y802D02*
X856Y802D01*
X976Y802D02*
X983Y802D01*
X0Y801D02*
X7Y801D01*
X806Y801D02*
X817Y801D01*
X845Y801D02*
X856Y801D01*
X976Y801D02*
X983Y801D01*
X0Y800D02*
X7Y800D01*
X805Y800D02*
X815Y800D01*
X847Y800D02*
X857Y800D01*
X976Y800D02*
X983Y800D01*
X0Y799D02*
X7Y799D01*
X805Y799D02*
X813Y799D01*
X849Y799D02*
X857Y799D01*
X976Y799D02*
X983Y799D01*
X0Y798D02*
X7Y798D01*
X805Y798D02*
X812Y798D01*
X851Y798D02*
X857Y798D01*
X976Y798D02*
X983Y798D01*
X0Y797D02*
X7Y797D01*
X805Y797D02*
X811Y797D01*
X851Y797D02*
X858Y797D01*
X976Y797D02*
X983Y797D01*
X0Y796D02*
X7Y796D01*
X805Y796D02*
X811Y796D01*
X852Y796D02*
X858Y796D01*
X976Y796D02*
X983Y796D01*
X0Y795D02*
X7Y795D01*
X805Y795D02*
X811Y795D01*
X851Y795D02*
X858Y795D01*
X976Y795D02*
X983Y795D01*
X0Y794D02*
X7Y794D01*
X805Y794D02*
X812Y794D01*
X850Y794D02*
X857Y794D01*
X976Y794D02*
X983Y794D01*
X0Y793D02*
X7Y793D01*
X805Y793D02*
X814Y793D01*
X848Y793D02*
X857Y793D01*
X976Y793D02*
X983Y793D01*
X0Y792D02*
X7Y792D01*
X806Y792D02*
X816Y792D01*
X846Y792D02*
X857Y792D01*
X976Y792D02*
X983Y792D01*
X0Y791D02*
X7Y791D01*
X806Y791D02*
X818Y791D01*
X844Y791D02*
X856Y791D01*
X976Y791D02*
X983Y791D01*
X0Y790D02*
X7Y790D01*
X807Y790D02*
X820Y790D01*
X842Y790D02*
X855Y790D01*
X976Y790D02*
X983Y790D01*
X0Y789D02*
X7Y789D01*
X808Y789D02*
X822Y789D01*
X840Y789D02*
X854Y789D01*
X976Y789D02*
X983Y789D01*
X0Y788D02*
X7Y788D01*
X810Y788D02*
X824Y788D01*
X838Y788D02*
X852Y788D01*
X976Y788D02*
X983Y788D01*
X0Y787D02*
X7Y787D01*
X812Y787D02*
X827Y787D01*
X836Y787D02*
X850Y787D01*
X976Y787D02*
X983Y787D01*
X0Y786D02*
X7Y786D01*
X814Y786D02*
X848Y786D01*
X976Y786D02*
X983Y786D01*
X0Y785D02*
X7Y785D01*
X816Y785D02*
X846Y785D01*
X976Y785D02*
X983Y785D01*
X0Y784D02*
X7Y784D01*
X818Y784D02*
X844Y784D01*
X976Y784D02*
X983Y784D01*
X0Y783D02*
X7Y783D01*
X820Y783D02*
X842Y783D01*
X976Y783D02*
X983Y783D01*
X0Y782D02*
X7Y782D01*
X822Y782D02*
X840Y782D01*
X976Y782D02*
X983Y782D01*
X0Y781D02*
X7Y781D01*
X824Y781D02*
X838Y781D01*
X976Y781D02*
X983Y781D01*
X0Y780D02*
X7Y780D01*
X826Y780D02*
X836Y780D01*
X976Y780D02*
X983Y780D01*
X0Y779D02*
X7Y779D01*
X831Y779D02*
X831Y779D01*
X976Y779D02*
X983Y779D01*
X0Y778D02*
X7Y778D01*
X976Y778D02*
X983Y778D01*
X0Y777D02*
X7Y777D01*
X976Y777D02*
X983Y777D01*
X0Y776D02*
X7Y776D01*
X976Y776D02*
X983Y776D01*
X0Y775D02*
X7Y775D01*
X976Y775D02*
X983Y775D01*
X0Y774D02*
X7Y774D01*
X976Y774D02*
X983Y774D01*
X0Y773D02*
X7Y773D01*
X976Y773D02*
X983Y773D01*
X0Y772D02*
X7Y772D01*
X976Y772D02*
X983Y772D01*
X0Y771D02*
X7Y771D01*
X976Y771D02*
X983Y771D01*
X0Y770D02*
X7Y770D01*
X976Y770D02*
X983Y770D01*
X0Y769D02*
X7Y769D01*
X976Y769D02*
X983Y769D01*
X0Y768D02*
X7Y768D01*
X976Y768D02*
X983Y768D01*
X0Y767D02*
X7Y767D01*
X976Y767D02*
X983Y767D01*
X0Y766D02*
X7Y766D01*
X976Y766D02*
X983Y766D01*
X0Y765D02*
X7Y765D01*
X976Y765D02*
X983Y765D01*
X0Y764D02*
X7Y764D01*
X976Y764D02*
X983Y764D01*
X0Y763D02*
X7Y763D01*
X807Y763D02*
X858Y763D01*
X976Y763D02*
X983Y763D01*
X0Y762D02*
X7Y762D01*
X805Y762D02*
X858Y762D01*
X976Y762D02*
X983Y762D01*
X0Y761D02*
X7Y761D01*
X805Y761D02*
X858Y761D01*
X976Y761D02*
X983Y761D01*
X0Y760D02*
X7Y760D01*
X805Y760D02*
X858Y760D01*
X976Y760D02*
X983Y760D01*
X0Y759D02*
X7Y759D01*
X805Y759D02*
X858Y759D01*
X976Y759D02*
X983Y759D01*
X0Y758D02*
X7Y758D01*
X805Y758D02*
X858Y758D01*
X976Y758D02*
X983Y758D01*
X0Y757D02*
X7Y757D01*
X806Y757D02*
X858Y757D01*
X976Y757D02*
X983Y757D01*
X0Y756D02*
X7Y756D01*
X834Y756D02*
X840Y756D01*
X852Y756D02*
X858Y756D01*
X976Y756D02*
X983Y756D01*
X0Y755D02*
X7Y755D01*
X834Y755D02*
X840Y755D01*
X852Y755D02*
X858Y755D01*
X976Y755D02*
X983Y755D01*
X0Y754D02*
X7Y754D01*
X834Y754D02*
X840Y754D01*
X852Y754D02*
X858Y754D01*
X976Y754D02*
X983Y754D01*
X0Y753D02*
X7Y753D01*
X834Y753D02*
X840Y753D01*
X852Y753D02*
X858Y753D01*
X976Y753D02*
X983Y753D01*
X0Y752D02*
X7Y752D01*
X834Y752D02*
X840Y752D01*
X852Y752D02*
X858Y752D01*
X976Y752D02*
X983Y752D01*
X0Y751D02*
X7Y751D01*
X834Y751D02*
X840Y751D01*
X852Y751D02*
X858Y751D01*
X976Y751D02*
X983Y751D01*
X0Y750D02*
X7Y750D01*
X834Y750D02*
X840Y750D01*
X852Y750D02*
X858Y750D01*
X976Y750D02*
X983Y750D01*
X0Y749D02*
X7Y749D01*
X834Y749D02*
X840Y749D01*
X852Y749D02*
X858Y749D01*
X976Y749D02*
X983Y749D01*
X0Y748D02*
X7Y748D01*
X834Y748D02*
X840Y748D01*
X852Y748D02*
X858Y748D01*
X976Y748D02*
X983Y748D01*
X0Y747D02*
X7Y747D01*
X834Y747D02*
X840Y747D01*
X852Y747D02*
X858Y747D01*
X976Y747D02*
X983Y747D01*
X0Y746D02*
X7Y746D01*
X834Y746D02*
X840Y746D01*
X852Y746D02*
X858Y746D01*
X976Y746D02*
X983Y746D01*
X0Y745D02*
X7Y745D01*
X834Y745D02*
X840Y745D01*
X852Y745D02*
X858Y745D01*
X976Y745D02*
X983Y745D01*
X0Y744D02*
X7Y744D01*
X834Y744D02*
X840Y744D01*
X852Y744D02*
X858Y744D01*
X976Y744D02*
X983Y744D01*
X0Y743D02*
X7Y743D01*
X834Y743D02*
X840Y743D01*
X852Y743D02*
X858Y743D01*
X976Y743D02*
X983Y743D01*
X0Y742D02*
X7Y742D01*
X834Y742D02*
X840Y742D01*
X852Y742D02*
X858Y742D01*
X976Y742D02*
X983Y742D01*
X0Y741D02*
X7Y741D01*
X834Y741D02*
X840Y741D01*
X852Y741D02*
X858Y741D01*
X976Y741D02*
X983Y741D01*
X0Y740D02*
X7Y740D01*
X834Y740D02*
X840Y740D01*
X852Y740D02*
X858Y740D01*
X976Y740D02*
X983Y740D01*
X0Y739D02*
X7Y739D01*
X834Y739D02*
X840Y739D01*
X852Y739D02*
X858Y739D01*
X976Y739D02*
X983Y739D01*
X0Y738D02*
X7Y738D01*
X834Y738D02*
X840Y738D01*
X852Y738D02*
X858Y738D01*
X976Y738D02*
X983Y738D01*
X0Y737D02*
X7Y737D01*
X835Y737D02*
X839Y737D01*
X852Y737D02*
X858Y737D01*
X976Y737D02*
X983Y737D01*
X0Y736D02*
X7Y736D01*
X836Y736D02*
X838Y736D01*
X852Y736D02*
X858Y736D01*
X976Y736D02*
X983Y736D01*
X0Y735D02*
X7Y735D01*
X852Y735D02*
X858Y735D01*
X976Y735D02*
X983Y735D01*
X0Y734D02*
X7Y734D01*
X852Y734D02*
X858Y734D01*
X976Y734D02*
X983Y734D01*
X0Y733D02*
X7Y733D01*
X852Y733D02*
X858Y733D01*
X976Y733D02*
X983Y733D01*
X0Y732D02*
X7Y732D01*
X852Y732D02*
X858Y732D01*
X976Y732D02*
X983Y732D01*
X0Y731D02*
X7Y731D01*
X852Y731D02*
X857Y731D01*
X976Y731D02*
X983Y731D01*
X0Y730D02*
X7Y730D01*
X29Y730D02*
X30Y730D01*
X128Y730D02*
X129Y730D01*
X853Y730D02*
X857Y730D01*
X976Y730D02*
X983Y730D01*
X0Y729D02*
X7Y729D01*
X26Y729D02*
X30Y729D01*
X128Y729D02*
X132Y729D01*
X854Y729D02*
X855Y729D01*
X976Y729D02*
X983Y729D01*
X0Y728D02*
X7Y728D01*
X24Y728D02*
X30Y728D01*
X128Y728D02*
X134Y728D01*
X976Y728D02*
X983Y728D01*
X0Y727D02*
X7Y727D01*
X23Y727D02*
X30Y727D01*
X128Y727D02*
X135Y727D01*
X976Y727D02*
X983Y727D01*
X0Y726D02*
X7Y726D01*
X22Y726D02*
X30Y726D01*
X128Y726D02*
X136Y726D01*
X163Y726D02*
X167Y726D01*
X265Y726D02*
X268Y726D01*
X976Y726D02*
X983Y726D01*
X0Y725D02*
X7Y725D01*
X21Y725D02*
X30Y725D01*
X128Y725D02*
X137Y725D01*
X161Y725D02*
X167Y725D01*
X265Y725D02*
X270Y725D01*
X976Y725D02*
X983Y725D01*
X0Y724D02*
X7Y724D01*
X20Y724D02*
X28Y724D01*
X130Y724D02*
X138Y724D01*
X160Y724D02*
X167Y724D01*
X265Y724D02*
X272Y724D01*
X976Y724D02*
X983Y724D01*
X0Y723D02*
X7Y723D01*
X20Y723D02*
X26Y723D01*
X132Y723D02*
X138Y723D01*
X159Y723D02*
X167Y723D01*
X265Y723D02*
X273Y723D01*
X976Y723D02*
X983Y723D01*
X0Y722D02*
X7Y722D01*
X19Y722D02*
X25Y722D01*
X133Y722D02*
X139Y722D01*
X158Y722D02*
X167Y722D01*
X265Y722D02*
X274Y722D01*
X322Y722D02*
X324Y722D01*
X422Y722D02*
X425Y722D01*
X976Y722D02*
X983Y722D01*
X0Y721D02*
X7Y721D01*
X19Y721D02*
X24Y721D01*
X134Y721D02*
X139Y721D01*
X157Y721D02*
X166Y721D01*
X266Y721D02*
X274Y721D01*
X320Y721D02*
X324Y721D01*
X422Y721D02*
X427Y721D01*
X976Y721D02*
X983Y721D01*
X0Y720D02*
X7Y720D01*
X19Y720D02*
X24Y720D01*
X134Y720D02*
X140Y720D01*
X157Y720D02*
X163Y720D01*
X269Y720D02*
X275Y720D01*
X318Y720D02*
X324Y720D01*
X422Y720D02*
X429Y720D01*
X976Y720D02*
X983Y720D01*
X0Y719D02*
X7Y719D01*
X19Y719D02*
X24Y719D01*
X135Y719D02*
X140Y719D01*
X156Y719D02*
X162Y719D01*
X270Y719D02*
X275Y719D01*
X317Y719D02*
X324Y719D01*
X422Y719D02*
X430Y719D01*
X976Y719D02*
X983Y719D01*
X0Y718D02*
X7Y718D01*
X18Y718D02*
X23Y718D01*
X135Y718D02*
X140Y718D01*
X156Y718D02*
X161Y718D01*
X271Y718D02*
X276Y718D01*
X316Y718D02*
X324Y718D01*
X422Y718D02*
X431Y718D01*
X976Y718D02*
X983Y718D01*
X0Y717D02*
X7Y717D01*
X155Y717D02*
X160Y717D01*
X271Y717D02*
X276Y717D01*
X315Y717D02*
X324Y717D01*
X422Y717D02*
X432Y717D01*
X976Y717D02*
X983Y717D01*
X0Y716D02*
X7Y716D01*
X155Y716D02*
X160Y716D01*
X271Y716D02*
X276Y716D01*
X314Y716D02*
X321Y716D01*
X425Y716D02*
X432Y716D01*
X976Y716D02*
X983Y716D01*
X0Y715D02*
X7Y715D01*
X155Y715D02*
X160Y715D01*
X271Y715D02*
X276Y715D01*
X314Y715D02*
X320Y715D01*
X427Y715D02*
X433Y715D01*
X976Y715D02*
X983Y715D01*
X0Y714D02*
X7Y714D01*
X271Y714D02*
X276Y714D01*
X313Y714D02*
X319Y714D01*
X428Y714D02*
X433Y714D01*
X976Y714D02*
X983Y714D01*
X0Y713D02*
X7Y713D01*
X271Y713D02*
X276Y713D01*
X313Y713D02*
X318Y713D01*
X428Y713D02*
X434Y713D01*
X807Y713D02*
X857Y713D01*
X976Y713D02*
X983Y713D01*
X0Y712D02*
X7Y712D01*
X271Y712D02*
X276Y712D01*
X313Y712D02*
X318Y712D01*
X429Y712D02*
X434Y712D01*
X806Y712D02*
X858Y712D01*
X976Y712D02*
X983Y712D01*
X0Y711D02*
X7Y711D01*
X271Y711D02*
X276Y711D01*
X313Y711D02*
X318Y711D01*
X429Y711D02*
X434Y711D01*
X805Y711D02*
X858Y711D01*
X976Y711D02*
X983Y711D01*
X0Y710D02*
X7Y710D01*
X271Y710D02*
X276Y710D01*
X313Y710D02*
X318Y710D01*
X429Y710D02*
X434Y710D01*
X805Y710D02*
X858Y710D01*
X976Y710D02*
X983Y710D01*
X0Y709D02*
X7Y709D01*
X271Y709D02*
X276Y709D01*
X805Y709D02*
X858Y709D01*
X976Y709D02*
X983Y709D01*
X0Y708D02*
X7Y708D01*
X237Y708D02*
X246Y708D01*
X271Y708D02*
X276Y708D01*
X805Y708D02*
X858Y708D01*
X976Y708D02*
X983Y708D01*
X0Y707D02*
X7Y707D01*
X234Y707D02*
X248Y707D01*
X271Y707D02*
X276Y707D01*
X806Y707D02*
X858Y707D01*
X976Y707D02*
X983Y707D01*
X0Y706D02*
X7Y706D01*
X232Y706D02*
X250Y706D01*
X271Y706D02*
X276Y706D01*
X834Y706D02*
X840Y706D01*
X851Y706D02*
X858Y706D01*
X976Y706D02*
X983Y706D01*
X0Y705D02*
X7Y705D01*
X231Y705D02*
X252Y705D01*
X271Y705D02*
X276Y705D01*
X834Y705D02*
X840Y705D01*
X852Y705D02*
X858Y705D01*
X976Y705D02*
X983Y705D01*
X0Y704D02*
X7Y704D01*
X230Y704D02*
X253Y704D01*
X271Y704D02*
X276Y704D01*
X834Y704D02*
X840Y704D01*
X852Y704D02*
X858Y704D01*
X976Y704D02*
X983Y704D01*
X0Y703D02*
X7Y703D01*
X229Y703D02*
X254Y703D01*
X271Y703D02*
X276Y703D01*
X834Y703D02*
X840Y703D01*
X852Y703D02*
X858Y703D01*
X976Y703D02*
X983Y703D01*
X0Y702D02*
X7Y702D01*
X228Y702D02*
X255Y702D01*
X271Y702D02*
X276Y702D01*
X834Y702D02*
X840Y702D01*
X852Y702D02*
X858Y702D01*
X976Y702D02*
X983Y702D01*
X0Y701D02*
X7Y701D01*
X227Y701D02*
X255Y701D01*
X271Y701D02*
X276Y701D01*
X834Y701D02*
X840Y701D01*
X852Y701D02*
X858Y701D01*
X976Y701D02*
X983Y701D01*
X0Y700D02*
X7Y700D01*
X227Y700D02*
X256Y700D01*
X271Y700D02*
X276Y700D01*
X834Y700D02*
X840Y700D01*
X852Y700D02*
X858Y700D01*
X976Y700D02*
X983Y700D01*
X0Y699D02*
X7Y699D01*
X226Y699D02*
X257Y699D01*
X271Y699D02*
X276Y699D01*
X834Y699D02*
X840Y699D01*
X852Y699D02*
X858Y699D01*
X976Y699D02*
X983Y699D01*
X0Y698D02*
X7Y698D01*
X226Y698D02*
X237Y698D01*
X245Y698D02*
X257Y698D01*
X271Y698D02*
X276Y698D01*
X834Y698D02*
X840Y698D01*
X852Y698D02*
X858Y698D01*
X976Y698D02*
X983Y698D01*
X0Y697D02*
X7Y697D01*
X225Y697D02*
X236Y697D01*
X247Y697D02*
X257Y697D01*
X271Y697D02*
X276Y697D01*
X834Y697D02*
X840Y697D01*
X852Y697D02*
X858Y697D01*
X976Y697D02*
X983Y697D01*
X0Y696D02*
X7Y696D01*
X225Y696D02*
X235Y696D01*
X248Y696D02*
X258Y696D01*
X271Y696D02*
X276Y696D01*
X834Y696D02*
X840Y696D01*
X852Y696D02*
X858Y696D01*
X976Y696D02*
X983Y696D01*
X0Y695D02*
X7Y695D01*
X225Y695D02*
X234Y695D01*
X249Y695D02*
X258Y695D01*
X271Y695D02*
X276Y695D01*
X834Y695D02*
X840Y695D01*
X852Y695D02*
X858Y695D01*
X976Y695D02*
X983Y695D01*
X0Y694D02*
X7Y694D01*
X224Y694D02*
X234Y694D01*
X249Y694D02*
X258Y694D01*
X271Y694D02*
X276Y694D01*
X834Y694D02*
X840Y694D01*
X852Y694D02*
X858Y694D01*
X976Y694D02*
X983Y694D01*
X0Y693D02*
X7Y693D01*
X224Y693D02*
X233Y693D01*
X249Y693D02*
X258Y693D01*
X271Y693D02*
X276Y693D01*
X834Y693D02*
X840Y693D01*
X852Y693D02*
X858Y693D01*
X976Y693D02*
X983Y693D01*
X0Y692D02*
X7Y692D01*
X224Y692D02*
X233Y692D01*
X250Y692D02*
X258Y692D01*
X271Y692D02*
X276Y692D01*
X834Y692D02*
X840Y692D01*
X852Y692D02*
X858Y692D01*
X976Y692D02*
X983Y692D01*
X0Y691D02*
X7Y691D01*
X224Y691D02*
X233Y691D01*
X250Y691D02*
X259Y691D01*
X271Y691D02*
X276Y691D01*
X341Y691D02*
X343Y691D01*
X392Y691D02*
X409Y691D01*
X834Y691D02*
X840Y691D01*
X852Y691D02*
X858Y691D01*
X976Y691D02*
X983Y691D01*
X0Y690D02*
X7Y690D01*
X224Y690D02*
X233Y690D01*
X250Y690D02*
X258Y690D01*
X271Y690D02*
X276Y690D01*
X340Y690D02*
X344Y690D01*
X389Y690D02*
X412Y690D01*
X834Y690D02*
X840Y690D01*
X852Y690D02*
X858Y690D01*
X976Y690D02*
X983Y690D01*
X0Y689D02*
X7Y689D01*
X224Y689D02*
X233Y689D01*
X249Y689D02*
X258Y689D01*
X271Y689D02*
X276Y689D01*
X339Y689D02*
X345Y689D01*
X388Y689D02*
X413Y689D01*
X834Y689D02*
X840Y689D01*
X852Y689D02*
X858Y689D01*
X976Y689D02*
X983Y689D01*
X0Y688D02*
X7Y688D01*
X224Y688D02*
X234Y688D01*
X249Y688D02*
X258Y688D01*
X271Y688D02*
X276Y688D01*
X339Y688D02*
X345Y688D01*
X387Y688D02*
X415Y688D01*
X834Y688D02*
X840Y688D01*
X852Y688D02*
X858Y688D01*
X976Y688D02*
X983Y688D01*
X0Y687D02*
X7Y687D01*
X225Y687D02*
X234Y687D01*
X249Y687D02*
X258Y687D01*
X271Y687D02*
X276Y687D01*
X339Y687D02*
X345Y687D01*
X386Y687D02*
X415Y687D01*
X835Y687D02*
X839Y687D01*
X852Y687D02*
X858Y687D01*
X976Y687D02*
X983Y687D01*
X0Y686D02*
X7Y686D01*
X225Y686D02*
X235Y686D01*
X248Y686D02*
X258Y686D01*
X271Y686D02*
X276Y686D01*
X339Y686D02*
X345Y686D01*
X385Y686D02*
X416Y686D01*
X836Y686D02*
X838Y686D01*
X852Y686D02*
X858Y686D01*
X976Y686D02*
X983Y686D01*
X0Y685D02*
X7Y685D01*
X225Y685D02*
X236Y685D01*
X247Y685D02*
X257Y685D01*
X271Y685D02*
X276Y685D01*
X339Y685D02*
X345Y685D01*
X385Y685D02*
X417Y685D01*
X852Y685D02*
X858Y685D01*
X976Y685D02*
X983Y685D01*
X0Y684D02*
X7Y684D01*
X226Y684D02*
X237Y684D01*
X245Y684D02*
X257Y684D01*
X271Y684D02*
X276Y684D01*
X339Y684D02*
X345Y684D01*
X384Y684D02*
X392Y684D01*
X409Y684D02*
X417Y684D01*
X852Y684D02*
X858Y684D01*
X976Y684D02*
X983Y684D01*
X0Y683D02*
X7Y683D01*
X226Y683D02*
X257Y683D01*
X271Y683D02*
X276Y683D01*
X339Y683D02*
X345Y683D01*
X384Y683D02*
X391Y683D01*
X411Y683D02*
X417Y683D01*
X852Y683D02*
X858Y683D01*
X976Y683D02*
X983Y683D01*
X0Y682D02*
X7Y682D01*
X227Y682D02*
X256Y682D01*
X271Y682D02*
X276Y682D01*
X339Y682D02*
X345Y682D01*
X384Y682D02*
X390Y682D01*
X411Y682D02*
X417Y682D01*
X852Y682D02*
X858Y682D01*
X976Y682D02*
X983Y682D01*
X0Y681D02*
X7Y681D01*
X227Y681D02*
X255Y681D01*
X271Y681D02*
X276Y681D01*
X339Y681D02*
X345Y681D01*
X384Y681D02*
X390Y681D01*
X411Y681D02*
X417Y681D01*
X852Y681D02*
X857Y681D01*
X976Y681D02*
X983Y681D01*
X0Y680D02*
X7Y680D01*
X228Y680D02*
X255Y680D01*
X271Y680D02*
X276Y680D01*
X339Y680D02*
X345Y680D01*
X384Y680D02*
X390Y680D01*
X411Y680D02*
X417Y680D01*
X852Y680D02*
X857Y680D01*
X976Y680D02*
X983Y680D01*
X0Y679D02*
X7Y679D01*
X229Y679D02*
X254Y679D01*
X271Y679D02*
X276Y679D01*
X339Y679D02*
X345Y679D01*
X384Y679D02*
X390Y679D01*
X411Y679D02*
X417Y679D01*
X854Y679D02*
X856Y679D01*
X976Y679D02*
X983Y679D01*
X0Y678D02*
X7Y678D01*
X230Y678D02*
X253Y678D01*
X271Y678D02*
X276Y678D01*
X339Y678D02*
X345Y678D01*
X384Y678D02*
X390Y678D01*
X411Y678D02*
X417Y678D01*
X976Y678D02*
X983Y678D01*
X0Y677D02*
X7Y677D01*
X231Y677D02*
X251Y677D01*
X271Y677D02*
X276Y677D01*
X339Y677D02*
X345Y677D01*
X384Y677D02*
X390Y677D01*
X411Y677D02*
X417Y677D01*
X976Y677D02*
X983Y677D01*
X0Y676D02*
X7Y676D01*
X45Y676D02*
X72Y676D01*
X98Y676D02*
X116Y676D01*
X232Y676D02*
X247Y676D01*
X271Y676D02*
X276Y676D01*
X339Y676D02*
X345Y676D01*
X384Y676D02*
X390Y676D01*
X411Y676D02*
X417Y676D01*
X976Y676D02*
X983Y676D01*
X0Y675D02*
X7Y675D01*
X43Y675D02*
X73Y675D01*
X96Y675D02*
X119Y675D01*
X234Y675D02*
X245Y675D01*
X271Y675D02*
X276Y675D01*
X339Y675D02*
X345Y675D01*
X384Y675D02*
X390Y675D01*
X411Y675D02*
X417Y675D01*
X976Y675D02*
X983Y675D01*
X0Y674D02*
X7Y674D01*
X42Y674D02*
X73Y674D01*
X94Y674D02*
X120Y674D01*
X237Y674D02*
X243Y674D01*
X271Y674D02*
X276Y674D01*
X339Y674D02*
X345Y674D01*
X384Y674D02*
X390Y674D01*
X411Y674D02*
X417Y674D01*
X976Y674D02*
X983Y674D01*
X0Y673D02*
X7Y673D01*
X41Y673D02*
X74Y673D01*
X93Y673D02*
X121Y673D01*
X179Y673D02*
X210Y673D01*
X235Y673D02*
X241Y673D01*
X271Y673D02*
X276Y673D01*
X337Y673D02*
X366Y673D01*
X384Y673D02*
X390Y673D01*
X411Y673D02*
X417Y673D01*
X976Y673D02*
X983Y673D01*
X0Y672D02*
X7Y672D01*
X41Y672D02*
X73Y672D01*
X92Y672D02*
X122Y672D01*
X178Y672D02*
X210Y672D01*
X233Y672D02*
X240Y672D01*
X271Y672D02*
X276Y672D01*
X336Y672D02*
X366Y672D01*
X384Y672D02*
X390Y672D01*
X411Y672D02*
X417Y672D01*
X976Y672D02*
X983Y672D01*
X0Y671D02*
X7Y671D01*
X40Y671D02*
X73Y671D01*
X92Y671D02*
X122Y671D01*
X177Y671D02*
X210Y671D01*
X231Y671D02*
X238Y671D01*
X272Y671D02*
X276Y671D01*
X336Y671D02*
X366Y671D01*
X384Y671D02*
X390Y671D01*
X411Y671D02*
X417Y671D01*
X976Y671D02*
X983Y671D01*
X0Y670D02*
X7Y670D01*
X40Y670D02*
X72Y670D01*
X91Y670D02*
X123Y670D01*
X177Y670D02*
X210Y670D01*
X230Y670D02*
X237Y670D01*
X273Y670D02*
X276Y670D01*
X335Y670D02*
X366Y670D01*
X384Y670D02*
X390Y670D01*
X411Y670D02*
X417Y670D01*
X976Y670D02*
X983Y670D01*
X0Y669D02*
X7Y669D01*
X40Y669D02*
X46Y669D01*
X91Y669D02*
X98Y669D01*
X116Y669D02*
X123Y669D01*
X177Y669D02*
X210Y669D01*
X229Y669D02*
X236Y669D01*
X274Y669D02*
X276Y669D01*
X336Y669D02*
X366Y669D01*
X384Y669D02*
X390Y669D01*
X411Y669D02*
X417Y669D01*
X976Y669D02*
X983Y669D01*
X0Y668D02*
X7Y668D01*
X40Y668D02*
X46Y668D01*
X90Y668D02*
X97Y668D01*
X117Y668D02*
X124Y668D01*
X177Y668D02*
X210Y668D01*
X228Y668D02*
X236Y668D01*
X275Y668D02*
X276Y668D01*
X336Y668D02*
X366Y668D01*
X384Y668D02*
X390Y668D01*
X411Y668D02*
X417Y668D01*
X976Y668D02*
X983Y668D01*
X0Y667D02*
X7Y667D01*
X40Y667D02*
X46Y667D01*
X90Y667D02*
X97Y667D01*
X118Y667D02*
X124Y667D01*
X178Y667D02*
X210Y667D01*
X228Y667D02*
X235Y667D01*
X276Y667D02*
X276Y667D01*
X337Y667D02*
X366Y667D01*
X384Y667D02*
X390Y667D01*
X411Y667D02*
X417Y667D01*
X976Y667D02*
X983Y667D01*
X0Y666D02*
X7Y666D01*
X40Y666D02*
X46Y666D01*
X90Y666D02*
X96Y666D01*
X118Y666D02*
X124Y666D01*
X204Y666D02*
X210Y666D01*
X227Y666D02*
X234Y666D01*
X276Y666D02*
X276Y666D01*
X339Y666D02*
X345Y666D01*
X360Y666D02*
X366Y666D01*
X384Y666D02*
X390Y666D01*
X411Y666D02*
X417Y666D01*
X976Y666D02*
X983Y666D01*
X0Y665D02*
X7Y665D01*
X40Y665D02*
X46Y665D01*
X90Y665D02*
X96Y665D01*
X118Y665D02*
X124Y665D01*
X204Y665D02*
X210Y665D01*
X227Y665D02*
X234Y665D01*
X339Y665D02*
X345Y665D01*
X360Y665D02*
X366Y665D01*
X384Y665D02*
X390Y665D01*
X411Y665D02*
X417Y665D01*
X976Y665D02*
X983Y665D01*
X0Y664D02*
X7Y664D01*
X40Y664D02*
X46Y664D01*
X90Y664D02*
X96Y664D01*
X118Y664D02*
X124Y664D01*
X204Y664D02*
X210Y664D01*
X227Y664D02*
X233Y664D01*
X339Y664D02*
X345Y664D01*
X360Y664D02*
X366Y664D01*
X384Y664D02*
X390Y664D01*
X411Y664D02*
X417Y664D01*
X976Y664D02*
X983Y664D01*
X0Y663D02*
X7Y663D01*
X40Y663D02*
X46Y663D01*
X90Y663D02*
X96Y663D01*
X118Y663D02*
X124Y663D01*
X204Y663D02*
X210Y663D01*
X227Y663D02*
X233Y663D01*
X339Y663D02*
X345Y663D01*
X360Y663D02*
X366Y663D01*
X384Y663D02*
X390Y663D01*
X411Y663D02*
X417Y663D01*
X976Y663D02*
X983Y663D01*
X0Y662D02*
X7Y662D01*
X40Y662D02*
X46Y662D01*
X90Y662D02*
X96Y662D01*
X118Y662D02*
X124Y662D01*
X204Y662D02*
X210Y662D01*
X227Y662D02*
X232Y662D01*
X339Y662D02*
X345Y662D01*
X360Y662D02*
X366Y662D01*
X384Y662D02*
X390Y662D01*
X411Y662D02*
X417Y662D01*
X976Y662D02*
X983Y662D01*
X0Y661D02*
X7Y661D01*
X40Y661D02*
X46Y661D01*
X90Y661D02*
X96Y661D01*
X118Y661D02*
X124Y661D01*
X204Y661D02*
X210Y661D01*
X227Y661D02*
X232Y661D01*
X339Y661D02*
X345Y661D01*
X360Y661D02*
X366Y661D01*
X384Y661D02*
X390Y661D01*
X411Y661D02*
X417Y661D01*
X976Y661D02*
X983Y661D01*
X0Y660D02*
X7Y660D01*
X40Y660D02*
X46Y660D01*
X90Y660D02*
X96Y660D01*
X118Y660D02*
X124Y660D01*
X204Y660D02*
X210Y660D01*
X227Y660D02*
X231Y660D01*
X339Y660D02*
X345Y660D01*
X360Y660D02*
X366Y660D01*
X384Y660D02*
X390Y660D01*
X411Y660D02*
X417Y660D01*
X976Y660D02*
X983Y660D01*
X0Y659D02*
X7Y659D01*
X40Y659D02*
X46Y659D01*
X90Y659D02*
X96Y659D01*
X118Y659D02*
X124Y659D01*
X204Y659D02*
X210Y659D01*
X227Y659D02*
X231Y659D01*
X339Y659D02*
X345Y659D01*
X360Y659D02*
X366Y659D01*
X384Y659D02*
X390Y659D01*
X411Y659D02*
X417Y659D01*
X976Y659D02*
X983Y659D01*
X0Y658D02*
X7Y658D01*
X40Y658D02*
X46Y658D01*
X90Y658D02*
X96Y658D01*
X118Y658D02*
X124Y658D01*
X204Y658D02*
X210Y658D01*
X227Y658D02*
X231Y658D01*
X339Y658D02*
X345Y658D01*
X360Y658D02*
X366Y658D01*
X384Y658D02*
X390Y658D01*
X411Y658D02*
X417Y658D01*
X976Y658D02*
X983Y658D01*
X0Y657D02*
X7Y657D01*
X40Y657D02*
X46Y657D01*
X90Y657D02*
X96Y657D01*
X118Y657D02*
X124Y657D01*
X204Y657D02*
X210Y657D01*
X227Y657D02*
X231Y657D01*
X339Y657D02*
X345Y657D01*
X360Y657D02*
X366Y657D01*
X384Y657D02*
X390Y657D01*
X411Y657D02*
X417Y657D01*
X976Y657D02*
X983Y657D01*
X0Y656D02*
X7Y656D01*
X40Y656D02*
X46Y656D01*
X90Y656D02*
X96Y656D01*
X118Y656D02*
X124Y656D01*
X204Y656D02*
X210Y656D01*
X227Y656D02*
X230Y656D01*
X339Y656D02*
X345Y656D01*
X360Y656D02*
X366Y656D01*
X384Y656D02*
X390Y656D01*
X411Y656D02*
X417Y656D01*
X976Y656D02*
X983Y656D01*
X0Y655D02*
X7Y655D01*
X40Y655D02*
X46Y655D01*
X90Y655D02*
X96Y655D01*
X118Y655D02*
X124Y655D01*
X204Y655D02*
X210Y655D01*
X227Y655D02*
X230Y655D01*
X339Y655D02*
X345Y655D01*
X360Y655D02*
X366Y655D01*
X384Y655D02*
X390Y655D01*
X411Y655D02*
X417Y655D01*
X976Y655D02*
X983Y655D01*
X0Y654D02*
X7Y654D01*
X40Y654D02*
X47Y654D01*
X90Y654D02*
X96Y654D01*
X118Y654D02*
X124Y654D01*
X204Y654D02*
X210Y654D01*
X227Y654D02*
X230Y654D01*
X339Y654D02*
X345Y654D01*
X360Y654D02*
X366Y654D01*
X384Y654D02*
X390Y654D01*
X411Y654D02*
X417Y654D01*
X976Y654D02*
X983Y654D01*
X0Y653D02*
X7Y653D01*
X41Y653D02*
X49Y653D01*
X90Y653D02*
X96Y653D01*
X118Y653D02*
X124Y653D01*
X204Y653D02*
X210Y653D01*
X227Y653D02*
X230Y653D01*
X339Y653D02*
X345Y653D01*
X360Y653D02*
X366Y653D01*
X384Y653D02*
X390Y653D01*
X411Y653D02*
X417Y653D01*
X976Y653D02*
X983Y653D01*
X0Y652D02*
X7Y652D01*
X41Y652D02*
X65Y652D01*
X90Y652D02*
X96Y652D01*
X118Y652D02*
X124Y652D01*
X204Y652D02*
X210Y652D01*
X227Y652D02*
X230Y652D01*
X339Y652D02*
X345Y652D01*
X360Y652D02*
X366Y652D01*
X384Y652D02*
X390Y652D01*
X411Y652D02*
X417Y652D01*
X976Y652D02*
X983Y652D01*
X0Y651D02*
X7Y651D01*
X42Y651D02*
X66Y651D01*
X90Y651D02*
X96Y651D01*
X118Y651D02*
X124Y651D01*
X204Y651D02*
X210Y651D01*
X227Y651D02*
X230Y651D01*
X339Y651D02*
X345Y651D01*
X360Y651D02*
X366Y651D01*
X384Y651D02*
X390Y651D01*
X411Y651D02*
X417Y651D01*
X976Y651D02*
X983Y651D01*
X0Y650D02*
X7Y650D01*
X42Y650D02*
X67Y650D01*
X90Y650D02*
X96Y650D01*
X118Y650D02*
X124Y650D01*
X204Y650D02*
X210Y650D01*
X227Y650D02*
X230Y650D01*
X339Y650D02*
X345Y650D01*
X360Y650D02*
X366Y650D01*
X384Y650D02*
X390Y650D01*
X411Y650D02*
X417Y650D01*
X976Y650D02*
X983Y650D01*
X0Y649D02*
X7Y649D01*
X43Y649D02*
X67Y649D01*
X90Y649D02*
X96Y649D01*
X118Y649D02*
X124Y649D01*
X181Y649D02*
X210Y649D01*
X227Y649D02*
X230Y649D01*
X339Y649D02*
X345Y649D01*
X360Y649D02*
X366Y649D01*
X384Y649D02*
X390Y649D01*
X411Y649D02*
X417Y649D01*
X976Y649D02*
X983Y649D01*
X0Y648D02*
X7Y648D01*
X42Y648D02*
X66Y648D01*
X90Y648D02*
X96Y648D01*
X118Y648D02*
X124Y648D01*
X179Y648D02*
X210Y648D01*
X227Y648D02*
X231Y648D01*
X339Y648D02*
X345Y648D01*
X360Y648D02*
X366Y648D01*
X384Y648D02*
X390Y648D01*
X411Y648D02*
X417Y648D01*
X976Y648D02*
X983Y648D01*
X0Y647D02*
X7Y647D01*
X41Y647D02*
X66Y647D01*
X90Y647D02*
X96Y647D01*
X118Y647D02*
X124Y647D01*
X178Y647D02*
X210Y647D01*
X227Y647D02*
X231Y647D01*
X339Y647D02*
X345Y647D01*
X360Y647D02*
X366Y647D01*
X384Y647D02*
X390Y647D01*
X411Y647D02*
X417Y647D01*
X976Y647D02*
X983Y647D01*
X0Y646D02*
X7Y646D01*
X41Y646D02*
X64Y646D01*
X90Y646D02*
X96Y646D01*
X118Y646D02*
X124Y646D01*
X178Y646D02*
X209Y646D01*
X227Y646D02*
X231Y646D01*
X339Y646D02*
X345Y646D01*
X360Y646D02*
X366Y646D01*
X384Y646D02*
X390Y646D01*
X411Y646D02*
X417Y646D01*
X976Y646D02*
X983Y646D01*
X0Y645D02*
X7Y645D01*
X40Y645D02*
X48Y645D01*
X90Y645D02*
X96Y645D01*
X118Y645D02*
X124Y645D01*
X177Y645D02*
X208Y645D01*
X227Y645D02*
X232Y645D01*
X339Y645D02*
X344Y645D01*
X360Y645D02*
X366Y645D01*
X384Y645D02*
X390Y645D01*
X411Y645D02*
X417Y645D01*
X976Y645D02*
X983Y645D01*
X0Y644D02*
X7Y644D01*
X40Y644D02*
X47Y644D01*
X90Y644D02*
X96Y644D01*
X118Y644D02*
X124Y644D01*
X177Y644D02*
X207Y644D01*
X227Y644D02*
X232Y644D01*
X340Y644D02*
X344Y644D01*
X360Y644D02*
X366Y644D01*
X384Y644D02*
X390Y644D01*
X411Y644D02*
X417Y644D01*
X976Y644D02*
X983Y644D01*
X0Y643D02*
X7Y643D01*
X40Y643D02*
X46Y643D01*
X90Y643D02*
X96Y643D01*
X118Y643D02*
X124Y643D01*
X177Y643D02*
X205Y643D01*
X227Y643D02*
X232Y643D01*
X360Y643D02*
X366Y643D01*
X384Y643D02*
X390Y643D01*
X411Y643D02*
X417Y643D01*
X976Y643D02*
X983Y643D01*
X0Y642D02*
X7Y642D01*
X40Y642D02*
X46Y642D01*
X90Y642D02*
X96Y642D01*
X118Y642D02*
X124Y642D01*
X177Y642D02*
X183Y642D01*
X227Y642D02*
X233Y642D01*
X360Y642D02*
X366Y642D01*
X384Y642D02*
X390Y642D01*
X411Y642D02*
X417Y642D01*
X976Y642D02*
X983Y642D01*
X0Y641D02*
X7Y641D01*
X40Y641D02*
X46Y641D01*
X90Y641D02*
X96Y641D01*
X118Y641D02*
X124Y641D01*
X177Y641D02*
X183Y641D01*
X227Y641D02*
X233Y641D01*
X360Y641D02*
X366Y641D01*
X384Y641D02*
X390Y641D01*
X411Y641D02*
X417Y641D01*
X976Y641D02*
X983Y641D01*
X0Y640D02*
X7Y640D01*
X40Y640D02*
X46Y640D01*
X90Y640D02*
X96Y640D01*
X118Y640D02*
X124Y640D01*
X177Y640D02*
X183Y640D01*
X227Y640D02*
X233Y640D01*
X360Y640D02*
X365Y640D01*
X384Y640D02*
X390Y640D01*
X412Y640D02*
X417Y640D01*
X976Y640D02*
X983Y640D01*
X0Y639D02*
X7Y639D01*
X40Y639D02*
X46Y639D01*
X90Y639D02*
X96Y639D01*
X118Y639D02*
X124Y639D01*
X177Y639D02*
X183Y639D01*
X227Y639D02*
X233Y639D01*
X276Y639D02*
X276Y639D01*
X360Y639D02*
X365Y639D01*
X384Y639D02*
X389Y639D01*
X412Y639D02*
X417Y639D01*
X976Y639D02*
X983Y639D01*
X0Y638D02*
X7Y638D01*
X40Y638D02*
X46Y638D01*
X90Y638D02*
X96Y638D01*
X118Y638D02*
X124Y638D01*
X177Y638D02*
X183Y638D01*
X227Y638D02*
X233Y638D01*
X275Y638D02*
X276Y638D01*
X361Y638D02*
X364Y638D01*
X385Y638D02*
X389Y638D01*
X413Y638D02*
X416Y638D01*
X976Y638D02*
X983Y638D01*
X0Y637D02*
X7Y637D01*
X40Y637D02*
X46Y637D01*
X90Y637D02*
X96Y637D01*
X118Y637D02*
X124Y637D01*
X177Y637D02*
X183Y637D01*
X227Y637D02*
X233Y637D01*
X275Y637D02*
X276Y637D01*
X976Y637D02*
X983Y637D01*
X0Y636D02*
X7Y636D01*
X40Y636D02*
X46Y636D01*
X90Y636D02*
X96Y636D01*
X118Y636D02*
X124Y636D01*
X177Y636D02*
X183Y636D01*
X227Y636D02*
X233Y636D01*
X274Y636D02*
X276Y636D01*
X976Y636D02*
X983Y636D01*
X0Y635D02*
X7Y635D01*
X40Y635D02*
X46Y635D01*
X90Y635D02*
X96Y635D01*
X118Y635D02*
X124Y635D01*
X177Y635D02*
X183Y635D01*
X227Y635D02*
X233Y635D01*
X273Y635D02*
X276Y635D01*
X976Y635D02*
X983Y635D01*
X0Y634D02*
X7Y634D01*
X40Y634D02*
X46Y634D01*
X90Y634D02*
X96Y634D01*
X118Y634D02*
X124Y634D01*
X177Y634D02*
X183Y634D01*
X227Y634D02*
X233Y634D01*
X272Y634D02*
X276Y634D01*
X976Y634D02*
X983Y634D01*
X0Y633D02*
X7Y633D01*
X40Y633D02*
X46Y633D01*
X90Y633D02*
X96Y633D01*
X118Y633D02*
X124Y633D01*
X177Y633D02*
X183Y633D01*
X227Y633D02*
X233Y633D01*
X271Y633D02*
X276Y633D01*
X976Y633D02*
X983Y633D01*
X0Y632D02*
X7Y632D01*
X40Y632D02*
X46Y632D01*
X90Y632D02*
X96Y632D01*
X118Y632D02*
X124Y632D01*
X177Y632D02*
X183Y632D01*
X227Y632D02*
X233Y632D01*
X271Y632D02*
X276Y632D01*
X976Y632D02*
X983Y632D01*
X0Y631D02*
X7Y631D01*
X40Y631D02*
X46Y631D01*
X90Y631D02*
X96Y631D01*
X118Y631D02*
X124Y631D01*
X177Y631D02*
X183Y631D01*
X227Y631D02*
X233Y631D01*
X271Y631D02*
X276Y631D01*
X976Y631D02*
X983Y631D01*
X0Y630D02*
X7Y630D01*
X40Y630D02*
X46Y630D01*
X90Y630D02*
X96Y630D01*
X118Y630D02*
X124Y630D01*
X177Y630D02*
X183Y630D01*
X227Y630D02*
X233Y630D01*
X271Y630D02*
X276Y630D01*
X976Y630D02*
X983Y630D01*
X0Y629D02*
X7Y629D01*
X40Y629D02*
X71Y629D01*
X90Y629D02*
X96Y629D01*
X118Y629D02*
X124Y629D01*
X177Y629D02*
X183Y629D01*
X227Y629D02*
X233Y629D01*
X271Y629D02*
X276Y629D01*
X976Y629D02*
X983Y629D01*
X0Y628D02*
X7Y628D01*
X40Y628D02*
X73Y628D01*
X90Y628D02*
X96Y628D01*
X118Y628D02*
X124Y628D01*
X177Y628D02*
X183Y628D01*
X227Y628D02*
X233Y628D01*
X254Y628D02*
X260Y628D01*
X271Y628D02*
X276Y628D01*
X976Y628D02*
X983Y628D01*
X0Y627D02*
X7Y627D01*
X40Y627D02*
X73Y627D01*
X90Y627D02*
X96Y627D01*
X118Y627D02*
X124Y627D01*
X177Y627D02*
X183Y627D01*
X227Y627D02*
X233Y627D01*
X254Y627D02*
X260Y627D01*
X271Y627D02*
X276Y627D01*
X976Y627D02*
X983Y627D01*
X0Y626D02*
X7Y626D01*
X41Y626D02*
X74Y626D01*
X90Y626D02*
X96Y626D01*
X118Y626D02*
X124Y626D01*
X177Y626D02*
X207Y626D01*
X227Y626D02*
X233Y626D01*
X254Y626D02*
X260Y626D01*
X271Y626D02*
X276Y626D01*
X976Y626D02*
X983Y626D01*
X0Y625D02*
X7Y625D01*
X42Y625D02*
X74Y625D01*
X90Y625D02*
X96Y625D01*
X118Y625D02*
X124Y625D01*
X177Y625D02*
X209Y625D01*
X227Y625D02*
X233Y625D01*
X254Y625D02*
X260Y625D01*
X271Y625D02*
X276Y625D01*
X976Y625D02*
X983Y625D01*
X0Y624D02*
X7Y624D01*
X43Y624D02*
X73Y624D01*
X91Y624D02*
X96Y624D01*
X118Y624D02*
X123Y624D01*
X177Y624D02*
X210Y624D01*
X227Y624D02*
X233Y624D01*
X254Y624D02*
X260Y624D01*
X271Y624D02*
X276Y624D01*
X976Y624D02*
X983Y624D01*
X0Y623D02*
X7Y623D01*
X44Y623D02*
X72Y623D01*
X92Y623D02*
X95Y623D01*
X119Y623D02*
X122Y623D01*
X177Y623D02*
X210Y623D01*
X227Y623D02*
X233Y623D01*
X254Y623D02*
X260Y623D01*
X271Y623D02*
X276Y623D01*
X976Y623D02*
X983Y623D01*
X0Y622D02*
X7Y622D01*
X178Y622D02*
X210Y622D01*
X227Y622D02*
X233Y622D01*
X255Y622D02*
X260Y622D01*
X271Y622D02*
X276Y622D01*
X976Y622D02*
X983Y622D01*
X0Y621D02*
X7Y621D01*
X179Y621D02*
X210Y621D01*
X227Y621D02*
X232Y621D01*
X255Y621D02*
X260Y621D01*
X271Y621D02*
X276Y621D01*
X976Y621D02*
X983Y621D01*
X0Y620D02*
X7Y620D01*
X19Y620D02*
X23Y620D01*
X135Y620D02*
X140Y620D01*
X180Y620D02*
X209Y620D01*
X228Y620D02*
X232Y620D01*
X256Y620D02*
X259Y620D01*
X271Y620D02*
X276Y620D01*
X976Y620D02*
X983Y620D01*
X0Y619D02*
X7Y619D01*
X18Y619D02*
X23Y619D01*
X135Y619D02*
X140Y619D01*
X271Y619D02*
X276Y619D01*
X976Y619D02*
X983Y619D01*
X0Y618D02*
X7Y618D01*
X19Y618D02*
X24Y618D01*
X135Y618D02*
X140Y618D01*
X271Y618D02*
X276Y618D01*
X976Y618D02*
X983Y618D01*
X0Y617D02*
X7Y617D01*
X19Y617D02*
X24Y617D01*
X134Y617D02*
X139Y617D01*
X155Y617D02*
X160Y617D01*
X271Y617D02*
X276Y617D01*
X976Y617D02*
X983Y617D01*
X0Y616D02*
X7Y616D01*
X19Y616D02*
X25Y616D01*
X134Y616D02*
X139Y616D01*
X155Y616D02*
X160Y616D01*
X271Y616D02*
X276Y616D01*
X976Y616D02*
X983Y616D01*
X0Y615D02*
X7Y615D01*
X20Y615D02*
X25Y615D01*
X133Y615D02*
X139Y615D01*
X155Y615D02*
X160Y615D01*
X271Y615D02*
X276Y615D01*
X976Y615D02*
X983Y615D01*
X0Y614D02*
X7Y614D01*
X20Y614D02*
X27Y614D01*
X131Y614D02*
X138Y614D01*
X155Y614D02*
X161Y614D01*
X271Y614D02*
X276Y614D01*
X976Y614D02*
X983Y614D01*
X0Y613D02*
X7Y613D01*
X21Y613D02*
X30Y613D01*
X128Y613D02*
X137Y613D01*
X156Y613D02*
X161Y613D01*
X270Y613D02*
X276Y613D01*
X976Y613D02*
X983Y613D01*
X0Y612D02*
X7Y612D01*
X22Y612D02*
X30Y612D01*
X128Y612D02*
X137Y612D01*
X156Y612D02*
X162Y612D01*
X270Y612D02*
X275Y612D01*
X313Y612D02*
X318Y612D01*
X429Y612D02*
X434Y612D01*
X976Y612D02*
X983Y612D01*
X0Y611D02*
X7Y611D01*
X23Y611D02*
X30Y611D01*
X128Y611D02*
X136Y611D01*
X157Y611D02*
X163Y611D01*
X268Y611D02*
X275Y611D01*
X313Y611D02*
X318Y611D01*
X429Y611D02*
X434Y611D01*
X976Y611D02*
X983Y611D01*
X0Y610D02*
X7Y610D01*
X24Y610D02*
X30Y610D01*
X128Y610D02*
X134Y610D01*
X157Y610D02*
X167Y610D01*
X265Y610D02*
X274Y610D01*
X313Y610D02*
X318Y610D01*
X429Y610D02*
X434Y610D01*
X976Y610D02*
X983Y610D01*
X0Y609D02*
X7Y609D01*
X25Y609D02*
X30Y609D01*
X128Y609D02*
X133Y609D01*
X158Y609D02*
X167Y609D01*
X265Y609D02*
X273Y609D01*
X313Y609D02*
X318Y609D01*
X428Y609D02*
X433Y609D01*
X976Y609D02*
X983Y609D01*
X0Y608D02*
X7Y608D01*
X28Y608D02*
X30Y608D01*
X128Y608D02*
X131Y608D01*
X159Y608D02*
X167Y608D01*
X265Y608D02*
X272Y608D01*
X314Y608D02*
X319Y608D01*
X428Y608D02*
X433Y608D01*
X976Y608D02*
X983Y608D01*
X0Y607D02*
X7Y607D01*
X160Y607D02*
X167Y607D01*
X265Y607D02*
X271Y607D01*
X314Y607D02*
X320Y607D01*
X427Y607D02*
X433Y607D01*
X976Y607D02*
X983Y607D01*
X0Y606D02*
X7Y606D01*
X162Y606D02*
X167Y606D01*
X265Y606D02*
X270Y606D01*
X315Y606D02*
X322Y606D01*
X425Y606D02*
X432Y606D01*
X976Y606D02*
X983Y606D01*
X0Y605D02*
X7Y605D01*
X164Y605D02*
X167Y605D01*
X265Y605D02*
X268Y605D01*
X315Y605D02*
X324Y605D01*
X422Y605D02*
X431Y605D01*
X976Y605D02*
X983Y605D01*
X0Y604D02*
X7Y604D01*
X316Y604D02*
X324Y604D01*
X422Y604D02*
X431Y604D01*
X976Y604D02*
X983Y604D01*
X0Y603D02*
X7Y603D01*
X317Y603D02*
X324Y603D01*
X422Y603D02*
X429Y603D01*
X976Y603D02*
X983Y603D01*
X0Y602D02*
X7Y602D01*
X318Y602D02*
X324Y602D01*
X422Y602D02*
X428Y602D01*
X976Y602D02*
X983Y602D01*
X0Y601D02*
X7Y601D01*
X320Y601D02*
X324Y601D01*
X422Y601D02*
X427Y601D01*
X976Y601D02*
X983Y601D01*
X0Y600D02*
X7Y600D01*
X323Y600D02*
X324Y600D01*
X422Y600D02*
X424Y600D01*
X976Y600D02*
X983Y600D01*
X0Y599D02*
X7Y599D01*
X976Y599D02*
X983Y599D01*
X0Y598D02*
X7Y598D01*
X976Y598D02*
X983Y598D01*
X0Y597D02*
X7Y597D01*
X976Y597D02*
X983Y597D01*
X0Y596D02*
X7Y596D01*
X976Y596D02*
X983Y596D01*
X0Y595D02*
X7Y595D01*
X976Y595D02*
X983Y595D01*
X0Y594D02*
X7Y594D01*
X976Y594D02*
X983Y594D01*
X0Y593D02*
X7Y593D01*
X976Y593D02*
X983Y593D01*
X0Y592D02*
X7Y592D01*
X976Y592D02*
X983Y592D01*
X0Y591D02*
X7Y591D01*
X976Y591D02*
X983Y591D01*
X0Y590D02*
X7Y590D01*
X976Y590D02*
X983Y590D01*
X0Y589D02*
X7Y589D01*
X976Y589D02*
X983Y589D01*
X0Y588D02*
X7Y588D01*
X976Y588D02*
X983Y588D01*
X0Y587D02*
X7Y587D01*
X976Y587D02*
X983Y587D01*
X0Y586D02*
X7Y586D01*
X976Y586D02*
X983Y586D01*
X0Y585D02*
X7Y585D01*
X976Y585D02*
X983Y585D01*
X0Y584D02*
X7Y584D01*
X976Y584D02*
X983Y584D01*
X0Y583D02*
X7Y583D01*
X976Y583D02*
X983Y583D01*
X0Y582D02*
X7Y582D01*
X976Y582D02*
X983Y582D01*
X0Y581D02*
X7Y581D01*
X976Y581D02*
X983Y581D01*
X0Y580D02*
X7Y580D01*
X976Y580D02*
X983Y580D01*
X0Y579D02*
X7Y579D01*
X976Y579D02*
X983Y579D01*
X0Y578D02*
X7Y578D01*
X976Y578D02*
X983Y578D01*
X0Y577D02*
X7Y577D01*
X976Y577D02*
X983Y577D01*
X0Y576D02*
X7Y576D01*
X976Y576D02*
X983Y576D01*
X0Y575D02*
X7Y575D01*
X976Y575D02*
X983Y575D01*
X0Y574D02*
X7Y574D01*
X976Y574D02*
X983Y574D01*
X0Y573D02*
X7Y573D01*
X976Y573D02*
X983Y573D01*
X0Y572D02*
X7Y572D01*
X976Y572D02*
X983Y572D01*
X0Y571D02*
X7Y571D01*
X976Y571D02*
X983Y571D01*
X0Y570D02*
X7Y570D01*
X976Y570D02*
X983Y570D01*
X0Y569D02*
X7Y569D01*
X976Y569D02*
X983Y569D01*
X0Y568D02*
X7Y568D01*
X976Y568D02*
X983Y568D01*
X0Y567D02*
X7Y567D01*
X976Y567D02*
X983Y567D01*
X0Y566D02*
X7Y566D01*
X976Y566D02*
X983Y566D01*
X0Y565D02*
X7Y565D01*
X976Y565D02*
X983Y565D01*
X0Y564D02*
X7Y564D01*
X976Y564D02*
X983Y564D01*
X0Y563D02*
X7Y563D01*
X976Y563D02*
X983Y563D01*
X0Y562D02*
X7Y562D01*
X976Y562D02*
X983Y562D01*
X0Y561D02*
X7Y561D01*
X976Y561D02*
X983Y561D01*
X0Y560D02*
X7Y560D01*
X976Y560D02*
X983Y560D01*
X0Y559D02*
X7Y559D01*
X976Y559D02*
X983Y559D01*
X0Y558D02*
X7Y558D01*
X976Y558D02*
X983Y558D01*
X0Y557D02*
X7Y557D01*
X976Y557D02*
X983Y557D01*
X0Y556D02*
X7Y556D01*
X976Y556D02*
X983Y556D01*
X0Y555D02*
X7Y555D01*
X976Y555D02*
X983Y555D01*
X0Y554D02*
X7Y554D01*
X976Y554D02*
X983Y554D01*
X0Y553D02*
X7Y553D01*
X976Y553D02*
X983Y553D01*
X0Y552D02*
X7Y552D01*
X976Y552D02*
X983Y552D01*
X0Y551D02*
X7Y551D01*
X976Y551D02*
X983Y551D01*
X0Y550D02*
X7Y550D01*
X976Y550D02*
X983Y550D01*
X0Y549D02*
X7Y549D01*
X976Y549D02*
X983Y549D01*
X0Y548D02*
X7Y548D01*
X976Y548D02*
X983Y548D01*
X0Y547D02*
X7Y547D01*
X976Y547D02*
X983Y547D01*
X0Y546D02*
X7Y546D01*
X976Y546D02*
X983Y546D01*
X0Y545D02*
X7Y545D01*
X976Y545D02*
X983Y545D01*
X0Y544D02*
X7Y544D01*
X976Y544D02*
X983Y544D01*
X0Y543D02*
X7Y543D01*
X976Y543D02*
X983Y543D01*
X0Y542D02*
X7Y542D01*
X976Y542D02*
X983Y542D01*
X0Y541D02*
X7Y541D01*
X976Y541D02*
X983Y541D01*
X0Y540D02*
X7Y540D01*
X976Y540D02*
X983Y540D01*
X0Y539D02*
X7Y539D01*
X976Y539D02*
X983Y539D01*
X0Y538D02*
X7Y538D01*
X976Y538D02*
X983Y538D01*
X0Y537D02*
X7Y537D01*
X976Y537D02*
X983Y537D01*
X0Y536D02*
X7Y536D01*
X976Y536D02*
X983Y536D01*
X0Y535D02*
X7Y535D01*
X976Y535D02*
X983Y535D01*
X0Y534D02*
X7Y534D01*
X976Y534D02*
X983Y534D01*
X0Y533D02*
X7Y533D01*
X976Y533D02*
X983Y533D01*
X0Y532D02*
X7Y532D01*
X976Y532D02*
X983Y532D01*
X0Y531D02*
X7Y531D01*
X976Y531D02*
X983Y531D01*
X0Y530D02*
X7Y530D01*
X976Y530D02*
X983Y530D01*
X0Y529D02*
X7Y529D01*
X976Y529D02*
X983Y529D01*
X0Y528D02*
X7Y528D01*
X976Y528D02*
X983Y528D01*
X0Y527D02*
X7Y527D01*
X976Y527D02*
X983Y527D01*
X0Y526D02*
X7Y526D01*
X976Y526D02*
X983Y526D01*
X0Y525D02*
X7Y525D01*
X976Y525D02*
X983Y525D01*
X0Y524D02*
X7Y524D01*
X976Y524D02*
X983Y524D01*
X0Y523D02*
X7Y523D01*
X976Y523D02*
X983Y523D01*
X0Y522D02*
X7Y522D01*
X976Y522D02*
X983Y522D01*
X0Y521D02*
X7Y521D01*
X976Y521D02*
X983Y521D01*
X0Y520D02*
X7Y520D01*
X976Y520D02*
X983Y520D01*
X0Y519D02*
X7Y519D01*
X976Y519D02*
X983Y519D01*
X0Y518D02*
X7Y518D01*
X976Y518D02*
X983Y518D01*
X0Y517D02*
X7Y517D01*
X976Y517D02*
X983Y517D01*
X0Y516D02*
X7Y516D01*
X976Y516D02*
X983Y516D01*
X0Y515D02*
X7Y515D01*
X976Y515D02*
X983Y515D01*
X0Y514D02*
X7Y514D01*
X976Y514D02*
X983Y514D01*
X0Y513D02*
X7Y513D01*
X976Y513D02*
X983Y513D01*
X0Y512D02*
X7Y512D01*
X976Y512D02*
X983Y512D01*
X0Y511D02*
X7Y511D01*
X976Y511D02*
X983Y511D01*
X0Y510D02*
X7Y510D01*
X976Y510D02*
X983Y510D01*
X0Y509D02*
X7Y509D01*
X976Y509D02*
X983Y509D01*
X0Y508D02*
X7Y508D01*
X976Y508D02*
X983Y508D01*
X0Y507D02*
X7Y507D01*
X976Y507D02*
X983Y507D01*
X0Y506D02*
X7Y506D01*
X976Y506D02*
X983Y506D01*
X0Y505D02*
X7Y505D01*
X976Y505D02*
X983Y505D01*
X0Y504D02*
X7Y504D01*
X976Y504D02*
X983Y504D01*
X0Y503D02*
X7Y503D01*
X976Y503D02*
X983Y503D01*
X0Y502D02*
X7Y502D01*
X976Y502D02*
X983Y502D01*
X0Y501D02*
X7Y501D01*
X976Y501D02*
X983Y501D01*
X0Y500D02*
X7Y500D01*
X976Y500D02*
X983Y500D01*
X0Y499D02*
X7Y499D01*
X976Y499D02*
X983Y499D01*
X0Y498D02*
X7Y498D01*
X976Y498D02*
X983Y498D01*
X0Y497D02*
X7Y497D01*
X976Y497D02*
X983Y497D01*
X0Y496D02*
X7Y496D01*
X976Y496D02*
X983Y496D01*
X0Y495D02*
X7Y495D01*
X976Y495D02*
X983Y495D01*
X0Y494D02*
X7Y494D01*
X976Y494D02*
X983Y494D01*
X0Y493D02*
X7Y493D01*
X976Y493D02*
X983Y493D01*
X0Y492D02*
X7Y492D01*
X976Y492D02*
X983Y492D01*
X0Y491D02*
X7Y491D01*
X976Y491D02*
X983Y491D01*
X0Y490D02*
X7Y490D01*
X976Y490D02*
X983Y490D01*
X0Y489D02*
X7Y489D01*
X976Y489D02*
X983Y489D01*
X0Y488D02*
X7Y488D01*
X976Y488D02*
X983Y488D01*
X0Y487D02*
X7Y487D01*
X976Y487D02*
X983Y487D01*
X0Y486D02*
X7Y486D01*
X976Y486D02*
X983Y486D01*
X0Y485D02*
X7Y485D01*
X976Y485D02*
X983Y485D01*
X0Y484D02*
X7Y484D01*
X976Y484D02*
X983Y484D01*
X0Y483D02*
X7Y483D01*
X976Y483D02*
X983Y483D01*
X0Y482D02*
X7Y482D01*
X976Y482D02*
X983Y482D01*
X0Y481D02*
X7Y481D01*
X976Y481D02*
X983Y481D01*
X0Y480D02*
X7Y480D01*
X976Y480D02*
X983Y480D01*
X0Y479D02*
X7Y479D01*
X976Y479D02*
X983Y479D01*
X0Y478D02*
X7Y478D01*
X976Y478D02*
X983Y478D01*
X0Y477D02*
X7Y477D01*
X976Y477D02*
X983Y477D01*
X0Y476D02*
X7Y476D01*
X976Y476D02*
X983Y476D01*
X0Y475D02*
X7Y475D01*
X976Y475D02*
X983Y475D01*
X0Y474D02*
X7Y474D01*
X976Y474D02*
X983Y474D01*
X0Y473D02*
X7Y473D01*
X976Y473D02*
X983Y473D01*
X0Y472D02*
X7Y472D01*
X976Y472D02*
X983Y472D01*
X0Y471D02*
X7Y471D01*
X976Y471D02*
X983Y471D01*
X0Y470D02*
X7Y470D01*
X976Y470D02*
X983Y470D01*
X0Y469D02*
X7Y469D01*
X976Y469D02*
X983Y469D01*
X0Y468D02*
X7Y468D01*
X976Y468D02*
X983Y468D01*
X0Y467D02*
X7Y467D01*
X976Y467D02*
X983Y467D01*
X0Y466D02*
X7Y466D01*
X976Y466D02*
X983Y466D01*
X0Y465D02*
X7Y465D01*
X976Y465D02*
X983Y465D01*
X0Y464D02*
X7Y464D01*
X976Y464D02*
X983Y464D01*
X0Y463D02*
X7Y463D01*
X976Y463D02*
X983Y463D01*
X0Y462D02*
X7Y462D01*
X976Y462D02*
X983Y462D01*
X0Y461D02*
X7Y461D01*
X976Y461D02*
X983Y461D01*
X0Y460D02*
X7Y460D01*
X976Y460D02*
X983Y460D01*
X0Y459D02*
X7Y459D01*
X976Y459D02*
X983Y459D01*
X0Y458D02*
X7Y458D01*
X976Y458D02*
X983Y458D01*
X0Y457D02*
X7Y457D01*
X976Y457D02*
X983Y457D01*
X0Y456D02*
X7Y456D01*
X976Y456D02*
X983Y456D01*
X0Y455D02*
X7Y455D01*
X976Y455D02*
X983Y455D01*
X0Y454D02*
X7Y454D01*
X976Y454D02*
X983Y454D01*
X0Y453D02*
X7Y453D01*
X976Y453D02*
X983Y453D01*
X0Y452D02*
X7Y452D01*
X976Y452D02*
X983Y452D01*
X0Y451D02*
X7Y451D01*
X976Y451D02*
X983Y451D01*
X0Y450D02*
X7Y450D01*
X976Y450D02*
X983Y450D01*
X0Y449D02*
X7Y449D01*
X976Y449D02*
X983Y449D01*
X0Y448D02*
X7Y448D01*
X976Y448D02*
X983Y448D01*
X0Y447D02*
X7Y447D01*
X976Y447D02*
X983Y447D01*
X0Y446D02*
X7Y446D01*
X976Y446D02*
X983Y446D01*
X0Y445D02*
X7Y445D01*
X976Y445D02*
X983Y445D01*
X0Y444D02*
X7Y444D01*
X976Y444D02*
X983Y444D01*
X0Y443D02*
X7Y443D01*
X976Y443D02*
X983Y443D01*
X0Y442D02*
X7Y442D01*
X976Y442D02*
X983Y442D01*
X0Y441D02*
X7Y441D01*
X976Y441D02*
X983Y441D01*
X0Y440D02*
X7Y440D01*
X976Y440D02*
X983Y440D01*
X0Y439D02*
X7Y439D01*
X976Y439D02*
X983Y439D01*
X0Y438D02*
X7Y438D01*
X976Y438D02*
X983Y438D01*
X0Y437D02*
X7Y437D01*
X976Y437D02*
X983Y437D01*
X0Y436D02*
X7Y436D01*
X976Y436D02*
X983Y436D01*
X0Y435D02*
X7Y435D01*
X976Y435D02*
X983Y435D01*
X0Y434D02*
X7Y434D01*
X976Y434D02*
X983Y434D01*
X0Y433D02*
X7Y433D01*
X976Y433D02*
X983Y433D01*
X0Y432D02*
X7Y432D01*
X976Y432D02*
X983Y432D01*
X0Y431D02*
X7Y431D01*
X976Y431D02*
X983Y431D01*
X0Y430D02*
X7Y430D01*
X976Y430D02*
X983Y430D01*
X0Y429D02*
X7Y429D01*
X976Y429D02*
X983Y429D01*
X0Y428D02*
X7Y428D01*
X976Y428D02*
X983Y428D01*
X0Y427D02*
X7Y427D01*
X976Y427D02*
X983Y427D01*
X0Y426D02*
X7Y426D01*
X976Y426D02*
X983Y426D01*
X0Y425D02*
X7Y425D01*
X976Y425D02*
X983Y425D01*
X0Y424D02*
X7Y424D01*
X976Y424D02*
X983Y424D01*
X0Y423D02*
X7Y423D01*
X976Y423D02*
X983Y423D01*
X0Y422D02*
X7Y422D01*
X976Y422D02*
X983Y422D01*
X0Y421D02*
X7Y421D01*
X976Y421D02*
X983Y421D01*
X0Y420D02*
X7Y420D01*
X976Y420D02*
X983Y420D01*
X0Y419D02*
X7Y419D01*
X976Y419D02*
X983Y419D01*
X0Y418D02*
X7Y418D01*
X976Y418D02*
X983Y418D01*
X0Y417D02*
X7Y417D01*
X976Y417D02*
X983Y417D01*
X0Y416D02*
X7Y416D01*
X976Y416D02*
X983Y416D01*
X0Y415D02*
X7Y415D01*
X976Y415D02*
X983Y415D01*
X0Y414D02*
X7Y414D01*
X976Y414D02*
X983Y414D01*
X0Y413D02*
X7Y413D01*
X976Y413D02*
X983Y413D01*
X0Y412D02*
X7Y412D01*
X976Y412D02*
X983Y412D01*
X0Y411D02*
X7Y411D01*
X976Y411D02*
X983Y411D01*
X0Y410D02*
X7Y410D01*
X976Y410D02*
X983Y410D01*
X0Y409D02*
X7Y409D01*
X976Y409D02*
X983Y409D01*
X0Y408D02*
X7Y408D01*
X976Y408D02*
X983Y408D01*
X0Y407D02*
X7Y407D01*
X976Y407D02*
X983Y407D01*
X0Y406D02*
X7Y406D01*
X976Y406D02*
X983Y406D01*
X0Y405D02*
X7Y405D01*
X976Y405D02*
X983Y405D01*
X0Y404D02*
X7Y404D01*
X976Y404D02*
X983Y404D01*
X0Y403D02*
X7Y403D01*
X976Y403D02*
X983Y403D01*
X0Y402D02*
X7Y402D01*
X976Y402D02*
X983Y402D01*
X0Y401D02*
X7Y401D01*
X976Y401D02*
X983Y401D01*
X0Y400D02*
X7Y400D01*
X976Y400D02*
X983Y400D01*
X0Y399D02*
X7Y399D01*
X976Y399D02*
X983Y399D01*
X0Y398D02*
X7Y398D01*
X976Y398D02*
X983Y398D01*
X0Y397D02*
X7Y397D01*
X976Y397D02*
X983Y397D01*
X0Y396D02*
X7Y396D01*
X976Y396D02*
X983Y396D01*
X0Y395D02*
X7Y395D01*
X976Y395D02*
X983Y395D01*
X0Y394D02*
X7Y394D01*
X976Y394D02*
X983Y394D01*
X0Y393D02*
X7Y393D01*
X976Y393D02*
X983Y393D01*
X0Y392D02*
X7Y392D01*
X976Y392D02*
X983Y392D01*
X0Y391D02*
X7Y391D01*
X976Y391D02*
X983Y391D01*
X0Y390D02*
X7Y390D01*
X976Y390D02*
X983Y390D01*
X0Y389D02*
X7Y389D01*
X976Y389D02*
X983Y389D01*
X0Y388D02*
X7Y388D01*
X976Y388D02*
X983Y388D01*
X0Y387D02*
X7Y387D01*
X976Y387D02*
X983Y387D01*
X0Y386D02*
X7Y386D01*
X976Y386D02*
X983Y386D01*
X0Y385D02*
X7Y385D01*
X976Y385D02*
X983Y385D01*
X0Y384D02*
X7Y384D01*
X976Y384D02*
X983Y384D01*
X0Y383D02*
X7Y383D01*
X976Y383D02*
X983Y383D01*
X0Y382D02*
X7Y382D01*
X976Y382D02*
X983Y382D01*
X0Y381D02*
X7Y381D01*
X976Y381D02*
X983Y381D01*
X0Y380D02*
X7Y380D01*
X976Y380D02*
X983Y380D01*
X0Y379D02*
X7Y379D01*
X976Y379D02*
X983Y379D01*
X0Y378D02*
X7Y378D01*
X976Y378D02*
X983Y378D01*
X0Y377D02*
X7Y377D01*
X976Y377D02*
X983Y377D01*
X0Y376D02*
X7Y376D01*
X976Y376D02*
X983Y376D01*
X0Y375D02*
X7Y375D01*
X976Y375D02*
X983Y375D01*
X0Y374D02*
X7Y374D01*
X976Y374D02*
X983Y374D01*
X0Y373D02*
X7Y373D01*
X976Y373D02*
X983Y373D01*
X0Y372D02*
X7Y372D01*
X976Y372D02*
X983Y372D01*
X0Y371D02*
X7Y371D01*
X976Y371D02*
X983Y371D01*
X0Y370D02*
X7Y370D01*
X976Y370D02*
X983Y370D01*
X0Y369D02*
X7Y369D01*
X976Y369D02*
X983Y369D01*
X0Y368D02*
X7Y368D01*
X976Y368D02*
X983Y368D01*
X0Y367D02*
X7Y367D01*
X976Y367D02*
X983Y367D01*
X0Y366D02*
X7Y366D01*
X976Y366D02*
X983Y366D01*
X0Y365D02*
X7Y365D01*
X976Y365D02*
X983Y365D01*
X0Y364D02*
X7Y364D01*
X976Y364D02*
X983Y364D01*
X0Y363D02*
X7Y363D01*
X976Y363D02*
X983Y363D01*
X0Y362D02*
X7Y362D01*
X976Y362D02*
X983Y362D01*
X0Y361D02*
X7Y361D01*
X976Y361D02*
X983Y361D01*
X0Y360D02*
X7Y360D01*
X976Y360D02*
X983Y360D01*
X0Y359D02*
X7Y359D01*
X976Y359D02*
X983Y359D01*
X0Y358D02*
X7Y358D01*
X792Y358D02*
X802Y358D01*
X976Y358D02*
X983Y358D01*
X0Y357D02*
X7Y357D01*
X791Y357D02*
X802Y357D01*
X976Y357D02*
X983Y357D01*
X0Y356D02*
X7Y356D01*
X790Y356D02*
X802Y356D01*
X976Y356D02*
X983Y356D01*
X0Y355D02*
X7Y355D01*
X122Y355D02*
X127Y355D01*
X160Y355D02*
X165Y355D01*
X399Y355D02*
X403Y355D01*
X436Y355D02*
X441Y355D01*
X790Y355D02*
X802Y355D01*
X976Y355D02*
X983Y355D01*
X0Y354D02*
X7Y354D01*
X121Y354D02*
X128Y354D01*
X158Y354D02*
X167Y354D01*
X397Y354D02*
X404Y354D01*
X434Y354D02*
X442Y354D01*
X790Y354D02*
X802Y354D01*
X976Y354D02*
X983Y354D01*
X0Y353D02*
X7Y353D01*
X120Y353D02*
X128Y353D01*
X157Y353D02*
X168Y353D01*
X396Y353D02*
X404Y353D01*
X433Y353D02*
X443Y353D01*
X791Y353D02*
X802Y353D01*
X976Y353D02*
X983Y353D01*
X0Y352D02*
X7Y352D01*
X119Y352D02*
X129Y352D01*
X155Y352D02*
X169Y352D01*
X395Y352D02*
X404Y352D01*
X431Y352D02*
X444Y352D01*
X792Y352D02*
X802Y352D01*
X976Y352D02*
X983Y352D01*
X0Y351D02*
X7Y351D01*
X118Y351D02*
X128Y351D01*
X154Y351D02*
X169Y351D01*
X394Y351D02*
X404Y351D01*
X430Y351D02*
X445Y351D01*
X796Y351D02*
X802Y351D01*
X976Y351D02*
X983Y351D01*
X0Y350D02*
X7Y350D01*
X117Y350D02*
X128Y350D01*
X153Y350D02*
X170Y350D01*
X393Y350D02*
X404Y350D01*
X429Y350D02*
X445Y350D01*
X796Y350D02*
X802Y350D01*
X976Y350D02*
X983Y350D01*
X0Y349D02*
X7Y349D01*
X117Y349D02*
X126Y349D01*
X151Y349D02*
X170Y349D01*
X393Y349D02*
X403Y349D01*
X427Y349D02*
X445Y349D01*
X796Y349D02*
X802Y349D01*
X976Y349D02*
X983Y349D01*
X0Y348D02*
X7Y348D01*
X117Y348D02*
X123Y348D01*
X150Y348D02*
X161Y348D01*
X164Y348D02*
X170Y348D01*
X393Y348D02*
X399Y348D01*
X426Y348D02*
X437Y348D01*
X439Y348D02*
X446Y348D01*
X796Y348D02*
X802Y348D01*
X976Y348D02*
X983Y348D01*
X0Y347D02*
X7Y347D01*
X117Y347D02*
X123Y347D01*
X149Y347D02*
X159Y347D01*
X164Y347D02*
X170Y347D01*
X393Y347D02*
X399Y347D01*
X425Y347D02*
X435Y347D01*
X440Y347D02*
X446Y347D01*
X796Y347D02*
X802Y347D01*
X976Y347D02*
X983Y347D01*
X0Y346D02*
X7Y346D01*
X117Y346D02*
X123Y346D01*
X148Y346D02*
X158Y346D01*
X164Y346D02*
X170Y346D01*
X392Y346D02*
X398Y346D01*
X424Y346D02*
X434Y346D01*
X440Y346D02*
X446Y346D01*
X796Y346D02*
X802Y346D01*
X976Y346D02*
X983Y346D01*
X0Y345D02*
X7Y345D01*
X117Y345D02*
X123Y345D01*
X146Y345D02*
X157Y345D01*
X164Y345D02*
X170Y345D01*
X392Y345D02*
X398Y345D01*
X422Y345D02*
X433Y345D01*
X440Y345D02*
X446Y345D01*
X796Y345D02*
X802Y345D01*
X976Y345D02*
X983Y345D01*
X0Y344D02*
X7Y344D01*
X117Y344D02*
X123Y344D01*
X145Y344D02*
X156Y344D01*
X164Y344D02*
X170Y344D01*
X392Y344D02*
X398Y344D01*
X421Y344D02*
X432Y344D01*
X440Y344D02*
X446Y344D01*
X750Y344D02*
X802Y344D01*
X976Y344D02*
X983Y344D01*
X0Y343D02*
X7Y343D01*
X117Y343D02*
X123Y343D01*
X144Y343D02*
X154Y343D01*
X164Y343D02*
X170Y343D01*
X392Y343D02*
X398Y343D01*
X420Y343D02*
X430Y343D01*
X440Y343D02*
X446Y343D01*
X749Y343D02*
X802Y343D01*
X976Y343D02*
X983Y343D01*
X0Y342D02*
X7Y342D01*
X117Y342D02*
X123Y342D01*
X142Y342D02*
X153Y342D01*
X164Y342D02*
X170Y342D01*
X392Y342D02*
X398Y342D01*
X418Y342D02*
X429Y342D01*
X440Y342D02*
X446Y342D01*
X749Y342D02*
X802Y342D01*
X976Y342D02*
X983Y342D01*
X0Y341D02*
X7Y341D01*
X117Y341D02*
X123Y341D01*
X141Y341D02*
X152Y341D01*
X164Y341D02*
X170Y341D01*
X392Y341D02*
X398Y341D01*
X417Y341D02*
X428Y341D01*
X440Y341D02*
X446Y341D01*
X749Y341D02*
X802Y341D01*
X976Y341D02*
X983Y341D01*
X0Y340D02*
X7Y340D01*
X117Y340D02*
X123Y340D01*
X140Y340D02*
X150Y340D01*
X164Y340D02*
X170Y340D01*
X392Y340D02*
X398Y340D01*
X416Y340D02*
X426Y340D01*
X440Y340D02*
X446Y340D01*
X749Y340D02*
X802Y340D01*
X976Y340D02*
X983Y340D01*
X0Y339D02*
X7Y339D01*
X117Y339D02*
X123Y339D01*
X138Y339D02*
X149Y339D01*
X164Y339D02*
X170Y339D01*
X392Y339D02*
X398Y339D01*
X415Y339D02*
X425Y339D01*
X440Y339D02*
X446Y339D01*
X750Y339D02*
X802Y339D01*
X976Y339D02*
X983Y339D01*
X0Y338D02*
X7Y338D01*
X117Y338D02*
X123Y338D01*
X137Y338D02*
X148Y338D01*
X164Y338D02*
X170Y338D01*
X392Y338D02*
X398Y338D01*
X413Y338D02*
X424Y338D01*
X440Y338D02*
X446Y338D01*
X751Y338D02*
X802Y338D01*
X976Y338D02*
X983Y338D01*
X0Y337D02*
X7Y337D01*
X117Y337D02*
X123Y337D01*
X136Y337D02*
X146Y337D01*
X164Y337D02*
X170Y337D01*
X392Y337D02*
X398Y337D01*
X412Y337D02*
X423Y337D01*
X440Y337D02*
X446Y337D01*
X796Y337D02*
X802Y337D01*
X976Y337D02*
X983Y337D01*
X0Y336D02*
X7Y336D01*
X117Y336D02*
X123Y336D01*
X135Y336D02*
X145Y336D01*
X164Y336D02*
X170Y336D01*
X392Y336D02*
X398Y336D01*
X411Y336D02*
X421Y336D01*
X440Y336D02*
X446Y336D01*
X796Y336D02*
X802Y336D01*
X976Y336D02*
X983Y336D01*
X0Y335D02*
X7Y335D01*
X117Y335D02*
X123Y335D01*
X133Y335D02*
X144Y335D01*
X164Y335D02*
X170Y335D01*
X392Y335D02*
X398Y335D01*
X409Y335D02*
X420Y335D01*
X440Y335D02*
X446Y335D01*
X796Y335D02*
X802Y335D01*
X976Y335D02*
X983Y335D01*
X0Y334D02*
X7Y334D01*
X117Y334D02*
X123Y334D01*
X132Y334D02*
X143Y334D01*
X164Y334D02*
X170Y334D01*
X392Y334D02*
X398Y334D01*
X408Y334D02*
X419Y334D01*
X440Y334D02*
X446Y334D01*
X796Y334D02*
X802Y334D01*
X976Y334D02*
X983Y334D01*
X0Y333D02*
X7Y333D01*
X117Y333D02*
X123Y333D01*
X131Y333D02*
X141Y333D01*
X164Y333D02*
X170Y333D01*
X392Y333D02*
X398Y333D01*
X407Y333D02*
X417Y333D01*
X440Y333D02*
X446Y333D01*
X796Y333D02*
X802Y333D01*
X976Y333D02*
X983Y333D01*
X0Y332D02*
X7Y332D01*
X117Y332D02*
X123Y332D01*
X129Y332D02*
X140Y332D01*
X164Y332D02*
X170Y332D01*
X392Y332D02*
X398Y332D01*
X406Y332D02*
X416Y332D01*
X440Y332D02*
X446Y332D01*
X796Y332D02*
X802Y332D01*
X976Y332D02*
X983Y332D01*
X0Y331D02*
X7Y331D01*
X117Y331D02*
X123Y331D01*
X128Y331D02*
X139Y331D01*
X164Y331D02*
X170Y331D01*
X392Y331D02*
X398Y331D01*
X404Y331D02*
X415Y331D01*
X440Y331D02*
X446Y331D01*
X794Y331D02*
X802Y331D01*
X976Y331D02*
X983Y331D01*
X0Y330D02*
X7Y330D01*
X117Y330D02*
X123Y330D01*
X127Y330D02*
X137Y330D01*
X164Y330D02*
X170Y330D01*
X392Y330D02*
X398Y330D01*
X403Y330D02*
X414Y330D01*
X440Y330D02*
X446Y330D01*
X791Y330D02*
X802Y330D01*
X976Y330D02*
X983Y330D01*
X0Y329D02*
X7Y329D01*
X117Y329D02*
X123Y329D01*
X126Y329D02*
X136Y329D01*
X163Y329D02*
X170Y329D01*
X392Y329D02*
X399Y329D01*
X402Y329D02*
X412Y329D01*
X439Y329D02*
X445Y329D01*
X790Y329D02*
X802Y329D01*
X976Y329D02*
X983Y329D01*
X0Y328D02*
X7Y328D01*
X117Y328D02*
X135Y328D01*
X160Y328D02*
X169Y328D01*
X393Y328D02*
X411Y328D01*
X437Y328D02*
X445Y328D01*
X790Y328D02*
X802Y328D01*
X976Y328D02*
X983Y328D01*
X0Y327D02*
X7Y327D01*
X117Y327D02*
X134Y327D01*
X159Y327D02*
X169Y327D01*
X393Y327D02*
X410Y327D01*
X435Y327D02*
X445Y327D01*
X790Y327D02*
X802Y327D01*
X976Y327D02*
X983Y327D01*
X0Y326D02*
X7Y326D01*
X117Y326D02*
X132Y326D01*
X158Y326D02*
X169Y326D01*
X393Y326D02*
X408Y326D01*
X434Y326D02*
X444Y326D01*
X790Y326D02*
X802Y326D01*
X976Y326D02*
X983Y326D01*
X0Y325D02*
X7Y325D01*
X118Y325D02*
X131Y325D01*
X158Y325D02*
X168Y325D01*
X393Y325D02*
X407Y325D01*
X434Y325D02*
X444Y325D01*
X791Y325D02*
X802Y325D01*
X976Y325D02*
X983Y325D01*
X0Y324D02*
X7Y324D01*
X119Y324D02*
X130Y324D01*
X158Y324D02*
X167Y324D01*
X394Y324D02*
X406Y324D01*
X434Y324D02*
X443Y324D01*
X794Y324D02*
X801Y324D01*
X976Y324D02*
X983Y324D01*
X0Y323D02*
X7Y323D01*
X120Y323D02*
X128Y323D01*
X158Y323D02*
X166Y323D01*
X395Y323D02*
X405Y323D01*
X434Y323D02*
X442Y323D01*
X976Y323D02*
X983Y323D01*
X0Y322D02*
X7Y322D01*
X121Y322D02*
X127Y322D01*
X159Y322D02*
X164Y322D01*
X397Y322D02*
X403Y322D01*
X435Y322D02*
X440Y322D01*
X976Y322D02*
X983Y322D01*
X0Y321D02*
X7Y321D01*
X437Y321D02*
X437Y321D01*
X976Y321D02*
X983Y321D01*
X0Y320D02*
X7Y320D01*
X976Y320D02*
X983Y320D01*
X0Y319D02*
X7Y319D01*
X976Y319D02*
X983Y319D01*
X0Y318D02*
X7Y318D01*
X976Y318D02*
X983Y318D01*
X0Y317D02*
X7Y317D01*
X976Y317D02*
X983Y317D01*
X0Y316D02*
X7Y316D01*
X976Y316D02*
X983Y316D01*
X0Y315D02*
X7Y315D01*
X976Y315D02*
X983Y315D01*
X0Y314D02*
X7Y314D01*
X976Y314D02*
X983Y314D01*
X0Y313D02*
X7Y313D01*
X976Y313D02*
X983Y313D01*
X0Y312D02*
X7Y312D01*
X976Y312D02*
X983Y312D01*
X0Y311D02*
X7Y311D01*
X976Y311D02*
X983Y311D01*
X0Y310D02*
X7Y310D01*
X976Y310D02*
X983Y310D01*
X0Y309D02*
X7Y309D01*
X976Y309D02*
X983Y309D01*
X0Y308D02*
X7Y308D01*
X751Y308D02*
X753Y308D01*
X798Y308D02*
X800Y308D01*
X976Y308D02*
X983Y308D01*
X0Y307D02*
X7Y307D01*
X750Y307D02*
X754Y307D01*
X797Y307D02*
X801Y307D01*
X976Y307D02*
X983Y307D01*
X0Y306D02*
X7Y306D01*
X749Y306D02*
X755Y306D01*
X796Y306D02*
X802Y306D01*
X976Y306D02*
X983Y306D01*
X0Y305D02*
X7Y305D01*
X118Y305D02*
X121Y305D01*
X165Y305D02*
X168Y305D01*
X393Y305D02*
X417Y305D01*
X442Y305D02*
X444Y305D01*
X749Y305D02*
X755Y305D01*
X796Y305D02*
X802Y305D01*
X976Y305D02*
X983Y305D01*
X0Y304D02*
X7Y304D01*
X117Y304D02*
X122Y304D01*
X164Y304D02*
X169Y304D01*
X392Y304D02*
X419Y304D01*
X440Y304D02*
X445Y304D01*
X749Y304D02*
X755Y304D01*
X796Y304D02*
X802Y304D01*
X976Y304D02*
X983Y304D01*
X0Y303D02*
X7Y303D01*
X117Y303D02*
X123Y303D01*
X164Y303D02*
X170Y303D01*
X392Y303D02*
X420Y303D01*
X440Y303D02*
X445Y303D01*
X749Y303D02*
X755Y303D01*
X796Y303D02*
X802Y303D01*
X976Y303D02*
X983Y303D01*
X0Y302D02*
X7Y302D01*
X117Y302D02*
X123Y302D01*
X164Y302D02*
X170Y302D01*
X392Y302D02*
X421Y302D01*
X440Y302D02*
X446Y302D01*
X749Y302D02*
X755Y302D01*
X796Y302D02*
X802Y302D01*
X976Y302D02*
X983Y302D01*
X0Y301D02*
X7Y301D01*
X117Y301D02*
X123Y301D01*
X164Y301D02*
X170Y301D01*
X392Y301D02*
X421Y301D01*
X440Y301D02*
X446Y301D01*
X749Y301D02*
X755Y301D01*
X796Y301D02*
X802Y301D01*
X976Y301D02*
X983Y301D01*
X0Y300D02*
X7Y300D01*
X117Y300D02*
X123Y300D01*
X164Y300D02*
X170Y300D01*
X392Y300D02*
X422Y300D01*
X440Y300D02*
X446Y300D01*
X749Y300D02*
X755Y300D01*
X796Y300D02*
X802Y300D01*
X976Y300D02*
X983Y300D01*
X0Y299D02*
X7Y299D01*
X117Y299D02*
X123Y299D01*
X164Y299D02*
X170Y299D01*
X392Y299D02*
X422Y299D01*
X440Y299D02*
X446Y299D01*
X749Y299D02*
X755Y299D01*
X796Y299D02*
X802Y299D01*
X976Y299D02*
X983Y299D01*
X0Y298D02*
X7Y298D01*
X117Y298D02*
X123Y298D01*
X164Y298D02*
X170Y298D01*
X392Y298D02*
X399Y298D01*
X416Y298D02*
X422Y298D01*
X440Y298D02*
X446Y298D01*
X749Y298D02*
X755Y298D01*
X796Y298D02*
X802Y298D01*
X976Y298D02*
X983Y298D01*
X0Y297D02*
X7Y297D01*
X117Y297D02*
X123Y297D01*
X164Y297D02*
X170Y297D01*
X392Y297D02*
X398Y297D01*
X416Y297D02*
X422Y297D01*
X440Y297D02*
X446Y297D01*
X749Y297D02*
X755Y297D01*
X796Y297D02*
X802Y297D01*
X976Y297D02*
X983Y297D01*
X0Y296D02*
X7Y296D01*
X117Y296D02*
X123Y296D01*
X164Y296D02*
X170Y296D01*
X392Y296D02*
X398Y296D01*
X416Y296D02*
X422Y296D01*
X440Y296D02*
X446Y296D01*
X749Y296D02*
X755Y296D01*
X796Y296D02*
X802Y296D01*
X976Y296D02*
X983Y296D01*
X0Y295D02*
X7Y295D01*
X117Y295D02*
X123Y295D01*
X164Y295D02*
X170Y295D01*
X392Y295D02*
X398Y295D01*
X416Y295D02*
X422Y295D01*
X440Y295D02*
X446Y295D01*
X749Y295D02*
X755Y295D01*
X796Y295D02*
X802Y295D01*
X976Y295D02*
X983Y295D01*
X0Y294D02*
X7Y294D01*
X117Y294D02*
X123Y294D01*
X164Y294D02*
X170Y294D01*
X392Y294D02*
X398Y294D01*
X416Y294D02*
X422Y294D01*
X440Y294D02*
X446Y294D01*
X749Y294D02*
X802Y294D01*
X976Y294D02*
X983Y294D01*
X0Y293D02*
X7Y293D01*
X117Y293D02*
X123Y293D01*
X164Y293D02*
X170Y293D01*
X392Y293D02*
X398Y293D01*
X416Y293D02*
X422Y293D01*
X440Y293D02*
X446Y293D01*
X749Y293D02*
X802Y293D01*
X976Y293D02*
X983Y293D01*
X0Y292D02*
X7Y292D01*
X117Y292D02*
X123Y292D01*
X164Y292D02*
X170Y292D01*
X392Y292D02*
X398Y292D01*
X416Y292D02*
X422Y292D01*
X440Y292D02*
X446Y292D01*
X749Y292D02*
X802Y292D01*
X976Y292D02*
X983Y292D01*
X0Y291D02*
X7Y291D01*
X117Y291D02*
X170Y291D01*
X392Y291D02*
X398Y291D01*
X416Y291D02*
X422Y291D01*
X440Y291D02*
X446Y291D01*
X749Y291D02*
X802Y291D01*
X976Y291D02*
X983Y291D01*
X0Y290D02*
X7Y290D01*
X117Y290D02*
X170Y290D01*
X392Y290D02*
X398Y290D01*
X416Y290D02*
X422Y290D01*
X440Y290D02*
X446Y290D01*
X749Y290D02*
X802Y290D01*
X976Y290D02*
X983Y290D01*
X0Y289D02*
X7Y289D01*
X117Y289D02*
X170Y289D01*
X392Y289D02*
X398Y289D01*
X416Y289D02*
X422Y289D01*
X440Y289D02*
X446Y289D01*
X749Y289D02*
X802Y289D01*
X976Y289D02*
X983Y289D01*
X0Y288D02*
X7Y288D01*
X117Y288D02*
X170Y288D01*
X392Y288D02*
X398Y288D01*
X416Y288D02*
X422Y288D01*
X440Y288D02*
X446Y288D01*
X749Y288D02*
X802Y288D01*
X976Y288D02*
X983Y288D01*
X0Y287D02*
X7Y287D01*
X117Y287D02*
X170Y287D01*
X392Y287D02*
X398Y287D01*
X416Y287D02*
X422Y287D01*
X440Y287D02*
X446Y287D01*
X749Y287D02*
X755Y287D01*
X796Y287D02*
X802Y287D01*
X976Y287D02*
X983Y287D01*
X0Y286D02*
X7Y286D01*
X117Y286D02*
X170Y286D01*
X392Y286D02*
X398Y286D01*
X416Y286D02*
X422Y286D01*
X440Y286D02*
X446Y286D01*
X749Y286D02*
X755Y286D01*
X796Y286D02*
X802Y286D01*
X976Y286D02*
X983Y286D01*
X0Y285D02*
X7Y285D01*
X117Y285D02*
X170Y285D01*
X392Y285D02*
X398Y285D01*
X416Y285D02*
X422Y285D01*
X440Y285D02*
X446Y285D01*
X749Y285D02*
X755Y285D01*
X796Y285D02*
X802Y285D01*
X976Y285D02*
X983Y285D01*
X0Y284D02*
X7Y284D01*
X117Y284D02*
X123Y284D01*
X392Y284D02*
X398Y284D01*
X416Y284D02*
X422Y284D01*
X440Y284D02*
X446Y284D01*
X749Y284D02*
X755Y284D01*
X796Y284D02*
X802Y284D01*
X976Y284D02*
X983Y284D01*
X0Y283D02*
X7Y283D01*
X117Y283D02*
X123Y283D01*
X392Y283D02*
X398Y283D01*
X416Y283D02*
X422Y283D01*
X440Y283D02*
X446Y283D01*
X749Y283D02*
X755Y283D01*
X796Y283D02*
X802Y283D01*
X976Y283D02*
X983Y283D01*
X0Y282D02*
X7Y282D01*
X117Y282D02*
X123Y282D01*
X392Y282D02*
X398Y282D01*
X416Y282D02*
X422Y282D01*
X440Y282D02*
X446Y282D01*
X749Y282D02*
X755Y282D01*
X796Y282D02*
X802Y282D01*
X976Y282D02*
X983Y282D01*
X0Y281D02*
X7Y281D01*
X117Y281D02*
X123Y281D01*
X392Y281D02*
X398Y281D01*
X416Y281D02*
X422Y281D01*
X440Y281D02*
X446Y281D01*
X749Y281D02*
X755Y281D01*
X796Y281D02*
X802Y281D01*
X976Y281D02*
X983Y281D01*
X0Y280D02*
X7Y280D01*
X117Y280D02*
X123Y280D01*
X392Y280D02*
X398Y280D01*
X416Y280D02*
X422Y280D01*
X440Y280D02*
X446Y280D01*
X749Y280D02*
X755Y280D01*
X796Y280D02*
X802Y280D01*
X976Y280D02*
X983Y280D01*
X0Y279D02*
X7Y279D01*
X117Y279D02*
X123Y279D01*
X392Y279D02*
X398Y279D01*
X416Y279D02*
X422Y279D01*
X440Y279D02*
X446Y279D01*
X749Y279D02*
X755Y279D01*
X796Y279D02*
X802Y279D01*
X976Y279D02*
X983Y279D01*
X0Y278D02*
X7Y278D01*
X117Y278D02*
X137Y278D01*
X392Y278D02*
X398Y278D01*
X416Y278D02*
X422Y278D01*
X439Y278D02*
X446Y278D01*
X749Y278D02*
X755Y278D01*
X796Y278D02*
X802Y278D01*
X976Y278D02*
X983Y278D01*
X0Y277D02*
X7Y277D01*
X117Y277D02*
X139Y277D01*
X392Y277D02*
X398Y277D01*
X416Y277D02*
X446Y277D01*
X749Y277D02*
X755Y277D01*
X796Y277D02*
X802Y277D01*
X976Y277D02*
X983Y277D01*
X0Y276D02*
X7Y276D01*
X117Y276D02*
X140Y276D01*
X392Y276D02*
X398Y276D01*
X416Y276D02*
X445Y276D01*
X749Y276D02*
X754Y276D01*
X796Y276D02*
X802Y276D01*
X976Y276D02*
X983Y276D01*
X0Y275D02*
X7Y275D01*
X117Y275D02*
X140Y275D01*
X392Y275D02*
X398Y275D01*
X417Y275D02*
X445Y275D01*
X750Y275D02*
X754Y275D01*
X797Y275D02*
X801Y275D01*
X976Y275D02*
X983Y275D01*
X0Y274D02*
X7Y274D01*
X117Y274D02*
X140Y274D01*
X393Y274D02*
X398Y274D01*
X417Y274D02*
X444Y274D01*
X751Y274D02*
X752Y274D01*
X798Y274D02*
X799Y274D01*
X976Y274D02*
X983Y274D01*
X0Y273D02*
X7Y273D01*
X117Y273D02*
X140Y273D01*
X393Y273D02*
X398Y273D01*
X418Y273D02*
X444Y273D01*
X976Y273D02*
X983Y273D01*
X0Y272D02*
X7Y272D01*
X118Y272D02*
X139Y272D01*
X393Y272D02*
X398Y272D01*
X419Y272D02*
X442Y272D01*
X976Y272D02*
X983Y272D01*
X0Y271D02*
X7Y271D01*
X395Y271D02*
X396Y271D01*
X421Y271D02*
X440Y271D01*
X976Y271D02*
X983Y271D01*
X0Y270D02*
X7Y270D01*
X976Y270D02*
X983Y270D01*
X0Y269D02*
X7Y269D01*
X976Y269D02*
X983Y269D01*
X0Y268D02*
X7Y268D01*
X976Y268D02*
X983Y268D01*
X0Y267D02*
X7Y267D01*
X976Y267D02*
X983Y267D01*
X0Y266D02*
X7Y266D01*
X976Y266D02*
X983Y266D01*
X0Y265D02*
X7Y265D01*
X976Y265D02*
X983Y265D01*
X0Y264D02*
X7Y264D01*
X976Y264D02*
X983Y264D01*
X0Y263D02*
X7Y263D01*
X976Y263D02*
X983Y263D01*
X0Y262D02*
X7Y262D01*
X976Y262D02*
X983Y262D01*
X0Y261D02*
X7Y261D01*
X976Y261D02*
X983Y261D01*
X0Y260D02*
X7Y260D01*
X976Y260D02*
X983Y260D01*
X0Y259D02*
X7Y259D01*
X976Y259D02*
X983Y259D01*
X0Y258D02*
X7Y258D01*
X751Y258D02*
X802Y258D01*
X976Y258D02*
X983Y258D01*
X0Y257D02*
X7Y257D01*
X750Y257D02*
X802Y257D01*
X976Y257D02*
X983Y257D01*
X0Y256D02*
X7Y256D01*
X749Y256D02*
X802Y256D01*
X976Y256D02*
X983Y256D01*
X0Y255D02*
X7Y255D01*
X749Y255D02*
X802Y255D01*
X976Y255D02*
X983Y255D01*
X0Y254D02*
X7Y254D01*
X749Y254D02*
X802Y254D01*
X976Y254D02*
X983Y254D01*
X0Y253D02*
X7Y253D01*
X749Y253D02*
X802Y253D01*
X976Y253D02*
X983Y253D01*
X0Y252D02*
X7Y252D01*
X750Y252D02*
X802Y252D01*
X976Y252D02*
X983Y252D01*
X0Y251D02*
X7Y251D01*
X789Y251D02*
X802Y251D01*
X976Y251D02*
X983Y251D01*
X0Y250D02*
X7Y250D01*
X788Y250D02*
X802Y250D01*
X976Y250D02*
X983Y250D01*
X0Y249D02*
X7Y249D01*
X785Y249D02*
X802Y249D01*
X976Y249D02*
X983Y249D01*
X0Y248D02*
X7Y248D01*
X783Y248D02*
X800Y248D01*
X976Y248D02*
X983Y248D01*
X0Y247D02*
X7Y247D01*
X781Y247D02*
X797Y247D01*
X976Y247D02*
X983Y247D01*
X0Y246D02*
X7Y246D01*
X779Y246D02*
X795Y246D01*
X976Y246D02*
X983Y246D01*
X0Y245D02*
X7Y245D01*
X776Y245D02*
X793Y245D01*
X976Y245D02*
X983Y245D01*
X0Y244D02*
X7Y244D01*
X774Y244D02*
X791Y244D01*
X976Y244D02*
X983Y244D01*
X0Y243D02*
X7Y243D01*
X772Y243D02*
X788Y243D01*
X976Y243D02*
X983Y243D01*
X0Y242D02*
X7Y242D01*
X769Y242D02*
X786Y242D01*
X976Y242D02*
X983Y242D01*
X0Y241D02*
X7Y241D01*
X767Y241D02*
X784Y241D01*
X976Y241D02*
X983Y241D01*
X0Y240D02*
X7Y240D01*
X765Y240D02*
X781Y240D01*
X976Y240D02*
X983Y240D01*
X0Y239D02*
X7Y239D01*
X763Y239D02*
X779Y239D01*
X976Y239D02*
X983Y239D01*
X0Y238D02*
X7Y238D01*
X760Y238D02*
X777Y238D01*
X976Y238D02*
X983Y238D01*
X0Y237D02*
X7Y237D01*
X758Y237D02*
X775Y237D01*
X976Y237D02*
X983Y237D01*
X0Y236D02*
X7Y236D01*
X756Y236D02*
X772Y236D01*
X976Y236D02*
X983Y236D01*
X0Y235D02*
X7Y235D01*
X753Y235D02*
X770Y235D01*
X976Y235D02*
X983Y235D01*
X0Y234D02*
X7Y234D01*
X751Y234D02*
X768Y234D01*
X976Y234D02*
X983Y234D01*
X0Y233D02*
X7Y233D01*
X749Y233D02*
X765Y233D01*
X976Y233D02*
X983Y233D01*
X0Y232D02*
X7Y232D01*
X749Y232D02*
X763Y232D01*
X976Y232D02*
X983Y232D01*
X0Y231D02*
X7Y231D01*
X749Y231D02*
X761Y231D01*
X976Y231D02*
X983Y231D01*
X0Y230D02*
X7Y230D01*
X749Y230D02*
X800Y230D01*
X976Y230D02*
X983Y230D01*
X0Y229D02*
X7Y229D01*
X749Y229D02*
X801Y229D01*
X976Y229D02*
X983Y229D01*
X0Y228D02*
X7Y228D01*
X749Y228D02*
X802Y228D01*
X976Y228D02*
X983Y228D01*
X0Y227D02*
X7Y227D01*
X749Y227D02*
X802Y227D01*
X976Y227D02*
X983Y227D01*
X0Y226D02*
X7Y226D01*
X749Y226D02*
X802Y226D01*
X976Y226D02*
X983Y226D01*
X0Y225D02*
X7Y225D01*
X749Y225D02*
X801Y225D01*
X976Y225D02*
X983Y225D01*
X0Y224D02*
X7Y224D01*
X749Y224D02*
X800Y224D01*
X976Y224D02*
X983Y224D01*
X0Y223D02*
X7Y223D01*
X976Y223D02*
X983Y223D01*
X0Y222D02*
X7Y222D01*
X976Y222D02*
X983Y222D01*
X0Y221D02*
X7Y221D01*
X976Y221D02*
X983Y221D01*
X0Y220D02*
X7Y220D01*
X976Y220D02*
X983Y220D01*
X0Y219D02*
X7Y219D01*
X976Y219D02*
X983Y219D01*
X0Y218D02*
X7Y218D01*
X976Y218D02*
X983Y218D01*
X0Y217D02*
X7Y217D01*
X976Y217D02*
X983Y217D01*
X0Y216D02*
X7Y216D01*
X976Y216D02*
X983Y216D01*
X0Y215D02*
X7Y215D01*
X976Y215D02*
X983Y215D01*
X0Y214D02*
X7Y214D01*
X976Y214D02*
X983Y214D01*
X0Y213D02*
X7Y213D01*
X976Y213D02*
X983Y213D01*
X0Y212D02*
X7Y212D01*
X976Y212D02*
X983Y212D01*
X0Y211D02*
X7Y211D01*
X976Y211D02*
X983Y211D01*
X0Y210D02*
X7Y210D01*
X976Y210D02*
X983Y210D01*
X0Y209D02*
X7Y209D01*
X976Y209D02*
X983Y209D01*
X0Y208D02*
X7Y208D01*
X793Y208D02*
X798Y208D01*
X976Y208D02*
X983Y208D01*
X0Y207D02*
X7Y207D01*
X791Y207D02*
X801Y207D01*
X976Y207D02*
X983Y207D01*
X0Y206D02*
X7Y206D01*
X790Y206D02*
X801Y206D01*
X976Y206D02*
X983Y206D01*
X0Y205D02*
X7Y205D01*
X788Y205D02*
X802Y205D01*
X976Y205D02*
X983Y205D01*
X0Y204D02*
X7Y204D01*
X787Y204D02*
X802Y204D01*
X976Y204D02*
X983Y204D01*
X0Y203D02*
X7Y203D01*
X786Y203D02*
X801Y203D01*
X976Y203D02*
X983Y203D01*
X0Y202D02*
X7Y202D01*
X785Y202D02*
X801Y202D01*
X976Y202D02*
X983Y202D01*
X0Y201D02*
X7Y201D01*
X783Y201D02*
X798Y201D01*
X976Y201D02*
X983Y201D01*
X0Y200D02*
X7Y200D01*
X782Y200D02*
X792Y200D01*
X976Y200D02*
X983Y200D01*
X0Y199D02*
X7Y199D01*
X781Y199D02*
X791Y199D01*
X976Y199D02*
X983Y199D01*
X0Y198D02*
X7Y198D01*
X779Y198D02*
X790Y198D01*
X976Y198D02*
X983Y198D01*
X0Y197D02*
X7Y197D01*
X778Y197D02*
X789Y197D01*
X976Y197D02*
X983Y197D01*
X0Y196D02*
X7Y196D01*
X777Y196D02*
X787Y196D01*
X976Y196D02*
X983Y196D01*
X0Y195D02*
X7Y195D01*
X776Y195D02*
X786Y195D01*
X976Y195D02*
X983Y195D01*
X0Y194D02*
X7Y194D01*
X751Y194D02*
X785Y194D01*
X976Y194D02*
X983Y194D01*
X0Y193D02*
X7Y193D01*
X750Y193D02*
X783Y193D01*
X976Y193D02*
X983Y193D01*
X0Y192D02*
X7Y192D01*
X749Y192D02*
X782Y192D01*
X976Y192D02*
X983Y192D01*
X0Y191D02*
X7Y191D01*
X749Y191D02*
X781Y191D01*
X976Y191D02*
X983Y191D01*
X0Y190D02*
X7Y190D01*
X749Y190D02*
X781Y190D01*
X976Y190D02*
X983Y190D01*
X0Y189D02*
X7Y189D01*
X749Y189D02*
X783Y189D01*
X976Y189D02*
X983Y189D01*
X0Y188D02*
X7Y188D01*
X750Y188D02*
X784Y188D01*
X976Y188D02*
X983Y188D01*
X0Y187D02*
X7Y187D01*
X775Y187D02*
X785Y187D01*
X976Y187D02*
X983Y187D01*
X0Y186D02*
X7Y186D01*
X776Y186D02*
X787Y186D01*
X976Y186D02*
X983Y186D01*
X0Y185D02*
X7Y185D01*
X777Y185D02*
X788Y185D01*
X976Y185D02*
X983Y185D01*
X0Y184D02*
X7Y184D01*
X779Y184D02*
X789Y184D01*
X976Y184D02*
X983Y184D01*
X0Y183D02*
X7Y183D01*
X780Y183D02*
X790Y183D01*
X976Y183D02*
X983Y183D01*
X0Y182D02*
X7Y182D01*
X781Y182D02*
X792Y182D01*
X976Y182D02*
X983Y182D01*
X0Y181D02*
X7Y181D01*
X783Y181D02*
X793Y181D01*
X976Y181D02*
X983Y181D01*
X0Y180D02*
X7Y180D01*
X784Y180D02*
X800Y180D01*
X976Y180D02*
X983Y180D01*
X0Y179D02*
X7Y179D01*
X785Y179D02*
X801Y179D01*
X976Y179D02*
X983Y179D01*
X0Y178D02*
X7Y178D01*
X786Y178D02*
X802Y178D01*
X976Y178D02*
X983Y178D01*
X0Y177D02*
X7Y177D01*
X788Y177D02*
X802Y177D01*
X976Y177D02*
X983Y177D01*
X0Y176D02*
X7Y176D01*
X789Y176D02*
X802Y176D01*
X976Y176D02*
X983Y176D01*
X0Y175D02*
X7Y175D01*
X790Y175D02*
X801Y175D01*
X976Y175D02*
X983Y175D01*
X0Y174D02*
X7Y174D01*
X792Y174D02*
X800Y174D01*
X976Y174D02*
X983Y174D01*
X0Y173D02*
X7Y173D01*
X976Y173D02*
X983Y173D01*
X0Y172D02*
X7Y172D01*
X976Y172D02*
X983Y172D01*
X0Y171D02*
X7Y171D01*
X976Y171D02*
X983Y171D01*
X0Y170D02*
X7Y170D01*
X976Y170D02*
X983Y170D01*
X0Y169D02*
X7Y169D01*
X976Y169D02*
X983Y169D01*
X0Y168D02*
X7Y168D01*
X976Y168D02*
X983Y168D01*
X0Y167D02*
X7Y167D01*
X976Y167D02*
X983Y167D01*
X0Y166D02*
X7Y166D01*
X976Y166D02*
X983Y166D01*
X0Y165D02*
X7Y165D01*
X976Y165D02*
X983Y165D01*
X0Y164D02*
X7Y164D01*
X976Y164D02*
X983Y164D01*
X0Y163D02*
X7Y163D01*
X976Y163D02*
X983Y163D01*
X0Y162D02*
X7Y162D01*
X976Y162D02*
X983Y162D01*
X0Y161D02*
X7Y161D01*
X976Y161D02*
X983Y161D01*
X0Y160D02*
X7Y160D01*
X976Y160D02*
X983Y160D01*
X0Y159D02*
X7Y159D01*
X976Y159D02*
X983Y159D01*
X0Y158D02*
X7Y158D01*
X976Y158D02*
X983Y158D01*
X0Y157D02*
X7Y157D01*
X753Y157D02*
X775Y157D01*
X976Y157D02*
X983Y157D01*
X0Y156D02*
X7Y156D01*
X751Y156D02*
X776Y156D01*
X976Y156D02*
X983Y156D01*
X0Y155D02*
X7Y155D01*
X750Y155D02*
X777Y155D01*
X976Y155D02*
X983Y155D01*
X0Y154D02*
X7Y154D01*
X750Y154D02*
X778Y154D01*
X976Y154D02*
X983Y154D01*
X0Y153D02*
X7Y153D01*
X749Y153D02*
X778Y153D01*
X976Y153D02*
X983Y153D01*
X0Y152D02*
X7Y152D01*
X749Y152D02*
X778Y152D01*
X976Y152D02*
X983Y152D01*
X0Y151D02*
X7Y151D01*
X749Y151D02*
X779Y151D01*
X976Y151D02*
X983Y151D01*
X0Y150D02*
X7Y150D01*
X749Y150D02*
X755Y150D01*
X772Y150D02*
X801Y150D01*
X976Y150D02*
X983Y150D01*
X0Y149D02*
X7Y149D01*
X749Y149D02*
X755Y149D01*
X772Y149D02*
X801Y149D01*
X976Y149D02*
X983Y149D01*
X0Y148D02*
X7Y148D01*
X749Y148D02*
X755Y148D01*
X772Y148D02*
X802Y148D01*
X976Y148D02*
X983Y148D01*
X0Y147D02*
X7Y147D01*
X749Y147D02*
X755Y147D01*
X772Y147D02*
X802Y147D01*
X976Y147D02*
X983Y147D01*
X0Y146D02*
X7Y146D01*
X749Y146D02*
X755Y146D01*
X772Y146D02*
X802Y146D01*
X976Y146D02*
X983Y146D01*
X0Y145D02*
X7Y145D01*
X749Y145D02*
X755Y145D01*
X772Y145D02*
X802Y145D01*
X976Y145D02*
X983Y145D01*
X0Y144D02*
X7Y144D01*
X749Y144D02*
X755Y144D01*
X772Y144D02*
X802Y144D01*
X976Y144D02*
X983Y144D01*
X0Y143D02*
X7Y143D01*
X749Y143D02*
X755Y143D01*
X772Y143D02*
X778Y143D01*
X796Y143D02*
X802Y143D01*
X976Y143D02*
X983Y143D01*
X0Y142D02*
X7Y142D01*
X749Y142D02*
X755Y142D01*
X772Y142D02*
X778Y142D01*
X796Y142D02*
X802Y142D01*
X976Y142D02*
X983Y142D01*
X0Y141D02*
X7Y141D01*
X749Y141D02*
X755Y141D01*
X772Y141D02*
X778Y141D01*
X796Y141D02*
X802Y141D01*
X976Y141D02*
X983Y141D01*
X0Y140D02*
X7Y140D01*
X749Y140D02*
X755Y140D01*
X772Y140D02*
X778Y140D01*
X796Y140D02*
X802Y140D01*
X976Y140D02*
X983Y140D01*
X0Y139D02*
X7Y139D01*
X749Y139D02*
X755Y139D01*
X772Y139D02*
X778Y139D01*
X796Y139D02*
X802Y139D01*
X976Y139D02*
X983Y139D01*
X0Y138D02*
X7Y138D01*
X749Y138D02*
X755Y138D01*
X772Y138D02*
X778Y138D01*
X796Y138D02*
X802Y138D01*
X976Y138D02*
X983Y138D01*
X0Y137D02*
X7Y137D01*
X749Y137D02*
X755Y137D01*
X772Y137D02*
X802Y137D01*
X976Y137D02*
X983Y137D01*
X0Y136D02*
X7Y136D01*
X749Y136D02*
X755Y136D01*
X772Y136D02*
X802Y136D01*
X976Y136D02*
X983Y136D01*
X0Y135D02*
X7Y135D01*
X749Y135D02*
X755Y135D01*
X772Y135D02*
X802Y135D01*
X976Y135D02*
X983Y135D01*
X0Y134D02*
X7Y134D01*
X749Y134D02*
X755Y134D01*
X772Y134D02*
X802Y134D01*
X976Y134D02*
X983Y134D01*
X0Y133D02*
X7Y133D01*
X749Y133D02*
X755Y133D01*
X772Y133D02*
X802Y133D01*
X976Y133D02*
X983Y133D01*
X0Y132D02*
X7Y132D01*
X749Y132D02*
X755Y132D01*
X772Y132D02*
X801Y132D01*
X976Y132D02*
X983Y132D01*
X0Y131D02*
X7Y131D01*
X749Y131D02*
X755Y131D01*
X772Y131D02*
X801Y131D01*
X976Y131D02*
X983Y131D01*
X0Y130D02*
X7Y130D01*
X749Y130D02*
X779Y130D01*
X976Y130D02*
X983Y130D01*
X0Y129D02*
X7Y129D01*
X749Y129D02*
X778Y129D01*
X976Y129D02*
X983Y129D01*
X0Y128D02*
X7Y128D01*
X749Y128D02*
X778Y128D01*
X976Y128D02*
X983Y128D01*
X0Y127D02*
X7Y127D01*
X750Y127D02*
X777Y127D01*
X976Y127D02*
X983Y127D01*
X0Y126D02*
X7Y126D01*
X750Y126D02*
X777Y126D01*
X976Y126D02*
X983Y126D01*
X0Y125D02*
X7Y125D01*
X751Y125D02*
X776Y125D01*
X976Y125D02*
X983Y125D01*
X0Y124D02*
X7Y124D01*
X753Y124D02*
X774Y124D01*
X976Y124D02*
X983Y124D01*
X0Y123D02*
X7Y123D01*
X976Y123D02*
X983Y123D01*
X0Y122D02*
X7Y122D01*
X976Y122D02*
X983Y122D01*
X0Y121D02*
X7Y121D01*
X976Y121D02*
X983Y121D01*
X0Y120D02*
X7Y120D01*
X976Y120D02*
X983Y120D01*
X0Y119D02*
X7Y119D01*
X976Y119D02*
X983Y119D01*
X0Y118D02*
X7Y118D01*
X976Y118D02*
X983Y118D01*
X0Y117D02*
X7Y117D01*
X976Y117D02*
X983Y117D01*
X0Y116D02*
X7Y116D01*
X976Y116D02*
X983Y116D01*
X0Y115D02*
X7Y115D01*
X976Y115D02*
X983Y115D01*
X0Y114D02*
X7Y114D01*
X976Y114D02*
X983Y114D01*
X0Y113D02*
X7Y113D01*
X976Y113D02*
X983Y113D01*
X0Y112D02*
X7Y112D01*
X976Y112D02*
X983Y112D01*
X0Y111D02*
X7Y111D01*
X976Y111D02*
X983Y111D01*
X0Y110D02*
X7Y110D01*
X976Y110D02*
X983Y110D01*
X0Y109D02*
X7Y109D01*
X976Y109D02*
X983Y109D01*
X0Y108D02*
X7Y108D01*
X976Y108D02*
X983Y108D01*
X0Y107D02*
X7Y107D01*
X753Y107D02*
X756Y107D01*
X976Y107D02*
X983Y107D01*
X0Y106D02*
X7Y106D01*
X752Y106D02*
X757Y106D01*
X976Y106D02*
X983Y106D01*
X0Y105D02*
X7Y105D01*
X752Y105D02*
X757Y105D01*
X976Y105D02*
X983Y105D01*
X0Y104D02*
X7Y104D01*
X751Y104D02*
X758Y104D01*
X976Y104D02*
X983Y104D01*
X0Y103D02*
X7Y103D01*
X751Y103D02*
X757Y103D01*
X976Y103D02*
X983Y103D01*
X0Y102D02*
X7Y102D01*
X750Y102D02*
X757Y102D01*
X976Y102D02*
X983Y102D01*
X0Y101D02*
X7Y101D01*
X750Y101D02*
X757Y101D01*
X976Y101D02*
X983Y101D01*
X0Y100D02*
X7Y100D01*
X750Y100D02*
X756Y100D01*
X772Y100D02*
X802Y100D01*
X976Y100D02*
X983Y100D01*
X0Y99D02*
X7Y99D01*
X749Y99D02*
X756Y99D01*
X772Y99D02*
X802Y99D01*
X976Y99D02*
X983Y99D01*
X0Y98D02*
X7Y98D01*
X749Y98D02*
X755Y98D01*
X772Y98D02*
X802Y98D01*
X976Y98D02*
X983Y98D01*
X0Y97D02*
X7Y97D01*
X749Y97D02*
X755Y97D01*
X772Y97D02*
X802Y97D01*
X976Y97D02*
X983Y97D01*
X0Y96D02*
X7Y96D01*
X749Y96D02*
X755Y96D01*
X772Y96D02*
X802Y96D01*
X976Y96D02*
X983Y96D01*
X0Y95D02*
X7Y95D01*
X749Y95D02*
X755Y95D01*
X772Y95D02*
X802Y95D01*
X976Y95D02*
X983Y95D01*
X0Y94D02*
X7Y94D01*
X749Y94D02*
X755Y94D01*
X772Y94D02*
X802Y94D01*
X976Y94D02*
X983Y94D01*
X0Y93D02*
X7Y93D01*
X749Y93D02*
X755Y93D01*
X772Y93D02*
X778Y93D01*
X796Y93D02*
X802Y93D01*
X976Y93D02*
X983Y93D01*
X0Y92D02*
X7Y92D01*
X749Y92D02*
X755Y92D01*
X772Y92D02*
X778Y92D01*
X796Y92D02*
X802Y92D01*
X976Y92D02*
X983Y92D01*
X0Y91D02*
X7Y91D01*
X749Y91D02*
X755Y91D01*
X772Y91D02*
X778Y91D01*
X796Y91D02*
X802Y91D01*
X976Y91D02*
X983Y91D01*
X0Y90D02*
X7Y90D01*
X749Y90D02*
X755Y90D01*
X772Y90D02*
X778Y90D01*
X796Y90D02*
X802Y90D01*
X976Y90D02*
X983Y90D01*
X0Y89D02*
X7Y89D01*
X749Y89D02*
X755Y89D01*
X772Y89D02*
X778Y89D01*
X796Y89D02*
X802Y89D01*
X976Y89D02*
X983Y89D01*
X0Y88D02*
X7Y88D01*
X749Y88D02*
X755Y88D01*
X772Y88D02*
X778Y88D01*
X796Y88D02*
X802Y88D01*
X976Y88D02*
X983Y88D01*
X0Y87D02*
X7Y87D01*
X749Y87D02*
X755Y87D01*
X772Y87D02*
X778Y87D01*
X796Y87D02*
X802Y87D01*
X976Y87D02*
X983Y87D01*
X0Y86D02*
X7Y86D01*
X749Y86D02*
X755Y86D01*
X772Y86D02*
X778Y86D01*
X796Y86D02*
X802Y86D01*
X976Y86D02*
X983Y86D01*
X0Y85D02*
X7Y85D01*
X749Y85D02*
X755Y85D01*
X772Y85D02*
X778Y85D01*
X796Y85D02*
X802Y85D01*
X976Y85D02*
X983Y85D01*
X0Y84D02*
X7Y84D01*
X749Y84D02*
X755Y84D01*
X772Y84D02*
X778Y84D01*
X796Y84D02*
X802Y84D01*
X976Y84D02*
X983Y84D01*
X0Y83D02*
X7Y83D01*
X749Y83D02*
X755Y83D01*
X772Y83D02*
X778Y83D01*
X796Y83D02*
X802Y83D01*
X976Y83D02*
X983Y83D01*
X0Y82D02*
X7Y82D01*
X749Y82D02*
X755Y82D01*
X772Y82D02*
X778Y82D01*
X796Y82D02*
X802Y82D01*
X976Y82D02*
X983Y82D01*
X0Y81D02*
X7Y81D01*
X749Y81D02*
X755Y81D01*
X772Y81D02*
X778Y81D01*
X796Y81D02*
X802Y81D01*
X976Y81D02*
X983Y81D01*
X0Y80D02*
X7Y80D01*
X749Y80D02*
X778Y80D01*
X796Y80D02*
X802Y80D01*
X976Y80D02*
X983Y80D01*
X0Y79D02*
X7Y79D01*
X749Y79D02*
X778Y79D01*
X796Y79D02*
X802Y79D01*
X976Y79D02*
X983Y79D01*
X0Y78D02*
X7Y78D01*
X749Y78D02*
X778Y78D01*
X796Y78D02*
X802Y78D01*
X976Y78D02*
X983Y78D01*
X0Y77D02*
X7Y77D01*
X749Y77D02*
X778Y77D01*
X796Y77D02*
X802Y77D01*
X976Y77D02*
X983Y77D01*
X0Y76D02*
X7Y76D01*
X750Y76D02*
X777Y76D01*
X796Y76D02*
X802Y76D01*
X976Y76D02*
X983Y76D01*
X0Y75D02*
X7Y75D01*
X751Y75D02*
X776Y75D01*
X796Y75D02*
X801Y75D01*
X976Y75D02*
X983Y75D01*
X0Y74D02*
X7Y74D01*
X752Y74D02*
X775Y74D01*
X797Y74D02*
X801Y74D01*
X976Y74D02*
X983Y74D01*
X0Y73D02*
X7Y73D01*
X976Y73D02*
X983Y73D01*
X0Y72D02*
X7Y72D01*
X976Y72D02*
X983Y72D01*
X0Y71D02*
X7Y71D01*
X976Y71D02*
X983Y71D01*
X0Y70D02*
X7Y70D01*
X976Y70D02*
X983Y70D01*
X0Y69D02*
X7Y69D01*
X976Y69D02*
X983Y69D01*
X0Y68D02*
X7Y68D01*
X976Y68D02*
X983Y68D01*
X0Y67D02*
X7Y67D01*
X976Y67D02*
X983Y67D01*
X0Y66D02*
X7Y66D01*
X976Y66D02*
X983Y66D01*
X0Y65D02*
X7Y65D01*
X976Y65D02*
X983Y65D01*
X0Y64D02*
X7Y64D01*
X976Y64D02*
X983Y64D01*
X0Y63D02*
X7Y63D01*
X976Y63D02*
X983Y63D01*
X0Y62D02*
X7Y62D01*
X976Y62D02*
X983Y62D01*
X0Y61D02*
X7Y61D01*
X976Y61D02*
X983Y61D01*
X0Y60D02*
X7Y60D01*
X976Y60D02*
X983Y60D01*
X0Y59D02*
X7Y59D01*
X976Y59D02*
X983Y59D01*
X0Y58D02*
X7Y58D01*
X976Y58D02*
X983Y58D01*
X0Y57D02*
X7Y57D01*
X976Y57D02*
X983Y57D01*
X0Y56D02*
X7Y56D01*
X976Y56D02*
X983Y56D01*
X0Y55D02*
X7Y55D01*
X976Y55D02*
X983Y55D01*
X0Y54D02*
X7Y54D01*
X331Y54D02*
X348Y54D01*
X409Y54D02*
X410Y54D01*
X435Y54D02*
X457Y54D01*
X976Y54D02*
X983Y54D01*
X0Y53D02*
X7Y53D01*
X330Y53D02*
X349Y53D01*
X407Y53D02*
X412Y53D01*
X432Y53D02*
X459Y53D01*
X976Y53D02*
X983Y53D01*
X0Y52D02*
X7Y52D01*
X329Y52D02*
X349Y52D01*
X407Y52D02*
X412Y52D01*
X431Y52D02*
X461Y52D01*
X976Y52D02*
X983Y52D01*
X0Y51D02*
X7Y51D01*
X329Y51D02*
X349Y51D01*
X406Y51D02*
X412Y51D01*
X430Y51D02*
X462Y51D01*
X976Y51D02*
X983Y51D01*
X0Y50D02*
X7Y50D01*
X329Y50D02*
X349Y50D01*
X405Y50D02*
X412Y50D01*
X430Y50D02*
X462Y50D01*
X976Y50D02*
X983Y50D01*
X0Y49D02*
X7Y49D01*
X329Y49D02*
X349Y49D01*
X405Y49D02*
X412Y49D01*
X429Y49D02*
X462Y49D01*
X976Y49D02*
X983Y49D01*
X0Y48D02*
X7Y48D01*
X15Y48D02*
X15Y48D01*
X330Y48D02*
X349Y48D01*
X404Y48D02*
X411Y48D01*
X429Y48D02*
X463Y48D01*
X976Y48D02*
X983Y48D01*
X0Y47D02*
X7Y47D01*
X14Y47D02*
X16Y47D01*
X342Y47D02*
X349Y47D01*
X404Y47D02*
X411Y47D01*
X429Y47D02*
X435Y47D01*
X456Y47D02*
X463Y47D01*
X976Y47D02*
X983Y47D01*
X0Y46D02*
X7Y46D01*
X13Y46D02*
X17Y46D01*
X342Y46D02*
X349Y46D01*
X403Y46D02*
X410Y46D01*
X429Y46D02*
X435Y46D01*
X457Y46D02*
X463Y46D01*
X976Y46D02*
X983Y46D01*
X0Y45D02*
X7Y45D01*
X12Y45D02*
X18Y45D01*
X342Y45D02*
X349Y45D01*
X403Y45D02*
X410Y45D01*
X429Y45D02*
X435Y45D01*
X457Y45D02*
X463Y45D01*
X976Y45D02*
X983Y45D01*
X0Y44D02*
X7Y44D01*
X13Y44D02*
X19Y44D01*
X342Y44D02*
X349Y44D01*
X402Y44D02*
X409Y44D01*
X429Y44D02*
X435Y44D01*
X457Y44D02*
X463Y44D01*
X976Y44D02*
X983Y44D01*
X0Y43D02*
X7Y43D01*
X14Y43D02*
X20Y43D01*
X342Y43D02*
X349Y43D01*
X401Y43D02*
X409Y43D01*
X429Y43D02*
X435Y43D01*
X457Y43D02*
X463Y43D01*
X976Y43D02*
X983Y43D01*
X0Y42D02*
X7Y42D01*
X15Y42D02*
X21Y42D01*
X342Y42D02*
X349Y42D01*
X401Y42D02*
X408Y42D01*
X429Y42D02*
X435Y42D01*
X457Y42D02*
X463Y42D01*
X976Y42D02*
X983Y42D01*
X0Y41D02*
X7Y41D01*
X16Y41D02*
X22Y41D01*
X342Y41D02*
X349Y41D01*
X400Y41D02*
X407Y41D01*
X429Y41D02*
X435Y41D01*
X457Y41D02*
X463Y41D01*
X976Y41D02*
X983Y41D01*
X0Y40D02*
X7Y40D01*
X17Y40D02*
X23Y40D01*
X342Y40D02*
X349Y40D01*
X400Y40D02*
X407Y40D01*
X429Y40D02*
X435Y40D01*
X457Y40D02*
X463Y40D01*
X976Y40D02*
X983Y40D01*
X0Y39D02*
X7Y39D01*
X18Y39D02*
X24Y39D01*
X342Y39D02*
X349Y39D01*
X399Y39D02*
X406Y39D01*
X429Y39D02*
X435Y39D01*
X457Y39D02*
X463Y39D01*
X976Y39D02*
X983Y39D01*
X0Y38D02*
X7Y38D01*
X19Y38D02*
X25Y38D01*
X342Y38D02*
X349Y38D01*
X398Y38D02*
X406Y38D01*
X429Y38D02*
X435Y38D01*
X457Y38D02*
X463Y38D01*
X976Y38D02*
X983Y38D01*
X0Y37D02*
X7Y37D01*
X20Y37D02*
X26Y37D01*
X342Y37D02*
X349Y37D01*
X398Y37D02*
X405Y37D01*
X429Y37D02*
X435Y37D01*
X457Y37D02*
X463Y37D01*
X976Y37D02*
X983Y37D01*
X0Y36D02*
X7Y36D01*
X21Y36D02*
X27Y36D01*
X342Y36D02*
X349Y36D01*
X397Y36D02*
X404Y36D01*
X429Y36D02*
X435Y36D01*
X457Y36D02*
X463Y36D01*
X976Y36D02*
X983Y36D01*
X0Y35D02*
X7Y35D01*
X22Y35D02*
X28Y35D01*
X342Y35D02*
X349Y35D01*
X397Y35D02*
X404Y35D01*
X429Y35D02*
X435Y35D01*
X457Y35D02*
X463Y35D01*
X976Y35D02*
X983Y35D01*
X0Y34D02*
X7Y34D01*
X23Y34D02*
X28Y34D01*
X342Y34D02*
X349Y34D01*
X396Y34D02*
X403Y34D01*
X429Y34D02*
X435Y34D01*
X457Y34D02*
X463Y34D01*
X976Y34D02*
X983Y34D01*
X0Y33D02*
X7Y33D01*
X24Y33D02*
X29Y33D01*
X342Y33D02*
X349Y33D01*
X396Y33D02*
X403Y33D01*
X429Y33D02*
X435Y33D01*
X457Y33D02*
X463Y33D01*
X976Y33D02*
X983Y33D01*
X0Y32D02*
X7Y32D01*
X25Y32D02*
X30Y32D01*
X342Y32D02*
X349Y32D01*
X395Y32D02*
X402Y32D01*
X429Y32D02*
X435Y32D01*
X457Y32D02*
X463Y32D01*
X976Y32D02*
X983Y32D01*
X0Y31D02*
X7Y31D01*
X26Y31D02*
X31Y31D01*
X342Y31D02*
X349Y31D01*
X394Y31D02*
X402Y31D01*
X429Y31D02*
X435Y31D01*
X457Y31D02*
X463Y31D01*
X976Y31D02*
X983Y31D01*
X0Y30D02*
X7Y30D01*
X27Y30D02*
X32Y30D01*
X342Y30D02*
X349Y30D01*
X394Y30D02*
X401Y30D01*
X429Y30D02*
X435Y30D01*
X457Y30D02*
X463Y30D01*
X976Y30D02*
X983Y30D01*
X0Y29D02*
X7Y29D01*
X28Y29D02*
X33Y29D01*
X342Y29D02*
X349Y29D01*
X393Y29D02*
X400Y29D01*
X429Y29D02*
X435Y29D01*
X457Y29D02*
X463Y29D01*
X976Y29D02*
X983Y29D01*
X0Y28D02*
X7Y28D01*
X29Y28D02*
X34Y28D01*
X342Y28D02*
X349Y28D01*
X393Y28D02*
X400Y28D01*
X429Y28D02*
X435Y28D01*
X457Y28D02*
X463Y28D01*
X976Y28D02*
X983Y28D01*
X0Y27D02*
X7Y27D01*
X30Y27D02*
X36Y27D01*
X342Y27D02*
X349Y27D01*
X392Y27D02*
X399Y27D01*
X429Y27D02*
X435Y27D01*
X457Y27D02*
X463Y27D01*
X976Y27D02*
X983Y27D01*
X0Y26D02*
X7Y26D01*
X31Y26D02*
X37Y26D01*
X342Y26D02*
X349Y26D01*
X391Y26D02*
X399Y26D01*
X429Y26D02*
X435Y26D01*
X457Y26D02*
X463Y26D01*
X976Y26D02*
X983Y26D01*
X0Y25D02*
X7Y25D01*
X32Y25D02*
X38Y25D01*
X342Y25D02*
X349Y25D01*
X391Y25D02*
X398Y25D01*
X429Y25D02*
X435Y25D01*
X457Y25D02*
X463Y25D01*
X976Y25D02*
X983Y25D01*
X0Y24D02*
X7Y24D01*
X33Y24D02*
X39Y24D01*
X342Y24D02*
X349Y24D01*
X358Y24D02*
X361Y24D01*
X390Y24D02*
X397Y24D01*
X429Y24D02*
X435Y24D01*
X457Y24D02*
X463Y24D01*
X976Y24D02*
X983Y24D01*
X0Y23D02*
X7Y23D01*
X34Y23D02*
X40Y23D01*
X342Y23D02*
X349Y23D01*
X357Y23D02*
X362Y23D01*
X390Y23D02*
X397Y23D01*
X429Y23D02*
X435Y23D01*
X457Y23D02*
X463Y23D01*
X976Y23D02*
X983Y23D01*
X0Y22D02*
X7Y22D01*
X35Y22D02*
X41Y22D01*
X342Y22D02*
X349Y22D01*
X356Y22D02*
X362Y22D01*
X389Y22D02*
X396Y22D01*
X429Y22D02*
X435Y22D01*
X457Y22D02*
X463Y22D01*
X976Y22D02*
X983Y22D01*
X0Y21D02*
X7Y21D01*
X36Y21D02*
X42Y21D01*
X342Y21D02*
X349Y21D01*
X356Y21D02*
X362Y21D01*
X389Y21D02*
X396Y21D01*
X429Y21D02*
X435Y21D01*
X457Y21D02*
X463Y21D01*
X976Y21D02*
X983Y21D01*
X0Y20D02*
X7Y20D01*
X37Y20D02*
X43Y20D01*
X342Y20D02*
X349Y20D01*
X356Y20D02*
X362Y20D01*
X388Y20D02*
X395Y20D01*
X429Y20D02*
X435Y20D01*
X457Y20D02*
X463Y20D01*
X976Y20D02*
X983Y20D01*
X0Y19D02*
X7Y19D01*
X38Y19D02*
X44Y19D01*
X342Y19D02*
X349Y19D01*
X356Y19D02*
X362Y19D01*
X387Y19D02*
X395Y19D01*
X429Y19D02*
X435Y19D01*
X457Y19D02*
X463Y19D01*
X976Y19D02*
X983Y19D01*
X0Y18D02*
X7Y18D01*
X39Y18D02*
X45Y18D01*
X342Y18D02*
X349Y18D01*
X356Y18D02*
X362Y18D01*
X387Y18D02*
X394Y18D01*
X429Y18D02*
X435Y18D01*
X457Y18D02*
X463Y18D01*
X976Y18D02*
X983Y18D01*
X0Y17D02*
X7Y17D01*
X40Y17D02*
X46Y17D01*
X342Y17D02*
X349Y17D01*
X356Y17D02*
X362Y17D01*
X386Y17D02*
X393Y17D01*
X429Y17D02*
X435Y17D01*
X457Y17D02*
X463Y17D01*
X976Y17D02*
X983Y17D01*
X0Y16D02*
X7Y16D01*
X41Y16D02*
X47Y16D01*
X342Y16D02*
X349Y16D01*
X356Y16D02*
X362Y16D01*
X386Y16D02*
X393Y16D01*
X429Y16D02*
X435Y16D01*
X457Y16D02*
X463Y16D01*
X976Y16D02*
X983Y16D01*
X0Y15D02*
X7Y15D01*
X42Y15D02*
X48Y15D01*
X342Y15D02*
X349Y15D01*
X356Y15D02*
X362Y15D01*
X385Y15D02*
X392Y15D01*
X429Y15D02*
X435Y15D01*
X457Y15D02*
X463Y15D01*
X976Y15D02*
X983Y15D01*
X0Y14D02*
X7Y14D01*
X43Y14D02*
X49Y14D01*
X342Y14D02*
X349Y14D01*
X356Y14D02*
X362Y14D01*
X384Y14D02*
X392Y14D01*
X429Y14D02*
X435Y14D01*
X457Y14D02*
X463Y14D01*
X976Y14D02*
X983Y14D01*
X0Y13D02*
X7Y13D01*
X44Y13D02*
X49Y13D01*
X342Y13D02*
X349Y13D01*
X356Y13D02*
X362Y13D01*
X384Y13D02*
X391Y13D01*
X429Y13D02*
X435Y13D01*
X457Y13D02*
X463Y13D01*
X976Y13D02*
X983Y13D01*
X0Y12D02*
X7Y12D01*
X45Y12D02*
X48Y12D01*
X342Y12D02*
X349Y12D01*
X356Y12D02*
X362Y12D01*
X383Y12D02*
X390Y12D01*
X429Y12D02*
X435Y12D01*
X457Y12D02*
X463Y12D01*
X976Y12D02*
X983Y12D01*
X0Y11D02*
X7Y11D01*
X46Y11D02*
X47Y11D01*
X342Y11D02*
X349Y11D01*
X356Y11D02*
X362Y11D01*
X383Y11D02*
X390Y11D01*
X429Y11D02*
X435Y11D01*
X457Y11D02*
X463Y11D01*
X976Y11D02*
X983Y11D01*
X0Y10D02*
X7Y10D01*
X342Y10D02*
X349Y10D01*
X356Y10D02*
X362Y10D01*
X382Y10D02*
X389Y10D01*
X429Y10D02*
X435Y10D01*
X457Y10D02*
X463Y10D01*
X976Y10D02*
X983Y10D01*
X0Y9D02*
X7Y9D01*
X342Y9D02*
X349Y9D01*
X356Y9D02*
X362Y9D01*
X382Y9D02*
X389Y9D01*
X429Y9D02*
X435Y9D01*
X457Y9D02*
X463Y9D01*
X976Y9D02*
X983Y9D01*
X0Y8D02*
X983Y8D01*
X0Y7D02*
X983Y7D01*
X0Y6D02*
X983Y6D01*
X0Y5D02*
X983Y5D01*
X0Y4D02*
X983Y4D01*
X0Y3D02*
X983Y3D01*
X0Y2D02*
X983Y2D01*
X0Y1D02*
X983Y1D01*
D02*
G04 End of Silk1*
M02*