G04 MADE WITH FRITZING*
G04 WWW.FRITZING.ORG*
G04 DOUBLE SIDED*
G04 HOLES PLATED*
G04 CONTOUR ON CENTER OF CONTOUR VECTOR*
%ASAXBY*%
%FSLAX23Y23*%
%MOIN*%
%OFA0B0*%
%SFA1.0B1.0*%
%ADD10C,0.071181*%
%ADD11C,0.075000*%
%ADD12R,0.075000X0.075000*%
%ADD13C,0.024000*%
%LNCOPPER0*%
G90*
G70*
G54D10*
X495Y95D03*
X495Y882D03*
X495Y95D03*
X495Y882D03*
X495Y95D03*
X495Y882D03*
G54D11*
X375Y245D03*
X631Y245D03*
X375Y68D03*
X631Y68D03*
X744Y357D03*
X744Y613D03*
X921Y357D03*
X921Y613D03*
X375Y908D03*
X631Y908D03*
X375Y731D03*
X631Y731D03*
X77Y357D03*
X77Y613D03*
X254Y357D03*
X254Y613D03*
X351Y639D03*
X651Y639D03*
X351Y539D03*
X651Y539D03*
X351Y439D03*
X651Y439D03*
X351Y339D03*
X651Y339D03*
G54D12*
X351Y639D03*
G54D13*
X495Y339D02*
X380Y339D01*
D02*
X495Y131D02*
X495Y339D01*
D02*
X495Y639D02*
X495Y845D01*
D02*
X622Y639D02*
X495Y639D01*
D02*
X744Y165D02*
X744Y328D01*
D02*
X495Y165D02*
X744Y165D01*
D02*
X495Y131D02*
X495Y165D01*
D02*
X323Y344D02*
X282Y351D01*
D02*
X433Y350D02*
X433Y731D01*
D02*
X433Y731D02*
X403Y731D01*
D02*
X379Y343D02*
X433Y350D01*
D02*
X358Y311D02*
X368Y273D01*
D02*
X680Y539D02*
X921Y539D01*
D02*
X921Y539D02*
X921Y584D01*
D02*
X631Y115D02*
X631Y96D01*
D02*
X856Y115D02*
X631Y115D01*
D02*
X856Y439D02*
X856Y115D01*
D02*
X680Y439D02*
X856Y439D01*
D02*
X322Y439D02*
X77Y439D01*
D02*
X77Y439D02*
X77Y385D01*
D02*
X137Y838D02*
X375Y838D01*
D02*
X375Y838D02*
X375Y880D01*
D02*
X137Y539D02*
X137Y838D01*
D02*
X322Y539D02*
X137Y539D01*
G04 End of Copper0*
M02*