G04 MADE WITH FRITZING*
G04 WWW.FRITZING.ORG*
G04 DOUBLE SIDED*
G04 HOLES PLATED*
G04 CONTOUR ON CENTER OF CONTOUR VECTOR*
%ASAXBY*%
%FSLAX23Y23*%
%MOIN*%
%OFA0B0*%
%SFA1.0B1.0*%
%ADD10C,0.071181*%
%ADD11C,0.075000*%
%ADD12R,0.040236X0.067069*%
%ADD13R,0.040222X0.067069*%
%ADD14R,0.040236X0.067083*%
%ADD15R,0.040222X0.067056*%
%ADD16R,0.075000X0.075000*%
%ADD17C,0.024000*%
%ADD18C,0.008000*%
%ADD19C,0.012000*%
%LNCOPPER1*%
G90*
G70*
G54D10*
X495Y95D03*
X495Y882D03*
X495Y95D03*
X495Y882D03*
X495Y95D03*
X495Y882D03*
G54D11*
X77Y357D03*
X77Y613D03*
X254Y357D03*
X254Y613D03*
X375Y908D03*
X631Y908D03*
X375Y731D03*
X631Y731D03*
X351Y639D03*
X651Y639D03*
X351Y539D03*
X651Y539D03*
X351Y439D03*
X651Y439D03*
X351Y339D03*
X651Y339D03*
X744Y357D03*
X744Y613D03*
X921Y357D03*
X921Y613D03*
X375Y245D03*
X631Y245D03*
X375Y68D03*
X631Y68D03*
G54D12*
X776Y902D03*
G54D13*
X906Y902D03*
G54D14*
X776Y709D03*
G54D15*
X906Y709D03*
G54D12*
X84Y272D03*
G54D13*
X214Y272D03*
G54D14*
X84Y80D03*
G54D15*
X214Y80D03*
G54D12*
X91Y898D03*
G54D13*
X221Y898D03*
G54D14*
X91Y706D03*
G54D15*
X221Y706D03*
G54D12*
X775Y262D03*
G54D13*
X905Y262D03*
G54D14*
X775Y70D03*
G54D15*
X905Y70D03*
G54D16*
X351Y639D03*
G54D17*
X760Y271D02*
X675Y324D01*
G54D18*
D02*
X905Y13D02*
X905Y42D01*
D02*
X23Y13D02*
X905Y13D01*
D02*
X23Y272D02*
X23Y13D01*
D02*
X69Y272D02*
X23Y272D01*
G54D19*
D02*
X154Y899D02*
X154Y80D01*
D02*
X105Y899D02*
X154Y899D01*
D02*
X154Y80D02*
X199Y80D01*
D02*
X776Y930D02*
X776Y963D01*
D02*
X176Y705D02*
X206Y705D01*
D02*
X176Y963D02*
X176Y705D01*
D02*
X776Y963D02*
X176Y963D01*
G54D17*
D02*
X242Y331D02*
X227Y300D01*
D02*
X890Y271D02*
X769Y342D01*
D02*
X355Y752D02*
X235Y883D01*
D02*
X840Y357D02*
X840Y902D01*
D02*
X773Y357D02*
X840Y357D01*
D02*
X840Y902D02*
X891Y902D01*
D02*
X676Y653D02*
X761Y701D01*
D02*
X775Y139D02*
X775Y98D01*
D02*
X567Y139D02*
X775Y139D01*
D02*
X567Y639D02*
X567Y139D01*
D02*
X622Y639D02*
X567Y639D01*
G54D19*
D02*
X132Y80D02*
X132Y705D01*
D02*
X132Y705D02*
X105Y705D01*
D02*
X98Y80D02*
X132Y80D01*
G54D18*
D02*
X493Y180D02*
X276Y180D01*
D02*
X276Y180D02*
X276Y32D01*
D02*
X628Y639D02*
X493Y639D01*
D02*
X84Y32D02*
X84Y52D01*
D02*
X493Y639D02*
X493Y180D01*
D02*
X276Y32D02*
X84Y32D01*
G04 End of Copper1*
M02*