G04 MADE WITH FRITZING*
G04 WWW.FRITZING.ORG*
G04 DOUBLE SIDED*
G04 HOLES PLATED*
G04 CONTOUR ON CENTER OF CONTOUR VECTOR*
%ASAXBY*%
%FSLAX23Y23*%
%MOIN*%
%OFA0B0*%
%SFA1.0B1.0*%
%ADD10C,0.081181*%
%ADD11C,0.085000*%
%ADD12R,0.050236X0.077069*%
%ADD13R,0.050222X0.077069*%
%ADD14R,0.050236X0.077083*%
%ADD15R,0.050222X0.077056*%
%ADD16R,0.085000X0.085000*%
%LNMASK1*%
G90*
G70*
G54D10*
X495Y95D03*
X495Y882D03*
X495Y95D03*
X495Y882D03*
X495Y95D03*
X495Y882D03*
G54D11*
X77Y357D03*
X77Y613D03*
X254Y357D03*
X254Y613D03*
X375Y908D03*
X631Y908D03*
X375Y731D03*
X631Y731D03*
X351Y639D03*
X651Y639D03*
X351Y539D03*
X651Y539D03*
X351Y439D03*
X651Y439D03*
X351Y339D03*
X651Y339D03*
X744Y357D03*
X744Y613D03*
X921Y357D03*
X921Y613D03*
X375Y245D03*
X631Y245D03*
X375Y68D03*
X631Y68D03*
G54D12*
X776Y902D03*
G54D13*
X906Y902D03*
G54D14*
X776Y709D03*
G54D15*
X906Y709D03*
G54D12*
X84Y272D03*
G54D13*
X214Y272D03*
G54D14*
X84Y80D03*
G54D15*
X214Y80D03*
G54D12*
X91Y898D03*
G54D13*
X221Y898D03*
G54D14*
X91Y706D03*
G54D15*
X221Y706D03*
G54D12*
X775Y262D03*
G54D13*
X905Y262D03*
G54D14*
X775Y70D03*
G54D15*
X905Y70D03*
G54D16*
X351Y639D03*
G04 End of Mask1*
M02*