; NON-PLATED HOLES START AT T1
; THROUGH (PLATED) HOLES START AT T100
M48
INCH
T100C0.035000
T101C0.051181
%
T100
X007440Y006125
X000770Y003566
X003508Y004388
X003747Y000678
X006508Y005388
X006306Y000678
X002541Y003566
X003747Y009084
X006306Y009084
X007440Y003566
X003508Y006388
X003508Y003388
X006508Y004388
X009211Y006125
X003747Y002450
X006306Y002450
X003747Y007312
X003508Y005388
X006306Y007312
X006508Y006388
X000770Y006125
X006508Y003388
X002541Y006125
X009211Y003566
T101
X004951Y000946
X004951Y008820
T00
M30
